<svg width="110" height="93" viewBox="0 0 110 93" fill="none" xmlns="http://www.w3.org/2000/svg">
<path d="M14.4297 40.3858C14.8701 41.4697 15.2766 42.6383 15.6492 43.8916C16.0556 45.1449 16.3266 46.3982 16.4621 47.6515C16.6315 48.8709 16.6315 50.0564 16.4621 51.2081C16.3266 52.3598 15.9371 53.359 15.2935 54.2058C15.0225 54.5446 14.7007 54.6801 14.3281 54.6123C14.1926 54.5784 14.0741 54.4938 13.9725 54.3583C13.8708 54.2228 13.7354 54.1042 13.566 54.0026C13.4305 53.901 13.2781 53.8163 13.1087 53.7486C12.9732 53.6808 12.8377 53.5453 12.7022 53.3421C12.1941 53.5114 11.6861 53.7655 11.178 54.1042C10.7038 54.4091 10.2126 54.7309 9.70451 55.0696C9.19642 55.4083 8.67139 55.747 8.12943 56.0858C7.58747 56.3906 7.02857 56.6108 6.45274 56.7463C5.84303 56.9156 5.38575 56.8987 5.08089 56.6955C4.80991 56.4584 4.50506 56.2043 4.16633 55.9333C3.92922 55.7301 3.7768 55.6116 3.70905 55.5777C3.64131 55.5099 3.57356 55.2898 3.50582 54.9172C3.4042 54.172 3.38726 53.376 3.45501 52.5291C3.55663 51.6485 3.75986 50.7678 4.06472 49.8871C4.91153 47.3128 6.63904 45.5853 9.24723 44.7046C9.55208 44.6029 9.85694 44.586 10.1618 44.6538C10.5005 44.6876 10.8223 44.7723 11.1272 44.9078C11.432 45.0433 11.7199 45.2127 11.9909 45.4159C12.2958 45.6191 12.5667 45.8224 12.8039 46.0256L13.6168 46.6861C13.7862 46.1103 13.7692 45.5006 13.566 44.857C13.3966 44.1795 13.1256 43.5529 12.753 42.9771C12.3804 42.3674 11.957 41.8254 11.4828 41.3512C11.0086 40.877 10.5513 40.5552 10.111 40.3858C8.38348 40.3858 6.82533 40.7923 5.43656 41.6052C4.08165 42.3843 2.76062 43.4174 1.47346 44.7046C1.40571 44.7723 1.32103 44.8231 1.21941 44.857C1.15167 44.8909 1.08392 44.9247 1.01618 44.9586C0.914561 45.0264 0.796007 45.0433 0.660516 45.0094C0.558898 44.9755 0.541962 44.8739 0.609707 44.7046C0.812943 43.6206 1.21941 42.6553 1.82912 41.8085C2.43883 40.9278 3.15015 40.1656 3.9631 39.5221C4.77604 38.8785 5.63979 38.3365 6.55435 37.8962C7.46891 37.4558 8.36654 37.134 9.24723 36.9308C9.38272 36.8631 9.50127 36.8292 9.60289 36.8292C9.73838 36.7953 9.89081 36.7784 10.0602 36.7784C10.2973 36.7784 10.5175 36.8461 10.7207 36.9816C10.9239 37.1171 11.161 37.2695 11.432 37.4389C11.7707 37.6082 12.1095 37.8115 12.4482 38.0486C12.7869 38.2518 13.0918 38.5059 13.3628 38.8107C13.5999 39.0817 13.8031 39.3527 13.9725 39.6237C14.1418 39.8947 14.2942 40.1487 14.4297 40.3858ZM12.7022 49.4298C12.499 48.9895 12.1772 48.583 11.7369 48.2104C11.3304 47.8378 10.8562 47.5668 10.3142 47.3974C9.77225 47.1942 9.17948 47.1434 8.5359 47.245C7.9262 47.3466 7.29955 47.6515 6.65597 48.1596C6.45274 48.5999 6.2495 49.0911 6.04626 49.633C5.84303 50.1411 5.6906 50.6661 5.58898 51.2081C5.48737 51.7162 5.43656 52.2412 5.43656 52.7832C5.47043 53.2913 5.58898 53.7655 5.79222 54.2058C7.07938 53.7655 8.33267 53.2574 9.55208 52.6816C10.7715 52.1057 11.8215 51.5976 12.7022 51.1573C12.9055 50.9541 13.024 50.7847 13.0579 50.6492C13.0918 50.5137 13.0748 50.3952 13.0071 50.2935C12.9732 50.1919 12.9055 50.0734 12.8039 49.9379C12.7361 49.8024 12.7022 49.633 12.7022 49.4298Z" fill="#FD1E1F"/>
<path d="M29.4858 65.4761C30.0617 64.9003 30.6375 64.2906 31.2133 63.647C31.8231 62.9696 32.4497 62.326 33.0933 61.7163C33.7369 61.1066 34.3974 60.5646 35.0748 60.0904C35.7523 59.5823 36.4636 59.1758 37.2088 58.871C37.3782 58.8032 37.5306 58.7863 37.6661 58.8202C37.8354 58.854 38.0048 58.8371 38.1742 58.7694C38.4452 58.7694 38.6823 58.7694 38.8855 58.7694C39.0887 58.7694 39.275 58.8371 39.4444 58.9726C39.9186 59.2775 40.2912 59.7178 40.5622 60.2936C40.867 60.8356 41.1211 61.4453 41.3243 62.1228C41.4598 62.4954 41.5276 62.851 41.5276 63.1897C41.5614 63.5285 41.6631 63.918 41.8324 64.3583C42.0357 65.0019 42.2558 65.6624 42.4929 66.3399C42.7639 66.9835 42.8655 67.6101 42.7978 68.2198C42.7639 68.3892 42.7131 68.5416 42.6454 68.6771C42.5776 68.7787 42.4929 68.9142 42.3913 69.0836C42.3236 69.2191 42.205 69.3884 42.0357 69.5917C41.8663 69.7949 41.6969 69.9473 41.5276 70.049C41.3582 70.1844 41.2396 70.303 41.1719 70.4046C41.138 70.4724 40.9856 70.557 40.7146 70.6587C40.2743 70.0151 39.9356 69.3207 39.6984 68.5755C39.4613 67.8303 39.2581 67.0512 39.0887 66.2383C38.9194 65.4253 38.7669 64.5955 38.6315 63.7486C38.496 62.9018 38.3266 62.0381 38.1234 61.1574C38.0556 60.9203 37.8354 60.7848 37.4628 60.7509C37.1241 60.717 36.7177 60.8356 36.2434 61.1066C35.8031 61.3437 35.3289 61.7332 34.8208 62.2752C34.3127 62.8171 33.8554 63.5115 33.4489 64.3583C33.178 64.9681 32.9239 65.6116 32.6868 66.2891C32.4497 66.9327 32.1787 67.5932 31.8739 68.2706C31.6029 68.9142 31.2642 69.5578 30.8577 70.2014C30.4851 70.8111 30.0278 71.37 29.4858 71.8781C29.3165 72.0474 29.1979 72.0644 29.1302 71.9289C29.0624 71.7934 28.8931 71.6748 28.6221 71.5732C28.4189 71.5055 28.3003 71.4377 28.2664 71.37C28.2664 71.3022 28.2156 71.099 28.114 70.7603C27.9108 70.049 27.6906 69.236 27.4535 68.3214C27.2503 67.4069 27.0131 66.4415 26.7422 65.4253C26.5051 64.4092 26.251 63.393 25.98 62.3768C25.709 61.3267 25.4381 60.3444 25.1671 59.4299L24.8622 58.5153C24.93 58.3798 25.0485 58.2613 25.2179 58.1597C25.4211 58.058 25.6244 57.9734 25.8276 57.9056C26.0308 57.8379 26.251 57.8548 26.4881 57.9564C26.7252 58.058 26.9115 58.1088 27.047 58.1088C27.4196 58.1088 27.7414 58.346 28.0124 58.8202C28.3172 59.2944 28.5713 59.9041 28.7745 60.6493C28.9778 61.3606 29.1302 62.1566 29.2318 63.0373C29.3673 63.8841 29.452 64.6971 29.4858 65.4761Z" fill="#FD1E1F"/>
<path d="M72.8177 38.9632C72.8177 39.268 72.8685 39.6575 72.9701 40.1318C73.0717 40.5721 73.0378 40.9278 72.8685 41.1987C72.8007 41.2665 72.7669 41.402 72.7669 41.6052C72.7669 41.7746 72.716 41.8931 72.6144 41.9609L71.9539 41.5544C71.4119 41.2834 70.8022 41.1649 70.1248 41.1987C69.4812 41.2326 68.8207 41.385 68.1432 41.656C67.669 41.8593 67.1948 42.1472 66.7206 42.5198C66.2802 42.8585 65.8568 43.248 65.4504 43.6884C65.0439 44.1287 64.6713 44.586 64.3326 45.0602C63.9938 45.5344 63.7059 45.9917 63.4688 46.4321C62.9269 47.4144 62.6559 48.5999 62.6559 49.9887C62.6897 51.3775 63.1978 53.1727 64.1801 55.3744C64.1801 55.6116 64.0108 55.8995 63.672 56.2382C63.6043 56.3059 63.5196 56.4076 63.418 56.543C63.3164 56.6785 63.2317 56.7802 63.164 56.8479C62.893 57.085 62.7236 57.2882 62.6559 57.4576C62.622 57.627 62.5204 57.7455 62.351 57.8133C62.08 57.9149 61.826 57.6778 61.5889 57.1019C61.013 56.0858 60.4542 54.8494 59.9122 53.3929C59.4041 51.9025 58.9129 50.3782 58.4387 48.8201C57.9984 47.2619 57.5919 45.7716 57.2193 44.3489C56.8806 42.8924 56.6096 41.673 56.4064 40.6907C56.3048 40.4197 56.2878 40.1656 56.3556 39.9285C56.4233 39.6575 56.5249 39.4374 56.6604 39.268C56.762 39.1325 56.8806 39.0986 57.0161 39.1664C57.1854 39.2341 57.3209 39.268 57.4225 39.268C57.8629 39.268 58.1339 39.3527 58.2355 39.5221C58.3371 39.6914 58.5065 39.9116 58.7436 40.1826C59.2178 40.7245 59.5904 41.4528 59.8614 42.3674C60.1324 43.2819 60.4711 44.3658 60.8776 45.6191C61.4195 44.7046 62.1139 43.8239 62.9607 42.9771C63.8414 42.1302 64.7898 41.3681 65.806 40.6907C66.8222 39.9793 67.8723 39.4035 68.9562 38.9632C70.0401 38.5228 71.0902 38.2518 72.1063 38.1502C72.3096 38.1163 72.4789 38.1841 72.6144 38.3534C72.7838 38.4889 72.8515 38.6922 72.8177 38.9632Z" fill="#FD1E1F"/>
<path d="M105.16 57.3975C105.601 58.4814 106.007 59.6501 106.38 60.9033C106.786 62.1566 107.057 63.4099 107.193 64.6632C107.362 65.8826 107.362 67.0682 107.193 68.2198C107.057 69.3715 106.668 70.3707 106.024 71.2176C105.753 71.5563 105.431 71.6918 105.059 71.624C104.923 71.5902 104.805 71.5055 104.703 71.37C104.601 71.2345 104.466 71.1159 104.296 71.0143C104.161 70.9127 104.009 70.828 103.839 70.7603C103.704 70.6925 103.568 70.557 103.433 70.3538C102.925 70.5232 102.417 70.7772 101.908 71.1159C101.434 71.4208 100.943 71.7426 100.435 72.0813C99.9269 72.42 99.4019 72.7588 98.8599 73.0975C98.3179 73.4023 97.759 73.6225 97.1832 73.758C96.5735 73.9274 96.1162 73.9104 95.8114 73.7072C95.5404 73.4701 95.2355 73.216 94.8968 72.9451C94.6597 72.7418 94.5073 72.6233 94.4395 72.5894C94.3718 72.5217 94.304 72.3015 94.2363 71.9289C94.1347 71.1837 94.1177 70.3877 94.1855 69.5409C94.2871 68.6602 94.4903 67.7795 94.7952 66.8988C95.642 64.3245 97.3695 62.597 99.9777 61.7163C100.283 61.6147 100.587 61.5977 100.892 61.6655C101.231 61.6993 101.553 61.784 101.858 61.9195C102.162 62.055 102.45 62.2244 102.721 62.4276C103.026 62.6308 103.297 62.8341 103.534 63.0373L104.347 63.6978C104.517 63.122 104.5 62.5123 104.296 61.8687C104.127 61.1913 103.856 60.5646 103.484 59.9888C103.111 59.3791 102.688 58.8371 102.213 58.3629C101.739 57.8887 101.282 57.5669 100.841 57.3975C99.1139 57.3975 97.5558 57.804 96.167 58.6169C94.8121 59.396 93.4911 60.4291 92.2039 61.7163C92.1362 61.784 92.0515 61.8348 91.9499 61.8687C91.8821 61.9026 91.8144 61.9365 91.7466 61.9703C91.645 62.0381 91.5265 62.055 91.391 62.0211C91.2894 61.9873 91.2724 61.8856 91.3402 61.7163C91.5434 60.6324 91.9499 59.667 92.5596 58.8202C93.1693 57.9395 93.8806 57.1774 94.6936 56.5338C95.5065 55.8902 96.3703 55.3482 97.2848 54.9079C98.1994 54.4675 99.097 54.1458 99.9777 53.9425C100.113 53.8748 100.232 53.8409 100.333 53.8409C100.469 53.807 100.621 53.7901 100.791 53.7901C101.028 53.7901 101.248 53.8578 101.451 53.9933C101.654 54.1288 101.891 54.2812 102.162 54.4506C102.501 54.62 102.84 54.8232 103.179 55.0603C103.517 55.2635 103.822 55.5176 104.093 55.8224C104.33 56.0934 104.534 56.3644 104.703 56.6354C104.872 56.9064 105.025 57.1604 105.16 57.3975ZM103.433 66.4415C103.229 66.0012 102.908 65.5947 102.467 65.2221C102.061 64.8495 101.587 64.5785 101.045 64.4092C100.503 64.2059 99.91 64.1551 99.2664 64.2567C98.6567 64.3583 98.03 64.6632 97.3864 65.1713C97.1832 65.6116 96.98 66.1028 96.7767 66.6448C96.5735 67.1528 96.4211 67.6779 96.3195 68.2198C96.2178 68.7279 96.167 69.2529 96.167 69.7949C96.2009 70.303 96.3195 70.7772 96.5227 71.2176C97.8098 70.7772 99.0631 70.2691 100.283 69.6933C101.502 69.1175 102.552 68.6094 103.433 68.169C103.636 67.9658 103.754 67.7964 103.788 67.6609C103.822 67.5254 103.805 67.4069 103.738 67.3053C103.704 67.2036 103.636 67.0851 103.534 66.9496C103.467 66.8141 103.433 66.6448 103.433 66.4415Z" fill="#FD1E1F"/>
<path d="M41.6095 10.4176C41.6095 12.5854 41.8127 14.6178 42.2192 16.5146C42.6257 18.3776 42.9644 20.2914 43.2354 22.256C43.5063 24.2545 43.6926 26.2361 43.7943 28.2007C43.8959 30.1314 44.0314 31.9267 44.2007 33.5864C44.0991 33.7897 44.0483 34.0268 44.0483 34.2978C44.0822 34.5687 44.0144 34.7889 43.8451 34.9583C43.337 35.4325 42.7611 35.8898 42.1176 36.3301C41.474 36.7705 40.7627 37.1769 39.9836 37.5495C39.7126 37.685 39.4416 37.7528 39.1707 37.7528C38.8997 37.7189 38.6287 37.7358 38.3577 37.8036C38.0529 37.8713 37.7311 37.956 37.3923 38.0576C37.0875 38.1592 36.7657 38.1762 36.427 38.1084C36.0544 38.0068 35.614 37.8544 35.1059 37.6512C34.5978 37.414 34.0898 37.1431 33.5817 36.8382C33.0736 36.5334 32.5994 36.1946 32.159 35.822C31.7525 35.4494 31.4477 35.043 31.2445 34.6026C30.8719 32.6719 30.9396 30.9274 31.4477 29.3693C31.9897 27.8112 32.7857 26.4054 33.8357 25.1522C33.9712 24.9828 34.1406 24.8642 34.3438 24.7965C34.547 24.6949 34.7333 24.5763 34.9027 24.4408C35.0721 24.3053 35.2584 24.2037 35.4616 24.136C35.6648 24.0344 35.9019 24.0005 36.1729 24.0344C36.8504 24.1021 37.5956 24.2715 38.4085 24.5424C39.2215 24.7796 39.8481 24.932 40.2884 24.9997V24.2376C40.2884 23.3569 40.2207 22.4762 40.0852 21.5955C39.9836 20.681 39.882 19.7664 39.7804 18.8518C39.6787 17.9373 39.5941 17.0058 39.5263 16.0574C39.4924 15.075 39.5432 14.0758 39.6787 13.0596C39.7126 12.7886 39.7804 12.5177 39.882 12.2467C39.9836 11.9757 40.0683 11.7047 40.136 11.4337C40.2038 11.2644 40.3054 11.0781 40.4409 10.8748C40.5764 10.6377 40.7288 10.4853 40.8982 10.4176C41.0675 10.3498 41.1691 10.2482 41.203 10.1127C41.2369 9.94335 41.3216 9.8756 41.4571 9.90947C41.5925 9.94334 41.6434 9.99415 41.6095 10.0619C41.6095 10.1296 41.6095 10.2482 41.6095 10.4176ZM41.3046 34.0945C41.3385 33.7219 41.3385 33.1969 41.3046 32.5195C41.3046 31.8081 41.203 31.0799 40.9998 30.3347C40.7965 29.5895 40.4578 28.8781 39.9836 28.2007C39.5432 27.5232 38.9166 27.0151 38.1037 26.6764C37.7311 26.7103 37.2907 26.778 36.7826 26.8797C36.3084 26.9474 35.8342 27.0829 35.36 27.2861C34.8858 27.4894 34.4454 27.7773 34.0389 28.1499C33.6325 28.4886 33.3107 28.929 33.0736 29.4709C32.8703 30.0806 32.8703 30.8766 33.0736 31.8589C33.2768 32.8074 33.8188 33.7219 34.6995 34.6026C35.2076 34.9075 35.7495 35.0938 36.3253 35.1615C36.9012 35.1954 37.477 35.1785 38.0529 35.1107C38.6626 35.043 39.2384 34.9075 39.7804 34.7042C40.3562 34.501 40.8643 34.2978 41.3046 34.0945Z" fill="#FD1E1F"/>
<path d="M96.8524 26.9663C97.0895 27.2034 97.3097 27.4743 97.5129 27.7792C97.7162 28.0502 97.8855 28.3381 98.021 28.6429C98.292 29.2865 98.4275 29.9301 98.4275 30.5737C98.4614 31.1834 98.2243 31.9286 97.7162 32.8093C97.1403 33.7577 96.3951 34.5537 95.4806 35.1973C94.5999 35.8409 93.6345 36.2474 92.5845 36.4167C91.8393 36.5522 91.0941 36.5522 90.3489 36.4167C89.6037 36.2474 88.8923 35.9086 88.2149 35.4005C88.0117 35.5699 87.8423 35.8239 87.7068 36.1627C87.6052 36.4675 87.5713 36.7554 87.6052 37.0264C87.6729 37.5006 87.8423 38.0257 88.1133 38.6015C88.4181 39.1435 88.7399 39.5161 89.0786 39.7193C89.6545 39.9564 90.4505 39.9733 91.4667 39.7701C92.5167 39.5669 93.6176 39.262 94.7692 38.8555C95.9548 38.4152 97.1065 37.941 98.2243 37.4329C99.3759 36.8909 100.358 36.4337 101.171 36.0611C101.171 36.2643 101.12 36.3998 101.019 36.4675C100.951 36.5353 100.849 36.6538 100.714 36.8232C100.545 36.9926 100.358 37.1958 100.155 37.4329C99.9518 37.67 99.7147 37.8732 99.4437 38.0426C99.1049 38.2458 98.8509 38.5168 98.6815 38.8555C98.5122 39.1604 98.1904 39.4483 97.7162 39.7193C97.0726 40.058 96.4121 40.4137 95.7346 40.7863C95.091 41.125 94.4475 41.4468 93.8039 41.7517C93.1603 42.0226 92.4998 42.2428 91.8223 42.4122C91.1787 42.5477 90.5352 42.5815 89.8916 42.5138C89.4512 42.446 89.0786 42.3275 88.7738 42.1581C88.5028 41.9888 88.1641 41.7347 87.7576 41.396C87.5544 41.2266 87.3173 41.0573 87.0463 40.8879C86.7753 40.7185 86.5721 40.5492 86.4366 40.3798C85.8607 39.533 85.4712 38.6354 85.268 37.6869C85.0647 36.7046 85.0139 35.7393 85.1155 34.7908C85.251 33.8085 85.5051 32.8601 85.8777 31.9455C86.2503 30.9971 86.7414 30.1333 87.3511 29.3543C87.6899 28.9139 88.0963 28.4736 88.5706 28.0332C89.0786 27.559 89.6206 27.1526 90.1964 26.8138C90.8062 26.4412 91.4328 26.1533 92.0764 25.9501C92.7538 25.7468 93.4313 25.6622 94.1087 25.696C94.3797 25.7299 94.6168 25.8146 94.8201 25.9501C95.0572 26.0517 95.3112 26.1702 95.5822 26.3057C95.7516 26.3735 95.9548 26.4751 96.1919 26.6106C96.4629 26.7122 96.6831 26.8308 96.8524 26.9663ZM95.379 29.964C95.3112 29.6591 95.1249 29.3881 94.8201 29.151C94.5152 28.9139 94.1765 28.7276 93.8039 28.5921C93.4313 28.4228 93.0587 28.3212 92.6861 28.2873C92.3135 28.2534 92.0425 28.2704 91.8731 28.3381C91.6022 28.4397 91.2804 28.626 90.9078 28.897C90.569 29.1341 90.2303 29.422 89.8916 29.7607C89.5867 30.0995 89.2819 30.4721 88.977 30.8785C88.706 31.2511 88.5028 31.6068 88.3673 31.9455C88.2996 32.0471 88.2318 32.2165 88.1641 32.4536C88.1302 32.6569 88.1471 32.8093 88.2149 32.9109C88.6214 33.419 89.2311 33.673 90.044 33.673C90.8231 33.673 91.653 33.4867 92.5337 33.1141C93.4482 32.7415 94.0918 32.352 94.4644 31.9455C94.4983 31.8778 94.566 31.7592 94.6676 31.5899C94.8031 31.4205 94.9217 31.2342 95.0233 31.031C95.1249 30.8277 95.2096 30.6245 95.2773 30.4213C95.379 30.218 95.4128 30.0656 95.379 29.964Z" fill="#FD1E1F"/>
</svg>
