<svg width="62" height="10" viewBox="0 0 62 10" fill="none" xmlns="http://www.w3.org/2000/svg">
<path d="M35.9441 5.16416C35.9551 5.16416 35.9665 5.16356 35.9774 5.16356C35.9811 5.16356 35.9847 5.16356 35.9884 5.16356C35.9738 5.16356 35.9588 5.16358 35.9441 5.16416ZM35.9116 5.16472C35.9222 5.16415 35.9332 5.16416 35.9441 5.16416C35.9332 5.16416 35.9226 5.16415 35.9116 5.16472ZM35.8652 5.16528C35.8706 5.16528 35.8761 5.16528 35.8816 5.16528C35.8929 5.16528 35.9047 5.16472 35.916 5.16472C35.8992 5.16472 35.8823 5.16528 35.8652 5.16528ZM2.44471 2.81782C2.42496 2.81782 2.40521 2.81843 2.38546 2.81958C2.40485 2.81843 2.42459 2.81782 2.44471 2.81782ZM45.139 4.1706C45.1178 4.17117 45.0963 4.17118 45.0747 4.17176C45.0963 4.17118 45.1175 4.1706 45.139 4.1706ZM61.9091 5.52738C61.8187 5.73864 61.6651 5.85261 61.5251 5.96543C61.4647 6.01436 61.4022 6.061 61.34 6.10302C61.3042 6.1272 61.2687 6.15136 61.2332 6.17554C61.1952 6.28721 61.133 6.37931 61.0562 6.44091C60.8192 6.62856 60.5504 6.72183 60.2962 6.83754C60.2714 6.84905 60.2465 6.85998 60.2216 6.87091C60.2147 6.87667 60.2077 6.88187 60.2004 6.88648C60.038 7.03039 59.857 7.12592 59.6829 7.23241C59.5059 7.34063 59.3286 7.44887 59.1508 7.55709C58.8586 7.73554 58.5657 7.91169 58.2727 8.08726C58.0346 8.26744 57.7966 8.44703 57.5577 8.62433C57.2235 8.873 56.8834 9.10614 56.5407 9.32431C56.3596 9.43886 56.1786 9.55225 55.9976 9.66335C55.9149 9.71343 55.8319 9.76296 55.7493 9.80958C55.6842 9.84585 55.6198 9.87978 55.554 9.90972C55.4267 9.96901 55.3067 10.0266 55.1733 9.98687C55.0873 9.97018 55.0094 9.92066 54.9403 9.83892C54.8737 9.75833 54.8233 9.65761 54.79 9.53673C54.7787 9.49586 54.7699 9.45441 54.7637 9.41239C54.7567 9.41642 54.7498 9.42042 54.7428 9.42388C54.4872 9.56836 54.2301 9.73934 53.9631 9.82511C53.7982 9.87865 53.6244 9.70824 53.5601 9.47338C53.5334 9.37495 53.5239 9.27249 53.5319 9.16599C53.5443 9.00078 53.5974 8.87759 53.6734 8.7688C53.7407 8.67382 53.8344 8.62604 53.917 8.5725C53.9741 8.53624 54.0315 8.50113 54.0889 8.46717C54.2034 8.39867 54.3189 8.33363 54.4349 8.27031C54.5135 8.22772 54.5921 8.18568 54.6708 8.14481C54.9451 7.98594 55.2193 7.82705 55.494 7.6699C56.0726 7.34006 56.6519 7.01426 57.2297 6.68326C57.7775 6.36954 58.3265 6.05294 58.8831 5.77778C58.9643 5.71619 59.0455 5.65461 59.1267 5.59417C59.1892 5.54754 59.2518 5.50089 59.3143 5.45426C59.2155 5.44275 59.1168 5.43126 59.0184 5.42032C58.8151 5.44393 58.6114 5.46233 58.4084 5.47499C58.0646 5.49629 57.7209 5.51758 57.3771 5.51125C56.7254 5.49974 56.0748 5.48077 55.4227 5.47731C55.1217 5.47558 54.8207 5.475 54.5197 5.47155C53.9338 5.50206 53.3472 5.52164 52.7606 5.52682C51.4418 5.53833 50.123 5.54867 48.8046 5.51125C47.4771 5.47211 46.1499 5.40478 44.8223 5.35757C43.4772 5.30922 42.1328 5.2482 40.7881 5.18661C40.2538 5.16243 39.7195 5.13998 39.1848 5.12214C38.7467 5.12502 38.3085 5.12905 37.87 5.13423C37.4257 5.13998 36.9813 5.1417 36.537 5.15091C36.5629 5.15034 36.5889 5.14975 36.6145 5.1486C36.4028 5.1532 36.1903 5.15725 35.9785 5.16128C35.958 5.16185 35.9376 5.16186 35.9171 5.16244C35.9218 5.16244 35.9266 5.16242 35.9313 5.16184C35.9153 5.16242 35.8992 5.16243 35.8827 5.163C35.8736 5.163 35.8641 5.16299 35.8545 5.16356C35.8586 5.16356 35.8622 5.16356 35.8663 5.16356C35.6252 5.16874 35.3842 5.17336 35.1432 5.17797C35.1688 5.17739 35.1941 5.1774 35.2189 5.17625C34.5595 5.18949 33.8998 5.20328 33.24 5.20098C32.5949 5.19868 31.9501 5.19639 31.3046 5.19754C29.9409 5.20157 28.5768 5.20043 27.2134 5.20158C26.5573 5.20158 25.9023 5.1964 25.2465 5.1987C24.5933 5.201 23.9398 5.20098 23.2866 5.1935C22.6188 5.18486 21.9503 5.16125 21.2821 5.13535C20.6085 5.10887 19.9352 5.08816 19.2619 5.06456C17.9296 5.0185 16.598 4.95806 15.2668 4.88611C14.1009 4.82221 12.9361 4.72552 11.7716 4.61846C10.7878 4.65184 9.80333 4.67084 8.81918 4.68753C8.13126 4.69962 7.44298 4.68984 6.75543 4.68293C6.09019 4.6766 5.42458 4.63513 4.7597 4.59829C4.02717 4.55799 3.295 4.49182 2.5643 4.41296C2.2037 4.37439 1.84274 4.33466 1.4825 4.29206C1.25759 4.265 1.03304 4.2385 0.80885 4.20742C0.719249 4.19476 0.630378 4.17979 0.541143 4.1654C0.520663 4.16195 0.500548 4.1591 0.480068 4.15507C0.423382 4.15449 0.368159 4.1378 0.314398 4.10557C0.221506 4.06527 0.139585 3.99157 0.085093 3.86033C0.042304 3.77283 0.0148748 3.67497 0.004269 3.56502C-0.00597112 3.45047 0.00207457 3.34053 0.0298692 3.23346C0.0821669 3.03256 0.203219 2.87887 0.340364 2.84951C0.544435 2.80692 0.755455 2.82588 0.961354 2.82531C1.13214 2.82531 1.3022 2.82361 1.47263 2.82246C1.80397 2.82073 2.13494 2.81899 2.46628 2.81554C3.07228 2.79942 3.67791 2.77238 4.28354 2.72517C4.9817 2.67049 5.67839 2.62616 6.37764 2.62328C7.02643 2.62098 7.67594 2.65147 8.32509 2.66759C9.01009 2.68371 9.69544 2.69408 10.3808 2.71193C11.0365 2.72805 11.6919 2.76603 12.3465 2.83051C12.9873 2.89325 13.6262 2.98534 14.2666 3.05902C14.9241 3.135 15.5824 3.1966 16.2411 3.22538C16.903 3.25531 17.5646 3.25474 18.2269 3.25243C18.871 3.25013 19.5146 3.25015 20.1583 3.26051C20.8213 3.27088 21.4847 3.31403 22.1471 3.3526C22.3127 3.36239 22.4784 3.37219 22.6441 3.38197C23.253 3.3624 23.8619 3.34455 24.4701 3.31634C25.1072 3.28641 25.7439 3.24726 26.3813 3.22654C27.3428 3.19373 28.3047 3.17187 29.2661 3.14482C29.2972 3.13791 29.3279 3.13733 29.3579 3.14194C29.7108 3.13215 30.0634 3.12121 30.416 3.10912C31.0892 3.08552 31.7625 3.06536 32.4354 3.04349C33.1022 3.02219 33.7681 2.9957 34.4345 2.98246C35.7408 2.95656 37.0472 2.9963 38.3535 3.01759C38.818 3.02508 39.2824 3.02794 39.7469 3.02564C39.8818 3.02219 40.0175 3.01874 40.1528 3.01644C40.1144 3.01701 40.0768 3.01816 40.0384 3.01816C40.5961 2.99628 41.1534 2.95312 41.7115 2.93816C41.7053 2.93816 41.6991 2.93814 41.6929 2.93872C41.7038 2.93872 41.7148 2.93816 41.7258 2.93816C41.7536 2.93758 41.781 2.93701 41.8084 2.93643C41.7931 2.93701 41.7781 2.93756 41.7631 2.93756C42.4294 2.92547 43.0947 2.94102 43.761 2.96289C44.0678 2.97325 44.3751 2.98248 44.6819 2.98594C44.9854 2.98939 45.2894 2.98594 45.5933 2.99054C46.904 3.00954 48.2133 3.10625 49.5203 3.26167C50.153 3.33593 50.7861 3.42398 51.4195 3.48731C52.0592 3.55063 52.701 3.58287 53.3417 3.61453C54.5863 3.67727 55.8305 3.77626 57.0746 3.86261C57.5673 3.89715 58.0591 3.94092 58.5507 3.99215C58.2427 3.78204 57.9308 3.58518 57.6206 3.38313C57.2476 3.14079 56.8742 2.90073 56.5015 2.65666C56.3147 2.53405 56.1281 2.41145 55.9394 2.29632C55.8561 2.24567 55.7727 2.19728 55.6886 2.15066C55.5781 2.08906 55.4519 2.06835 55.3477 1.98373C55.2811 1.94056 55.2259 1.87435 55.1817 1.78628C55.1374 1.69705 55.11 1.59632 55.099 1.48465C55.0954 1.44551 55.0939 1.40751 55.0946 1.36951C55.091 1.36548 55.087 1.3609 55.0833 1.35687C55.0186 1.27858 54.9692 1.18015 54.9366 1.06272C54.8898 0.892331 54.8792 0.660928 54.933 0.489963C54.9538 0.423188 54.9772 0.357537 55.0028 0.294791C55.0727 0.150306 55.1908 0.0236943 55.3089 0.00872823C55.3627 0.000668728 55.4172 -0.00222281 55.4717 0.00180646C55.5492 0.025408 55.6238 0.054188 55.7006 0.0858481C55.8381 0.142261 55.9724 0.212493 56.1069 0.285024C56.3414 0.411089 56.5736 0.548085 56.8044 0.688542C57.3112 0.998236 57.8134 1.32519 58.3148 1.65445C58.799 1.97278 59.288 2.27157 59.7773 2.56917C59.9978 2.7033 60.2183 2.83567 60.4381 2.97209C60.6755 3.11946 60.9187 3.26685 61.1418 3.46257C61.2365 3.52474 61.3155 3.61912 61.3791 3.74519C61.4665 3.92076 61.5101 4.14123 61.5024 4.36285C61.5338 4.36861 61.5653 4.37724 61.5964 4.3899C61.675 4.40487 61.7463 4.45034 61.8092 4.52517C61.8454 4.57237 61.8783 4.62533 61.9065 4.68405C61.954 4.77961 61.9837 4.88726 61.9954 5.00757C61.9998 5.05247 62.0009 5.09622 61.9994 5.13939C61.9935 5.27869 61.9606 5.40707 61.9091 5.52738Z" fill="#FD1E1F"/>
</svg>
