<svg width="56" height="48" viewBox="0 0 56 48" fill="none" xmlns="http://www.w3.org/2000/svg">
<path d="M33.1819 22.241C33.1912 22.2327 33.2001 22.2234 33.2093 22.2151C33.2124 22.2124 33.2155 22.2096 33.2186 22.2068C33.2062 22.2179 33.1936 22.2292 33.1819 22.241ZM33.1551 22.2663C33.1634 22.2576 33.1727 22.2493 33.1819 22.241C33.1727 22.2493 33.1637 22.2573 33.1551 22.2663ZM33.1166 22.3021C33.1212 22.2979 33.1259 22.2938 33.1305 22.2897C33.14 22.2811 33.1493 22.2715 33.1588 22.263C33.1447 22.2757 33.1311 22.2891 33.1166 22.3021ZM2.27053 44.5504C2.25388 44.5653 2.23793 44.581 2.22259 44.5974C2.23762 44.5813 2.25358 44.5656 2.27053 44.5504ZM39.801 14.0349C39.7838 14.0517 39.7656 14.068 39.7481 14.085C39.7656 14.068 39.7829 14.0512 39.801 14.0349ZM55.483 3.09843C55.6475 3.4353 55.6479 3.69621 55.6583 3.94546C55.6632 4.05325 55.6636 4.15978 55.659 4.26016C55.6564 4.31797 55.654 4.37548 55.6516 4.43302C55.7468 4.60376 55.7993 4.76783 55.8047 4.90415C55.8187 5.32175 55.6984 5.64332 55.6159 5.98237C55.6081 6.01579 55.5995 6.04847 55.591 6.08116C55.5917 6.09372 55.5918 6.10558 55.5909 6.11696C55.6179 6.42259 55.5742 6.68076 55.5487 6.94763C55.5228 7.21892 55.4966 7.49049 55.47 7.76232C55.427 8.20989 55.3807 8.6551 55.3338 9.09957C55.3383 9.50847 55.3422 9.91663 55.3428 10.3224C55.3443 10.8911 55.3232 11.4444 55.2829 11.9806C55.2607 12.2629 55.2373 12.5438 55.2113 12.8218C55.1986 12.9479 55.1851 13.0736 55.1685 13.1953C55.1549 13.2905 55.1393 13.3823 55.1179 13.4701C55.0782 13.6416 55.0427 13.8054 54.8849 13.8556C54.7935 13.8993 54.6714 13.8951 54.52 13.8434C54.3721 13.7911 54.2148 13.7012 54.0491 13.5725C53.993 13.5291 53.9383 13.483 53.8852 13.4343C53.884 13.4447 53.8827 13.455 53.8807 13.4646C53.8298 13.8414 53.8079 14.253 53.6805 14.5636C53.6025 14.7563 53.2619 14.6707 52.9401 14.4206C52.8055 14.3156 52.6808 14.1925 52.5663 14.051C52.3885 13.8315 52.2929 13.6348 52.2331 13.439C52.1816 13.2674 52.2061 13.1359 52.2148 13.0054C52.2216 12.9162 52.23 12.8282 52.2397 12.7417C52.2582 12.5681 52.2815 12.3982 52.3071 12.2301C52.3249 12.1165 52.3433 12.0037 52.363 11.8924C52.4132 11.4832 52.4635 11.0741 52.516 10.6668C52.628 9.81051 52.7451 8.95877 52.8552 8.10154C52.9596 7.28891 53.0617 6.47179 53.2175 5.70159C53.2158 5.56195 53.2141 5.42234 53.2137 5.28417C53.2133 5.17765 53.2128 5.07111 53.2124 4.96459C53.1161 5.0245 53.0198 5.08445 52.9244 5.14482C52.7799 5.32836 52.6291 5.50557 52.4724 5.67493C52.2069 5.96158 51.9414 6.24823 51.6444 6.49974C51.0819 6.97716 50.5118 7.44427 49.9582 7.93222C49.7025 8.15728 49.4482 8.38379 49.1905 8.60666C48.7314 9.08782 48.2592 9.55564 47.7706 10.0051C46.6721 11.0155 45.5722 12.0244 44.4182 12.9723C43.2545 13.9248 42.059 14.8413 40.8862 15.7836C39.6972 16.7377 38.4945 17.6752 37.2907 18.6122C36.8128 18.9849 36.3368 19.3597 35.8658 19.7408C35.4997 20.0752 35.135 20.4112 34.7713 20.7488C34.4033 21.0916 34.0306 21.4293 33.6666 21.7765C33.6878 21.7562 33.709 21.7359 33.7293 21.7151C33.556 21.8808 33.3815 22.0464 33.2076 22.2114C33.191 22.2276 33.1738 22.2431 33.1572 22.2592C33.1612 22.2557 33.1651 22.252 33.1685 22.2477C33.1556 22.2606 33.142 22.2728 33.1288 22.2859C33.1211 22.2928 33.1131 22.3 33.1057 22.3079C33.1091 22.3049 33.1122 22.3021 33.1156 22.2991C32.9183 22.4876 32.7204 22.6755 32.5225 22.8633C32.5434 22.8432 32.5647 22.8242 32.5844 22.8039C32.0436 23.3186 31.5032 23.8343 30.9444 24.3295C30.398 24.8137 29.8519 25.2976 29.309 25.7865C28.164 26.8213 27.0128 27.8498 25.8649 28.8807C25.3118 29.3761 24.7537 29.864 24.2036 30.3621C23.6556 30.8581 23.1047 31.3516 22.5456 31.8352C21.9728 32.3285 21.3824 32.8032 20.7896 33.2748C20.1916 33.7497 19.6005 34.2317 19.006 34.7101C17.8305 35.6574 16.6392 36.586 15.435 37.4996C14.3794 38.2986 13.2874 39.0551 12.1839 39.7982C11.3926 40.5834 10.5843 41.3509 9.77377 42.1152C9.20765 42.65 8.61632 43.1573 8.02887 43.6676C7.46089 44.1618 6.85257 44.6117 6.25014 45.0668C5.58675 45.5687 4.89418 46.0373 4.18839 46.4887C3.84049 46.7119 3.49095 46.934 3.13877 47.1518C2.91835 47.2872 2.69888 47.423 2.47449 47.5528C2.38453 47.6043 2.29257 47.6524 2.20096 47.7014C2.17976 47.7125 2.15956 47.7241 2.13771 47.7344C2.08927 47.7765 2.0237 47.797 1.94166 47.7966C1.81746 47.8154 1.66445 47.7836 1.46901 47.6578C1.33327 47.5788 1.19868 47.4751 1.0645 47.3433C0.925375 47.2053 0.806921 47.0594 0.708386 46.9023C0.523623 46.6073 0.450592 46.3204 0.532757 46.1795C0.656257 45.9713 0.855742 45.8361 1.02865 45.6799C1.17262 45.5509 1.31404 45.4204 1.45639 45.2902C1.73373 45.0379 2.01075 44.7858 2.28612 44.5312C2.77859 44.0531 3.2583 43.5615 3.71505 43.0442C4.24127 42.4475 4.77807 41.8651 5.36423 41.3335C5.9085 40.8407 6.49075 40.389 7.05632 39.9194C7.6521 39.4227 8.24164 38.9184 8.8397 38.4237C9.41081 37.9491 10.0065 37.5025 10.6318 37.0903C11.2434 36.6863 11.8869 36.321 12.5106 35.9312C13.1515 35.5313 13.7765 35.1126 14.3645 34.6519C14.9566 34.1902 15.5137 33.6899 16.0694 33.1869C16.6096 32.6977 17.1522 32.2118 17.7066 31.739C18.2773 31.2515 18.8857 30.8055 19.488 30.3545C19.6388 30.2418 19.7896 30.1292 19.9404 30.0166C20.4314 29.5319 20.9243 29.0494 21.4049 28.5544C21.9078 28.0353 22.4 27.5047 22.9137 26.9971C23.6868 26.2294 24.4727 25.4754 25.2524 24.715C25.2707 24.6828 25.2959 24.6588 25.3265 24.6421C25.6128 24.3631 25.8975 24.083 26.1809 23.8015C26.7216 23.2631 27.2662 22.7291 27.8085 22.1932C28.3463 21.6627 28.8775 21.1262 29.4241 20.6063C30.4958 19.587 31.6423 18.6512 32.7677 17.6919C33.1678 17.3508 33.5625 17.0037 33.9514 16.6501C34.0613 16.5438 34.1717 16.437 34.2832 16.3319C34.2514 16.3616 34.221 16.3915 34.1886 16.4205C34.6338 15.9716 35.0545 15.4959 35.5079 15.0555C35.5027 15.0601 35.4974 15.0648 35.4928 15.0703C35.5021 15.062 35.5107 15.053 35.5199 15.0447C35.5427 15.023 35.5652 15.0015 35.5876 14.9801C35.5753 14.9924 35.5633 15.0044 35.5507 15.0158C36.0986 14.4973 36.6771 14.0148 37.2637 13.5395C37.5342 13.321 37.8036 13.1008 38.0662 12.8735C38.326 12.6487 38.5783 12.4148 38.8397 12.1912C39.9662 11.2257 41.1801 10.3602 42.4589 9.57093C43.0769 9.18767 43.7108 8.82166 44.3169 8.42393C44.9282 8.02151 45.506 7.5779 46.0821 7.13438C47.2027 6.2745 48.3643 5.461 49.5114 4.63141C49.966 4.30339 50.4305 3.98765 50.9032 3.68169C50.4043 3.64698 49.9171 3.63217 49.4255 3.60936C48.835 3.58281 48.2468 3.55945 47.6546 3.53042C47.3574 3.5156 47.0605 3.50051 46.7703 3.49657C46.6423 3.49511 46.5169 3.49653 46.3929 3.50074C46.2296 3.5058 46.0997 3.57473 45.9154 3.54581C45.8101 3.54116 45.6882 3.49866 45.5505 3.42006C45.4116 3.34 45.2737 3.2326 45.1373 3.09886C45.0896 3.05184 45.0451 3.00463 45.0024 2.95576C44.9947 2.95339 44.9861 2.95059 44.9785 2.94823C44.8347 2.89754 44.681 2.80964 44.5198 2.68487C44.2862 2.50353 44.0137 2.21724 43.8642 1.95922C43.8058 1.85856 43.7507 1.7574 43.7008 1.65827C43.5951 1.42178 43.5504 1.17157 43.633 1.06334C43.6691 1.0125 43.7118 0.96768 43.7623 0.931661C43.8545 0.903137 43.9502 0.883409 44.051 0.865687C44.2312 0.833605 44.4243 0.821581 44.6204 0.812206C44.9616 0.795531 45.3134 0.794413 45.6679 0.798805C46.448 0.809946 47.2437 0.846621 48.0415 0.886791C48.8122 0.926031 49.5648 0.936834 50.3163 0.945856C50.6549 0.949922 50.9916 0.951757 51.3323 0.9593C51.7003 0.967504 52.0732 0.971327 52.4842 1.0518C52.6348 1.05934 52.8089 1.11973 53.0062 1.23201C53.2799 1.3893 53.5677 1.63683 53.8137 1.92448C53.8467 1.90805 53.8831 1.89528 53.9237 1.88792C54.007 1.84758 54.1189 1.85156 54.2572 1.89924C54.3415 1.93193 54.4296 1.97443 54.5202 2.02784C54.6691 2.11347 54.8167 2.22801 54.9636 2.37218C55.0185 2.42597 55.0693 2.48078 55.1172 2.53679C55.2709 2.71837 55.3894 2.90649 55.483 3.09843Z" fill="#FD1E1F"/>
</svg>
