<svg width="44" height="59" viewBox="0 0 44 59" fill="none" xmlns="http://www.w3.org/2000/svg">
<path d="M20.3644 24.0401C20.3569 24.0302 20.3484 24.0205 20.341 24.0106C20.3385 24.0073 20.336 24.004 20.3335 24.0007C20.3434 24.0139 20.3537 24.0275 20.3644 24.0401ZM20.3872 24.069C20.3793 24.06 20.3718 24.05 20.3644 24.0401C20.3718 24.05 20.379 24.0597 20.3872 24.069ZM20.4196 24.1105C20.4158 24.1055 20.4121 24.1005 20.4084 24.0956C20.4007 24.0853 20.392 24.0753 20.3843 24.065C20.3957 24.0803 20.4079 24.0949 20.4196 24.1105ZM39.912 56.768C39.9254 56.7858 39.9397 56.8031 39.9547 56.8198C39.9399 56.8034 39.9257 56.7862 39.912 56.768ZM12.7626 16.735C12.7778 16.7536 12.7924 16.7731 12.8079 16.7921C12.7924 16.7731 12.7772 16.7545 12.7626 16.735ZM3.22571 0.164545C3.57557 0.029837 3.83553 0.052093 4.08475 0.0632787C4.19256 0.0677671 4.29872 0.0765963 4.39833 0.0898101C4.45569 0.0974846 4.51278 0.104831 4.56989 0.11217C4.74824 0.0321721 4.91624 -0.00592286 5.05252 0.000485695C5.46975 0.0227176 5.77969 0.170466 6.11033 0.281984C6.14294 0.292699 6.17476 0.304015 6.20659 0.315321C6.21917 0.315714 6.23099 0.316668 6.24225 0.318571C6.54907 0.318099 6.80248 0.384082 7.06614 0.432537C7.33416 0.481878 7.60243 0.531527 7.87094 0.581527C8.3131 0.663183 8.75263 0.747852 9.19136 0.833122C9.59913 0.864017 10.0061 0.895505 10.4104 0.930008C10.977 0.977778 11.5264 1.04677 12.0571 1.13341C12.3365 1.1799 12.6143 1.22757 12.889 1.2776C13.0135 1.3011 13.1375 1.32551 13.2573 1.35255C13.3511 1.37432 13.4411 1.39781 13.5267 1.42673C13.6941 1.48118 13.8543 1.53076 13.8907 1.69229C13.9262 1.78719 13.9115 1.90844 13.8468 2.05477C13.782 2.1976 13.6787 2.34648 13.5362 2.50047C13.4881 2.55261 13.4375 2.60303 13.3843 2.65172C13.3945 2.65388 13.4047 2.65606 13.4142 2.65881C13.7851 2.74216 14.1932 2.79969 14.4917 2.95348C14.6768 3.04792 14.5621 3.37978 14.285 3.6787C14.1688 3.80372 14.0353 3.91732 13.8844 4.01916C13.6503 4.17719 13.4461 4.25541 13.2458 4.29803C13.0704 4.33444 12.9416 4.29865 12.8123 4.27869C12.7241 4.26421 12.6371 4.2482 12.5517 4.23103C12.3804 4.1976 12.2131 4.15963 12.0479 4.11957C11.9363 4.09204 11.8255 4.06394 11.7163 4.03464C11.3131 3.94915 10.9098 3.86367 10.5086 3.77608C9.66523 3.59034 8.82684 3.3998 7.98237 3.2159C7.18184 3.04145 6.37664 2.86896 5.62282 2.64705C5.48357 2.63667 5.34433 2.62627 5.20664 2.61471C5.10049 2.60588 4.99431 2.59707 4.88816 2.58824C4.9395 2.68942 4.99087 2.79057 5.04276 2.89084C5.21309 3.05072 5.37657 3.21625 5.53172 3.387C5.79429 3.67636 6.05686 3.96574 6.28169 4.28341C6.70859 4.88513 7.12456 5.49351 7.56272 6.0873C7.76478 6.36152 7.96841 6.63457 8.16811 6.91056C8.6077 7.40964 9.03285 7.92058 9.43833 8.44627C10.3497 9.62824 11.2595 10.8114 12.1039 12.0432C12.9521 13.285 13.7615 14.5553 14.5987 15.8054C15.4462 17.0726 16.276 18.352 17.1052 19.6324C17.435 20.1408 17.7673 20.6475 18.106 21.1498C18.4075 21.5434 18.7106 21.9359 19.0155 22.3275C19.3251 22.7238 19.6293 23.1243 19.9437 23.5171C19.9252 23.4941 19.9068 23.4712 19.8878 23.4492C20.0379 23.6362 20.1878 23.8244 20.3371 24.0119C20.3518 24.0299 20.3657 24.0484 20.3804 24.0664C20.3772 24.0621 20.3739 24.0578 20.3699 24.0541C20.3816 24.0681 20.3926 24.0826 20.4045 24.0969C20.4107 24.1052 20.4172 24.1138 20.4244 24.1218C20.4217 24.1182 20.4192 24.1149 20.4165 24.1112C20.5872 24.3241 20.7572 24.5375 20.9272 24.751C20.909 24.7284 20.8919 24.7055 20.8734 24.6842C21.3394 25.2675 21.8063 25.8506 22.2512 26.4501C22.6862 27.0365 23.121 27.6225 23.561 28.2056C24.4927 29.4359 25.4177 30.6719 26.3452 31.9049C26.7908 32.4988 27.2286 33.097 27.6771 33.6882C28.1239 34.2771 28.5677 34.8687 29.0011 35.4676C29.4429 36.081 29.8647 36.7103 30.2831 37.3417C30.7045 37.9786 31.1335 38.6093 31.5585 39.2429C32.4005 40.4961 33.2223 41.7634 34.0282 43.0421C34.7328 44.163 35.3918 45.3164 36.0365 46.4802C36.7502 47.3365 37.4448 48.2082 38.136 49.082C38.6198 49.6923 39.0739 50.3253 39.5314 50.9548C39.9746 51.5635 40.37 52.2085 40.7713 52.8481C41.2137 53.5524 41.6206 54.283 42.0092 55.0252C42.2015 55.3912 42.3924 55.7586 42.5788 56.1284C42.6946 56.3597 42.811 56.5901 42.9208 56.8249C42.9643 56.919 43.0043 57.0147 43.0452 57.1103C43.0544 57.1323 43.0642 57.1535 43.0726 57.1761C43.1103 57.228 43.125 57.2951 43.1175 57.3768C43.1256 57.5022 43.0806 57.6519 42.9383 57.8357C42.8479 57.9641 42.7329 58.0892 42.5899 58.2114C42.4404 58.3381 42.2848 58.4434 42.1197 58.528C41.8099 58.6865 41.5178 58.7344 41.3845 58.6403C41.1877 58.4993 41.0703 58.2888 40.9297 58.103C40.8137 57.9484 40.6959 57.7962 40.5786 57.6431C40.3512 57.345 40.124 57.0472 39.8942 56.7508C39.4607 56.2187 39.0124 55.6982 38.5366 55.1984C37.9878 54.6225 37.454 54.0372 36.9752 53.4072C36.5314 52.8223 36.1319 52.2031 35.713 51.599C35.2698 50.9624 34.8185 50.3314 34.3774 49.6927C33.9541 49.0827 33.5608 48.4505 33.2043 47.7919C32.8548 47.1476 32.5466 46.4749 32.2123 45.8197C31.8695 45.1466 31.5065 44.4876 31.0985 43.8619C30.6898 43.232 30.2397 42.6338 29.7867 42.0366C29.3461 41.456 28.909 40.8733 28.486 40.2801C28.0498 39.6692 27.6582 39.0245 27.261 38.3855C27.1619 38.2255 27.0627 38.0655 26.9636 37.9055C26.5233 37.3743 26.0853 36.8414 25.6338 36.3198C25.1602 35.7738 24.6743 35.2375 24.213 34.6818C23.5152 33.8451 22.8321 32.9968 22.1422 32.1542C22.1116 32.1331 22.09 32.1059 22.0759 32.0741C21.8228 31.7646 21.5684 31.4567 21.3125 31.15C20.823 30.5647 20.3382 29.9759 19.8513 29.3892C19.3694 28.8075 18.8809 28.2318 18.4102 27.6422C17.4876 26.4862 16.6547 25.263 15.7965 24.0587C15.4913 23.6306 15.1797 23.2072 14.8611 22.7891C14.7648 22.6705 14.6679 22.5512 14.5729 22.4311C14.5997 22.4653 14.6269 22.4982 14.653 22.533C14.2443 22.0505 13.8068 21.5902 13.4073 21.1004C13.4116 21.106 13.4158 21.1117 13.4208 21.1167C13.4133 21.1068 13.4051 21.0974 13.3977 21.0875C13.378 21.0629 13.3586 21.0387 13.3392 21.0144C13.3504 21.0277 13.3613 21.0408 13.3715 21.0543C12.9024 20.4636 12.4718 19.8454 12.0492 19.2199C11.8549 18.9315 11.6589 18.644 11.4552 18.3627C11.2538 18.0844 11.0426 17.8128 10.8425 17.533C9.97823 16.327 9.22108 15.0428 8.54561 13.7004C8.21731 13.0516 7.9076 12.3883 7.56387 11.75C7.21592 11.1062 6.82403 10.4921 6.4321 9.8797C5.67252 8.68885 4.9627 7.46119 4.23561 6.24649C3.9482 5.76518 3.6739 5.27507 3.41004 4.77765C3.33223 5.27168 3.27527 5.75578 3.20996 6.24354C3.13236 6.82953 3.05813 7.41351 2.97791 8.00094C2.93739 8.29574 2.89664 8.5902 2.86758 8.87898C2.85503 9.00637 2.84559 9.13142 2.83904 9.25534C2.82994 9.41843 2.88735 9.55386 2.84257 9.73492C2.82882 9.83941 2.77591 9.95723 2.68568 10.0875C2.59389 10.219 2.47495 10.3471 2.3299 10.4714C2.27892 10.5148 2.22802 10.5551 2.17564 10.5934C2.17262 10.6008 2.16908 10.6092 2.16607 10.6166C2.10312 10.7554 2.00223 10.9009 1.86397 11.0507C1.66307 11.2677 1.35425 11.5144 1.08425 11.6409C0.978905 11.6905 0.873349 11.7366 0.770273 11.7777C0.525512 11.8625 0.272376 11.8853 0.171709 11.7937C0.124189 11.7533 0.0832297 11.707 0.0517229 11.6535C0.0312966 11.5591 0.0199313 11.4621 0.0110087 11.3602C-0.0053446 11.1779 -0.000591034 10.9844 0.00705508 10.7883C0.0200028 10.4469 0.0493672 10.0963 0.0844547 9.74349C0.16313 8.96733 0.268601 8.17778 0.377727 7.38653C0.483594 6.62204 0.559548 5.87327 0.633637 5.12539C0.667029 4.78833 0.698023 4.45307 0.735052 4.11432C0.7751 3.74847 0.811213 3.3773 0.926985 2.97482C0.947555 2.82537 1.0228 2.65715 1.15175 2.47038C1.33215 2.21135 1.60369 1.94605 1.91156 1.72592C1.89806 1.69155 1.88849 1.65423 1.88467 1.61311C1.85171 1.5266 1.86536 1.41546 1.92484 1.28184C1.96471 1.2007 2.01468 1.11664 2.07574 1.03099C2.17395 0.890039 2.30085 0.752917 2.4572 0.619046C2.51554 0.569066 2.57454 0.523241 2.63449 0.480328C2.82871 0.342884 3.02639 0.241142 3.22571 0.164545Z" fill="#FD1E1F"/>
</svg>
