<svg width="54" height="48" viewBox="0 0 54 48" fill="none" xmlns="http://www.w3.org/2000/svg">
<path fill-rule="evenodd" clip-rule="evenodd" d="M29.3465 4.33645C31.1451 5.76885 32.907 7.25631 34.7833 8.58286C38.6345 11.3064 42.5603 13.9249 46.4367 16.6138C48.5904 18.1077 50.7015 19.6617 52.8402 21.1782C53.3302 21.5257 53.6537 21.9085 53.6077 22.5714C53.5078 24.0183 53.4634 25.4694 53.3934 26.9181C53.2577 29.7368 53.0857 32.555 52.9892 35.3754C52.874 38.7605 52.8214 42.1477 52.7416 45.5341C52.7404 45.5742 52.7404 45.6152 52.7365 45.6549C52.6499 46.6921 52.2943 46.9866 51.2653 46.9127C50.6221 46.8679 49.9759 46.8278 49.3322 46.8312C45.9087 46.847 42.4856 46.8773 39.063 46.9033C38.9422 46.9042 38.8206 46.9063 38.6994 46.9114C35.7663 47.0275 32.8486 47.3464 29.8963 47.2499C28.1344 47.1914 26.6823 46.7296 25.4301 45.5371C25.2546 45.3711 25.0609 45.2234 24.8667 45.08C20.3919 41.7721 15.8933 38.4959 11.4463 35.1505C8.19434 32.704 5.01626 30.158 1.79166 27.6752C0.929063 27.0107 0.512488 26.2172 0.573523 25.099C0.652484 23.6512 0.650769 22.1958 0.611075 20.7454C0.454006 14.9783 0.201757 9.21241 0.607233 3.44484C0.7229 1.78794 1.11899 1.3688 2.82157 1.2399C4.38969 1.12039 5.96037 1.04485 7.52807 0.926192C10.0962 0.731563 12.6601 0.47462 15.2313 0.326515C16.9616 0.226639 18.7009 0.291944 20.4346 0.241153C21.4999 0.209568 22.5631 0.0990215 23.9695 0C25.6435 1.35216 27.486 2.8554 29.3465 4.33645ZM1.44935 11.1668C1.48307 15.6842 1.63202 20.2012 1.65465 24.7182C1.65891 25.6594 1.91458 26.344 2.62437 26.9057C5.21558 28.9561 7.78715 31.0321 10.4001 33.0536C12.4079 34.6084 14.4621 36.1044 16.507 37.6107C18.7452 39.259 20.998 40.8869 23.2439 42.5259C24.2845 43.2856 25.3208 44.0522 26.3618 44.8115C26.5142 44.9225 26.684 45.0095 27.0477 45.2311C27.0477 44.228 27.0712 43.4021 27.0421 42.5775C26.9764 40.6458 26.8765 38.7148 26.8074 36.7835C26.6571 32.6383 26.4967 28.4934 26.39 24.3478C26.3631 23.3375 26.0203 22.7429 25.1449 22.1262C22.6096 20.3417 20.2079 18.3672 17.7533 16.4674C15.5876 14.7909 13.4049 13.1344 11.2597 11.4319C8.98821 9.62899 6.7598 7.77105 4.49468 5.95921C3.65342 5.2874 2.76138 4.6809 1.63288 3.85458C1.5616 6.50255 1.43185 8.83553 1.44935 11.1668ZM52.3784 22.9726C50.1752 22.5645 46.3667 22.4301 44.528 22.7028C44.4533 24.5095 44.3487 26.3483 44.309 28.1887C44.2715 29.9946 44.3013 31.8025 44.3013 33.7552C43.5621 33.8444 42.9394 33.9759 42.3158 33.9844C40.2649 34.0126 38.2072 33.7352 36.1675 34.2064C35.6139 34.3344 35.3762 34.0455 35.3493 33.3045C35.3096 32.2161 35.2746 31.1265 35.2985 30.0385C35.3386 28.2288 35.4372 26.4204 35.4884 24.6107C35.508 23.9406 35.4645 23.2683 35.4483 22.5581C32.6911 22.1573 30.1037 22.3793 27.4327 22.7408C27.6802 30.5003 27.9261 38.2155 28.177 46.0672C29.4379 46.1056 30.6385 46.1987 31.8353 46.1654C33.7299 46.1137 35.6203 45.9528 37.5145 45.8845C39.0451 45.8286 40.5782 45.8495 42.1101 45.8201C44.4896 45.774 46.8691 45.7104 49.2494 45.6626C49.9677 45.6481 50.6865 45.6604 51.5414 45.6604C52.0434 38.1391 52.0728 30.5396 52.3784 22.9726ZM30.3705 18.7744C27.7408 16.5844 25.13 14.3735 22.4842 12.2035C20.2118 10.3392 17.8976 8.52524 15.6103 6.67883C14.7029 5.94598 13.8403 5.15467 12.9149 4.44572C11.8632 3.63947 10.7749 2.87888 9.67624 2.13621C9.4304 1.96976 9.07187 1.87543 8.77524 1.89421C7.04748 2.0039 5.32271 2.14689 3.59879 2.30225C3.12972 2.3445 2.66834 2.46572 2.02171 2.58437C3.11735 3.44526 4.07043 4.17939 5.0073 4.93272C8.3019 7.58154 11.567 10.2684 14.8894 12.8822C18.306 15.5694 21.7884 18.1726 25.2141 20.8479C25.9973 21.4595 26.7767 21.6981 27.7728 21.57C29.4844 21.3502 31.2126 21.2546 33.1802 21.086C32.1426 20.2328 31.2518 19.5094 30.3705 18.7744ZM17.7785 7.51582C19.7752 9.14583 21.7146 10.8458 23.6882 12.5045C24.6127 13.2817 25.5615 14.0312 26.4958 14.7977C28.7379 16.6373 31.0188 18.4342 33.2015 20.3429C34.1649 21.1851 35.1316 21.4749 36.3881 21.3605C38.1471 21.1996 39.9222 21.226 41.6913 21.1667C41.7938 21.1633 41.8954 21.1116 42.2279 21.0156C41.0789 20.2119 40.1177 19.4249 39.0528 18.8205C37.0395 17.6796 35.2929 16.1879 33.5788 14.6829C31.531 12.8843 29.507 11.0657 27.343 9.40192C26.1702 8.49963 25.1326 7.42106 23.9605 6.51707C22.3075 5.24131 20.5865 4.05177 18.8921 2.82937C18.7632 2.73675 18.5754 2.70644 18.4789 2.59248C17.4439 1.37349 16.0683 1.24545 14.6201 1.38843C13.3464 1.51434 12.0771 1.68421 10.6579 1.85281C13.1253 3.81104 15.4741 5.63483 17.7785 7.51582ZM47.4418 18.7296C43.0815 15.6825 38.6656 12.7136 34.3573 9.59655C31.8139 7.75654 29.4327 5.69246 26.9777 3.72995C26.6631 3.47856 26.3481 3.22502 26.0259 2.98345C23.1812 0.857898 24.4232 1.39697 20.9924 1.30179C20.1559 1.27832 19.318 1.29795 18.4815 1.29795C18.4516 1.38289 18.4226 1.4674 18.3935 1.55276C19.1473 2.10079 19.9181 2.62663 20.6514 3.20113C22.9327 4.98864 25.2171 6.77358 27.4668 8.60036C29.0606 9.89489 30.5928 11.2641 32.1657 12.5855C33.983 14.1127 35.7898 15.6544 37.6511 17.126C38.404 17.7206 39.3072 18.1197 40.1091 18.6562C41.2778 19.4377 42.408 20.2776 43.577 21.0587C43.8626 21.2491 44.2322 21.395 44.5694 21.4104C46.6621 21.5043 48.7564 21.5564 50.8504 21.6161C50.9097 21.6178 50.9708 21.5478 51.1445 21.442C49.8845 20.5162 48.6818 19.596 47.4418 18.7296ZM36.4727 33.1816C38.3144 33.1816 40.1185 33.1534 41.9214 33.1914C43.3034 33.2204 43.4938 33.089 43.5271 31.7492C43.5984 28.8456 43.6705 25.9428 43.7367 23.0404C43.7405 22.8462 43.7021 22.6503 43.6782 22.4049C41.2364 22.4049 38.8398 22.4049 36.3181 22.4049C36.4065 26.1378 35.7594 29.6676 36.4727 33.1816Z" fill="#FD1E1F"/>
</svg>
