<svg width="62" height="69" viewBox="0 0 62 69" fill="none" xmlns="http://www.w3.org/2000/svg">
<path d="M29.3264 65.3136C29.3264 65.3136 28.8054 68.0212 30.576 68.1254C32.3465 68.2295 35.366 68.3337 35.7827 67.5002C36.1995 66.6674 35.7827 64.6885 35.7827 64.6885L29.3264 65.3136Z" stroke="#F6FAF9" stroke-width="1.30234" stroke-miterlimit="10"/>
<path d="M23.8261 56.421C23.8261 56.421 23.8951 52.4684 23.9648 49.5557C24.0338 46.6431 21.954 44.4239 18.9717 43.384C15.99 42.344 11.1355 37.4199 9.88721 30.5546C8.63892 23.6894 8.98534 6.07525 31.0378 5.45078C53.0903 4.82696 53.5064 22.3714 53.298 29.3754C53.0903 36.3793 45.947 42.8285 43.2427 45.1864C40.5384 47.5443 41.2319 51.2891 41.3009 52.6065C41.3699 53.9238 41.2319 56.2126 41.2319 56.2126" stroke="#F6FAF9" stroke-width="1.30234" stroke-miterlimit="10"/>
<path d="M28.9911 57.7121C28.9911 57.7121 28.9911 45.2161 27.666 43.1331C26.3409 41.05 24.8113 41.8835 23.9954 39.0717C23.1795 36.26 22.3642 29.9078 23.8931 29.2827C25.4227 28.6576 26.544 28.6576 26.8501 30.949C27.1561 33.2399 25.7288 34.1775 25.1167 33.0315C24.5046 31.8861 25.5243 28.1373 27.7676 27.8247C30.0109 27.5122 31.9481 27.5122 32.8656 29.6988C33.7831 31.8854 33.0694 33.6559 31.642 32.9273C30.2147 32.1986 30.5207 28.5534 33.1716 28.1373C35.8225 27.7206 37.6575 28.4499 38.3712 30.8449C39.0849 33.2399 36.8416 35.1146 36.2302 33.6566C35.6187 32.1986 36.3324 29.1785 38.6773 29.3869C41.0221 29.5953 42.5517 31.7819 42.5517 35.1139C42.5517 38.4466 38.4735 39.6955 37.8614 41.3619C37.2499 43.0282 37.0454 58.1275 37.0454 58.1275" stroke="#F6FAF9" stroke-width="1.30234" stroke-miterlimit="10"/>
<path d="M41.0452 54.9004C42.6477 55.5255 42.0753 56.9828 42.0753 56.9828C42.0753 56.9828 44.3642 58.1282 43.7918 59.8988C43.2195 61.6693 41.9607 61.877 41.9607 61.877C41.9607 61.877 42.19 62.6063 41.7315 64.4804C41.2738 66.3551 29.8282 66.2509 26.3946 65.5216C22.9609 64.7929 23.6479 62.2938 23.6479 62.2938C23.6479 62.2938 23.0756 62.3979 22.847 61.1484C22.6178 59.8988 23.1902 58.8576 23.1902 58.8576C23.1902 58.8576 22.7324 58.3366 22.3892 57.1912C22.0461 56.0458 23.9918 55.1088 23.9918 55.1088L41.0452 54.9004Z" stroke="#F6FAF9" stroke-width="1.30234" stroke-miterlimit="10"/>
<path d="M0.305664 28.7119C2.13415 29.6828 4.06291 30.4655 6.05027 31.0451" stroke="#F6FAF9" stroke-width="1.30234" stroke-miterlimit="10"/>
<path d="M11.6914 4.61328C12.2377 5.67078 12.7841 6.72763 13.3304 7.78512" stroke="#F6FAF9" stroke-width="1.30234" stroke-miterlimit="10"/>
<path d="M39.6042 0.301758C38.9745 1.50381 38.3455 2.70522 37.7158 3.90662" stroke="#F6FAF9" stroke-width="1.30234" stroke-miterlimit="10"/>
<path d="M61.6754 16.5469C59.5864 16.5267 57.4981 16.5065 55.4092 16.4863" stroke="#F6FAF9" stroke-width="1.30234" stroke-miterlimit="10"/>
<path d="M52.5762 37.2168C54.6638 38.2001 56.6297 39.4431 58.4132 40.9076" stroke="#F6FAF9" stroke-width="1.30234" stroke-miterlimit="10"/>
</svg>
