<svg width="390" height="580" viewBox="0 0 390 580" fill="none" xmlns="http://www.w3.org/2000/svg">
<path d="M138.662 49.0602C208.211 0.998678 284.252 96.2841 306.265 122.676C348.301 87.8506 378.838 40.9198 417.266 22.5927C563.62 -47.2047 476.178 180.898 455.778 188.079C492.54 193.027 596.629 213.102 574.125 280.582C561.348 318.895 500.319 348.015 442.576 368.603C476.752 395.909 514.608 437.04 496.991 462.615C476.139 492.887 385.46 489.901 348.969 464.765C343.26 460.833 338.134 456.416 333.628 451.648C326.216 498.7 307.182 558.208 249.575 559.968C151.99 562.948 203.806 411.685 195.455 397.618C105.586 417.157 53.6672 463.021 32.1747 382.529C13.1752 311.368 135.553 249.27 155.352 237.514C130.555 206.434 69.1133 97.1223 138.662 49.0602Z" fill="#FD1E1F"/>
<path d="M378.394 268.516C380.863 294.5 333.085 311.119 317.72 321.752C276.052 334.618 267.194 304.822 253.82 280.35C224.782 239.038 272.803 231.074 308.781 227.656C344.759 224.238 375.926 242.532 378.394 268.516Z" fill="#F6FAF9"/>
</svg>
