<svg width="369" height="529" viewBox="0 0 369 529" fill="none" xmlns="http://www.w3.org/2000/svg">
<path d="M-48.6343 9.69751C25.149 -31.5714 91.8391 70.4793 111.257 98.8342C156.398 68.1406 191.236 24.3082 231.225 9.69751C383.524 -45.9459 274.901 172.865 253.914 178.084C290.043 186.487 391.767 216.317 362.981 281.367C346.637 318.299 283.128 341.517 223.697 356.552C255.137 386.967 288.934 431.494 268.978 455.288C245.356 483.453 155.366 471.904 121.416 443.43C116.105 438.976 111.42 434.095 107.385 428.922C95.556 475.062 70.9789 532.501 13.4644 528.806C-83.9649 522.544 -18.0763 376.858 -25.0601 362.064C-116.374 373.016 -172.398 413.765 -186.182 331.602C-198.367 258.963 -70.6663 208.717 -49.8423 198.885C-71.5884 165.599 -122.416 50.967 -48.6343 9.69751Z" fill="#97E4EB"/>
<path d="M169.268 250.842C183.003 277 139.971 298.102 103.831 298.102C67.6916 298.102 38.3945 276.943 38.3945 250.842C38.3945 224.741 66.6744 200.917 108.503 214.499C128.003 224.499 152.003 222.5 169.268 250.842Z" fill="#1869FF"/>
</svg>
