<svg width="55" height="71" viewBox="0 0 55 71" fill="none" xmlns="http://www.w3.org/2000/svg">
<path d="M35.482 38.6165C37.1791 38.5423 37.9487 39.7468 39.8073 43.2685C41.6658 46.7902 47.2597 54.0302 49.8684 57.866C52.4772 61.7012 54.4632 63.5126 54.0354 66.1754C53.6069 68.8382 48.7984 71.4318 46.4787 69.4809C44.159 67.5307 39.7074 59.1999 35.8282 53.951C31.949 48.7021 30.2576 45.2502 30.1351 43.435C30.0126 41.6198 29.2894 41.709 30.8344 40.5919C32.3794 39.4741 35.482 38.6165 35.482 38.6165Z" stroke="#F6FAF9" stroke-width="1.25662" stroke-miterlimit="10"/>
<path d="M27.583 37.9065C27.583 37.9065 29.1701 40.6 29.8776 41.2692C30.5851 41.9383 30.761 42.4894 32.5303 41.6801C34.299 40.8715 35.1849 40.5554 36.0162 39.6375C36.8474 38.7195 33.6782 34.1152 33.6782 34.1152L27.583 37.9065Z" stroke="#F6FAF9" stroke-width="1.25662" stroke-miterlimit="10"/>
<path d="M15.6029 1.14241C6.05261 3.58339 -1.58764 14.3024 1.21588 26.4821C4.0194 38.6619 20.5414 42.9979 31.7247 36.8939C42.9074 30.7898 42.9357 14.8503 36.0682 8.38494C29.2002 1.91963 22.1832 -0.539577 15.6029 1.14241Z" stroke="#F6FAF9" stroke-width="1.25662" stroke-miterlimit="10"/>
<path d="M14.0227 6.7489C7.25764 9.13837 3.54559 20.1451 6.7751 27.0955C10.0052 34.0458 20.8398 36.6301 27.9077 32.8866C34.9755 29.1431 35.8024 20.3015 34.0438 15.9241C32.2851 11.546 24.4363 3.07015 14.0227 6.7489Z" stroke="#F6FAF9" stroke-width="1.25662" stroke-miterlimit="10"/>
</svg>
