<svg width="54" height="91" viewBox="0 0 54 91" fill="none" xmlns="http://www.w3.org/2000/svg">
<path d="M38.7372 49.022C38.6475 48.5271 38.4963 47.9935 38.1772 47.4811C37.8678 46.9721 37.3747 46.5036 36.7682 46.2417C35.5402 45.716 34.1919 45.9569 33.1125 46.6047C32.6703 46.8799 32.3099 47.2235 31.9856 47.591C31.932 47.4327 31.8696 47.336 31.8019 47.2842C31.794 47.0653 31.7641 46.821 31.6683 46.5151C31.5733 46.2399 31.3879 45.8356 30.9826 45.4321C30.5801 45.0296 29.9542 44.6674 29.164 44.5655C28.6577 44.4872 28.06 44.5804 27.4974 44.8195C27.5651 44.6446 27.6363 44.4556 27.7154 44.2402C28.1646 43 29.2396 39.433 30.6135 34.6969C31.2929 32.3263 32.055 29.6664 32.8593 26.8624C33.2399 25.4596 33.7286 24.0532 33.8578 22.3453C33.9018 21.4927 33.8455 20.6084 33.472 19.6977C33.283 19.2468 32.9683 18.7739 32.5253 18.432C32.0902 18.0865 31.5742 17.8809 31.0767 17.7982C30.0729 17.6295 29.1297 17.8334 28.2868 18.2351C27.4834 18.6306 26.7863 19.1844 26.2141 19.7953C25.0626 21.0268 24.3155 22.4094 23.6175 23.7007C22.2138 26.3148 21.137 28.9228 20.3485 31.2987C20.04 32.2322 19.7772 33.1262 19.5513 33.9735C19.5733 33.4769 19.597 32.9662 19.6234 32.4379C19.7236 30.1033 19.8255 27.4698 19.7957 24.6773C19.7833 23.9785 19.771 23.2709 19.7376 22.5554C19.7104 21.8574 19.6919 21.0786 19.481 20.2489C19.2911 19.4402 18.7646 18.4487 17.8056 17.9688C16.8528 17.4765 15.8068 17.5697 14.9805 17.8466C14.1481 18.1173 13.379 18.6377 12.8085 19.2064C12.2178 19.7733 11.7309 20.4212 11.3274 21.0901C10.5222 22.4358 10.0265 23.8563 9.64499 25.2257C8.8662 27.9849 8.59898 30.6887 8.548 33.0708C8.49526 37.8464 9.11056 41.3659 9.34789 42.5939C9.54127 43.4605 9.69597 43.9501 9.8331 44.227C8.95146 44.4433 8.06807 44.7061 7.18292 45.0173C6.31096 45.3302 5.42581 45.6703 4.54593 46.1476C3.67308 46.6188 2.80287 47.2552 2.12077 48.0806C0.753932 49.7243 0.143029 51.8216 0.0261223 53.8398C-0.0934214 55.8711 0.217744 57.8199 0.544731 59.6789C0.886661 61.5486 1.31034 63.3795 1.814 65.1384C2.80991 68.657 4.12137 71.897 5.47854 74.6535C6.14746 76.0212 6.69068 77.2448 6.97284 78.4464C7.27082 79.6489 7.39739 80.8021 7.4809 81.8314C7.62505 83.8953 7.66988 85.4731 7.75602 86.2774C7.82283 86.9727 7.887 87.486 7.95204 87.8701C7.44486 87.8587 6.9579 87.8719 6.5307 87.9448C5.42756 88.1092 4.66635 88.4248 4.29365 88.6234C3.21161 89.244 3.22479 89.5499 3.33555 89.7529C3.43839 89.9481 3.61331 89.985 4.72085 89.7169C5.08299 89.6387 5.76773 89.4558 6.70914 89.3934C7.65142 89.3143 8.8117 89.4866 10.2717 89.7705C11.003 89.8989 11.8047 90.05 12.7083 90.0667C13.5952 90.0966 14.6368 89.9367 15.5439 89.4972C16.4291 89.077 17.149 88.5593 17.8381 88.3175C18.5044 88.0934 19.2287 88.0714 20.0409 88.2534C21.6565 88.5619 23.3776 89.513 25.5021 89.4629C25.7623 89.4532 26.0295 89.4066 26.2879 89.3671C26.5446 89.2932 26.8048 89.2343 27.0491 89.1385C27.5361 88.9425 27.9255 88.6982 28.2701 88.496C28.939 88.0793 29.476 87.8842 30.123 87.7585C31.3844 87.5388 32.6545 87.6899 33.6724 87.7436C34.6947 87.8139 35.491 87.8121 35.905 87.7497C37.1233 87.5642 37.3088 87.268 37.2719 87.0404C37.2402 86.8215 37.0372 86.7283 35.8936 86.5754C35.5183 86.5279 34.8063 86.4391 33.7963 86.2888C32.9797 86.1877 31.9452 86.0102 30.711 86.0585C30.7128 86.0471 30.7146 86.0383 30.7172 86.0269C30.8464 85.2428 31.0029 83.0102 31.1655 80.0664C31.3342 77.1341 31.5698 73.5451 33.319 70.4836C34.1673 68.9119 35.0928 67.2163 35.7653 65.5726C36.4614 63.9271 37.0064 62.3194 37.402 60.8638C38.201 57.9517 38.4357 55.6751 38.4313 54.8699C38.4242 54.5245 38.4014 54.2731 38.368 54.0788C38.3935 53.9619 38.419 53.8582 38.4436 53.7343C38.5649 53.1243 38.6739 52.4272 38.7495 51.6572C38.8207 50.8969 38.9015 50.0135 38.7372 49.022ZM34.0741 48.1104C34.7298 47.7 35.5675 47.5998 36.0975 47.8424C36.6328 48.0647 36.9677 48.6405 37.1057 49.3542C37.2455 50.0689 37.2191 50.8292 37.1787 51.5623C37.14 52.2848 37.0723 52.9423 36.9976 53.5224C36.8482 54.6818 36.6715 55.5292 36.6082 55.9792C36.5889 56.112 36.574 56.2254 36.5599 56.337C36.4781 56.4829 36.3902 56.6437 36.2865 56.8398C36.0676 57.2274 35.6853 57.9886 35.0014 58.9019C34.6586 59.3572 34.2411 59.8495 33.7322 60.3347C33.2311 60.8014 32.6053 61.3543 31.9979 61.6514C31.6885 61.7982 31.3984 61.865 31.1382 61.8316C30.8622 61.8017 30.639 61.6619 30.5704 61.5301C30.4799 61.4264 30.4227 60.9737 30.3876 60.4876C30.3471 60.0182 30.3357 59.5374 30.3392 59.0505C30.3559 57.7662 30.5458 56.4363 30.8438 55.1073C31.1822 54.0454 31.4582 53.0777 31.663 52.2127C32.2423 50.4943 32.9191 48.8145 34.0741 48.1104ZM29.0409 46.0211C29.9736 46.0923 30.4148 46.6979 30.6029 47.0082C30.8921 47.4802 30.9536 47.8301 31.0415 48.0252C31.0705 48.099 31.1022 48.1509 31.1365 48.1939C31.0881 48.3847 31.0371 48.5992 30.9783 48.869C30.9563 48.9675 30.9281 49.0941 30.8983 49.2294C30.8719 49.2822 30.8394 49.3349 30.8139 49.3876C30.3199 50.4407 29.9753 51.4656 29.6308 52.5327C29.2879 53.6323 29.0137 54.7627 28.8256 55.8992C28.2112 57.5474 27.493 59.3581 26.3002 60.8779C25.9943 61.2532 25.6454 61.6567 25.3263 61.9028C24.9844 62.1665 24.7312 62.2201 24.5739 62.1639C24.4209 62.1296 24.1845 61.9037 24.0219 61.5064C23.8522 61.1152 23.7837 60.6757 23.7397 60.1395C23.5666 58.0686 24.0605 55.923 24.638 53.8943C25.2155 51.8655 25.8871 49.9449 26.5446 48.317C26.8716 47.5338 27.2495 46.8851 27.6855 46.5045C28.118 46.1186 28.5847 45.9903 29.0409 46.0211ZM34.1128 64.8896C33.4307 66.4727 32.5789 68.0004 31.6832 69.6635C30.7708 71.3239 30.1476 73.2656 29.8795 75.05C29.593 76.8493 29.5349 78.5431 29.5007 80.0277C29.447 82.9864 29.4532 85.2147 29.5428 86.0067C29.5499 86.0673 29.5578 86.1148 29.5657 86.1702C28.8282 86.3073 28.0125 86.6167 27.3752 87.0061C26.6439 87.4297 26.1209 87.6785 25.4019 87.6759C23.9718 87.7207 22.3272 86.8742 20.3696 86.4532C19.3983 86.2326 18.2196 86.2343 17.1762 86.622C16.1645 87.0158 15.4314 87.5766 14.7493 87.8939C13.4765 88.5417 11.9524 88.329 10.5117 88.1215C9.9377 88.0301 9.36723 87.9607 8.81258 87.9132C8.85653 87.515 8.89609 86.9665 8.92861 86.2071C8.95146 85.3887 9.00508 83.8478 8.93564 81.6934C8.88818 80.6166 8.79236 79.3808 8.49175 78.0324C8.20519 76.6708 7.60308 75.2679 6.96141 73.8932C5.68071 71.163 4.45891 68.025 3.52014 64.6004C3.04636 62.8917 2.64641 61.1152 2.3247 59.3027C2.00914 57.4841 1.73929 55.6558 1.85444 53.8969C1.95904 52.1556 2.50226 50.4442 3.54739 49.2057C4.5679 47.9768 6.19141 47.2771 7.83513 46.6812C9.46655 46.0949 11.1402 45.6747 12.7206 45.4383C14.2703 45.208 15.7241 45.368 16.5812 46.1652C17.0242 46.5546 17.3151 47.0583 17.381 47.5215C17.4531 47.9804 17.3125 48.4392 17.0224 48.8207C16.4194 49.6065 15.3418 50.1014 14.4215 50.4785C12.4578 51.2581 11.0444 51.8058 10.2497 52.1951C9.66784 52.4914 9.20198 52.872 8.94355 53.264C8.68161 53.6473 8.59723 53.9997 8.58756 54.2538C8.58756 54.7741 8.78006 54.8726 8.88817 54.8541C8.99805 54.8436 9.04288 54.7258 9.1967 54.4225C9.36723 54.1245 9.67048 53.6156 10.7569 53.2561C11.4812 53.0179 12.9905 52.5301 14.9902 51.8251C15.5044 51.6379 16.0573 51.4128 16.6295 51.1025C17.1956 50.7843 17.8038 50.38 18.3058 49.734C18.8033 49.0932 19.1285 48.1729 18.9799 47.2376C18.8428 46.3103 18.3295 45.4989 17.65 44.8898C16.9706 44.2666 16.0432 43.8737 15.1458 43.7269C14.2342 43.5722 13.3183 43.6108 12.4358 43.726C11.788 43.8165 11.1402 43.9414 10.4906 44.0829C10.531 43.7743 10.5433 43.2733 10.509 42.4189C10.4879 41.1751 10.0485 37.6662 10.2137 33.0814C10.3183 30.7951 10.618 28.2407 11.3757 25.6767C11.7467 24.3907 12.2187 23.1126 12.9034 21.9954C13.5908 20.8914 14.5111 19.9034 15.5914 19.5703C16.7288 19.2275 17.4549 19.5958 17.7318 20.7437C17.875 21.3081 17.9076 21.9708 17.9366 22.6811C17.9744 23.3763 17.9902 24.0681 18.0104 24.7511C18.0649 27.4848 18.0043 30.0936 17.9585 32.4274C17.8381 37.0948 17.9234 40.6653 18.0922 41.9153C18.3277 43.7497 18.5677 44.0794 18.8121 44.0644C19.0019 44.053 19.1399 43.7884 19.2375 42.3038C19.3043 42.0322 19.3772 41.7096 19.4625 41.2912C19.735 40.021 20.3099 36.3688 21.9378 31.798C22.7535 29.5179 23.832 27.0172 25.212 24.5111C25.902 23.2524 26.6237 21.9919 27.5616 21.0171C28.0275 20.5293 28.5522 20.1337 29.1227 19.8577C29.651 19.609 30.2865 19.5017 30.7919 19.6028C31.3079 19.7162 31.5979 19.9438 31.8089 20.4475C32.0163 20.9582 32.0875 21.6289 32.0427 22.2802C31.9539 23.5987 31.4942 25.0588 31.1189 26.4599C30.3603 29.2656 29.6404 31.9263 28.9996 34.297C27.7348 39.0436 26.8215 42.644 26.5824 43.9405C26.4409 44.7246 26.3776 45.244 26.3653 45.6018C25.7746 46.1933 25.35 46.9291 25.0081 47.6815C24.2566 49.399 23.5411 51.3276 22.9135 53.431C22.2982 55.5169 21.7136 57.862 21.9219 60.332C21.9703 60.9201 22.0714 61.6242 22.3641 62.2702C22.5091 62.5972 22.6999 62.9286 22.9882 63.2345C23.2703 63.5386 23.6747 63.8129 24.1379 63.9298C24.5923 64.0502 25.0907 64.0036 25.488 63.8629C25.8862 63.7214 26.2053 63.5131 26.4743 63.2978C27.0157 62.8512 27.3656 62.4082 27.7356 61.945C28.0705 61.5002 28.3641 61.0466 28.6278 60.5904C28.6313 60.6212 28.6313 60.652 28.6348 60.6819C28.6647 60.95 28.6814 61.189 28.7403 61.4993C28.7992 61.8017 28.9012 62.17 29.142 62.5163C30.1907 63.9016 31.8898 63.6318 32.7802 63.1211C33.7234 62.5902 34.2956 61.9951 34.8722 61.4185C35.2607 61.0106 35.5754 60.6072 35.8602 60.2125C35.8391 60.2819 35.8207 60.347 35.7987 60.4164C35.3653 61.7999 34.8037 63.3259 34.1128 64.8896Z" fill="currentColor"/>
<path d="M40.4987 19.9851C40.583 19.8745 40.7846 19.8769 40.8955 19.8782C40.8975 19.8782 40.8995 19.8782 40.9015 19.8782C40.9279 19.8785 40.9521 19.8754 40.9806 19.8717C41.0484 19.8628 41.14 19.8509 41.3401 19.8754C41.3948 19.8632 41.4498 19.8521 41.5049 19.8421C42.1003 19.7343 42.7096 19.7032 43.3216 19.6872C43.329 19.6854 43.3366 19.6835 43.3442 19.6816C43.4918 19.6451 43.6748 19.5997 43.7973 19.6123C43.953 19.6284 44.0606 19.6499 44.1493 19.6692C44.6356 19.6575 45.1205 19.6379 45.5983 19.5796C45.7481 19.5613 45.8972 19.5392 46.0454 19.5123C46.1819 19.4876 46.3179 19.46 46.4534 19.4297C46.5292 19.3953 46.6005 19.3577 46.6665 19.3229C46.7594 19.274 46.8421 19.2306 46.9128 19.2085C47.0834 19.1552 47.2875 19.1536 47.4391 19.1524C47.4638 19.1522 47.4872 19.152 47.5088 19.1516C47.6233 19.1179 47.7376 19.0833 47.8518 19.0484C47.861 19.0546 47.8703 19.0612 47.8797 19.0679C47.9979 19.1522 48.1201 19.1287 48.3125 19.0919C48.3963 19.0758 48.4934 19.0573 48.6093 19.044C48.684 19.0354 48.7292 19.0691 48.7662 19.0965C48.7771 19.1046 48.7873 19.1122 48.7973 19.118C48.8315 19.1378 48.8578 19.1049 48.8889 19.0661C48.9293 19.0157 48.9776 18.9552 49.0618 18.9867C49.3298 19.0871 49.4186 18.97 49.4859 18.8813C49.5056 18.8554 49.5235 18.8319 49.5435 18.817C49.6082 18.7688 49.716 18.7854 49.8013 18.8196C49.869 18.8467 49.9837 18.7869 50.0672 18.7221C50.0988 18.6977 50.1458 18.6887 50.2013 18.6782C50.2586 18.6673 50.3251 18.6549 50.3925 18.6216C50.5629 18.5376 50.6539 18.4953 50.7271 18.4614C50.7479 18.4518 50.7674 18.4429 50.7868 18.4338C50.8481 18.405 50.9254 18.3765 51.0037 18.3476C51.0974 18.3131 51.1925 18.278 51.2631 18.2415C51.4612 18.2308 51.6604 18.2259 51.8596 18.2209C51.9619 18.2185 52.0733 18.2892 52.1699 18.4216C52.2666 18.5541 52.3404 18.7363 52.3759 18.9325C52.4115 19.1287 52.4062 19.3252 52.3622 19.4832C52.3181 19.6411 52.2386 19.7465 52.1419 19.7802C51.9471 19.8476 51.7523 19.9151 51.5563 19.9762C51.3176 20.0506 51.0772 20.1157 50.833 20.1599C50.6622 20.1909 50.4905 20.2171 50.3181 20.2396C50.3004 20.2419 50.2826 20.2442 50.2649 20.2464C50.1301 20.3207 49.9948 20.3906 49.8968 20.4246C49.8158 20.4526 49.7504 20.4378 49.6943 20.4252C49.6558 20.4165 49.6217 20.4088 49.59 20.4167C49.573 20.421 49.55 20.4282 49.5223 20.4369C49.4092 20.4725 49.217 20.5329 49.0291 20.5183C48.9457 20.5118 48.8458 20.4873 48.7504 20.4639C48.6139 20.4304 48.4867 20.3993 48.4302 20.4262C48.331 20.4734 48.207 20.4711 48.0974 20.469C47.9928 20.467 47.9014 20.4653 47.8572 20.5071C47.8043 20.557 47.7503 20.5504 47.67 20.5405C47.6143 20.5337 47.546 20.5255 47.4566 20.5334C47.3534 20.5425 47.2766 20.5281 47.2114 20.5159C47.1195 20.4987 47.0504 20.4857 46.9623 20.5485C46.8644 20.6182 46.7583 20.6705 46.6673 20.6706C46.6259 20.6706 46.5803 20.6807 46.5329 20.6912C46.4701 20.7051 46.4041 20.7196 46.3401 20.7126C46.2874 20.7067 46.2391 20.6761 46.1964 20.649C46.1831 20.6406 46.1703 20.6325 46.1581 20.6256C46.1183 20.6333 46.0786 20.6413 46.039 20.6496C46.0336 20.6569 46.0281 20.6649 46.0223 20.6732C45.9931 20.7148 45.9572 20.7659 45.907 20.7971C45.8276 20.8467 45.7486 20.839 45.6653 20.8307C45.6004 20.8243 45.5329 20.8175 45.4605 20.8374C45.4112 20.851 45.3568 20.8769 45.303 20.9026C45.223 20.9408 45.1441 20.9783 45.0838 20.9745C45.0612 20.973 45.0382 20.9525 45.0155 20.932C45.0154 20.9319 45.0153 20.9317 45.0152 20.9316C45.0137 20.9302 45.0121 20.9289 45.0106 20.9275C44.8733 20.9712 44.7364 21.0167 44.5997 21.0633C44.5886 21.0717 44.5774 21.08 44.5663 21.0882C44.512 21.1281 44.4592 21.1669 44.4287 21.214C44.3957 21.2651 44.2974 21.309 44.1938 21.3554C44.126 21.3858 44.0559 21.4172 44.0003 21.4522C43.9679 21.4727 43.9302 21.4541 43.8914 21.4348C43.8552 21.4169 43.818 21.3985 43.7833 21.411C43.7659 21.4172 43.7484 21.431 43.7297 21.4456C43.7133 21.4585 43.6959 21.4722 43.6768 21.4821C43.6592 21.4913 43.615 21.4854 43.5585 21.478C43.5236 21.4734 43.4839 21.4683 43.4427 21.4656C43.3414 21.4998 43.2399 21.5334 43.1382 21.566C43.1204 21.5915 43.1067 21.623 43.0983 21.6617C43.0922 21.6895 43.0887 21.722 43.0851 21.7553C43.0801 21.8005 43.075 21.8473 43.0632 21.886C43.054 21.9163 43.0393 21.9303 43.0259 21.9209C43.0197 21.9165 43.0139 21.9071 43.0086 21.8986C43.0025 21.8889 42.9971 21.8803 42.9926 21.8814C42.9893 21.8822 42.9873 21.8902 42.9847 21.8999C42.9805 21.9155 42.9752 21.9355 42.962 21.9386C42.913 21.95 42.8557 21.9543 42.7995 21.9584C42.7371 21.963 42.6761 21.9676 42.6294 21.9817C42.5771 21.9976 42.496 21.9839 42.4147 21.9703C42.3581 21.9608 42.3013 21.9514 42.2542 21.9518C42.208 21.9523 42.1641 21.976 42.1217 21.999C42.0707 22.0266 42.0216 22.0533 41.9729 22.0372C41.9631 22.0339 41.9466 22.0061 41.9259 21.9713C41.9112 21.9467 41.8943 21.9185 41.8763 21.893C41.8199 21.9032 41.7632 21.9122 41.7064 21.9202C41.7052 21.9246 41.7039 21.9291 41.7026 21.9337C41.7025 21.9338 41.7025 21.9339 41.7025 21.934C41.6734 22.0372 41.6335 22.1785 41.5304 22.1172C41.5041 22.1016 41.4833 22.0678 41.4645 22.0375C41.4461 22.0076 41.4296 21.9809 41.412 21.9779C41.3921 21.9744 41.3735 21.9981 41.3533 22.024C41.3248 22.0602 41.2931 22.1007 41.2495 22.0763C41.2465 22.0746 41.2433 22.0727 41.24 22.0709C41.2084 22.0536 41.1617 22.028 41.1091 21.969C40.9857 21.9731 40.8616 21.9741 40.7373 21.9732C40.53 21.9718 40.3216 21.9651 40.1134 21.9584C40.012 21.9549 39.9022 21.8814 39.807 21.7493C39.7118 21.6169 39.6393 21.4378 39.6045 21.2452C39.5696 21.0527 39.5747 20.8597 39.6174 20.7023C39.6602 20.5452 39.7373 20.4379 39.831 20.3991C39.9839 20.3362 40.1368 20.2732 40.2901 20.2129C40.2977 20.2074 40.3054 20.202 40.3131 20.1969C40.3702 20.1587 40.4179 20.0941 40.4657 20.0294C40.4766 20.0145 40.4876 19.9996 40.4987 19.9851Z" fill="currentColor"/>
<path d="M29.5963 11.0225C29.5323 10.9005 29.6204 10.723 29.6688 10.6253C29.6697 10.6235 29.6705 10.6217 29.6714 10.6199C29.6828 10.5967 29.6904 10.5739 29.6992 10.5471C29.7201 10.4833 29.7483 10.3971 29.8557 10.2303C29.8681 10.1766 29.8814 10.1231 29.8959 10.07C30.0522 9.49653 30.2837 8.94353 30.5301 8.39458C30.5316 8.38721 30.5332 8.37971 30.5347 8.37214C30.5646 8.22575 30.6016 8.04423 30.6652 7.94116C30.746 7.81012 30.8113 7.72396 30.8666 7.65364C31.0633 7.21787 31.2522 6.78 31.4031 6.33177C31.4504 6.19129 31.4939 6.04976 31.5328 5.90699C31.5687 5.77552 31.6017 5.64324 31.6321 5.51029C31.6333 5.42836 31.6297 5.34919 31.6264 5.27579C31.6218 5.17263 31.6178 5.08081 31.628 5.00866C31.6525 4.8348 31.7381 4.65331 31.8016 4.51854C31.812 4.49651 31.8218 4.47572 31.8306 4.45643C31.8489 4.34063 31.8663 4.22456 31.8835 4.10845C31.893 4.10299 31.9029 4.09756 31.9131 4.09206C32.0395 4.02344 32.0704 3.90513 32.1191 3.71894C32.1404 3.63786 32.165 3.5439 32.2023 3.43555C32.2264 3.36573 32.2761 3.34004 32.3167 3.31905C32.3286 3.31287 32.3398 3.30707 32.3493 3.3007C32.3817 3.27887 32.3633 3.24149 32.3414 3.19733C32.3131 3.14004 32.2791 3.0713 32.3434 3.01027C32.5483 2.8158 32.4804 2.68698 32.429 2.58953C32.4139 2.56095 32.4003 2.53505 32.3953 2.511C32.3794 2.43301 32.4403 2.34469 32.5076 2.28371C32.5609 2.23536 32.5558 2.10816 32.5329 2.00651C32.5242 1.96808 32.5361 1.92254 32.5503 1.86894C32.5649 1.81347 32.582 1.74932 32.5807 1.67536C32.5774 1.48846 32.578 1.38978 32.5785 1.31048C32.5787 1.28786 32.579 1.26684 32.579 1.24577C32.5792 1.1792 32.5863 1.09848 32.5936 1.01678C32.6024 0.919009 32.6112 0.819773 32.6082 0.741619C32.683 0.561529 32.7635 0.382972 32.8438 0.204429C32.8853 0.112765 32.9967 0.0443241 33.1574 0.0153324C33.3183 -0.013619 33.5143 -0.00107066 33.7067 0.0513669C33.8991 0.103812 34.0744 0.192483 34.1983 0.299052C34.3221 0.405601 34.3835 0.521127 34.3727 0.621144C34.3506 0.822546 34.3285 1.02399 34.3002 1.22372C34.2658 1.46702 34.2221 1.70782 34.158 1.94304C34.1131 2.10759 34.0637 2.27089 34.0106 2.43319C34.0051 2.4499 33.9996 2.46659 33.994 2.48327C34.0037 2.63442 34.0092 2.78414 33.9981 2.88553C33.9889 2.96925 33.9476 3.02088 33.9124 3.06509C33.8881 3.09552 33.8666 3.12245 33.8603 3.15389C33.8569 3.17078 33.8536 3.19423 33.8497 3.2225C33.8336 3.33794 33.8063 3.53399 33.713 3.69419C33.6716 3.76527 33.6069 3.84333 33.5451 3.91784C33.4567 4.02439 33.3744 4.12375 33.3746 4.1853C33.3749 4.29339 33.32 4.40227 33.2714 4.49846C33.2251 4.59021 33.1846 4.67046 33.2035 4.72753C33.2261 4.79572 33.197 4.8407 33.1539 4.90762C33.1241 4.95403 33.0875 5.01101 33.0565 5.09357C33.0208 5.18887 32.9751 5.25074 32.9362 5.30332C32.8815 5.37733 32.8404 5.43302 32.8596 5.53793C32.8808 5.65448 32.8829 5.77079 32.8441 5.8514C32.8265 5.88812 32.8162 5.9328 32.8055 5.9793C32.7913 6.04085 32.7763 6.10558 32.7426 6.15924C32.7149 6.20346 32.6667 6.23311 32.624 6.25935C32.6107 6.26754 32.598 6.27541 32.5865 6.28327C32.5765 6.32179 32.5668 6.36037 32.5574 6.39906C32.5617 6.40691 32.5666 6.41526 32.5716 6.42395C32.5968 6.46758 32.6276 6.52118 32.6345 6.57902C32.6454 6.67056 32.6048 6.73722 32.5618 6.8075C32.5283 6.86222 32.4935 6.91914 32.4806 6.99178C32.4718 7.04131 32.4721 7.1005 32.4724 7.15918C32.4728 7.24632 32.4731 7.33236 32.4438 7.38412C32.4329 7.40352 32.4046 7.41503 32.3764 7.42639C32.3762 7.42643 32.3761 7.42647 32.3759 7.42651C32.374 7.42728 32.3721 7.42806 32.3702 7.42884C32.3512 7.5691 32.334 7.70986 32.3178 7.85091C32.3207 7.86428 32.3234 7.87776 32.326 7.89111C32.339 7.95631 32.3516 8.01967 32.3811 8.06679C32.4131 8.11787 32.411 8.22374 32.4088 8.33533C32.4073 8.4084 32.4057 8.48394 32.4137 8.54812C32.4184 8.58565 32.3855 8.61107 32.3516 8.63721C32.32 8.6616 32.2875 8.68665 32.284 8.72275C32.2823 8.74083 32.2872 8.76221 32.2925 8.78504C32.2971 8.80514 32.302 8.8264 32.3029 8.84747C32.3036 8.86705 32.2795 8.90362 32.2487 8.95054C32.2297 8.97954 32.2082 9.0125 32.1882 9.04783C32.1759 9.15223 32.163 9.25648 32.1491 9.36044C32.1646 9.38714 32.1872 9.41279 32.2185 9.43679C32.2411 9.454 32.269 9.47104 32.2975 9.4885C32.3362 9.51225 32.3763 9.53682 32.4063 9.56378C32.4297 9.58485 32.4361 9.60393 32.4219 9.61169C32.4152 9.6153 32.4043 9.61648 32.3944 9.61755C32.383 9.61879 32.3729 9.6199 32.372 9.62436C32.3713 9.62758 32.3777 9.63285 32.3854 9.6393C32.3977 9.6496 32.4135 9.66295 32.4106 9.67593C32.4 9.72423 32.3795 9.77681 32.3593 9.82831C32.3368 9.88557 32.315 9.94156 32.3078 9.98898C32.2999 10.0421 32.2529 10.1081 32.206 10.1742C32.1733 10.2204 32.1406 10.2666 32.121 10.3085C32.1017 10.3497 32.1044 10.3986 32.1071 10.4461C32.1103 10.5031 32.1135 10.5579 32.0782 10.5942C32.0711 10.6015 32.0389 10.6043 31.9987 10.6078C31.9702 10.6102 31.9375 10.6131 31.9068 10.6182C31.892 10.6725 31.876 10.7265 31.859 10.7803C31.8624 10.7832 31.8659 10.7863 31.8695 10.7894C31.8696 10.7895 31.8697 10.7895 31.8697 10.7896C31.9506 10.8596 32.0612 10.9553 31.9619 11.0205C31.9366 11.037 31.8973 11.041 31.8618 11.0447C31.827 11.0482 31.7959 11.0514 31.7856 11.0657C31.774 11.0819 31.7875 11.1085 31.8022 11.1375C31.8228 11.1781 31.8459 11.2236 31.8052 11.2518C31.8024 11.2537 31.7994 11.2557 31.7963 11.2579C31.7673 11.2785 31.7242 11.3089 31.6485 11.3302C31.5996 11.4413 31.5477 11.5516 31.4939 11.6614C31.4043 11.8445 31.3094 12.0261 31.2146 12.2077C31.1682 12.296 31.0551 12.3619 30.8952 12.3897C30.735 12.4174 30.5423 12.405 30.3536 12.3535C30.1648 12.3021 29.9926 12.215 29.8687 12.1099C29.7449 12.0048 29.6809 11.8906 29.6857 11.791C29.694 11.6287 29.7023 11.4663 29.7132 11.3047C29.7114 11.2956 29.7099 11.2865 29.7085 11.2775C29.6983 11.2106 29.6603 11.1407 29.6222 11.0707C29.6134 11.0546 29.6047 11.0385 29.5963 11.0225Z" fill="currentColor"/>
<path d="M35.9684 14.0121C35.981 13.8736 36.153 13.7686 36.2476 13.7107C36.2493 13.7096 36.251 13.7085 36.2527 13.7075C36.2752 13.6937 36.2941 13.6782 36.3162 13.66C36.3689 13.6164 36.4401 13.5576 36.6226 13.472C36.6625 13.4326 36.7031 13.394 36.7445 13.3562C37.1913 12.9485 37.6907 12.5984 38.2005 12.2597C38.2058 12.2542 38.2112 12.2486 38.2167 12.2429C38.3222 12.1335 38.4531 11.9978 38.5635 11.9435C38.7038 11.8743 38.8065 11.8353 38.8919 11.8045C39.2974 11.5362 39.6976 11.262 40.0712 10.9586C40.1883 10.8635 40.3028 10.7655 40.414 10.6641C40.5164 10.5706 40.6169 10.4749 40.7156 10.3773C40.7615 10.3078 40.8018 10.2381 40.8393 10.1736C40.8919 10.0828 40.9388 10.0021 40.987 9.94572C41.1031 9.80997 41.2751 9.70013 41.4028 9.61858C41.4237 9.60525 41.4434 9.59268 41.4614 9.58087C41.5404 9.49148 41.6188 9.40141 41.697 9.31113C41.7081 9.31155 41.7194 9.31218 41.731 9.31286C41.8759 9.32143 41.9669 9.23658 42.1102 9.10315C42.1727 9.04505 42.2451 8.97775 42.3361 8.90486C42.3948 8.8579 42.451 8.86238 42.4969 8.86601C42.5104 8.86708 42.5231 8.86805 42.5346 8.86765C42.5741 8.86625 42.5789 8.82441 42.5846 8.77499C42.592 8.71088 42.6008 8.63392 42.6888 8.61591C42.9691 8.55852 42.9821 8.41208 42.9919 8.3013C42.9948 8.2688 42.9974 8.2394 43.0065 8.21619C43.0357 8.14093 43.1357 8.09777 43.2262 8.08136C43.2979 8.06834 43.3632 7.95674 43.3995 7.85754C43.4132 7.82003 43.4483 7.7874 43.4897 7.74905C43.5325 7.70936 43.5821 7.66353 43.6215 7.59952C43.7212 7.43777 43.7758 7.35362 43.8197 7.28604C43.8322 7.26677 43.844 7.24891 43.8556 7.2309C43.8922 7.17399 43.9425 7.10871 43.9934 7.04266C44.0544 6.96362 44.1163 6.88339 44.1566 6.81491C44.3187 6.70055 44.4848 6.59053 44.6508 6.48048C44.7362 6.42408 44.8681 6.42478 45.0203 6.48553C45.1726 6.54638 45.332 6.66148 45.4664 6.8088C45.6008 6.95612 45.7008 7.12533 45.7475 7.28253C45.7941 7.43964 45.7829 7.5712 45.7189 7.65107C45.5898 7.81172 45.4607 7.97241 45.3272 8.12831C45.1647 8.31823 44.9956 8.5011 44.8124 8.66832C44.6842 8.7853 44.5528 8.89877 44.4188 9.00943C44.405 9.02082 44.3911 9.03215 44.3773 9.04349C44.3027 9.17804 44.2253 9.30912 44.1603 9.38999C44.1066 9.45675 44.0433 9.47899 43.9892 9.49806C43.9519 9.51118 43.9189 9.52279 43.8964 9.54635C43.8842 9.55899 43.8686 9.57734 43.8498 9.59944C43.7729 9.6897 43.6423 9.843 43.4754 9.93045C43.4013 9.96925 43.3037 10.0016 43.2104 10.0325C43.0771 10.0767 42.9528 10.1179 42.9193 10.1707C42.8604 10.2634 42.7541 10.3274 42.6602 10.3839C42.5706 10.4377 42.4923 10.4849 42.4771 10.5438C42.4588 10.6142 42.4095 10.6372 42.3363 10.6716C42.2856 10.6954 42.2233 10.7247 42.1518 10.7789C42.0693 10.8414 41.9966 10.8701 41.9349 10.8944C41.8479 10.9286 41.7826 10.9544 41.7413 11.0544C41.6954 11.1655 41.6334 11.2661 41.5564 11.3145C41.5214 11.3366 41.4881 11.3693 41.4535 11.4034C41.4078 11.4485 41.3596 11.496 41.3016 11.524C41.2539 11.5471 41.1967 11.5468 41.1462 11.5466C41.1304 11.5465 41.1153 11.5464 41.1013 11.5471C41.0717 11.5747 41.0423 11.6026 41.0132 11.6307C41.0125 11.6397 41.0121 11.6495 41.0116 11.6596C41.009 11.7103 41.0058 11.7726 40.9799 11.8258C40.9389 11.9099 40.868 11.9454 40.793 11.9827C40.7347 12.0117 40.6739 12.0418 40.6232 12.0972C40.5886 12.1349 40.5564 12.1857 40.5245 12.2361C40.477 12.3109 40.4302 12.3847 40.377 12.4135C40.3571 12.4242 40.3268 12.419 40.2967 12.4137C40.2965 12.4137 40.2963 12.4136 40.2962 12.4136C40.2941 12.4132 40.2921 12.4129 40.2901 12.4125C40.1971 12.5225 40.1054 12.6338 40.0144 12.746C40.0094 12.7589 40.0044 12.7719 39.9993 12.7847C39.9745 12.8475 39.9505 12.9084 39.9497 12.9644C39.9489 13.0252 39.889 13.1147 39.826 13.209C39.7847 13.2708 39.742 13.3346 39.7136 13.3938C39.697 13.4284 39.6552 13.4327 39.6121 13.437C39.5719 13.4411 39.5306 13.4452 39.5079 13.4743C39.4965 13.4888 39.489 13.5097 39.4809 13.5321C39.4738 13.5518 39.4664 13.5726 39.4555 13.5911C39.4454 13.6082 39.405 13.6267 39.3531 13.6505C39.3211 13.6652 39.2848 13.6819 39.2485 13.7015C39.1809 13.7844 39.1128 13.8667 39.044 13.9483C39.0425 13.9794 39.0476 14.0134 39.0611 14.0506C39.0707 14.0774 39.0851 14.1068 39.0997 14.1369C39.1195 14.1779 39.1401 14.2203 39.1507 14.2593C39.159 14.2898 39.1539 14.3095 39.1376 14.3086C39.13 14.3082 39.1201 14.3033 39.1111 14.299C39.1008 14.294 39.0916 14.2896 39.0884 14.2929C39.0861 14.2953 39.0886 14.3032 39.0916 14.3128C39.0963 14.3282 39.1024 14.348 39.0929 14.3576C39.0575 14.3933 39.0112 14.4274 38.9659 14.4607C38.9155 14.4978 38.8662 14.534 38.8342 14.5709C38.7983 14.6121 38.7223 14.6436 38.6463 14.6752C38.5933 14.6973 38.5403 14.7195 38.5006 14.7449C38.4617 14.7699 38.4372 14.8132 38.4134 14.8553C38.3849 14.9058 38.3576 14.9544 38.3078 14.9667C38.2977 14.9691 38.2689 14.9544 38.2329 14.936C38.2074 14.9229 38.1781 14.908 38.1493 14.896C38.107 14.9346 38.0638 14.9723 38.0199 15.0092C38.0212 15.0136 38.0225 15.0181 38.0238 15.0227C38.0238 15.0228 38.0239 15.0229 38.0239 15.023C38.0541 15.1259 38.0954 15.2668 37.9756 15.2696C37.9451 15.2704 37.9095 15.2529 37.8774 15.2371C37.846 15.2216 37.8178 15.2078 37.8013 15.2145C37.7825 15.2222 37.7794 15.2522 37.776 15.2848C37.7712 15.3306 37.7659 15.3818 37.7159 15.3842C37.7125 15.3844 37.7088 15.3846 37.705 15.3848C37.6691 15.3869 37.616 15.39 37.5401 15.368C37.4377 15.437 37.3332 15.5038 37.2274 15.5692C37.0511 15.6781 36.8712 15.7832 36.6913 15.8881C36.6036 15.939 36.4715 15.9352 36.3206 15.8739C36.1697 15.8124 36.0131 15.6991 35.8812 15.5546C35.7493 15.4101 35.651 15.2439 35.6035 15.0879C35.5562 14.9321 35.5645 14.8002 35.6232 14.7175C35.7192 14.583 35.8151 14.4484 35.9129 14.3159C35.9165 14.3072 35.9201 14.2985 35.9239 14.2901C35.9519 14.2274 35.958 14.1473 35.964 14.0672C35.9654 14.0487 35.9668 14.0303 35.9684 14.0121Z" fill="currentColor"/>
</svg>
