<svg width="21" height="85" viewBox="0 0 21 85" fill="none" xmlns="http://www.w3.org/2000/svg">
<path d="M19.9393 74.8501C19.9393 74.9857 19.9267 75.0907 19.9081 75.1836C19.7042 76.3131 17.3899 79.8188 14.5879 82.0965C13.1746 83.2446 11.6377 84.0839 10.1872 84.1331C8.57652 84.1888 6.94071 83.3923 5.49023 82.1271C3.04581 80.0162 1.10163 76.6029 0.620483 73.7949C0.620483 73.7949 0.501953 60.2072 0.501953 41.2284C0.501953 29.162 1.02178 22.0613 0.898224 16.7038C0.855031 15.0002 0.811836 13.488 0.762616 12.0747C0.719423 10.9451 0.670205 9.88336 0.620483 8.83418C0.311603 2.35373 2.93482 0.501953 7.25562 0.501953C11.5759 0.501953 16.3593 1.2734 17.748 2.81629C19.081 4.29741 18.5626 9.48207 18.6616 12.0742C18.6616 12.1851 18.6676 12.2841 18.6741 12.3825C18.7113 13.0184 18.6802 14.5241 18.6184 16.7028C18.4456 23.017 18.5807 34.9152 18.9263 47.6481C19.3647 63.8625 20.0689 72.5418 19.9393 74.8501Z" stroke="#F6FAF9" stroke-width="1.00449" stroke-miterlimit="10"/>
<path d="M6.69037 74.9267C6.69037 74.9267 6.17858 57.4331 6.17858 39.7395C6.17858 22.046 5.86719 15.9834 5.86719 15.9834H13.1708C13.1708 15.9834 13.0448 27.536 13.2507 45.2296C13.4566 62.9226 13.7881 75.1321 13.7881 75.1321L6.69037 74.9267Z" stroke="#F6FAF9" stroke-width="1.00449" stroke-miterlimit="10"/>
<path d="M18.6189 16.7034H0.89928C0.856087 14.9998 0.812892 13.4875 0.763672 12.0742H18.6626C18.6626 12.1852 18.6687 12.2842 18.6752 12.3826C18.7119 13.0189 18.6807 14.5247 18.6189 16.7034Z" stroke="#F6FAF9" stroke-width="1.00449" stroke-miterlimit="10"/>
<path d="M19.9399 74.8503C19.9399 74.9859 19.9273 75.0909 19.9088 75.1838C19.7048 76.3133 17.3905 79.819 14.5885 82.0967C13.1752 83.2448 11.6383 84.084 10.1878 84.1333C8.57713 84.189 6.94132 83.3925 5.49084 82.1273C3.04642 80.0164 1.10224 76.6031 0.621094 73.7951C1.68284 72.3938 3.25034 72.8694 4.50946 73.8569C5.76859 74.8443 6.65103 74.2335 8.04627 73.3139C9.441 72.3943 10.6323 72.666 11.9592 73.8262C13.2862 74.9804 14.8477 73.9252 16.039 73.3139C17.2303 72.7027 18.4894 73.5545 19.2051 74.1964C19.4959 74.4616 19.7305 74.6404 19.9399 74.8503Z" stroke="#F6FAF9" stroke-width="1.00449" stroke-miterlimit="10"/>
<path d="M14.5889 82.0963C13.1755 83.2445 11.6387 84.0837 10.1882 84.1329C8.5775 84.1887 6.94169 83.3921 5.49121 82.127C6.05875 81.5655 7.37362 80.6273 9.87931 80.4791C11.8361 80.3681 13.4899 81.2631 14.5889 82.0963Z" stroke="#F6FAF9" stroke-width="1.00449" stroke-miterlimit="10"/>
</svg>
