<svg width="50" height="45" viewBox="0 0 50 45" fill="none" xmlns="http://www.w3.org/2000/svg">
<path d="M44.8418 33.7565C44.145 34.7632 42.3767 36.2871 41.3461 37.0107C41.3273 37.0244 41.3086 37.0382 41.2898 37.0518C41.0473 37.2277 40.8196 37.3946 40.5492 37.5868C39.9024 38.036 39.0319 38.6691 37.0631 39.6694C36.5038 39.9832 35.9351 40.2812 35.3605 40.5621C32.0685 42.1623 28.5577 43.3003 24.8967 43.8087C21.6617 44.2452 18.3436 44.262 15.0886 43.5504C15.0008 43.5337 14.9119 43.5162 14.8224 43.4981C13.0818 43.1677 10.978 42.4056 9.76643 41.695C8.22099 40.8122 7.29288 40.0172 6.57345 39.3489C2.27479 35.595 0.218119 29.9399 0.111419 24.5C0.0897179 23.5479 0.124242 22.5944 0.213718 21.6476L0.209815 21.7337C0.212555 20.9864 0.231033 20.2375 0.268756 19.4891C0.347148 17.9395 0.508526 16.3847 0.797961 14.8411C0.940577 13.9398 1.11727 13.0778 1.32244 12.2886C1.61085 11.1756 1.95959 10.1999 2.31833 9.4189C3.15863 7.52351 4.66576 5.61702 6.01487 4.48285C6.23415 4.29263 6.44318 4.12251 6.64083 3.96854C7.71238 3.07171 8.90772 2.32901 10.1674 1.74177C10.2553 1.71524 10.3445 1.68946 10.4356 1.66397C11.5875 1.34806 12.9278 0.853639 15.1279 0.458267C16.0656 0.293213 17.1939 0.151794 18.4977 0.0945474C19.3396 0.0592282 19.783 0.120578 20.1263 0.168161C20.2291 0.182528 20.3259 0.196363 20.4242 0.207892C20.7568 0.247349 21.1353 0.211286 21.5381 0.174636C22.065 0.127146 22.7643 0.0825466 23.5891 0.21689C24.0033 0.283481 24.3882 0.344495 24.7461 0.399213L24.6605 0.394835C26.6216 0.50449 27.617 0.524213 28.4063 0.525372C28.6817 0.52896 28.9309 0.536008 29.1832 0.560264C30.0023 0.635084 31.1448 0.935226 31.9724 1.24312C32.636 1.47903 33.9791 1.8487 34.9949 2.19185C35.3768 2.31755 35.8825 2.53308 36.461 2.81093C37.0622 3.09938 37.7447 3.4569 38.4689 3.85264C40.2988 4.86707 41.1811 5.56732 41.8912 6.11931C42.0913 6.27843 42.277 6.43143 42.4597 6.586C43.0364 7.07259 43.7216 7.72131 44.3659 8.42665C45.1407 9.26888 45.8498 10.1939 46.36 10.9246C47.5788 12.8816 48.4694 15.0502 48.9498 17.307C49.1994 18.4657 49.2059 19.6191 49.0369 20.4523C48.8678 21.2859 48.5647 21.7345 48.2662 21.7337C47.9635 21.7328 47.6841 21.293 47.4133 20.5615C47.1425 19.8259 46.8849 18.8567 46.6228 17.8527C46.0994 15.8252 45.1988 13.9072 44.0147 12.1859C42.5721 10.0861 40.7165 8.27736 38.6203 6.80897C37.154 5.78124 35.5612 4.92333 33.8933 4.249C33.7215 4.17954 33.5485 4.11177 33.3743 4.04589C31.93 3.58684 30.4486 3.28819 29.4052 3.1184C28.5431 2.97631 27.9149 2.85737 27.3745 2.7652C27.0004 2.70235 26.6707 2.65446 26.3328 2.6358C26.1521 2.62589 25.9002 2.61614 25.6036 2.6109C25.3299 2.60602 25.0119 2.60471 24.6605 2.60991L24.5201 2.60273C23.2627 2.49027 21.6988 2.39692 20.194 2.34857C19.3569 2.31897 18.3731 2.2935 17.4155 2.32461C16.0795 2.35936 14.8171 2.52633 14.2293 2.69446C13.1559 2.98876 11.9603 3.34385 10.9503 3.77426C9.97506 4.18396 9.19263 4.6462 8.78966 4.98693C8.3216 5.38669 7.8907 5.68586 7.2907 6.19302C6.8817 6.54364 6.38562 7.00173 5.81833 7.71582C5.16772 8.54386 4.75772 9.17768 4.42439 9.72689C3.96272 10.5055 3.64957 11.1263 3.37425 12.1169C3.07153 13.2179 2.83864 14.3888 2.64164 15.3109C2.55037 15.7338 2.47329 16.2177 2.40683 16.7291C2.31871 17.4032 2.25113 18.1182 2.17646 18.7726C2.11491 19.3104 2.03536 19.7576 1.96928 20.1536C1.94871 20.2774 1.92959 20.3964 1.9129 20.5119C1.9025 20.919 1.89824 21.3257 1.89978 21.7337L1.89675 21.8006C1.89435 21.8281 1.89201 21.8557 1.88973 21.8832C1.89308 21.953 1.89747 22.0264 1.90234 22.1029C1.92699 22.4872 1.96595 22.9569 1.99196 23.5331C2.03471 24.4447 2.04359 25.2417 2.09864 26.0847C2.14287 26.7401 2.21665 27.4231 2.39004 28.1878C2.50816 28.7087 2.68147 29.2926 2.88157 29.8586C3.17661 30.701 3.53604 31.4996 3.77026 32.0603C3.85753 32.2706 3.90947 32.4627 3.96388 32.6529C3.96406 32.6538 3.96425 32.6546 3.96443 32.6555C3.96813 32.6684 3.97192 32.6813 3.97566 32.6942C4.66888 34.0086 5.53187 35.2243 6.5458 36.2881C6.63876 36.3762 6.73331 36.4637 6.82756 36.5489C7.28889 36.9676 7.76445 37.3376 8.10352 37.5419C8.46679 37.7648 9.3192 38.3937 10.3016 38.9153C10.9447 39.2625 11.6366 39.5665 12.2124 39.7668C12.5502 39.885 12.8595 40.0435 13.1752 40.1946C13.4707 40.3359 13.7942 40.4778 14.1471 40.5681C14.3263 40.614 14.5248 40.651 14.7392 40.687C14.9304 40.7192 15.1239 40.7481 15.3293 40.7826C15.5158 40.8137 15.9521 40.9256 16.4886 41.0343C16.8212 41.102 17.2265 41.1731 17.6265 41.2277C18.7176 41.3128 19.8295 41.3187 20.9201 41.2607C21.1493 41.2198 21.3553 41.1668 21.5062 41.1032C21.6148 41.0576 21.7066 41.0046 21.8008 40.9499C21.929 40.8755 22.0614 40.798 22.2473 40.7285C22.3926 40.6742 22.5674 40.6415 22.6884 40.6475C22.7448 40.6503 22.7891 40.6615 22.8294 40.6715C22.8765 40.6828 22.9148 40.6932 22.9618 40.6879C22.9955 40.684 23.0294 40.669 23.0712 40.6507C23.1379 40.6213 23.2246 40.5833 23.362 40.5661C23.6789 40.5264 24.0278 40.4828 24.3904 40.4329C24.6019 40.4039 24.8184 40.3722 25.0352 40.3376C25.6651 40.2376 26.282 40.1144 26.7652 39.9901C27.3114 39.8508 28.0924 39.6876 28.8761 39.4873C29.4202 39.3493 29.9679 39.1937 30.4251 39.0404C30.8771 38.8892 31.329 38.6899 31.7647 38.4868C32.2856 38.2441 32.7813 37.9965 33.2211 37.8332C33.3103 37.8002 33.4364 37.7917 33.595 37.7796C33.7073 37.771 33.8372 37.7599 33.9798 37.7378C34.5193 37.4741 35.0539 37.1976 35.5801 36.909C35.5956 36.8933 35.6116 36.8772 35.6275 36.8609C35.6277 36.8606 35.6279 36.8603 35.6282 36.86C35.9885 36.4913 36.4644 35.9904 37.314 35.5826C37.5299 35.4786 37.6861 35.4412 37.8266 35.4073C37.9645 35.3738 38.0881 35.3431 38.2368 35.2514C38.4053 35.1473 38.5798 34.987 38.766 34.8106C39.0276 34.5628 39.3122 34.2827 39.6538 34.0725C39.6771 34.0581 39.7022 34.0427 39.7282 34.0265C39.9744 33.8737 40.3374 33.6402 40.7246 33.436C41.6953 32.6224 42.6043 31.7421 43.4204 30.7901C44.7792 29.2065 45.8812 27.4095 46.5291 25.4513C46.8473 24.5009 47.1348 23.5794 47.4156 22.8704C47.6965 22.1678 47.9688 21.7348 48.2662 21.7337C48.5584 21.7327 48.8597 22.1766 49.0146 23.0064C49.1694 23.8372 49.1286 24.9895 48.8206 26.1307C48.3248 27.9914 47.4872 29.747 46.4356 31.3291C46.3835 31.4139 46.3304 31.4987 46.2767 31.5826C45.8751 32.208 45.5086 32.7929 45.117 33.3647C45.0271 33.4958 44.9355 33.6265 44.8418 33.7565Z" fill="#FD1E1F"/>
<path d="M18.8159 13.5271C18.9491 13.6039 18.9373 13.7971 18.9308 13.9072C18.9307 13.9091 18.9307 13.9111 18.9306 13.913C18.9289 13.9382 18.9315 13.9614 18.9347 13.9888C18.9424 14.055 18.9527 14.1434 18.9112 14.3384C18.923 14.391 18.9336 14.4451 18.9424 14.4974C19.0385 15.0721 19.0257 15.6644 18.9797 16.2527C18.9811 16.2599 18.9826 16.2673 18.9842 16.2747C19.0133 16.4174 19.0482 16.5955 19.018 16.712C18.98 16.8625 18.9397 16.9618 18.9047 17.0468C18.8578 17.5053 18.8121 17.9594 18.8054 18.4106L18.8067 18.4821C18.806 18.488 18.8054 18.4938 18.8048 18.4997C18.7905 18.6344 18.7823 18.7697 18.7812 18.9042C18.7803 19.0279 18.7841 19.1521 18.7925 19.2752C18.8185 19.3466 18.8498 19.4144 18.8791 19.4762C18.9202 19.5637 18.9574 19.6405 18.9711 19.704C19.0041 19.8575 18.9707 20.0334 18.948 20.1647C18.9443 20.1862 18.9408 20.2065 18.9379 20.2252C18.9615 20.3264 18.9873 20.4263 19.0149 20.5255C19.0059 20.5332 18.9966 20.541 18.9871 20.5489C18.8681 20.6485 18.8814 20.7563 18.9069 20.9219C18.918 20.9938 18.9317 21.0774 18.939 21.176C18.9438 21.24 18.8995 21.2806 18.8635 21.315C18.8529 21.325 18.843 21.3344 18.8353 21.3436C18.8089 21.3748 18.8478 21.3953 18.8937 21.4187C18.9533 21.4491 19.0248 21.4838 18.9831 21.5589C18.8663 21.7735 18.9683 21.8475 19.0668 21.8869C19.0792 21.8908 19.0923 21.8965 19.1048 21.902C19.1372 21.9162 19.1665 21.9294 19.1855 21.9465C19.2469 22.0012 19.2321 22.1144 19.1931 22.2072C19.1623 22.2804 19.2381 22.3932 19.3174 22.4767C19.3475 22.5085 19.3583 22.5579 19.3698 22.6146C19.3819 22.6744 19.3947 22.7418 19.4324 22.8107C19.5271 22.9836 19.5711 23.0754 19.607 23.1495C19.6171 23.1703 19.6263 23.1901 19.6359 23.21C19.6657 23.2711 19.6935 23.3487 19.721 23.4278C19.7536 23.5206 19.7862 23.617 19.8228 23.6864C19.8126 23.8805 19.7927 24.0729 19.7713 24.2635C19.7601 24.3618 19.6575 24.4644 19.4807 24.5447C19.3039 24.6263 19.0693 24.6836 18.823 24.7028C18.5768 24.7222 18.3362 24.7024 18.1487 24.6524C17.9615 24.6035 17.8436 24.5239 17.816 24.4342C17.7609 24.2541 17.7045 24.0754 17.6542 23.8998C17.5928 23.6851 17.5405 23.4748 17.509 23.2702C17.4869 23.1263 17.4684 22.9888 17.4502 22.8541C17.4483 22.8403 17.4464 22.8261 17.4446 22.8124C17.3606 22.7149 17.2789 22.6221 17.2367 22.543C17.2106 22.4942 17.213 22.4458 17.2215 22.4008C17.2228 22.3807 17.2258 22.3648 17.2287 22.3495C17.2369 22.3066 17.2444 22.2688 17.2332 22.2358C17.2272 22.2181 17.2172 22.1942 17.2055 22.1653C17.1572 22.0479 17.0799 21.8458 17.1037 21.6471C17.1141 21.5589 17.1487 21.4544 17.1833 21.3557C17.2327 21.2151 17.2822 21.0876 17.2544 21.0302C17.2053 20.9292 17.2213 20.8041 17.2373 20.6955C17.2523 20.5914 17.2669 20.5017 17.2218 20.455C17.1678 20.3988 17.1838 20.3462 17.2081 20.2679C17.2251 20.2142 17.2459 20.1479 17.2511 20.0604C17.2572 19.9591 17.2885 19.8864 17.3153 19.8253C17.353 19.7387 17.3819 19.675 17.3222 19.5824C17.256 19.4789 17.2138 19.3696 17.2329 19.2828C17.2416 19.243 17.239 19.1987 17.2365 19.1517C17.2331 19.0896 17.23 19.0247 17.253 18.9654C17.2719 18.9168 17.3202 18.8766 17.363 18.8416C17.3763 18.8307 17.3891 18.8203 17.4003 18.8101C17.4002 18.7717 17.3998 18.7326 17.399 18.6943C17.3914 18.6879 17.383 18.6813 17.3743 18.6743C17.3306 18.6393 17.2771 18.5952 17.2513 18.5424C17.2339 18.5067 17.2291 18.4729 17.2317 18.44L17.233 18.5101C17.2327 18.4676 17.2458 18.4256 17.2593 18.3825C17.2776 18.3239 17.2967 18.2646 17.2835 18.1963C17.2745 18.1501 17.2511 18.0988 17.2278 18.0484C17.1932 17.9743 17.1587 17.8984 17.1724 17.8443C17.1775 17.8239 17.2061 17.8044 17.2346 17.7851C17.2348 17.785 17.2349 17.7849 17.2351 17.7848C17.237 17.7835 17.2389 17.7822 17.2409 17.7809C17.2072 17.6528 17.1707 17.5274 17.1319 17.3993C17.1231 17.3889 17.1145 17.3783 17.1059 17.3678C17.0642 17.3164 17.0236 17.2682 16.9697 17.2378C16.9113 17.2052 16.8702 17.1149 16.8263 17.0199C16.7975 16.957 16.7677 16.8928 16.7315 16.8423C16.7103 16.8128 16.7377 16.7784 16.7659 16.7438C16.7923 16.7113 16.8193 16.678 16.808 16.6465C16.8024 16.6307 16.7876 16.6147 16.7718 16.5977C16.7578 16.5825 16.743 16.5663 16.733 16.5488C16.7237 16.5326 16.736 16.4925 16.7514 16.4416C16.7609 16.4101 16.7717 16.3749 16.7794 16.3369C16.7483 16.2438 16.7179 16.1531 16.6882 16.0601C16.6586 16.044 16.6213 16.0317 16.5746 16.0243C16.5411 16.0191 16.5014 16.0161 16.4609 16.0131C16.4058 16.009 16.3488 16.0049 16.3024 15.9944C16.2661 15.9862 16.2503 15.973 16.2632 15.9609C16.2693 15.9552 16.2814 15.9499 16.2923 15.945C16.3048 15.9395 16.316 15.9345 16.3151 15.9304C16.3144 15.9275 16.3047 15.9257 16.293 15.9235C16.2743 15.9199 16.2502 15.9153 16.2477 15.9035C16.2385 15.8598 16.2389 15.8092 16.239 15.7581C16.2391 15.7017 16.2393 15.6481 16.2261 15.6062C16.2112 15.5588 16.2353 15.4861 16.259 15.4129C16.2753 15.361 16.2916 15.3095 16.2949 15.2675C16.2982 15.227 16.2724 15.1864 16.2475 15.1493C16.2175 15.1043 16.1886 15.0622 16.2119 15.0168C16.2167 15.0077 16.252 14.9916 16.2962 14.9714C16.3276 14.957 16.3634 14.9406 16.3961 14.9232C16.3877 14.8734 16.3805 14.8213 16.3746 14.7703C16.3693 14.7694 16.3639 14.7684 16.3583 14.7675C16.3582 14.7675 16.3581 14.7675 16.358 14.7675C16.2332 14.7466 16.0624 14.7174 16.1443 14.6214C16.1652 14.597 16.208 14.5765 16.2465 14.5579C16.2843 14.5394 16.318 14.5227 16.3229 14.5064C16.3283 14.4878 16.3002 14.4723 16.2698 14.4555C16.227 14.432 16.1793 14.4067 16.2117 14.3647C16.2139 14.3619 16.2163 14.3589 16.2188 14.3557C16.2418 14.3258 16.2758 14.2818 16.3512 14.2307C16.3526 14.1168 16.3578 14.0051 16.3644 13.8905C16.3755 13.7003 16.3918 13.5084 16.407 13.3137C16.4145 13.218 16.5081 13.1091 16.6731 13.0071C16.8385 12.9057 17.0612 12.8238 17.299 12.777C17.5366 12.7294 17.7731 12.7179 17.9644 12.7439C18.1557 12.7707 18.2845 12.8318 18.3294 12.9179C18.402 13.0573 18.4747 13.1984 18.5434 13.3412C18.55 13.3483 18.5564 13.3554 18.5624 13.3626C18.6072 13.4137 18.6851 13.4569 18.7628 13.4983C18.7806 13.5077 18.7984 13.5173 18.8159 13.5271Z" fill="#FD1E1F"/>
<path d="M26.0752 11.3792C26.2037 11.3978 26.1932 11.5161 26.188 11.5827C26.1879 11.5839 26.1879 11.5851 26.1878 11.5863C26.1866 11.602 26.1895 11.6157 26.193 11.6316C26.2012 11.6693 26.2117 11.7184 26.1765 11.8456C26.1893 11.875 26.2004 11.9034 26.2105 11.9332C26.3192 12.2546 26.3382 12.6082 26.3402 12.9684C26.3422 12.9723 26.3442 12.9762 26.3462 12.9802C26.3854 13.0568 26.4342 13.1525 26.416 13.2293C26.3928 13.327 26.3646 13.3979 26.3393 13.4568C26.3406 13.7435 26.3518 14.0274 26.4096 14.295C26.4276 14.3784 26.4506 14.4614 26.4789 14.5414C26.5046 14.6142 26.5348 14.6885 26.5673 14.7594C26.6062 14.7933 26.6492 14.8248 26.6889 14.8535C26.7448 14.8939 26.7941 14.9287 26.8187 14.9641C26.8785 15.0507 26.8754 15.17 26.8741 15.2611C26.8738 15.2758 26.8735 15.2897 26.8735 15.3023C26.9103 15.358 26.95 15.4183 26.9885 15.474C26.981 15.4814 26.973 15.489 26.9648 15.4968C26.8627 15.5931 26.8888 15.6606 26.9282 15.7624C26.9461 15.8085 26.9655 15.8586 26.9793 15.9237C26.9884 15.9663 26.9478 16.0039 26.9147 16.0347C26.905 16.0437 26.8959 16.0522 26.8889 16.0599C26.865 16.0868 26.9026 16.0899 26.9483 16.097C27.0073 16.1054 27.078 16.1149 27.0391 16.1742C26.9169 16.3675 27.0533 16.3803 27.1566 16.3904C27.1868 16.3931 27.214 16.3953 27.2309 16.4014C27.2874 16.4253 27.2648 16.4898 27.2242 16.553C27.1932 16.5987 27.2538 16.6441 27.3205 16.6609L27.3489 16.7441C27.353 16.7468 27.3571 16.7494 27.3612 16.752C27.39 16.7698 27.3995 16.8024 27.4099 16.8402C27.4206 16.8795 27.4322 16.9243 27.4681 16.9661C27.5587 17.0717 27.6009 17.1255 27.6351 17.1678C27.6448 17.1798 27.6536 17.1909 27.6627 17.2018C27.6873 17.2314 27.7102 17.2673 27.7326 17.3025C27.7364 17.3084 27.7401 17.3143 27.7439 17.3204C27.7756 17.3713 27.809 17.4308 27.8465 17.4757C27.8398 17.6116 27.8221 17.7514 27.8 17.8816C27.7886 17.9487 27.6854 18.0227 27.5084 18.0852C27.3313 18.1481 27.0964 18.195 26.8507 18.22C26.6049 18.2447 26.3655 18.2462 26.1797 18.2277C25.994 18.2091 25.8782 18.1721 25.8524 18.1246C25.8008 18.0274 25.748 17.9405 25.6999 17.8501C25.6771 17.8071 25.655 17.7614 25.6343 17.7087C25.6015 17.6255 25.5769 17.5494 25.562 17.4795C25.5453 17.4008 25.5342 17.3308 25.5256 17.2628L25.5611 17.3667C25.5606 17.3652 25.5602 17.3636 25.5597 17.362C25.5567 17.3516 25.5538 17.3408 25.5507 17.3298C25.459 17.2632 25.3778 17.205 25.3373 17.1538C25.3033 17.1098 25.3227 17.069 25.3373 17.0287C25.3476 17.0018 25.3563 16.9766 25.3477 16.9612C25.3429 16.9525 25.3347 16.9411 25.3247 16.9271C25.2831 16.8681 25.214 16.7709 25.234 16.6527C25.2431 16.6011 25.272 16.5288 25.3019 16.466C25.3438 16.374 25.3816 16.2842 25.3514 16.2603C25.2977 16.2169 25.3012 16.1378 25.3064 16.0732C25.3107 16.0101 25.3141 15.9537 25.2654 15.9397C25.2075 15.9241 25.2165 15.8898 25.2296 15.8383C25.2388 15.8029 25.2493 15.7577 25.2419 15.707C25.2334 15.6484 25.2518 15.5975 25.2674 15.5541C25.2892 15.4925 25.3063 15.4481 25.2339 15.4146C25.1535 15.3777 25.0934 15.3291 25.0955 15.2751C25.0964 15.2503 25.0855 15.2261 25.074 15.2008C25.0589 15.1674 25.0427 15.1312 25.0527 15.0911C25.0608 15.0578 25.098 15.0193 25.131 14.9852C25.1413 14.9746 25.1511 14.9644 25.1595 14.9549C25.1513 14.9334 25.1427 14.9119 25.1337 14.8905C25.1252 14.8896 25.1158 14.8887 25.1061 14.8877C25.0574 14.8828 24.998 14.8774 24.9621 14.857C24.9053 14.8247 24.9161 14.7747 24.9277 14.7219C24.9366 14.6805 24.9463 14.6383 24.9244 14.6009C24.9095 14.5754 24.88 14.5508 24.8509 14.5262C24.8075 14.4896 24.7649 14.4539 24.7709 14.4164C24.7731 14.4024 24.798 14.3823 24.8228 14.3624C24.8229 14.3622 24.8231 14.3621 24.8233 14.362C24.8249 14.3607 24.8266 14.3593 24.8283 14.358C24.7797 14.2888 24.7291 14.2204 24.6772 14.1524C24.6675 14.1483 24.658 14.1441 24.6486 14.1399C24.6025 14.1194 24.5578 14.0995 24.5028 14.0955C24.4432 14.0911 24.3934 14.0453 24.341 13.997C24.3067 13.9654 24.2713 13.9328 24.2312 13.9098C24.2077 13.8965 24.2307 13.8681 24.2544 13.8389C24.2766 13.8116 24.2994 13.7837 24.2854 13.7666C24.2784 13.758 24.2626 13.7516 24.2457 13.7448C24.2309 13.7388 24.2151 13.7325 24.2039 13.7241C24.1935 13.7163 24.2015 13.6877 24.2117 13.6514C24.218 13.6289 24.2251 13.6034 24.2294 13.5778C24.1914 13.5271 24.1544 13.4764 24.1183 13.4246C24.0885 13.4215 24.0516 13.4226 24.0059 13.4291C23.9731 13.4338 23.9346 13.4414 23.8952 13.4492C23.8417 13.4597 23.7863 13.4706 23.7408 13.4751C23.7051 13.4786 23.6889 13.4739 23.7004 13.4631C23.7058 13.458 23.7171 13.4517 23.7273 13.446C23.7389 13.4394 23.7493 13.4336 23.7481 13.4312C23.7473 13.4295 23.7378 13.4306 23.7263 13.432C23.708 13.4342 23.6844 13.4369 23.6811 13.4299C23.669 13.4041 23.6653 13.3701 23.6618 13.3374C23.658 13.301 23.6543 13.2655 23.6388 13.2416C23.6214 13.2149 23.6399 13.1619 23.6582 13.1084C23.6709 13.0712 23.6836 13.0341 23.6844 13.0059C23.6852 12.9782 23.6585 12.9591 23.6323 12.9401C23.6008 12.9171 23.5705 12.8951 23.5909 12.8608C23.5951 12.8539 23.6286 12.8357 23.6704 12.813C23.7001 12.7969 23.734 12.7784 23.7648 12.7601C23.7543 12.7289 23.7456 12.6984 23.7376 12.6658C23.7324 12.6663 23.7271 12.6668 23.7217 12.6673C23.7216 12.6673 23.7215 12.6674 23.7214 12.6674C23.5995 12.6797 23.4328 12.6964 23.5086 12.6163C23.5279 12.5959 23.5687 12.5736 23.6054 12.5534C23.6414 12.5336 23.6736 12.516 23.6778 12.5046C23.6826 12.4916 23.6549 12.4874 23.6248 12.4823C23.5825 12.4754 23.5352 12.4677 23.5655 12.4341C23.5676 12.4318 23.5699 12.4293 23.5722 12.4267C23.5937 12.4026 23.6255 12.3669 23.6973 12.3182C23.697 12.2467 23.6984 12.1683 23.7039 12.0942C23.712 11.9676 23.7271 11.8399 23.7422 11.7111C23.7506 11.6508 23.8408 11.5599 24.0021 11.4669C24.1635 11.373 24.3802 11.2813 24.611 11.2074C24.8418 11.1337 25.0713 11.0825 25.2567 11.0636C25.4417 11.0441 25.5672 11.0626 25.6088 11.1045C25.6774 11.1765 25.7462 11.2482 25.8123 11.3221C25.8186 11.3251 25.8247 11.3282 25.8306 11.3313C25.8742 11.3551 25.9486 11.3629 26.0238 11.3725C26.041 11.3747 26.0583 11.3768 26.0752 11.3792Z" fill="#FD1E1F"/>
<path d="M17.5703 30.1693C17.7701 30.1352 18.0735 30.3009 18.2618 30.3874C18.2652 30.3889 18.2686 30.3905 18.272 30.3921C18.316 30.4127 18.3589 30.4279 18.4105 30.4455C18.4913 30.4731 18.5922 30.5069 18.7532 30.5751C18.8129 30.6037 18.8905 30.6405 18.9943 30.6869C19.0887 30.7031 19.1871 30.7186 19.2896 30.7342C20.4134 30.8974 21.7536 31.0069 23.0819 31.2172C23.0873 31.2174 23.0928 31.2176 23.0982 31.2178C23.1089 31.2181 23.1196 31.2184 23.1304 31.2187C23.4379 31.2281 23.8198 31.2266 24.0605 31.2718C24.3662 31.33 24.5767 31.3768 24.7503 31.4164C25.7415 31.4877 26.7501 31.4759 27.7354 31.3334C28.044 31.2886 28.35 31.2306 28.651 31.1577C28.9281 31.0905 29.2012 31.0118 29.4678 30.9212C29.6163 30.8484 29.7532 30.7705 29.878 30.696C30.0523 30.5919 30.2022 30.4947 30.3285 30.4286C30.3775 30.4031 30.4274 30.3785 30.4774 30.3548C30.7573 30.2229 31.0614 30.1091 31.293 30.0124C31.3382 29.9936 31.3803 29.9757 31.4193 29.9586C31.6162 29.8289 31.8058 29.6921 31.9867 29.549C32.0048 29.5484 32.0233 29.548 32.0421 29.5476C32.2768 29.5419 32.4803 29.3975 32.7671 29.1488C32.8918 29.0398 33.0319 28.9103 33.1941 28.7563C33.2982 28.657 33.3846 28.6361 33.4566 28.6177C33.4777 28.6123 33.4974 28.6071 33.5156 28.6002C33.5781 28.5765 33.5925 28.5063 33.6066 28.4247C33.6254 28.3179 33.6425 28.1938 33.7736 28.1078C34.1934 27.8239 34.1826 27.5577 34.1682 27.3831C34.1641 27.3301 34.1594 27.2831 34.1646 27.2397C34.168 27.2118 34.1752 27.1832 34.1855 27.1544L34.1323 27.3114C34.1566 27.1656 34.2301 27.018 34.3088 26.893C34.3856 26.7745 34.399 26.5047 34.3847 26.2946C34.3797 26.2133 34.4006 26.1185 34.4274 25.9963C34.4541 25.8749 34.4857 25.7303 34.4931 25.5769C34.5131 25.1819 34.525 24.9706 34.5337 24.8044C34.5363 24.7562 34.5387 24.7122 34.5405 24.6691C34.5476 24.5261 34.5629 24.3588 34.5776 24.185C34.5949 23.9792 34.6092 23.7732 34.6048 23.6182C34.6916 23.2763 34.7704 22.8585 34.7862 22.755L34.8094 22.8783C34.81 22.8703 34.8099 22.8609 34.809 22.8494C34.8038 22.7596 34.8146 22.5091 34.9217 22.2976C35.0268 22.0815 35.2107 21.9053 35.4378 21.8081C35.6651 21.7114 35.9176 21.6957 36.1467 21.7636C36.3748 21.8362 36.5668 21.9682 36.6863 22.2766C36.7008 22.3157 36.715 22.357 36.7282 22.3999L36.7477 22.5032C36.8451 23.1692 36.7814 23.5624 36.7481 24.0133C36.6929 24.5781 36.6075 25.1229 36.4939 25.6557C36.4137 26.0297 36.3251 26.4003 36.2307 26.7674C36.2206 26.8069 36.2112 26.8425 36.2014 26.8801C36.1888 27.2082 36.1721 27.5232 36.1393 27.7492C36.1377 27.7603 36.1359 27.7713 36.134 27.782L36.0614 27.9965C35.9883 28.1834 35.8933 28.3033 35.8107 28.4038C35.7496 28.478 35.6952 28.5409 35.6556 28.6149C35.6344 28.6545 35.6067 28.7091 35.5721 28.7743C35.4332 29.0415 35.1606 29.4858 34.8087 29.7919C34.6539 29.9286 34.4537 30.0636 34.2601 30.1808C33.9831 30.3496 33.7204 30.4817 33.6202 30.5881C33.4439 30.7761 33.1898 30.9247 32.9639 31.0437C32.7483 31.158 32.5578 31.2478 32.4762 31.3441C32.3783 31.4593 32.2619 31.5031 32.0896 31.5631C31.9702 31.6044 31.8235 31.6537 31.6347 31.7357C31.4456 31.8176 31.2944 31.8571 31.1665 31.8861C31.1465 31.8907 31.127 31.895 31.1079 31.8992C30.9038 31.9439 30.7531 31.9722 30.5625 32.1054C30.3504 32.2531 30.1114 32.3756 29.9098 32.417C29.8166 32.4364 29.7166 32.4687 29.6094 32.5017C29.4696 32.545 29.3205 32.5883 29.179 32.6008C29.0613 32.6114 28.9586 32.5867 28.8668 32.5647C28.8382 32.5578 28.8108 32.5512 28.7848 32.5458C28.6967 32.5666 28.6072 32.5873 28.5189 32.6075C28.5061 32.6181 28.4928 32.6297 28.4788 32.6416C28.4086 32.7016 28.3208 32.7749 28.2041 32.8248C28.0185 32.904 27.8433 32.9073 27.66 32.9081C27.5165 32.9088 27.3688 32.9078 27.2036 32.9389C27.091 32.9601 26.9641 32.9963 26.838 33.0308C26.6506 33.0822 26.464 33.1298 26.331 33.1241C26.2811 33.122 26.236 33.0958 26.1916 33.0697C26.1914 33.0695 26.1912 33.0693 26.191 33.0692C26.188 33.0674 26.185 33.0656 26.182 33.0639C25.8649 33.1145 25.5466 33.1604 25.2268 33.2005C25.1993 33.2094 25.1715 33.2182 25.1439 33.2268C25.0089 33.2687 24.8773 33.3079 24.7913 33.3604C24.6983 33.4174 24.4613 33.4534 24.2097 33.4854C24.0452 33.5065 23.874 33.5261 23.7337 33.5525C23.6514 33.5679 23.5748 33.5342 23.4969 33.499C23.4238 33.4662 23.3491 33.4321 23.2658 33.4353C23.2242 33.4369 23.1783 33.4472 23.1293 33.4581C23.0862 33.4677 23.0406 33.4777 22.9933 33.4824C22.9804 33.4837 22.9631 33.4826 22.942 33.4796C22.895 33.4727 22.8277 33.4552 22.7475 33.4348C22.6774 33.4169 22.5976 33.3969 22.5133 33.3795C22.2873 33.3854 22.0602 33.3917 21.8316 33.397C21.7828 33.4217 21.7395 33.4548 21.7045 33.4984C21.6794 33.5297 21.6574 33.5675 21.6349 33.6061C21.604 33.6587 21.5721 33.713 21.5299 33.7554C21.4968 33.7886 21.4594 33.8005 21.4352 33.7848C21.424 33.7775 21.4157 33.7643 21.4083 33.7524C21.3997 33.7388 21.3921 33.7267 21.382 33.7265C21.3747 33.7264 21.3667 33.7353 21.3568 33.7461C21.341 33.7633 21.3206 33.7855 21.2911 33.7848C21.181 33.7821 21.0564 33.7681 20.9333 33.7538C20.7968 33.7381 20.6618 33.7222 20.5529 33.7223C20.4309 33.7225 20.2595 33.6766 20.0854 33.6287C19.9641 33.5953 19.8416 33.561 19.7357 33.5414C19.6309 33.5222 19.5191 33.5304 19.4087 33.537C19.2765 33.5451 19.1463 33.5508 19.0407 33.5057C19.0196 33.4966 18.9974 33.4556 18.9694 33.4042C18.9496 33.3677 18.9271 33.3259 18.9008 33.2864C18.7616 33.2652 18.6212 33.2395 18.4773 33.2075C18.4713 33.2114 18.465 33.2155 18.4586 33.2195C18.4585 33.2196 18.4584 33.2197 18.4583 33.2198C18.3418 33.2946 18.1844 33.3898 18.0035 33.3328C17.9687 33.3215 17.9339 33.3024 17.8997 33.2738C17.8541 33.2353 17.8326 33.1815 17.8143 33.1334C17.7961 33.086 17.7808 33.0439 17.7444 33.0252C17.703 33.004 17.6453 33.0125 17.5806 33.0208C17.4903 33.0326 17.3875 33.0442 17.3106 32.9768C17.3054 32.9722 17.2996 32.9672 17.2937 32.9621C17.2374 32.9135 17.1543 32.8409 17.0883 32.7276C16.8137 32.603 16.5398 32.4598 16.2715 32.2914C15.8252 32.0121 15.3937 31.6562 15.0422 31.2316C14.8703 31.0253 14.793 30.752 14.8363 30.5039C14.8788 30.2542 15.0305 30.0526 15.2334 29.921C15.4371 29.7892 15.6763 29.73 15.8949 29.7189C16.1143 29.7094 16.2938 29.747 16.4209 29.8347C16.6285 29.9792 16.8553 30.0932 17.1039 30.1909C17.1184 30.1935 17.133 30.1962 17.1473 30.199C17.2542 30.2201 17.3723 30.2036 17.4896 30.1834C17.5164 30.1787 17.5434 30.1739 17.5703 30.1693Z" fill="#FD1E1F"/>
</svg>
