<svg width="11" height="43" viewBox="0 0 11 43" fill="none" xmlns="http://www.w3.org/2000/svg">
<path d="M4.59831 24.6598C4.59858 24.6674 4.5995 24.6751 4.59977 24.6827C4.59987 24.6852 4.59996 24.6877 4.60005 24.6902C4.59968 24.6802 4.59928 24.6699 4.59831 24.6598ZM4.5969 24.6375C4.59777 24.6448 4.59803 24.6523 4.59831 24.6598C4.59803 24.6523 4.59778 24.645 4.5969 24.6375ZM4.59514 24.6056C4.59527 24.6094 4.59541 24.6132 4.59555 24.6169C4.59584 24.6247 4.59672 24.6327 4.59701 24.6405C4.59658 24.629 4.59557 24.6174 4.59514 24.6056ZM6.22185 1.67722C6.22135 1.66367 6.22021 1.65012 6.21851 1.63657C6.22021 1.64987 6.22134 1.66342 6.22185 1.67722ZM5.87456 30.9681C5.87342 30.9535 5.87287 30.9387 5.87172 30.9239C5.87287 30.9387 5.87402 30.9533 5.87456 30.9681ZM4.87024 42.4733C4.64583 42.4114 4.52213 42.306 4.39997 42.2099C4.347 42.1685 4.29639 42.1256 4.25064 42.0829C4.22431 42.0583 4.19801 42.034 4.1717 42.0097C4.05332 41.9836 3.95491 41.9409 3.88821 41.8882C3.68492 41.7256 3.58009 41.5412 3.45203 41.3668C3.43929 41.3498 3.42718 41.3327 3.41505 41.3157C3.40882 41.3109 3.40318 41.3061 3.39815 41.3011C3.24274 41.1897 3.13774 41.0655 3.02138 40.9461C2.90313 40.8246 2.78486 40.7029 2.66659 40.581C2.4716 40.3805 2.279 40.1796 2.08701 39.9786C1.89157 39.8152 1.69674 39.6519 1.5043 39.4881C1.2344 39.2587 0.980701 39.0254 0.742674 38.7903C0.617666 38.6661 0.493875 38.5419 0.372499 38.4177C0.317759 38.361 0.263598 38.304 0.21249 38.2473C0.172718 38.2027 0.135416 38.1585 0.102285 38.1134C0.0367367 38.026 -0.0268313 37.9437 0.011571 37.8522C0.0269597 37.7932 0.077063 37.7398 0.161271 37.6923C0.244333 37.6467 0.348963 37.612 0.475232 37.5892C0.51792 37.5814 0.561281 37.5754 0.605309 37.5712C0.600897 37.5664 0.596511 37.5616 0.592704 37.5569C0.434343 37.3815 0.24809 37.2051 0.151182 37.0219C0.0907381 36.9088 0.265538 36.7896 0.510868 36.7454C0.613697 36.7271 0.721194 36.7206 0.833372 36.7261C1.0074 36.7346 1.13826 36.771 1.25458 36.8232C1.35614 36.8694 1.40874 36.9336 1.46711 36.9903C1.50668 37.0294 1.54503 37.0688 1.58219 37.1082C1.6571 37.1868 1.7284 37.2661 1.79789 37.3456C1.84466 37.3995 1.89084 37.4535 1.93579 37.5074C2.10976 37.6956 2.28373 37.8838 2.45588 38.0722C2.81727 38.4691 3.17444 38.8666 3.53702 39.263C3.88069 39.6389 4.22741 40.0155 4.53075 40.3973C4.59756 40.453 4.66435 40.5087 4.72994 40.5644C4.78055 40.6073 4.83117 40.6503 4.88178 40.6932C4.89139 40.6254 4.90099 40.5577 4.91001 40.4902C4.88008 40.3507 4.85559 40.2109 4.83717 40.0717C4.80612 39.8358 4.77507 39.6 4.77307 39.3641C4.76877 38.917 4.77233 38.4706 4.75954 38.0233C4.75378 37.8168 4.74681 37.6103 4.74286 37.4038C4.69603 37.0018 4.66067 36.5994 4.64045 36.1969C4.59514 35.2922 4.55106 34.3874 4.5572 33.4829C4.56493 32.5721 4.60231 31.6616 4.61851 30.7508C4.63548 29.828 4.66578 28.9057 4.69668 27.9831C4.70865 27.6165 4.7188 27.2499 4.7241 26.8831C4.71004 26.5825 4.69477 26.2819 4.67828 25.9811C4.66104 25.6763 4.64804 25.3714 4.62716 25.0666C4.62842 25.0844 4.6297 25.1022 4.63155 25.1198C4.62138 24.9745 4.61177 24.8287 4.6022 24.6834C4.60108 24.6694 4.60056 24.6553 4.59944 24.6413C4.59956 24.6445 4.5997 24.6478 4.60042 24.6511C4.59941 24.64 4.599 24.629 4.59798 24.6177C4.59775 24.6114 4.59752 24.6049 4.59668 24.5984C4.59678 24.6011 4.59687 24.6036 4.59697 24.6064C4.58546 24.4411 4.57453 24.2757 4.56362 24.1104C4.56487 24.1279 4.5655 24.1452 4.56734 24.1623C4.53681 23.7099 4.50569 23.2573 4.4915 22.8047C4.47767 22.3621 4.46385 21.9197 4.44638 21.4769C4.4078 20.5412 4.37465 19.6054 4.33911 18.67C4.32258 18.2199 4.31154 17.7705 4.29261 17.3206C4.27374 16.8725 4.2573 16.4241 4.24872 15.976C4.24098 15.5179 4.24897 15.0592 4.25938 14.6008C4.27026 14.1387 4.27509 13.6767 4.28295 13.2148C4.29782 12.3008 4.32784 11.3872 4.36998 10.4739C4.4078 9.67405 4.48014 8.87492 4.56339 8.07604C4.50351 7.40111 4.45875 6.72567 4.41642 6.05049C4.38638 5.57853 4.37934 5.10633 4.36929 4.63463C4.35919 4.17823 4.38603 3.72159 4.40802 3.26544C4.43195 2.76288 4.48309 2.26057 4.54761 1.75926C4.57909 1.51187 4.61177 1.26423 4.64749 1.01709C4.67028 0.86278 4.69249 0.708724 4.71952 0.55492C4.73058 0.493448 4.74408 0.432478 4.75697 0.371257C4.76008 0.357206 4.76257 0.343406 4.76629 0.329356C4.76547 0.290466 4.78163 0.252579 4.81417 0.215696C4.8542 0.151966 4.92963 0.0957639 5.06626 0.0583791C5.15718 0.0290232 5.25939 0.0102052 5.37473 0.00292899C5.49492 -0.00409635 5.61072 0.00142348 5.724 0.0204922C5.93656 0.0563716 6.10121 0.139421 6.13553 0.23351C6.18546 0.373515 6.17083 0.518288 6.17662 0.659547C6.18092 0.776719 6.18699 0.89339 6.19249 1.01031C6.20265 1.23763 6.21281 1.4647 6.22479 1.69202C6.257 2.10777 6.30069 2.52327 6.36557 2.93877C6.44065 3.41774 6.5048 3.89572 6.52544 4.37545C6.5442 4.82055 6.52849 5.26616 6.52789 5.71151C6.52819 6.18146 6.53454 6.65165 6.53304 7.12185C6.5326 7.57172 6.50916 8.02134 6.45786 8.47046C6.40802 8.91005 6.32728 9.34838 6.26593 9.78771C6.20259 10.2388 6.1544 10.6905 6.14073 11.1423C6.12592 11.5965 6.14319 12.0504 6.16229 12.5048C6.18093 12.9466 6.19711 13.3882 6.20243 13.8298C6.20823 14.2847 6.17956 14.7398 6.15568 15.1942C6.14956 15.3079 6.14343 15.4215 6.13731 15.5352C6.17323 15.9529 6.20733 16.3707 6.25231 16.788C6.29982 17.225 6.35702 17.6619 6.39486 18.0992C6.45357 18.7588 6.50077 19.4187 6.55343 20.0783C6.56148 20.0996 6.56286 20.1207 6.55877 20.1413C6.57795 20.3834 6.59833 20.6253 6.61992 20.8672C6.66169 21.3291 6.69984 21.791 6.73979 22.2527C6.77897 22.7101 6.82359 23.167 6.8543 23.6241C6.91443 24.5203 6.90554 25.4166 6.91604 26.3128C6.91987 26.6315 6.92855 26.9501 6.94267 27.2687C6.9497 27.3613 6.95674 27.4544 6.96257 27.5473C6.961 27.5209 6.95885 27.4951 6.95788 27.4687C6.99492 27.8514 7.05434 28.2337 7.08413 28.6166C7.08397 28.6123 7.08383 28.6081 7.08307 28.6038C7.08335 28.6113 7.08421 28.6189 7.08449 28.6264C7.0858 28.6455 7.08709 28.6643 7.08838 28.6831C7.08739 28.6726 7.08643 28.6623 7.08606 28.652C7.11555 29.1091 7.11595 29.5655 7.10973 30.0227C7.10657 30.2332 7.10459 30.444 7.10869 30.6545C7.1127 30.8627 7.12399 31.0712 7.1268 31.2797C7.13983 32.179 7.07111 33.0772 6.9406 33.9739C6.87845 34.408 6.80181 34.8423 6.75118 35.2769C6.70071 35.7157 6.68297 36.156 6.66582 36.5956C6.63118 37.4495 6.55842 38.303 6.49896 39.1566C6.47505 39.4946 6.44142 39.8321 6.39992 40.1693C6.61309 39.958 6.81223 39.744 7.01687 39.5312C7.2623 39.2753 7.50531 39.0191 7.75256 38.7634C7.87678 38.6352 8.00099 38.5073 8.11729 38.3778C8.16845 38.3206 8.21723 38.2634 8.26414 38.2057C8.32612 38.1299 8.34472 38.0434 8.43107 37.9718C8.47479 37.9262 8.54301 37.8883 8.63451 37.8579C8.72721 37.8276 8.83243 37.8088 8.94958 37.8012C8.99065 37.7987 9.03057 37.7977 9.07053 37.7982C9.07468 37.7957 9.0794 37.793 9.08355 37.7904C9.16423 37.746 9.26648 37.7122 9.38914 37.6898C9.56712 37.6577 9.81017 37.6504 9.99129 37.6873C10.062 37.7016 10.1316 37.7177 10.1983 37.7352C10.3519 37.7832 10.488 37.8642 10.5068 37.9452C10.5166 37.9821 10.521 38.0195 10.5181 38.0569C10.4953 38.1101 10.4669 38.1613 10.4355 38.214C10.3797 38.3083 10.3092 38.4004 10.2363 38.4927C10.1097 38.6536 9.97149 38.8129 9.82961 38.9712C9.51674 39.319 9.1856 39.6634 8.85201 40.0074C8.52949 40.3396 8.22764 40.6751 7.92704 41.0108C7.79156 41.1621 7.65793 41.3134 7.52002 41.4642C7.37104 41.627 7.22219 41.7939 7.02201 41.9469C6.95903 42.0119 6.86177 42.0661 6.73082 42.1098C6.54841 42.1697 6.31769 42.1996 6.08447 42.1943C6.07921 42.2159 6.07092 42.2375 6.05839 42.2588C6.04463 42.3127 5.99862 42.3617 5.92152 42.4048C5.8728 42.4297 5.81794 42.4523 5.75691 42.4716C5.65764 42.5042 5.54519 42.5245 5.41898 42.5325C5.37188 42.5356 5.32591 42.5363 5.28047 42.5353C5.13385 42.5313 4.99804 42.5087 4.87024 42.4733Z" fill="#FD1E1F"/>
</svg>
