<svg width="40" height="59" viewBox="0 0 40 59" fill="none" xmlns="http://www.w3.org/2000/svg">
<path d="M21.2468 34.6415C21.2537 34.6516 21.2615 34.6616 21.2684 34.6718C21.2707 34.6751 21.273 34.6785 21.2753 34.6819C21.2661 34.6684 21.2567 34.6546 21.2468 34.6415ZM21.2258 34.6119C21.233 34.6213 21.2399 34.6314 21.2468 34.6415C21.2399 34.6314 21.2333 34.6216 21.2258 34.6119ZM21.1959 34.5695C21.1994 34.5745 21.2028 34.5796 21.2063 34.5847C21.2134 34.5951 21.2214 34.6055 21.2285 34.616C21.2179 34.6004 21.2067 34.5853 21.1959 34.5695ZM2.7476 1.99534C2.73518 1.97712 2.7221 1.95935 2.70843 1.94199C2.72187 1.95901 2.73495 1.97678 2.7476 1.99534ZM28.1112 42.3846C28.0972 42.3654 28.0837 42.3455 28.0695 42.3261C28.0837 42.3455 28.0976 42.3647 28.1112 42.3846ZM37.1732 58.8629C36.8859 58.9367 36.665 58.8797 36.4539 58.8344C36.3626 58.8151 36.2724 58.7921 36.1874 58.766C36.1385 58.7509 36.0899 58.7362 36.0412 58.7214C35.8954 58.7694 35.7559 58.7805 35.6404 58.7554C35.2866 58.6764 35.0159 58.4978 34.7299 58.3493C34.7017 58.335 34.6741 58.3201 34.6466 58.3053C34.6359 58.3032 34.6259 58.3007 34.6162 58.2973C34.3571 58.2546 34.1391 58.1586 33.9135 58.0772C33.6841 57.9944 33.4545 57.9112 33.2247 57.8278C32.8463 57.6909 32.47 57.5517 32.0943 57.412C31.748 57.3263 31.4024 57.2403 31.0588 57.1518C30.5774 57.0283 30.1092 56.888 29.6557 56.7341C29.4169 56.6523 29.1794 56.5696 28.9444 56.4852C28.8378 56.4462 28.7316 56.4064 28.6287 56.3649C28.5483 56.3318 28.4708 56.2976 28.3967 56.2592C28.252 56.1859 28.1138 56.118 28.0732 55.9653C28.0374 55.8737 28.0424 55.765 28.0882 55.6404C28.1343 55.5191 28.2124 55.3977 28.3234 55.2771C28.3609 55.2362 28.4006 55.1973 28.4425 55.1603C28.4337 55.1569 28.425 55.1535 28.4169 55.1497C28.0985 55.0213 27.7503 54.9113 27.4889 54.7288C27.3268 54.6164 27.4036 54.3295 27.6193 54.0955C27.71 53.9976 27.8158 53.9127 27.937 53.8409C28.1251 53.7296 28.2928 53.6869 28.4594 53.6761C28.6053 53.6676 28.7163 53.7184 28.8266 53.7549C28.9021 53.7805 28.9765 53.8074 29.0496 53.8351C29.1963 53.8898 29.3399 53.948 29.4819 54.0079C29.5778 54.0487 29.6731 54.09 29.7671 54.1321C30.1129 54.267 30.4587 54.4019 30.8028 54.5384C31.5264 54.8269 32.246 55.119 32.9704 55.4059C33.6571 55.678 34.3476 55.9489 34.9978 56.2578C35.116 56.2869 35.2342 56.316 35.3512 56.346C35.4414 56.369 35.5316 56.392 35.6218 56.415C35.5723 56.3153 35.5228 56.2157 35.4729 56.1168C35.3193 55.9468 35.1711 55.7726 35.0297 55.5948C34.7904 55.2935 34.551 54.9922 34.3418 54.6704C33.9447 54.0607 33.5564 53.4464 33.1502 52.8423C32.9629 52.5634 32.7743 52.2853 32.5889 52.0051C32.1873 51.4873 31.7971 50.9608 31.4227 50.4235C30.5811 49.2156 29.7408 48.0067 28.9528 46.7627C28.1609 45.509 27.4001 44.2347 26.617 42.975C25.8242 41.6982 25.0456 40.4128 24.2674 39.1265C23.9579 38.6156 23.6465 38.1061 23.3299 37.5996C23.0513 37.1976 22.7715 36.7964 22.4902 36.3958C22.2046 35.9902 21.9233 35.5816 21.634 35.1785C21.6509 35.202 21.6679 35.2256 21.6852 35.2483C21.5471 35.0564 21.4091 34.8634 21.2716 34.6711C21.2581 34.6526 21.2452 34.6337 21.2317 34.6153C21.2347 34.6197 21.2377 34.624 21.2413 34.628C21.2306 34.6136 21.2204 34.5987 21.2095 34.584C21.2037 34.5755 21.1978 34.5668 21.1912 34.5584C21.1937 34.5621 21.196 34.5655 21.1985 34.5692C21.0413 34.3507 20.8848 34.1319 20.7283 33.913C20.745 33.9362 20.7608 33.9594 20.7777 33.9815C20.3488 33.3831 19.919 32.7848 19.5067 32.1745C19.1037 31.5777 18.7009 30.9812 18.2938 30.3866C17.4321 29.1316 16.5758 27.8724 15.7174 26.6156C15.305 26.0104 14.8989 25.4023 14.4841 24.7992C14.071 24.1984 13.6602 23.5955 13.2577 22.9874C12.8473 22.365 12.4528 21.7307 12.0611 21.0951C11.6665 20.454 11.2658 19.8175 10.8683 19.1789C10.081 17.9157 9.30985 16.6424 8.55149 15.3609C7.88826 14.2379 7.2615 13.0916 6.6463 11.9378C5.99142 11.0552 5.35179 10.1611 4.7149 9.2657C4.26925 8.64012 3.84724 7.99794 3.42255 7.35857C3.01126 6.74021 2.63807 6.09539 2.2603 5.45468C1.84376 4.74899 1.45569 4.0244 1.08238 3.29172C0.897771 2.93041 0.714203 2.5679 0.534221 2.20393C0.422347 1.97633 0.310097 1.74949 0.203079 1.51958C0.160569 1.42751 0.12103 1.33441 0.080634 1.24139C0.0715277 1.21993 0.0619883 1.19926 0.0535098 1.17737C0.0185023 1.12465 0.00199924 1.0613 0.0033745 0.987741C-0.0110574 0.872091 0.0178514 0.741726 0.126793 0.593871C0.19536 0.48934 0.284887 0.391275 0.39818 0.29974C0.516726 0.205118 0.641737 0.130792 0.77603 0.0768191C1.0281 -0.0243179 1.27189 -0.0269316 1.39013 0.0777481C1.5649 0.23432 1.67686 0.443077 1.80693 0.632581C1.91429 0.790126 2.02305 0.945737 2.13144 1.10209C2.34162 1.40645 2.55159 1.71046 2.76365 2.01354C3.16219 2.56056 3.57243 3.09911 4.00465 3.62268C4.50321 4.22603 4.98954 4.83573 5.43227 5.47862C5.84263 6.07538 6.21768 6.69719 6.60818 7.30799C7.02121 7.95184 7.44074 8.59176 7.85211 9.23724C8.24675 9.8541 8.61729 10.4869 8.95849 11.1387C9.29282 11.7764 9.594 12.4342 9.91617 13.0797C10.2466 13.7428 10.5933 14.3958 10.9759 15.0248C11.3594 15.6577 11.7759 16.2675 12.1948 16.8768C12.6022 17.4692 13.0068 18.0629 13.4001 18.6644C13.8056 19.2837 14.1756 19.9278 14.5499 20.5674C14.6434 20.7275 14.7368 20.8876 14.8303 21.0477C15.2344 21.5948 15.6367 22.1433 16.0498 22.6833C16.483 23.2487 16.926 23.807 17.3493 24.3796C17.9895 25.2421 18.618 26.1131 19.252 26.9799C19.279 27.0034 19.299 27.0313 19.3128 27.0624C19.5454 27.3807 19.7789 27.6978 20.0137 28.014C20.4627 28.6175 20.908 29.2236 21.3549 29.8281C21.7973 30.4272 22.2448 31.0219 22.6781 31.6267C23.5276 32.8125 24.3055 34.0471 25.1035 35.2679C25.3873 35.7019 25.6762 36.1325 25.9707 36.5592C26.0593 36.6812 26.1483 36.8037 26.2359 36.9269C26.2111 36.8919 26.1862 36.858 26.1621 36.8225C26.5365 37.3208 26.934 37.8028 27.3012 38.3065C27.2973 38.3007 27.2934 38.295 27.2888 38.2897C27.2957 38.2998 27.3032 38.3095 27.3101 38.3196C27.3282 38.3448 27.3461 38.3697 27.364 38.3946C27.3537 38.3808 27.3437 38.3674 27.3342 38.3536C27.7663 38.9593 28.1676 39.5845 28.5626 40.2154C28.7442 40.5062 28.9272 40.7964 29.1163 41.082C29.3034 41.3646 29.4982 41.6424 29.6843 41.9261C30.4875 43.1493 31.2051 44.429 31.8572 45.7503C32.1739 46.3891 32.4758 47.0385 32.8049 47.6699C33.1379 48.307 33.5062 48.9231 33.8745 49.5377C34.5884 50.7323 35.2625 51.9536 35.9505 53.1655C36.2225 53.6456 36.4839 54.1319 36.737 54.6234C36.7727 54.1831 36.7914 53.749 36.8169 53.3127C36.8468 52.7884 36.874 52.2655 36.906 51.7402C36.9223 51.4766 36.9388 51.2134 36.9458 50.9538C36.9486 50.8392 36.949 50.7263 36.947 50.614C36.9447 50.4663 36.888 50.3346 36.9148 50.1755C36.9201 50.082 36.9576 49.9818 37.0259 49.8755C37.0954 49.7683 37.1881 49.6681 37.303 49.575C37.3434 49.5425 37.384 49.5129 37.4259 49.4853C37.428 49.479 37.4305 49.4718 37.4326 49.4655C37.4773 49.3475 37.5536 49.2288 37.6613 49.1115C37.8178 48.9416 38.0636 48.7598 38.2839 48.6822C38.3699 48.6518 38.4562 48.6246 38.5408 48.6015C38.7423 48.5585 38.9547 48.5734 39.0453 48.6712C39.0879 48.7148 39.1253 48.7629 39.1552 48.8162C39.1782 48.9052 39.1937 48.9955 39.2074 49.0899C39.2323 49.2586 39.24 49.4347 39.2455 49.6128C39.2553 49.9227 39.2519 50.2388 39.2437 50.5561C39.2244 51.254 39.1834 51.9603 39.1393 52.6676C39.0964 53.351 39.0778 54.0242 39.0607 54.6969C39.053 55 39.0472 55.3019 39.0365 55.6061C39.025 55.9346 39.017 56.2685 38.9437 56.6198C38.9354 56.7534 38.8821 56.8965 38.7846 57.0489C38.648 57.2601 38.4348 57.4642 38.1882 57.6219C38.2016 57.6552 38.212 57.6906 38.2177 57.7287C38.2508 57.8123 38.246 57.9119 38.2039 58.0256C38.1752 58.0941 38.1381 58.1638 38.0918 58.2335C38.0174 58.3484 37.9185 58.4558 37.7946 58.556C37.7484 58.5934 37.7014 58.627 37.6533 58.6577C37.4977 58.7559 37.3369 58.821 37.1732 58.8629Z" fill="#FD1E1F"/>
</svg>
