<svg width="56" height="64" viewBox="0 0 56 64" fill="none" xmlns="http://www.w3.org/2000/svg">
<path d="M16.4604 61.7955C16.4675 61.7955 16.4739 61.7966 16.4811 61.7967C16.4882 61.7967 16.4945 61.7978 16.5025 61.7984C16.489 61.7972 16.4746 61.7955 16.4604 61.7955ZM16.1806 61.7786C16.1924 61.7787 16.2035 61.7798 16.2162 61.7804C16.2241 61.7809 16.2312 61.781 16.2392 61.7816C16.2194 61.781 16.1996 61.7803 16.1806 61.7786ZM15.0866 61.7139C15.0945 61.7145 15.104 61.7145 15.1119 61.7151C15.1033 61.7156 15.0945 61.7145 15.0866 61.7139ZM14.6006 61.6853C14.6077 61.6853 14.6148 61.6854 14.6212 61.6865C14.6427 61.6882 14.6648 61.6889 14.6862 61.6906C14.6577 61.6888 14.6292 61.687 14.6006 61.6853ZM0.0514786 57.2354C0.671317 57.6193 1.30717 57.9785 1.96838 58.2931C1.99302 58.3045 2.0185 58.3165 2.04245 58.329C2.06541 58.3851 2.0952 58.4379 2.13084 58.4855C2.36722 58.7944 2.68157 59.0015 2.99887 59.2058C3.18084 59.3224 3.36536 59.4313 3.55485 59.5344C3.94497 59.751 4.34509 59.9466 4.74607 60.1427C4.89672 60.216 5.05585 60.2781 5.21067 60.345C5.467 60.4549 5.71956 60.5761 5.98271 60.6736C6.36379 60.8126 6.73582 60.9747 7.12247 61.105C7.92598 61.3778 8.73356 61.6517 9.56075 61.8696C9.98041 61.9803 10.4 62.1001 10.825 62.1989C11.2501 62.2993 11.6711 62.4169 12.1033 62.499C12.9502 62.6611 13.7862 62.8544 14.6481 62.9714C15.5618 63.0945 16.4852 63.2025 17.424 63.2321C17.8874 63.246 18.3483 63.2675 18.8168 63.2589C19.3013 63.2514 19.7825 63.2342 20.2698 63.2057C21.2098 63.1492 22.1553 63.0184 23.1044 62.8838C24.013 62.755 24.9295 62.5536 25.8412 62.3705C26.8219 62.1725 27.809 61.91 28.7915 61.6508C29.6806 61.4148 30.5725 61.1287 31.4569 60.8103C32.3533 60.4861 33.2394 60.0956 34.1204 59.6744C36.0679 58.7403 38.0007 57.7373 39.9044 56.6345C40.2822 56.4145 40.665 56.1886 41.0315 55.9384C41.2715 55.7753 41.513 55.6116 41.7529 55.4486C41.9824 55.2925 42.2044 55.1041 42.4272 54.9345C42.6957 54.7274 42.9521 54.4987 43.2104 54.2744C43.402 54.109 43.5842 53.9435 43.7652 53.7651C43.9346 53.5974 44.1101 53.4367 44.2699 53.2598C44.4773 53.0299 44.6856 52.8021 44.893 52.5721C45.0795 52.3652 45.2517 52.14 45.4306 51.9266C45.6622 51.6483 45.8821 51.3624 46.1051 51.0754C46.4668 50.6131 46.8176 50.1438 47.1675 49.6723C47.8155 48.7979 48.4276 47.8911 49.0361 46.9881C49.6138 46.1306 50.1298 45.2164 50.5369 44.2726C50.7112 44.0075 50.8821 43.7386 51.0465 43.467C51.8869 42.0785 52.5538 40.6079 53.007 39.0916C53.1001 38.7799 53.1835 38.4665 53.2599 38.1531C53.2611 38.1493 53.2639 38.145 53.2652 38.1413C53.3707 37.9017 53.4891 37.6643 53.5826 37.4215C53.7014 37.1158 53.818 36.8117 53.936 36.5054C54.6292 34.7071 54.9479 32.8566 55.0873 31.0483C55.1681 30.0072 55.2381 28.9682 55.3002 27.9303C55.3628 26.8972 55.4067 25.8689 55.4359 24.8416C55.4513 24.2873 55.4356 23.7371 55.4277 23.1875C55.4186 22.5503 55.3294 21.9266 55.2271 21.3233C55.1625 20.949 55.0753 20.5859 54.9858 20.2243C54.9187 19.949 54.8467 19.6704 54.7533 19.41C54.6084 19.0003 54.4746 18.5825 54.3097 18.1873C54.1357 17.7694 53.9655 17.3493 53.7811 16.9384C53.4168 16.124 53.0437 15.316 52.6801 14.5006C52.2823 13.6081 51.88 12.7187 51.4784 11.8283C51.0973 10.9832 50.6728 10.174 50.2451 9.36414C49.9991 8.89801 49.7057 8.46659 49.431 8.02454C49.216 7.6791 48.9485 7.37593 48.7063 7.05405C48.5845 6.89419 48.4374 6.75307 48.3024 6.60444C48.1793 6.46664 48.0601 6.32668 47.9277 6.1996C47.5373 5.82431 47.1452 5.4571 46.7271 5.1172C46.3972 4.84821 46.0537 4.60551 45.7069 4.36066C45.538 4.24041 45.3469 4.14536 45.1689 4.03906C44.9944 3.93492 44.8051 3.85336 44.623 3.76265C44.3759 3.64043 44.1137 3.54505 43.8473 3.46526C43.6498 3.4057 43.2896 3.44491 43.0739 3.52304C42.8904 3.59003 42.5355 3.79301 42.3961 3.96944C42.3698 4.0027 42.3442 4.03482 42.3193 4.06592C42.2392 3.96975 42.1576 3.87412 42.0767 3.77741C41.8134 3.4662 41.55 3.15499 41.2822 2.8486C41.2062 2.76268 41.1302 2.67676 41.0549 2.58976C41.1223 2.58469 41.1897 2.57964 41.2564 2.57563C41.7934 2.53825 42.3313 2.52889 42.8585 2.54151C43.3184 2.55167 43.7793 2.55479 44.2398 2.56227C44.9624 2.57363 45.6847 2.59842 46.4061 2.62269C47.9444 2.6722 49.4818 2.73038 51.0122 2.81591C51.2136 2.82759 51.4149 2.83926 51.6154 2.8504C51.7455 2.85852 51.8763 2.86719 52.0071 2.87424C52.23 2.88924 52.4521 2.90368 52.6744 2.91976C52.7774 2.92561 52.8796 2.93093 52.9835 2.93732C53.1971 2.9173 53.4051 2.84183 53.6074 2.70928C53.9171 2.50455 54.1716 2.18008 54.3038 1.819C54.4322 1.4692 54.4394 1.10325 54.3248 0.807784C54.2737 0.718212 54.2235 0.629195 54.1725 0.541234C54.0385 0.376471 53.867 0.271227 53.6594 0.223455C51.7935 0.0971068 49.8957 0.105708 48.0084 0.0707605C47.0201 0.0517386 46.0318 0.0327325 45.0421 0.0158546C43.7616 -0.00664492 42.4708 -0.0205644 41.1668 0.0865339C40.5716 0.134963 39.9533 0.246219 39.3528 0.443707C39.0482 0.543508 38.7329 0.720197 38.4514 0.912673C38.024 1.20729 37.6622 1.65883 37.4638 2.15848C37.3932 2.33685 37.3161 2.56902 37.2965 2.74385C37.2746 2.93859 37.2742 3.12751 37.281 3.31646C37.2864 3.4984 37.3481 3.69243 37.3865 3.85461C37.3913 3.87293 37.396 3.89128 37.4007 3.9096C37.2929 4.14162 37.2629 4.37077 37.2697 4.61461C37.2765 4.91336 37.3729 5.18181 37.4489 5.45073C37.473 5.53803 37.4979 5.62588 37.5235 5.71265C37.5791 5.91043 37.6304 6.11138 37.6906 6.30757C37.8203 6.7242 37.9405 7.14996 38.0875 7.55645C38.2384 7.97156 38.373 8.39896 38.5417 8.80123C38.7211 9.22724 38.8807 9.67088 39.0794 10.0819C39.2772 10.4924 39.4763 10.9008 39.6815 11.3053C39.7175 11.4309 39.7512 11.5565 39.7835 11.6842C39.792 11.7187 39.8005 11.7531 39.8097 11.7865C39.8184 11.87 39.8272 11.9535 39.8366 12.0359C39.9437 13.0601 40.0422 14.0864 40.1401 15.1137C40.1981 15.7232 40.2514 16.3343 40.3239 16.938C40.3655 17.2837 40.4079 17.63 40.4542 17.9757C40.4729 18.1206 40.4978 18.2634 40.5195 18.4056C40.587 18.8504 40.6702 19.3131 40.9609 19.6024C41.142 19.7825 41.3362 19.8947 41.6164 19.8691C41.8865 19.8461 42.1142 19.7056 42.341 19.5005C42.4486 19.4025 42.5687 19.2594 42.6423 19.1424C42.6887 19.0489 42.7328 18.9571 42.7792 18.8636C42.8199 18.7223 42.8582 18.5809 42.8894 18.4394C42.9108 18.0827 42.9128 17.7302 42.894 17.3841C42.874 17.0417 42.8317 16.7062 42.7957 16.3702C42.756 15.9905 42.7026 15.6173 42.6475 15.243C42.7128 15.2411 42.78 15.2345 42.8491 15.2213C42.9449 15.1981 43.0402 15.1775 43.1368 15.1548C43.334 15.0814 43.5139 14.9633 43.675 14.8009C43.9157 14.5544 44.095 14.2087 44.1307 13.881C44.1641 13.5825 44.1867 13.286 44.1538 13.0038C44.1158 12.6635 44.0003 12.3385 43.9077 12.0237C43.7853 11.6088 43.6414 11.2012 43.4776 10.8097C43.2971 10.3799 43.1181 9.94959 42.9368 9.52089C42.7759 9.13587 42.5872 8.76636 42.4136 8.38989C42.2498 8.035 42.0731 7.68702 41.9004 7.33855C41.7698 7.07693 41.6394 6.81692 41.5073 6.55582C41.8384 6.96584 42.1629 7.38225 42.4838 7.80244C43.543 9.19586 44.6074 10.585 45.6651 11.9789C46.2825 12.7928 46.868 13.6394 47.4168 14.5171C47.6888 15.1755 47.9578 15.8366 48.2328 16.4939C48.5834 17.333 48.949 18.1618 49.3071 18.9966C49.7107 19.9387 50.0862 20.9114 50.3514 21.9406C50.4249 22.2811 50.4861 22.6258 50.5277 22.9807C50.578 23.4007 50.5923 23.8324 50.5935 24.2679C50.5669 25.1504 50.5209 26.0372 50.5006 26.9193C50.4786 27.8917 50.4845 28.8594 50.4819 29.8277C50.4724 30.0838 50.462 30.3394 50.451 30.5961C50.4391 30.9163 50.3889 31.2497 50.3585 31.5747C50.3287 31.8878 50.2571 32.2121 50.2047 32.5288C50.1695 32.7515 50.1132 32.9773 50.0591 33.2015C49.6838 34.605 49.2697 36.0079 49.0138 37.4158C48.7336 38.9619 48.6191 40.5012 48.2624 42.0481C48.0784 42.7232 47.845 43.3847 47.5468 44.0346C47.1434 44.8008 46.678 45.5237 46.205 46.2508C45.9592 46.6297 45.7075 47.0047 45.4524 47.376C44.862 48.2328 44.2603 49.0778 43.6369 49.9087C43.4974 50.0835 43.3586 50.2572 43.2197 50.431C43.0069 50.6986 42.7729 50.9494 42.5513 51.2068C42.3346 51.4566 42.0925 51.6853 41.8652 51.9222C41.653 52.1413 41.4146 52.3405 41.1901 52.5456C40.9897 52.7099 40.7884 52.8737 40.5814 53.0245C40.2229 53.2861 39.8675 53.5375 39.5035 53.7802C38.7663 54.2687 38.0171 54.7191 37.2649 55.1629C35.9516 55.9411 34.6137 56.6439 33.2778 57.3343C33.0067 57.4649 32.7365 57.596 32.4653 57.7267C32.1799 57.8648 31.8831 58.0001 31.5923 58.1134C31.2909 58.2305 30.9898 58.3615 30.6875 58.4689C30.3554 58.5874 30.023 58.7027 29.6907 58.8196C29.0844 59.0332 28.4736 59.2026 27.8669 59.3747C27.2372 59.5549 26.6081 59.714 25.9776 59.8753C25.5125 59.9792 25.0477 60.0864 24.5805 60.1935C24.6787 60.1703 24.7755 60.1492 24.8721 60.1265C24.5212 60.2008 24.1686 60.2741 23.8163 60.3413C23.5993 60.3576 23.3822 60.3738 23.1644 60.3911C23.0225 60.4012 22.879 60.4194 22.7387 60.4215C22.2003 60.4335 21.6651 60.437 21.127 60.4448C20.7962 60.4498 20.4673 60.459 20.1418 60.443C19.4031 60.4014 18.6632 60.3636 17.926 60.3215C17.9831 60.325 18.0394 60.328 18.098 60.3309C17.9784 60.325 17.8606 60.3035 17.7435 60.29C17.428 60.2531 17.1133 60.2166 16.7978 60.1797C16.4098 60.1338 16.0116 60.1088 15.6304 60.0414C14.796 59.895 13.9465 59.7846 13.1212 59.6075C12.2301 59.4167 11.3378 59.2297 10.4549 59.0152C9.5227 58.7871 8.59651 58.546 7.67074 58.3007C6.88852 58.0921 6.11393 57.8625 5.33839 57.64C4.98738 57.5388 4.63624 57.436 4.28649 57.3311C4.09295 57.2726 3.90026 57.2147 3.70603 57.1573C3.60481 57.1267 3.50357 57.0961 3.40235 57.0655C3.26715 57.0251 3.17537 56.9945 3.02277 56.9901C2.92892 56.981 2.833 56.9935 2.73302 57.0324C2.64445 57.0755 2.55534 57.1214 2.46789 57.1683C2.28087 57.2681 2.11718 57.5113 2.04294 57.7117C2.0194 57.7772 2.00215 57.8423 1.99267 57.9063C1.82434 57.8291 1.65588 57.7502 1.48825 57.672C1.04703 57.4665 0.629458 57.2246 0.217068 56.9692C0.148709 56.9264 0.0707375 56.9734 0.0277007 57.0416C-0.00795585 57.1038 -0.0175771 57.1937 0.0514786 57.2354Z" fill="#FD1E1F"/>
</svg>
