<svg width="62" height="56" viewBox="0 0 62 56" fill="none" xmlns="http://www.w3.org/2000/svg">
<path d="M61.6402 29.0375C58.8776 18.8141 46.5249 20.2109 42.0064 27.9646C40.6921 25.0885 37.9191 22.4269 35.7135 20.6855C32.1957 17.9084 28.1125 16.233 23.691 15.5996C23.627 15.5913 23.5858 15.6305 23.528 15.6388C26.9427 9.82046 24.0067 0.624562 16.4841 0.0282849C8.84802 -0.574182 4.46571 8.58044 7.39757 14.8156C-1.42073 16.4352 -2.81965 28.922 5.72837 32.8958C9.59282 34.6928 15.209 34.5236 18.3596 31.3112C19.4283 30.2218 20.037 28.9508 20.1855 27.7005C23.3774 28.5402 26.464 29.7039 29.3154 31.4391C32.175 33.1805 34.2404 35.7637 36.6915 37.8579C33.2417 45.1473 35.4185 56.4353 45.5923 55.4614C54.0227 54.6547 54.0413 45.8901 51.2992 39.6178C57.1733 40.8454 63.5075 35.9452 61.6402 29.0375ZM47.3688 37.7072C50.3233 41.4789 53.3831 50.6458 46.3434 52.7833C42.4232 53.9738 38.4349 50.4416 37.4136 46.9341C36.6502 44.3199 37.2115 41.5304 38.144 38.9864C38.3153 39.1061 38.4762 39.2361 38.6536 39.3496C39.0951 39.6322 39.6873 39.1639 39.5388 38.6687C39.3799 38.1446 39.1591 37.6412 38.895 37.1522C38.9693 36.9851 39.0415 36.8118 39.1158 36.6467C39.4872 35.8359 38.5587 35.2128 37.9665 35.7327C36.0168 33.1784 32.8992 31.1647 30.3202 29.7225C27.1345 27.9419 23.7261 26.8071 20.167 26.4069C19.9297 24.7975 18.8692 23.3491 16.9607 22.5362C16.2674 22.2412 15.6444 23.2274 16.3541 23.5761C16.2097 25.9736 16.0632 28.3711 15.9167 30.7685C14.6849 31.5691 13.3562 31.9673 11.9284 31.9652C9.69187 32.1489 7.34184 31.7795 5.41889 30.5003C-0.45516 26.5905 1.61842 16.8561 9.06879 16.6952C9.79093 16.6787 10.4264 15.8121 9.95805 15.1457C6.61147 10.4023 9.38238 2.53927 15.6897 2.40516C22.3952 2.26279 25.0671 11.2049 20.8292 15.7502C19.8884 16.7591 21.4029 18.2818 22.3478 17.2667C22.5934 17.0047 22.8038 16.7179 23.0122 16.4331C23.07 16.5652 23.1813 16.6766 23.3815 16.7179C27.6379 17.6112 31.5417 19.4558 34.8532 22.2948C37.783 24.8078 39.1488 28.3009 41.7196 30.9563C42.0311 31.2782 42.646 31.0863 42.7161 30.6468C43.0524 30.6303 43.3743 30.4673 43.5724 30.0526C46.0648 24.8532 53.6741 21.1642 57.8067 26.9639C61.8899 32.6936 55.4855 41.2828 49.139 35.9349C47.8866 34.8785 46.3846 36.4466 47.3688 37.7072Z" fill="#FD1E1F"/>
</svg>
