<svg width="154" height="110" viewBox="0 0 154 110" fill="none" xmlns="http://www.w3.org/2000/svg">
<path fill-rule="evenodd" clip-rule="evenodd" d="M148.885 40.9675C150.317 40.5795 151.649 40.2193 153.413 39.7423C153.413 37.4272 153.417 35.034 153.411 32.64C153.4 28.4389 153.391 24.2378 153.363 20.0358C153.357 19.2616 153.287 18.4857 153.2 17.7132C153.093 16.7777 152.465 16.1773 151.111 15.8465C138.993 12.8848 127.136 9.41843 114.646 7.17135C105.118 5.45748 95.7723 3.23811 86.349 1.23874C84.6554 0.878501 82.9953 0.428408 81.2813 0.137866C80.3669 -0.0174818 79.328 -0.0493735 78.4112 0.0824622C64.1883 2.12214 49.993 4.24997 36.0646 7.14951C31.0866 8.18656 26.214 9.4705 21.2732 10.6008C15.6896 11.8788 10.1192 13.1921 4.47339 14.319C2.72591 14.6675 2.03886 15.2192 2.05203 16.3856C2.05562 16.5417 2.02092 16.6971 2.02451 16.8524C2.27107 23.4778 1.4823 30.0646 0.667206 36.6547C0.432617 38.5415 0.539139 38.5432 3.25493 39.1873C3.56253 39.2603 3.83423 39.4098 4.11432 39.5332C4.20169 39.5727 4.25912 39.6457 4.1933 39.592C4.41353 45.8328 4.76305 51.961 4.80374 58.0876C4.84204 64.0773 4.52007 70.0679 4.43988 76.0576C4.39679 79.2485 4.60027 82.4403 4.55836 85.6303C4.53802 87.1779 4.40277 88.7499 3.9659 90.2614C3.59726 91.5361 4.21605 92.1701 5.77083 92.6059C15.8356 95.4248 25.7855 98.4747 35.9999 100.993C41.994 102.471 47.8577 104 53.3395 106.258C54.5544 106.759 56.0446 106.931 57.4007 107.265C60.0099 107.907 62.6563 108.486 65.2081 109.225C68.0723 110.054 70.7055 110.321 73.8402 109.512C82.0474 107.392 90.4844 105.702 98.7023 103.598C106.291 101.656 113.804 99.5361 121.192 97.2437C128.679 94.9193 135.984 92.3019 143.349 89.7836C146.424 88.7323 146.404 88.6139 146.188 85.9578C146.064 84.4102 146.1 82.8517 146.2 81.3025C146.507 76.5715 146.972 71.8464 147.203 67.1146C147.401 63.073 147.209 59.0197 147.473 54.9807C147.78 50.3278 148.397 45.685 148.885 40.9675ZM74.3273 57.7853C76.0162 57.7853 77.7313 58.0465 79.1975 57.7358C83.4298 56.839 87.5879 55.754 91.7327 54.6658C100.034 52.4867 108.24 50.1179 116.614 48.0866C125.191 46.0058 133.918 44.2239 142.589 42.3379C143.789 42.0767 145.054 41.9692 146.516 41.7593C146.516 42.94 146.587 43.7923 146.502 44.6362C146.153 48.1218 145.664 51.6025 145.404 55.0915C145.179 58.1212 145.254 61.1618 145.086 64.1949C144.75 70.2568 144.224 76.3145 144.001 82.3781C143.829 86.9731 143.936 86.9168 138.079 89.1933C128.461 92.9325 118.316 95.8883 108.13 98.6964C95.9985 102.04 83.5639 104.837 70.6516 108.02C71.6403 90.9441 72.3261 74.3135 74.3273 57.7853ZM7.26816 90.7568C7.26816 85.5884 7.22627 80.5526 7.28014 75.516C7.3364 70.3996 7.61526 65.2823 7.55182 60.1684C7.49557 55.6608 7.024 51.1574 6.89114 46.649C6.83011 44.5866 7.14609 42.5201 7.31126 40.1681C29.0974 45.2643 50.6824 49.614 71.1136 56.0219C71.1136 58.2195 71.2333 60.1567 71.0813 62.083C70.9053 64.3334 70.3296 66.5688 70.2064 68.8184C69.6929 78.0628 69.3302 87.3106 68.818 96.5551C68.6109 100.256 68.1609 103.95 67.8137 107.728C63.3864 106.669 59.1062 105.663 54.8452 104.616C53.7034 104.337 52.6118 103.95 51.5143 103.587C48.2168 102.494 45.0079 101.243 41.6158 100.32C33.7785 98.1858 25.825 96.2637 17.9829 94.1417C14.3934 93.171 10.9534 91.9308 7.26816 90.7568ZM11.8559 15.6357C19.1259 13.7783 25.7017 11.9065 32.4535 10.4303C39.0963 8.97759 45.9032 7.8935 52.6597 6.70446C61.0333 5.23076 69.4212 3.79568 77.8187 2.39755C78.9534 2.20862 80.2424 2.1616 81.3747 2.33374C94.7047 4.36166 107.738 7.14028 120.662 10.1691C128.74 12.0635 136.758 14.0848 144.796 16.0665C145.657 16.2798 146.459 16.6131 147.689 17.0263C141.588 18.3446 135.994 19.5202 130.429 20.7647C124.315 22.1334 118.085 23.32 112.162 25.0246C102.006 27.946 91.57 30.2947 81.2861 32.9507C79.5087 33.4108 77.9563 33.4461 76.2077 32.907C72.4589 31.7532 68.6659 30.6633 64.8406 29.6422C58.9423 28.0694 53.0032 26.5747 47.0785 25.0506C37.9341 22.6977 28.7766 20.3709 19.649 17.9861C17.1953 17.347 14.829 16.5384 11.8559 15.6357ZM74.9701 54.9454C73.9048 54.7506 73.4464 54.722 73.0574 54.5885C66.393 52.281 59.5168 50.3622 52.4299 48.7752C46.109 47.3611 39.8947 45.7169 33.6133 44.2163C25.1248 42.1892 16.5993 40.2377 8.12276 38.1863C3.71214 37.119 3.64871 36.936 4.31778 33.6628C4.33334 33.5863 4.39079 33.5133 4.39798 33.4377C4.94856 28.7983 5.69421 24.1655 5.01079 19.4992C4.86237 18.4882 4.88393 17.4915 6.28192 16.53C9.73021 17.3462 13.2982 18.1213 16.7943 19.0307C25.6096 21.3248 34.3889 23.6878 43.1922 26.0087C52.4143 28.4406 61.6604 30.8287 70.8611 33.3025C72.6911 33.7946 74.3572 34.589 76.0401 35.2238C75.681 41.8508 75.3327 48.2688 74.9701 54.9454ZM77.5889 55.6231C77.9037 49.279 78.2053 43.4807 78.4638 37.6825C78.5153 36.5463 79.4465 36.1198 80.8337 35.7612C91.5293 32.9969 102.2 30.1863 112.874 27.3817C113.907 27.1104 114.877 26.7074 115.929 26.4815C125.02 24.5207 134.114 22.5743 143.224 20.6555C145.406 20.1962 147.638 19.8578 150.275 19.3859C149.985 22.3182 149.637 24.9381 149.486 27.5647C149.315 30.5944 149.205 33.6325 149.297 36.6622C149.338 38.0276 148.518 38.6658 146.831 38.9916C145.019 39.3426 143.187 39.6483 141.401 40.0547C136.879 41.085 132.436 42.3035 127.86 43.1868C119.099 44.878 110.501 46.8707 102.044 49.2C94.2295 51.3497 86.3251 53.3357 77.5889 55.6231Z" fill="#FD1E1F"/>
</svg>
