<svg width="204" height="126" viewBox="0 0 204 126" fill="none" xmlns="http://www.w3.org/2000/svg">
<path d="M92.4536 40.7759C92.4839 40.7746 92.5458 40.7796 92.6401 40.8179H92.6411C93.6595 41.2296 94.6456 41.7096 95.6851 42.1938C95.8766 42.2831 96.0153 42.3894 96.3179 42.5796V42.5806C100.167 45.0081 104.273 46.8519 108.549 48.2935L109.407 48.5767C111.744 49.3305 114.126 50.1569 116.505 50.8843C119.041 51.6601 121.622 52.3606 124.143 53.0923C124.294 53.136 124.449 53.1939 124.629 53.2642C124.8 53.3307 125.007 53.4147 125.214 53.4858C126.043 53.7703 126.806 54.0111 127.6 54.2954V54.2944C127.771 54.3556 127.941 54.4331 128.15 54.5278C128.249 54.5727 128.357 54.6217 128.472 54.6704L128.833 54.811C129.893 55.1808 130.997 55.1765 132.067 54.6802C132.202 54.6177 132.299 54.5364 132.362 54.4741C132.423 54.4135 132.469 54.3545 132.493 54.3237C132.525 54.281 132.522 54.2827 132.529 54.2739C132.588 54.2193 132.643 54.1681 132.684 54.1265C132.741 54.0681 132.776 54.0318 132.812 53.9976C132.825 53.985 132.836 53.9755 132.844 53.9683C134.262 53.5744 135.587 52.9651 136.838 52.4009C138.13 51.8186 139.354 51.2809 140.649 50.9702L140.648 50.9692C141.33 50.8057 142.004 50.4843 142.512 50.2749L142.513 50.2739C145.799 48.919 149.07 47.6043 152.425 46.5063L152.424 46.5054C155.389 45.5361 158.315 44.3092 161.176 43.2437V43.2446C161.832 43.0007 162.502 42.811 163.225 42.5913C164.638 42.1621 166.052 41.7366 167.466 41.3149C166.388 44.196 165.892 47.2158 165.338 50.0894V50.0903C164.593 53.9681 163.967 57.9175 163.267 61.7739C163.052 62.9595 162.814 64.1421 162.576 65.3335C162.337 66.5224 162.098 67.7202 161.88 68.9233V68.9243C161.567 70.6593 161.333 72.428 161.072 74.1323C160.943 74.9656 160.812 75.803 160.681 76.6421L160.298 79.1616C160.098 80.5355 159.865 81.9792 159.82 83.4585C159.791 84.4135 159.521 85.3474 159.276 86.4614V86.4624C159.106 87.235 158.882 87.9731 158.661 88.7944C158.445 89.5948 158.241 90.4427 158.155 91.3335C158.155 91.3267 158.153 91.3552 158.102 91.4673C158.091 91.4904 158.08 91.5121 158.069 91.5356C158.051 91.5408 158.033 91.547 158.012 91.5532C157.855 91.6012 157.606 91.6855 157.378 91.8628C156.15 92.82 154.763 93.4754 153.275 94.0513C152.529 94.3398 151.773 94.6031 150.998 94.8784C150.42 95.0833 149.835 95.2944 149.252 95.522L148.67 95.7554C147.412 96.276 146.024 96.7863 144.73 97.4214C142.238 98.6458 139.779 99.9357 137.331 101.217L137.329 101.218C136.875 101.457 136.441 101.727 136.04 101.974C135.628 102.227 135.246 102.459 134.855 102.657C132.489 103.849 130.116 104.985 127.725 106.166C123.178 108.41 118.387 110.496 113.837 112.904C112.674 113.52 111.461 114.054 110.216 114.593C109.289 114.995 108.342 115.4 107.404 115.837L106.47 116.286C104.13 117.451 101.826 118.709 99.5864 120.067C97.1994 121.514 94.863 123.072 92.5259 124.599C92.5392 122.915 92.5548 121.231 92.5718 119.547L92.6294 113.956L92.6548 111.235C92.6324 92.3046 92.6095 73.3756 92.5796 54.4468C92.5754 51.8404 92.5139 49.1982 92.1274 46.5513C91.9345 45.2321 91.9184 43.9116 92.1929 42.6274C92.262 42.3053 92.2786 41.9892 92.2876 41.728C92.2974 41.4455 92.2993 41.2387 92.3228 41.0288C92.3343 40.9267 92.3598 40.8633 92.3794 40.8286C92.3972 40.7971 92.4111 40.7869 92.4146 40.7847C92.4163 40.7836 92.4259 40.7771 92.4536 40.7759Z" fill="#F6FAF9" stroke="#FD1E1F" stroke-width="1.65939"/>
<path d="M89.7188 41.7769C89.192 44.129 89.2424 46.4644 89.542 48.7681V48.77C89.6208 49.3693 89.6099 49.9872 89.6064 50.686C89.5608 58.0256 89.4813 65.3794 89.4639 72.7271C89.4381 83.3523 89.4347 93.977 89.4629 104.601V104.602C89.4795 110.538 89.5789 116.481 89.6377 122.404C89.6432 122.949 89.6393 123.492 89.6377 124.033C89.6051 124.006 89.5703 123.978 89.5342 123.951L89.5322 123.95L88.5176 123.188C83.4291 119.404 78.1139 115.978 72.6738 112.751C70.1829 111.274 67.7132 109.849 65.4072 108.206C62.3867 106.051 59.366 104.32 56.6367 102.039L56.0947 101.575C54.5819 100.246 52.8358 99.113 51.3018 97.9849C51.0666 97.8115 51.023 97.6964 51.0244 97.5288L51.0234 97.5278C51.0498 94.6937 50.36 91.9349 49.8916 89.3462C49.5857 87.659 49.3859 85.9691 49.1738 84.2456L48.9531 82.5093C48.8985 82.1009 48.8462 81.6798 48.792 81.2563L48.6221 79.9888C48.1449 76.6226 47.6345 73.2902 47.1963 69.938C46.6334 65.6308 46.1304 61.3207 45.5977 56.9976C45.3637 55.099 45.1399 53.1793 44.874 51.269C44.7956 50.7045 44.6968 50.1309 44.5947 49.5649L44.2969 47.9067C44.2615 47.6893 44.2324 47.4774 44.2002 47.2349C44.473 47.1983 44.7317 47.1626 44.9648 47.1333C45.3298 47.0874 45.6595 47.0543 45.9736 47.0454L46.2832 47.0444C48.6127 47.1074 50.9041 46.9155 53.1758 46.603C54.8307 46.3753 56.3493 46.2312 58.0459 46.0093C60.4202 45.6997 62.8994 45.347 65.2607 45.0366L65.2598 45.0356C65.9717 44.9422 66.6836 44.8708 67.3896 44.8315L67.3906 44.8306C71.3892 44.6023 75.3365 44.0295 79.2461 43.3853C81.7298 42.9758 84.2247 42.6701 86.7363 42.4536H86.7373C87.6478 42.3745 88.6227 42.0456 89.3232 41.8784C89.4534 41.8473 89.584 41.811 89.7188 41.7769Z" fill="#F6FAF9" stroke="#FD1E1F" stroke-width="1.65939"/>
<path d="M168.15 23.6416C169.09 23.3518 169.756 23.2 170.455 23.4355H170.456C170.993 23.6158 171.564 23.6556 171.992 23.6895H171.993C174.187 23.8625 176.563 24.0278 178.747 24.1992C179.012 24.22 179.277 24.2499 179.547 24.2842L180.373 24.3975C181.543 24.5616 182.711 24.7284 183.875 24.9092H183.877C184.289 24.9723 184.682 25.0691 185.152 25.1699V25.1689C188.074 25.7981 190.998 26.4338 193.922 27.0586C194.928 27.2735 195.988 27.4973 197.098 27.5771L197.576 27.6016C198.697 27.6379 199.822 27.8165 201.008 27.9932H201.009C201.352 28.0438 201.678 28.1481 202.007 28.3018L200.579 28.748C200.345 28.8204 200.032 28.9084 199.755 29.0029L199.754 29.0039C198.794 29.3321 197.836 29.6646 196.881 29.9941H196.88C196.653 30.0729 196.196 30.1983 195.84 30.3652V30.3662C194.904 30.8059 193.954 31.0566 192.899 31.1299C192.307 31.1712 191.743 31.3216 191.233 31.4854C190.978 31.5674 190.724 31.6569 190.485 31.7402C190.243 31.825 190.013 31.9044 189.787 31.9746C188.851 32.2649 187.903 32.5653 186.956 32.8652L184.133 33.7549C183.155 34.0605 182.212 34.3218 181.248 34.4609L180.834 34.5137C180.062 34.5949 179.306 34.8173 178.617 35.0889L178.327 35.207C176.511 35.9757 174.618 36.4942 172.663 36.832C170.676 37.1752 168.688 37.6513 166.778 38.5176H166.776C166.228 38.7673 165.626 38.9556 165.005 39.0996C162.836 39.6021 160.741 40.298 158.687 41.0605L157.808 41.3916C156.026 42.0703 154.23 42.7136 152.423 43.3262C147.571 44.9702 142.863 46.9619 138.183 48.9219C135.846 49.9003 133.511 50.8927 131.187 51.9053H131.186C130.914 52.0237 130.686 52.0313 130.221 51.9443V51.9434C129.222 51.7569 128.246 51.4561 127.242 51.1191C126.255 50.7877 125.214 50.4124 124.163 50.1133C118.418 48.4783 112.718 46.7257 107.144 44.6475C104.59 43.696 102.081 42.6195 99.7412 41.251H99.7402C98.888 40.7519 98.0249 40.2661 97.1221 39.7607C98.5904 39.415 100.023 39.077 101.445 38.7178L101.446 38.7188C103.866 38.1096 106.105 37.4175 108.469 36.8965C111.198 36.2958 113.918 35.7778 116.661 35.2344L119.414 34.6777C121.9 34.1624 124.104 33.4849 126.478 33.1572L126.477 33.1562C129.077 32.7977 131.675 32.3425 134.223 31.6377L134.222 31.6367C138.497 30.4543 142.835 29.6138 147.216 28.6602C148.982 28.2755 150.747 27.8747 152.509 27.4697L157.785 26.2559C159.298 25.9105 160.84 25.5779 162.374 25.2207L163.904 24.8545C165.342 24.4991 166.759 24.0698 168.149 23.6416H168.15Z" fill="#F6FAF9" stroke="#FD1E1F" stroke-width="1.65939"/>
<path d="M90.6934 0.967773C91.6564 0.751017 92.4384 0.76349 93.1396 1.19141L93.2793 1.2832C93.5751 1.49034 93.8921 1.65712 94.2051 1.79297L94.5166 1.91895C97.7908 3.15551 100.826 4.87039 103.994 6.55078C104.931 7.04765 105.91 7.45369 106.842 7.84082C108.277 8.43729 109.653 9.10654 110.953 9.91016L111.505 10.2627C111.974 10.5724 112.503 10.7554 112.943 10.8877V10.8887C113.489 11.0525 113.999 11.2916 114.536 11.5947C113.702 11.9189 112.835 12.2506 112.003 12.5947C111.152 12.9468 110.26 13.1264 109.306 13.1914C108.472 13.2473 107.546 13.3135 106.65 13.5352C104.084 14.1697 101.489 14.6604 98.8701 15.1221L96.2441 15.5781C93.0166 16.1354 89.7936 16.7177 86.5752 17.2949C84.9846 17.5804 83.4909 17.8807 81.9219 18.1543H81.9209C81.4959 18.2289 81.0652 18.2862 80.6152 18.3467C80.1708 18.4064 79.7067 18.4689 79.2432 18.5508C77.9555 18.7782 76.6678 19.0433 75.4062 19.29C74.2001 19.5251 73.1035 19.7864 71.9551 19.959H71.9541C67.7938 20.587 63.615 20.8793 59.3711 21.2998H59.3701C57.2864 21.5069 55.1924 21.7663 53.1309 21.9961C51.8557 22.138 50.6826 22.3224 49.4932 22.4014L48.9814 22.4287C47.3559 22.4912 45.8424 22.9007 44.4121 23.3896L43.8037 23.6035C43.135 23.8444 42.8247 23.867 42.54 23.7109H42.541C42.0395 23.4349 41.4639 23.4346 41.2236 23.416C40.9124 23.3919 40.8457 23.3532 40.7949 23.3047L40.7939 23.3037C40.3447 22.8761 39.8501 22.4155 39.2988 22.0176H39.2998C38.5701 21.4897 37.9435 20.9074 37.4229 20.209C36.8744 19.4734 36.1035 18.9959 35.3105 18.7451L34.9707 18.6514C33.2951 18.2566 32.1122 17.1505 30.5928 15.9248C28.8203 14.4941 26.9215 13.098 24.6582 12.2197L24.3213 12.084C23.6135 11.7884 22.9262 11.4394 22.1865 11.0781C22.2033 11.0766 22.22 11.0733 22.2363 11.0723H22.2373C23.6722 10.9829 25.0762 10.758 26.4443 10.5137C27.8262 10.2669 29.1531 10.0037 30.501 9.81836L30.5 9.81738C31.846 9.63352 33.234 9.37211 34.5293 9.16895L34.5283 9.16797C34.9435 9.10335 35.2508 9.05558 35.54 9.06836C39.0851 9.2322 42.617 8.5858 45.9492 8.24902H45.9512C46.0996 8.23359 46.3914 8.20718 46.6719 8.09473C47.5932 7.72522 48.5667 7.53071 49.6006 7.38672C50.5742 7.25113 51.7635 7.14486 52.8057 6.97656C54.0487 6.77599 55.2792 6.52798 56.4941 6.27637C57.9145 5.98262 59.4021 5.63806 60.7979 5.34277C61.0689 5.28543 61.3626 5.25503 61.6689 5.24219H61.6699C64.7888 5.11073 67.8575 4.65344 70.8848 4.14062L72.1797 3.91895C72.5348 3.85748 72.8989 3.81917 73.2969 3.77832C73.6853 3.73845 74.1076 3.69551 74.5293 3.62207C75.9 3.38269 77.3376 3.15022 78.7393 2.78613C79.5644 2.57201 80.3575 2.47238 81.1572 2.51855V2.51953C83.5628 2.66191 85.8724 2.28027 88.1201 1.60547H88.1211C88.5364 1.48074 88.9568 1.37087 89.3848 1.26758L90.6934 0.967773Z" fill="#F6FAF9" stroke="#FD1E1F" stroke-width="1.65939"/>
<path d="M119.521 13.4473C119.468 17.9769 119.551 22.2747 119.122 26.5557L119.023 27.4619C118.854 28.9059 118.655 30.3396 118.453 31.875C118.192 31.9538 117.944 32.0263 117.67 32.082L117.669 32.083C114.705 32.6891 111.679 33.2496 108.697 33.9072H108.696C106.646 34.36 104.586 34.9646 102.606 35.4697C99.9433 36.1493 97.2337 36.8043 94.5586 37.5127C93.4374 37.8097 92.3225 37.7352 91.1328 37.4463C90.6486 37.3286 90.1444 37.2084 89.6318 37.1104H89.6309C88.4833 36.8915 87.4916 36.7743 86.4688 36.5205L87.4346 35.6465C88.6037 34.5873 89.3387 33.4343 90.0078 32.4951L90.3135 32.0664L90.0557 31.6074C89.9309 31.3854 89.7063 31.0603 89.3115 30.9238C88.8513 30.765 88.4639 30.9536 88.249 31.1074L88.248 31.1084C87.1941 31.8653 86.5613 32.9181 86.0518 33.873C85.9428 34.0767 85.927 34.2744 85.9297 34.4062C85.9323 34.5343 85.9544 34.6515 85.9697 34.7256C86.0085 34.9127 86.0344 34.9893 86.0566 35.1475L86.2412 36.4619C85.1163 36.1672 84.0009 35.8076 82.916 35.3867C81.6361 34.8901 80.3345 34.5971 79.0449 34.3691L78.4932 34.2744C77.7769 34.1557 77.0633 33.989 76.3193 33.8135C75.5844 33.64 74.8182 33.4579 74.0391 33.3262C72.6079 33.0846 71.2962 32.6324 70.0957 31.8945C69.5031 31.5302 68.884 31.3883 68.3389 31.3076C68.0704 31.2679 67.7957 31.2397 67.5576 31.2129C67.3099 31.185 67.0879 31.1573 66.8779 31.1162C65.632 30.8726 64.5369 30.658 63.5166 30.165H63.5156C63.2559 30.04 62.9939 29.9532 62.7666 29.8838C62.5191 29.8082 62.3399 29.7599 62.1445 29.6924C60.0736 28.9748 57.9913 28.2392 55.9072 27.5293C54.1497 26.9299 52.3742 26.3206 50.5791 25.7725C49.8036 25.5357 48.9628 25.4286 48.2666 25.3154C48.5923 25.2469 48.8959 25.2046 49.1865 25.2021C50.4373 25.1913 51.6571 25.0421 52.835 24.874C54.0285 24.7037 55.1588 24.5177 56.3086 24.4141C58.4556 24.2205 60.365 23.8766 62.335 24.0146L62.7295 24.0488C63.0817 24.0855 63.4157 24.0469 63.6904 24.002C63.8283 23.9794 63.9673 23.9523 64.0869 23.9297C64.2109 23.9062 64.3196 23.8853 64.4238 23.8701L64.4248 23.8711C64.5992 23.8458 64.758 23.7876 64.8193 23.7666C64.9107 23.7353 64.908 23.7397 64.8857 23.7422L64.8848 23.7412C66.6446 23.5487 68.3661 23.1985 70.0488 22.8379C71.7432 22.4748 73.391 22.1038 75.0625 21.8535C76.7601 21.5993 78.4398 21.263 80.0996 20.9189C81.7659 20.5736 83.407 20.222 85.0586 19.9307C87.5414 19.4926 90.03 19.209 92.5752 18.8516C95.4774 18.4438 98.39 18.0387 101.294 17.6299C101.385 17.617 101.469 17.5997 101.536 17.584C101.57 17.5761 101.602 17.5675 101.63 17.5605C101.659 17.5533 101.683 17.5476 101.706 17.542C101.797 17.5201 101.825 17.5178 101.828 17.5176H101.829C103.506 17.5472 105.106 17.2534 106.635 16.9053C108.194 16.5501 109.625 16.1541 111.118 15.9141V15.9131C111.781 15.806 112.42 15.5757 112.996 15.3379L113.55 15.1025C115.425 14.2896 117.389 13.9673 119.521 13.4473ZM96.3262 26.0137C95.9952 26.3085 95.7136 26.5356 95.4971 26.7568L95.4961 26.7578C93.5562 28.7445 91.8948 30.9381 90.3535 33.1885C90.0014 33.7024 89.7151 34.2519 89.4707 34.7852L89.4697 34.7861C89.372 35.0002 89.2533 35.3126 89.249 35.6719C89.2444 36.0669 89.3791 36.4642 89.6963 36.8027L89.9277 37.0498L90.2666 37.0635C90.8488 37.0885 91.2764 36.8503 91.5781 36.5469C91.6975 36.4268 91.8105 36.2785 91.9033 36.1455L92.1094 35.8369C93.6431 33.6151 95.1731 31.3891 96.6973 29.1602C96.9917 28.7296 97.2831 28.2761 97.541 27.7969L97.542 27.7939C97.6835 27.5284 97.6892 27.2562 97.6924 27.1348C97.6967 26.9676 97.692 26.8707 97.7051 26.6943L97.8574 24.6494L96.3262 26.0137ZM100.602 28.1465C98.1829 29.6871 95.7353 32.6721 94.5898 35.4932L94.3076 36.1885L94.9717 36.5391C95.3809 36.7552 95.8854 36.8797 96.3789 36.6445C96.818 36.4352 97.0304 36.0333 97.1357 35.8027V35.8018C97.7634 34.4261 98.7298 33.2622 99.8027 32.0381V32.0371C100.454 31.2934 101.034 30.6689 101.705 29.9072H101.706C101.77 29.8343 102.013 29.5672 102.057 29.1924C102.084 28.9594 102.032 28.7122 101.884 28.4961C101.749 28.2999 101.568 28.1797 101.418 28.1045L100.998 27.8945L100.602 28.1465ZM112.021 26.334C110.447 27.0064 108.954 28.5767 107.871 30.5742C107.824 30.6612 107.815 30.6644 107.722 30.8242C107.655 30.9384 107.566 31.1043 107.507 31.3047C107.368 31.7767 107.443 32.2822 107.801 32.7715L108.369 33.5498L109.055 32.8711C109.886 32.0472 110.504 31.0794 111.066 30.2354C111.647 29.3636 112.178 28.6076 112.877 28.0156V28.0146C113.121 27.8076 113.17 27.5427 113.184 27.4463C113.199 27.3332 113.192 27.2347 113.188 27.1914C113.185 27.1468 113.178 27.0904 113.177 27.0811V25.8398L112.021 26.334ZM105.354 27.2275C104.374 27.4696 103.698 28.1065 103.191 28.6875V28.6885C102.561 29.4129 101.955 30.1622 101.38 30.9326L101.377 30.9365C101.19 31.1899 101.184 31.4583 101.19 31.585C101.197 31.7206 101.227 31.8437 101.246 31.916C101.299 32.1204 101.321 32.1611 101.342 32.2773L101.526 33.2842L102.473 32.8955C102.613 32.8378 102.694 32.8131 102.799 32.7754C102.843 32.7596 102.922 32.7312 103.002 32.6895C103.089 32.6439 103.204 32.5688 103.309 32.4463L103.31 32.4473C104.322 31.2643 105.329 30.0744 106.325 28.875L106.332 28.8662C106.505 28.6522 106.524 28.4226 106.521 28.3057C106.518 28.1874 106.492 28.0938 106.478 28.0479C106.448 27.9549 106.406 27.8762 106.39 27.8447C106.33 27.7298 106.329 27.7356 106.31 27.6924L106.025 27.0625L105.354 27.2275Z" fill="#F6FAF9" stroke="#FD1E1F" stroke-width="1.65939"/>
<path d="M44.6064 26.8398C45.5679 27.2177 46.5738 27.4881 47.4902 27.7607C48.4278 28.0396 49.3031 28.328 50.1182 28.751C52.0596 29.7584 54.1419 30.4469 56.3535 30.708H56.3574C56.5398 30.7287 56.6224 30.742 56.6836 30.7627L56.6855 30.7637C57.7505 31.122 58.8191 31.4843 59.8887 31.8467L63.1006 32.9277C63.8485 33.1763 64.7434 33.5208 65.6514 33.6758C66.8111 33.8735 67.9205 34.24 69.0898 34.6543V34.6553C70.2152 35.055 71.4446 35.3774 72.5107 35.7129C73.271 35.9522 73.8923 36.1064 74.4814 36.3857C76.2565 37.2268 78.1129 37.7428 79.9404 38.1748H79.9414C80.5224 38.3119 81.1297 38.4018 81.6592 38.4932C82.2084 38.5879 82.7043 38.6885 83.1641 38.8486H83.165C83.8874 39.0997 84.6186 39.2523 85.3145 39.3799C83.8419 39.4975 82.3862 39.7037 80.9531 39.9258L78.7412 40.2734C74.8235 40.8783 70.9706 41.4892 67.0625 41.6709C65.5071 41.7428 63.8843 42.0536 62.4111 42.2686L61.79 42.3545C59.322 42.6677 56.8707 42.9542 54.3916 43.2627C54.0118 43.3099 53.6334 43.3712 53.2773 43.4268C52.9152 43.4833 52.5707 43.535 52.2295 43.5703C51.4495 43.651 50.6668 43.7218 49.8789 43.793L47.5078 44.0166C46.9963 44.0691 46.4831 44.131 45.9736 44.1953L44.4629 44.3877C43.8793 44.4604 43.3644 44.5427 42.8467 44.6016L42.3252 44.6514C41.72 44.6957 41.0151 44.7915 40.3516 45.1943C39.1909 44.7577 38.086 44.2946 37.0166 43.709L36.4141 43.3945C34.9955 42.6859 33.4928 42.1477 32.082 41.6172C29.8196 40.7664 27.5885 39.875 25.3936 38.8818C20.1449 36.5073 14.8011 34.1837 9.11426 32.7285C8.48009 32.5661 7.91736 32.2845 7.16406 31.9795H7.16309C6.39478 31.6691 5.48551 31.2471 4.63184 30.9355C3.9264 30.6778 3.25498 30.3619 2.57031 29.9521C4.99478 29.9449 7.43511 29.9498 9.86621 29.9277C10.5938 29.9215 11.3127 29.839 11.9824 29.7588C15.5168 29.3364 19.0524 28.9015 22.583 28.4736C22.7111 28.4581 22.8407 28.4462 22.9717 28.4355L23.3691 28.4092C26.3426 28.2582 29.3562 28.1468 32.3506 27.9463C34.4449 27.8061 36.5687 27.5355 38.6074 27.3418C40.4554 27.1662 42.3045 27.0013 44.1543 26.8447H44.1553C44.2958 26.8328 44.3988 26.825 44.4893 26.8271C44.5701 26.8291 44.6027 26.8388 44.6064 26.8398Z" fill="#F6FAF9" stroke="#FD1E1F" stroke-width="1.65939"/>
<path d="M146.943 2.9751C147.775 3.49055 148.671 3.57608 149.381 3.64404C151.908 3.88596 154.431 4.15224 156.962 4.41064C157.041 4.41872 157.071 4.42499 157.198 4.44092C157.296 4.45322 157.431 4.46644 157.58 4.46143L157.581 4.4624C160.82 4.3554 163.878 5.2984 167.16 6.13623C170.074 6.88157 173.013 7.29616 175.955 7.60498C177.904 7.80908 179.758 8.06316 181.553 8.70068H181.554C182.931 9.18925 184.49 9.21995 185.757 9.31104C186.214 9.34376 186.786 9.32368 187.129 9.33154C187.433 9.33848 187.698 9.36275 187.948 9.42529L188.192 9.50049C188.257 9.52503 188.323 9.54546 188.388 9.56396C188.179 9.72122 187.978 9.875 187.789 10.0161C187.236 10.4275 186.729 10.7661 186.167 10.9819C185.634 11.1866 185.195 11.6174 184.957 11.8286C183.765 12.8851 182.351 13.6407 180.836 14.2593C179.574 14.7753 178.469 15.4729 177.471 16.312L177.05 16.6802C176.149 17.4956 175.125 18.1154 173.995 18.6548L173.994 18.6558C173.878 18.7109 173.54 18.8477 173.292 19.0103C171.466 20.2008 169.527 20.2749 167.356 19.6538C165.008 18.9821 162.64 18.3847 160.275 17.8198C159.493 17.6332 158.707 17.4694 157.922 17.3179L155.582 16.8872C154.466 16.685 153.347 16.4957 152.236 16.3071C151.123 16.1183 150.015 15.9296 148.912 15.7271C145.472 15.0955 142.038 14.4357 138.597 13.7808C137.77 13.6234 137.061 13.5243 136.366 13.312C133.571 12.4575 130.704 12.0918 127.91 11.7437C127.253 11.6617 126.597 11.5595 125.909 11.4321C126.583 11.1649 127.255 10.9115 127.933 10.6851L127.932 10.6841C130.394 9.86278 132.855 9.07957 135.332 8.26611L135.331 8.26514C135.461 8.22248 135.729 8.14518 135.924 8.07471C136.145 7.99497 136.411 7.88121 136.658 7.69678C137.715 6.9048 138.893 6.36269 140.16 5.83057L141.456 5.29248C141.768 5.16197 142.068 5.01408 142.342 4.87842C142.624 4.73902 142.881 4.61188 143.139 4.50146C143.955 4.15302 144.777 3.83435 145.624 3.49561L145.627 3.49463C146.034 3.32978 146.442 3.17092 146.943 2.9751Z" fill="#F6FAF9" stroke="#FD1E1F" stroke-width="1.65939"/>
<path d="M122.186 13.4614C122.294 13.4667 122.394 13.4736 122.504 13.4907V13.4917C124.978 13.8791 127.441 14.2502 129.898 14.6519L132.353 15.0659C133.037 15.1847 133.718 15.3569 134.429 15.5415C135.131 15.7236 135.868 15.9194 136.616 16.0679C140.716 16.8816 144.821 17.6703 148.93 18.4351C152.301 19.0622 155.586 19.5787 158.916 20.231C160.711 20.5825 162.458 21.0884 164.295 21.5581V21.5571C164.369 21.5759 164.441 21.5965 164.514 21.6157C164.242 21.6932 163.975 21.7731 163.713 21.854C162.806 22.1348 161.973 22.4092 161.113 22.5864C157.294 23.3737 153.487 24.2446 149.694 25.0815H149.693C148.266 25.3966 146.824 25.7097 145.39 26.0591H145.389C143.569 26.5032 141.737 26.871 139.875 27.2671C138.023 27.6613 136.153 28.0813 134.303 28.6245C131.806 29.3566 129.247 29.8808 126.647 30.2007C124.989 30.4045 123.311 30.8273 121.767 31.1304L121.763 31.1313C121.678 31.1485 121.592 31.1679 121.502 31.187C121.466 30.513 121.503 29.8951 121.584 29.2651C121.686 28.4781 121.777 27.6771 121.833 26.8696C121.94 25.3093 122.072 23.7113 122.13 22.1108L122.15 21.4253C122.201 19.1673 122.142 16.8474 122.155 14.6333V14.6323C122.157 14.093 122.131 13.7518 122.186 13.4614ZM129.095 21.6714C128.716 21.7563 128.387 21.8192 128.177 21.895C128.034 21.9468 127.886 22.0225 127.746 22.147C127.621 22.2575 127.536 22.3792 127.486 22.4517L127.485 22.4526C127.201 22.8668 126.842 23.231 126.424 23.6128C126.129 23.8828 125.772 24.1874 125.431 24.5063L125.098 24.8296C124.473 25.4623 123.929 26.1862 123.426 26.8706L122.936 27.5376C122.765 27.7673 122.567 28.0941 122.505 28.4976C122.438 28.9364 122.544 29.3808 122.838 29.7847L123.219 30.3081L123.82 30.0659C123.825 30.0644 123.835 30.0611 123.852 30.0562C123.874 30.0499 123.945 30.0311 124.001 30.0132C124.063 29.9938 124.159 29.9608 124.26 29.9058C124.363 29.8501 124.502 29.7548 124.618 29.5952C125.626 28.1994 126.744 26.9146 127.993 25.7378L128.536 25.2407C129.254 24.6023 129.806 23.7432 130.08 22.6899L130.421 21.3745L129.095 21.6714ZM130.506 25.5103C129.919 25.6315 129.434 25.7835 128.968 26.061C128.512 26.3327 128.123 26.696 127.685 27.1587V27.1597C127.597 27.2529 127.367 27.4982 127.303 27.8618C127.224 28.3104 127.424 28.6842 127.684 28.9429L128.095 29.3521L128.622 29.106C129.76 28.5716 130.598 27.7058 131.31 26.856L132.842 25.0278L130.506 25.5103ZM136 24.0386C134.645 24.3341 133.992 25.3721 133.577 26.2593L132.747 28.0327L134.598 27.395C135.798 26.9822 136.425 26.0393 136.886 25.2808L137.893 23.6265L136 24.0386Z" fill="#F6FAF9" stroke="#FD1E1F" stroke-width="1.65939"/>
</svg>
