<svg width="153" height="110" viewBox="0 0 153 110" fill="none" xmlns="http://www.w3.org/2000/svg">
<path fill-rule="evenodd" clip-rule="evenodd" d="M73.7422 57.7848C71.741 74.313 71.0563 90.9427 70.0677 108.019C82.9787 104.837 95.4146 102.04 107.546 98.6958C117.733 95.887 127.877 92.932 137.495 89.1928C143.353 86.9163 143.247 86.9717 143.417 82.3776C143.642 76.3132 144.166 70.2554 144.502 64.1944C144.67 61.1621 144.594 58.1215 144.821 55.091C145.08 51.602 145.569 48.1213 145.918 44.6357C146.002 43.7917 145.932 42.9394 145.932 41.7588C144.469 41.9696 143.205 42.077 142.005 42.3374C133.334 44.2234 124.607 46.0044 116.03 48.0861C107.657 50.1173 99.4506 52.4862 91.1488 54.6652C87.0039 55.7535 82.8459 56.8384 78.6136 57.7353C77.145 58.0459 75.431 57.7848 73.7422 57.7848Z" fill="#F6FAF9"/>
<path fill-rule="evenodd" clip-rule="evenodd" d="M6.68273 90.7561C10.368 91.9301 13.8079 93.1703 17.3963 94.1402C25.2384 96.2622 33.1918 98.1843 41.0292 100.318C44.42 101.242 47.6301 102.493 50.9276 103.585C52.0252 103.949 53.1168 104.335 54.2586 104.615C58.5196 105.661 62.7998 106.668 67.2271 107.727C67.5742 103.949 68.0243 100.255 68.2313 96.5535C68.7436 87.3091 69.1063 78.0613 69.6197 68.8168C69.7442 66.5672 70.3187 64.3319 70.4947 62.0814C70.6467 60.1551 70.527 58.2179 70.527 56.0204C50.097 49.6125 28.5107 45.2636 6.72462 40.1665C6.55945 42.5186 6.24467 44.5851 6.30451 46.6474C6.43617 51.155 6.90895 55.6593 6.96521 60.1669C7.02864 65.2816 6.74856 70.3989 6.6935 75.5144C6.64084 80.5519 6.68273 85.5877 6.68273 90.7561Z" fill="#F6FAF9"/>
<path fill-rule="evenodd" clip-rule="evenodd" d="M11.2708 15.6347C14.2427 16.5374 16.6102 17.3461 19.0651 17.9868C28.1927 20.3716 37.3502 22.6984 46.4946 25.0513C52.4193 26.5745 58.3583 28.0701 64.2567 29.6429C68.082 30.664 71.875 31.7539 75.6237 32.9077C77.3724 33.4468 78.9248 33.4115 80.7022 32.9513C90.9861 30.2962 101.421 27.9475 111.578 25.0253C117.501 23.3206 123.73 22.1341 129.845 20.7654C135.409 19.5209 141.004 18.3453 147.105 17.027C145.875 16.6138 145.073 16.2796 144.213 16.0672C136.174 14.0854 128.156 12.0634 120.078 10.1698C107.154 7.14095 94.1196 4.36233 80.7908 2.33441C79.6597 2.16227 78.3707 2.21015 77.2348 2.39825C68.8361 3.79638 60.4493 5.23145 52.0758 6.70515C45.3192 7.8942 38.5124 8.97742 31.8696 10.431C25.1178 11.9055 18.5408 13.7773 11.2708 15.6347Z" fill="#F6FAF9"/>
<path fill-rule="evenodd" clip-rule="evenodd" d="M74.3843 54.9453C74.7482 48.2687 75.0965 41.8499 75.4556 35.2245C73.7727 34.5897 72.1066 33.7954 70.2766 33.3033C61.0747 30.8295 51.8298 28.4413 42.6076 26.0095C33.8056 23.6885 25.0263 21.3264 16.2098 19.0314C12.7137 18.122 9.14568 17.347 5.69739 16.5308C4.2994 17.4931 4.27786 18.489 4.42628 19.5C5.10971 24.1663 4.36405 28.799 3.81347 33.4385C3.80509 33.5149 3.74764 33.588 3.73328 33.6635C3.06301 36.9368 3.12764 37.119 7.53825 38.1871C16.0147 40.2377 24.5403 42.19 33.0288 44.2171C39.3102 45.7177 45.5233 47.3618 51.8454 48.7759C58.9323 50.363 65.8085 52.2817 72.4729 54.5893C72.8595 54.7228 73.3191 54.7514 74.3843 54.9453Z" fill="#F6FAF9"/>
<path fill-rule="evenodd" clip-rule="evenodd" d="M77.0029 55.6223C85.7391 53.3349 93.6435 51.349 101.457 49.1985C109.914 46.8691 118.512 44.8764 127.273 43.1852C131.849 42.3018 136.292 41.0834 140.814 40.0531C142.599 39.6475 144.432 39.341 146.244 38.99C147.929 38.6633 148.75 38.026 148.71 36.6606C148.617 33.6309 148.729 30.5928 148.899 27.5631C149.05 24.9365 149.398 22.3166 149.688 19.3843C147.052 19.8562 144.82 20.1946 142.637 20.6539C133.528 22.5727 124.433 24.5191 115.342 26.4799C114.29 26.7066 113.321 27.1088 112.287 27.3801C101.612 30.1856 90.9421 32.9961 80.2465 35.7596C78.8593 36.1181 77.9281 36.5456 77.8766 37.6809C77.6193 43.48 77.3177 49.2782 77.0029 55.6223Z" fill="#F6FAF9"/>
<path fill-rule="evenodd" clip-rule="evenodd" d="M148.3 40.9675C149.731 40.5795 151.063 40.2193 152.828 39.7423C152.828 37.4272 152.831 35.034 152.825 32.64C152.814 28.4389 152.806 24.2378 152.777 20.0358C152.771 19.2616 152.702 18.4857 152.614 17.7132C152.508 16.7777 151.88 16.1773 150.526 15.8465C138.407 12.8848 126.551 9.41843 114.061 7.17135C104.532 5.45748 95.1869 3.23811 85.7636 1.23874C84.07 0.878501 82.4099 0.428408 80.6959 0.137866C79.7815 -0.0174818 78.7426 -0.0493735 77.8257 0.0824622C63.6029 2.12214 49.4075 4.24997 35.4791 7.14951C30.5012 8.18656 25.6286 9.4705 20.6877 10.6008C15.1042 11.8788 9.53375 13.1921 3.88794 14.319C2.14046 14.6675 1.45341 15.2192 1.46658 16.3856C1.47017 16.5417 1.43547 16.6971 1.43906 16.8524C1.68562 23.4778 0.896851 30.0646 0.0817566 36.6547C-0.152832 38.5415 -0.0463104 38.5432 2.66948 39.1873C2.97708 39.2603 3.24878 39.4098 3.52887 39.5332C3.61624 39.5727 3.67368 39.6457 3.60785 39.592C3.82808 45.8328 4.1776 51.961 4.21829 58.0876C4.25659 64.0773 3.93462 70.0679 3.85443 76.0576C3.81134 79.2485 4.01482 82.4403 3.97292 85.6303C3.95258 87.1779 3.81732 88.7499 3.38045 90.2614C3.01181 91.5361 3.6306 92.1701 5.18538 92.6059C15.2502 95.4248 25.2001 98.4747 35.4145 100.993C41.4086 102.471 47.2722 104 52.7541 106.258C53.9689 106.759 55.4591 106.931 56.8152 107.265C59.4245 107.907 62.0708 108.486 64.6226 109.225C67.4868 110.054 70.12 110.321 73.2547 109.512C81.4619 107.392 89.8989 105.702 98.1169 103.598C105.705 101.656 113.218 99.5361 120.607 97.2437C128.093 94.9193 135.398 92.3019 142.764 89.7836C145.839 88.7323 145.818 88.6139 145.603 85.9578C145.479 84.4102 145.514 82.8517 145.615 81.3025C145.921 76.5715 146.387 71.8464 146.618 67.1146C146.815 63.073 146.624 59.0197 146.887 54.9807C147.195 50.3278 147.811 45.685 148.3 40.9675ZM73.7419 57.7853C75.4307 57.7853 77.1459 58.0465 78.6121 57.7358C82.8444 56.839 87.0024 55.754 91.1473 54.6658C99.449 52.4867 107.655 50.1179 116.029 48.0866C124.606 46.0058 133.332 44.2239 142.004 42.3379C143.203 42.0767 144.468 41.9692 145.931 41.7593C145.931 42.94 146.002 43.7923 145.917 44.6362C145.567 48.1218 145.079 51.6025 144.819 55.0915C144.594 58.1212 144.668 61.1618 144.501 64.1949C144.164 70.2568 143.639 76.3145 143.415 82.3781C143.244 86.9731 143.35 86.9168 137.494 89.1933C127.876 92.9325 117.731 95.8883 107.545 98.6964C95.4131 102.04 82.9784 104.837 70.0662 108.02C71.0548 90.9441 71.7406 74.3135 73.7419 57.7853ZM6.68271 90.7568C6.68271 85.5884 6.64082 80.5526 6.69469 75.516C6.75095 70.3996 7.02982 65.2823 6.96637 60.1684C6.91013 55.6608 6.43855 51.1574 6.30569 46.649C6.24466 44.5866 6.56064 42.5201 6.72581 40.1681C28.5119 45.2643 50.097 49.614 70.5282 56.0219C70.5282 58.2195 70.6479 60.1567 70.4958 62.083C70.3199 64.3334 69.7442 66.5688 69.6209 68.8184C69.1074 78.0628 68.7448 87.3106 68.2325 96.5551C68.0254 100.256 67.5754 103.95 67.2283 107.728C62.8009 106.669 58.5208 105.663 54.2598 104.616C53.1179 104.337 52.0264 103.95 50.9288 103.587C47.6313 102.494 44.4224 101.243 41.0304 100.32C33.193 98.1858 25.2396 96.2637 17.3974 94.1417C13.8079 93.171 10.368 91.9308 6.68271 90.7568ZM11.2705 15.6357C18.5405 13.7783 25.1163 11.9065 31.868 10.4303C38.5109 8.97759 45.3177 7.8935 52.0742 6.70446C60.4478 5.23076 68.8357 3.79568 77.2332 2.39755C78.3679 2.20862 79.657 2.1616 80.7893 2.33374C94.1192 4.36166 107.152 7.14028 120.077 10.1691C128.154 12.0635 136.173 14.0848 144.211 16.0665C145.072 16.2798 145.874 16.6131 147.104 17.0263C141.002 18.3446 135.409 19.5202 129.843 20.7647C123.73 22.1334 117.5 23.32 111.576 25.0246C101.42 27.946 90.9845 30.2947 80.7007 32.9507C78.9233 33.4108 77.3709 33.4461 75.6222 32.907C71.8735 31.7532 68.0805 30.6633 64.2552 29.6422C58.3568 28.0694 52.4178 26.5747 46.4931 25.0506C37.3487 22.6977 28.1912 20.3709 19.0635 17.9861C16.6099 17.347 14.2436 16.5384 11.2705 15.6357ZM74.3846 54.9454C73.3194 54.7506 72.8609 54.722 72.4719 54.5885C65.8076 52.281 58.9313 50.3622 51.8444 48.7752C45.5236 47.3611 39.3092 45.7169 33.0278 44.2163C24.5394 42.1892 16.0138 40.2377 7.53731 38.1863C3.12669 37.119 3.06326 36.936 3.73233 33.6628C3.74789 33.5863 3.80534 33.5133 3.81253 33.4377C4.36311 28.7983 5.10876 24.1655 4.42534 19.4992C4.27692 18.4882 4.29848 17.4915 5.69647 16.53C9.14476 17.3462 12.7127 18.1213 16.2089 19.0307C25.0241 21.3248 33.8035 23.6878 42.6067 26.0087C51.8289 28.4406 61.075 30.8287 70.2756 33.3025C72.1057 33.7946 73.7718 34.589 75.4546 35.2238C75.0956 41.8508 74.7473 48.2688 74.3846 54.9454ZM77.0034 55.6231C77.3182 49.279 77.6198 43.4807 77.8784 37.6825C77.9298 36.5463 78.861 36.1198 80.2483 35.7612C90.9438 32.9969 101.614 30.1863 112.288 27.3817C113.321 27.1104 114.292 26.7074 115.344 26.4815C124.434 24.5207 133.529 22.5743 142.638 20.6555C144.82 20.1962 147.052 19.8578 149.689 19.3859C149.4 22.3182 149.051 24.9381 148.9 27.5647C148.729 30.5944 148.619 33.6325 148.711 36.6622C148.752 38.0276 147.932 38.6658 146.246 38.9916C144.434 39.3426 142.601 39.6483 140.815 40.0547C136.293 41.085 131.851 42.3035 127.275 43.1868C118.513 44.878 109.916 46.8707 101.459 49.2C93.644 51.3497 85.7397 53.3357 77.0034 55.6231Z" fill="#FD1E1F"/>
<path d="M150.306 26.0365C146.487 26.7125 142.66 27.4691 138.697 27.5279C137.539 27.5455 137.541 26.2859 138.697 26.2683C142.499 26.2112 146.167 25.4697 149.83 24.8206C150.952 24.6224 151.429 25.8367 150.306 26.0365Z" fill="#FD1E1F"/>
<path d="M150.306 30.2347C147.313 30.6546 144.321 31.0744 141.329 31.4943C140.199 31.653 139.717 30.4388 140.853 30.2792C143.845 29.8594 146.837 29.4395 149.829 29.0196C150.959 28.8609 151.442 30.0743 150.306 30.2347Z" fill="#FD1E1F"/>
<path d="M149.707 33.8032C146.637 34.187 143.498 34.0484 140.431 34.433C139.3 34.5741 138.815 33.3607 139.954 33.218C143.024 32.8342 146.163 32.9728 149.23 32.5882C150.361 32.4463 150.845 33.6605 149.707 33.8032Z" fill="#FD1E1F"/>
<path d="M69.9361 74.9498C66.6362 74.0127 63.2083 73.4493 59.7624 72.8506C58.6385 72.6557 59.1161 71.4398 60.2388 71.6355C63.6859 72.2342 67.1126 72.7985 70.4125 73.7348C71.4718 74.0354 71.0097 75.2538 69.9361 74.9498Z" fill="#FD1E1F"/>
<path d="M69.337 79.1476C67.3909 78.9192 65.5261 78.6328 63.7367 78.0341C62.6918 77.6848 63.6038 76.599 64.6428 76.9467C66.2813 77.4942 68.0372 77.7243 69.8146 77.9325C70.9541 78.066 70.4693 79.2802 69.337 79.1476Z" fill="#FD1E1F"/>
<path d="M69.337 82.7174C66.1222 81.9256 62.8067 81.4654 59.4626 81.038C58.3243 80.8919 58.8079 79.6785 59.9389 79.823C63.2843 80.2512 66.5985 80.7114 69.8134 81.5024C70.899 81.7694 70.4322 82.9862 69.337 82.7174Z" fill="#FD1E1F"/>
</svg>
