<svg width="50" height="45" viewBox="0 0 50 45" fill="none" xmlns="http://www.w3.org/2000/svg">
<path d="M44.7363 33.6725C44.0396 34.6792 42.2712 36.2031 41.2406 36.9267C41.2219 36.9405 41.2031 36.9542 41.1844 36.9679C40.9418 37.1437 40.7142 37.3106 40.4438 37.5028C39.797 37.952 38.9264 38.5851 36.9577 39.5854C36.3984 39.8992 35.8297 40.1972 35.255 40.4781C31.9631 42.0784 28.4523 43.2163 24.7913 43.7247C21.5563 44.1612 18.2381 44.178 14.9832 43.4664C14.8954 43.4497 14.8064 43.4323 14.717 43.4141C12.9763 43.0837 10.8726 42.3216 9.66096 41.611C8.11552 40.7282 7.18741 39.9332 6.46798 39.2649C2.16933 35.511 0.11265 29.8559 0.00595063 24.4161C-0.0157509 23.464 0.0187731 22.5104 0.108249 21.5637L0.104346 21.6497C0.107086 20.9024 0.125564 20.1535 0.163287 19.4051C0.241679 17.8555 0.403057 16.3007 0.692492 14.7572C0.835108 13.8558 1.0118 12.9938 1.21698 12.2046C1.50538 11.0916 1.85412 10.1159 2.21286 9.33492C3.05316 7.43953 4.56029 5.53304 5.90941 4.39887C6.12868 4.20864 6.33771 4.03853 6.53536 3.88456C7.60691 2.98772 8.80225 2.24503 10.0619 1.65779C10.1498 1.63126 10.239 1.60547 10.3301 1.57999C11.4821 1.26407 12.8223 0.769655 15.0224 0.374282C15.9601 0.209228 17.0884 0.0678096 18.3922 0.010563C19.2341 -0.0247562 19.6775 0.0365938 20.0209 0.0841762C20.1237 0.0985435 20.2204 0.112379 20.3187 0.123908C20.6513 0.163365 21.0298 0.127302 21.4326 0.0906515C21.9595 0.0431619 22.6589 -0.00143778 23.4837 0.132906C23.8978 0.199496 24.2827 0.26051 24.6406 0.315228L24.555 0.31085C26.5162 0.420506 27.5115 0.440229 28.3009 0.441388C28.5762 0.444976 28.8255 0.452024 29.0777 0.47628C29.8969 0.551099 31.0393 0.851242 31.867 1.15913C32.5305 1.39504 33.8736 1.76472 34.8894 2.10786C35.2714 2.23357 35.777 2.44909 36.3556 2.72694C36.9568 3.0154 37.6392 3.37292 38.3635 3.76865C40.1933 4.78309 41.0757 5.48334 41.7857 6.03533C41.9858 6.19445 42.1715 6.34744 42.3542 6.50201C42.9309 6.98861 43.6161 7.63732 44.2604 8.34267C45.0352 9.18489 45.7444 10.1099 46.2546 10.8406C47.4733 12.7977 48.3639 14.9662 48.8443 17.2231C49.0939 18.3817 49.1004 19.5351 48.9314 20.3683C48.7623 21.2019 48.4592 21.6505 48.1607 21.6497C47.858 21.6488 47.5787 21.2091 47.3078 20.4775C47.037 19.7419 46.7794 18.7727 46.5173 17.7687C45.9939 15.7412 45.0933 13.8232 43.9093 12.1019C42.4667 10.0021 40.611 8.19337 38.5149 6.72498C37.0485 5.69726 35.4558 4.83934 33.7878 4.16502C33.616 4.09555 33.443 4.02778 33.2689 3.9619C31.8245 3.50285 30.3432 3.20421 29.2998 3.03442C28.4376 2.89233 27.8094 2.77338 27.269 2.68121C26.8949 2.61836 26.5652 2.57048 26.2273 2.55181C26.0467 2.54191 25.7947 2.53215 25.4982 2.52692C25.2244 2.52203 24.9064 2.52072 24.555 2.52592L24.4146 2.51874C23.1572 2.40628 21.5933 2.31294 20.0885 2.26458C19.2514 2.23499 18.2676 2.20952 17.31 2.24063C15.974 2.27538 14.7117 2.44234 14.1238 2.61047C13.0504 2.90478 11.8548 3.25987 10.8448 3.69027C9.86959 4.09997 9.08716 4.56222 8.6842 4.90294C8.21613 5.30271 7.78523 5.60187 7.18523 6.10904C6.77623 6.45966 6.28015 6.91774 5.71286 7.63183C5.06225 8.45988 4.65225 9.0937 4.31892 9.6429C3.85725 10.4215 3.5441 11.0423 3.26878 12.0329C2.96607 13.134 2.73317 14.3049 2.53617 15.2269C2.44491 15.6498 2.36782 16.1337 2.30136 16.6451C2.21325 17.3192 2.14566 18.0342 2.07099 18.6886C2.00944 19.2264 1.9299 19.6736 1.86381 20.0697C1.84324 20.1934 1.82412 20.3124 1.80743 20.4279C1.79703 20.835 1.79277 21.2417 1.79431 21.6497L1.79128 21.7166C1.78888 21.7442 1.78654 21.7717 1.78426 21.7992C1.78761 21.869 1.792 21.9424 1.79687 22.019C1.82152 22.4032 1.86048 22.8729 1.88649 23.4491C1.92924 24.3607 1.93812 25.1577 1.99317 26.0007C2.0374 26.6561 2.11118 27.3391 2.28457 28.1038C2.4027 28.6247 2.576 29.2086 2.77611 29.7746C3.07114 30.6171 3.43057 31.4156 3.66479 31.9763C3.75206 32.1867 3.804 32.3787 3.85841 32.5689C3.85859 32.5698 3.85878 32.5707 3.85897 32.5715C3.86266 32.5844 3.86646 32.5973 3.87019 32.6102C4.56341 33.9246 5.4264 35.1403 6.44033 36.2041C6.53329 36.2922 6.62784 36.3797 6.72209 36.4649C7.18342 36.8836 7.65898 37.2536 7.99805 37.4579C8.36132 37.6808 9.21373 38.3097 10.1962 38.8313C10.8393 39.1785 11.5311 39.4826 12.1069 39.6828C12.4447 39.801 12.754 39.9595 13.0697 40.1106C13.3653 40.2519 13.6887 40.3939 14.0416 40.4841C14.2208 40.53 14.4193 40.567 14.6338 40.603C14.8249 40.6352 15.0184 40.6642 15.2238 40.6986C15.4103 40.7297 15.8466 40.8416 16.3831 40.9503C16.7157 41.0181 17.121 41.0891 17.521 41.1438C18.6122 41.2289 19.7241 41.2347 20.8146 41.1767C21.0438 41.1358 21.2499 41.0828 21.4007 41.0192C21.5093 40.9736 21.6012 40.9206 21.6953 40.8659C21.8236 40.7915 21.9559 40.714 22.1418 40.6445C22.2871 40.5902 22.4619 40.5575 22.583 40.5635C22.6393 40.5663 22.6836 40.5775 22.7239 40.5875C22.771 40.5988 22.8094 40.6092 22.8564 40.6039C22.89 40.6 22.924 40.585 22.9657 40.5667C23.0325 40.5373 23.1191 40.4993 23.2565 40.4821C23.5735 40.4424 23.9224 40.3988 24.2849 40.3489C24.4964 40.3199 24.7129 40.2882 24.9297 40.2536C25.5597 40.1537 26.1765 40.0304 26.6597 39.9061C27.206 39.7668 27.9869 39.6037 28.7707 39.4033C29.3147 39.2653 29.8625 39.1097 30.3197 38.9565C30.7717 38.8052 31.2235 38.6059 31.6592 38.4028C32.1801 38.1601 32.6759 37.9125 33.1157 37.7493C33.2049 37.7162 33.3309 37.7078 33.4896 37.6956C33.6019 37.687 33.7318 37.676 33.8743 37.6538C34.4138 37.3901 34.9484 37.1136 35.4746 36.825C35.4901 36.8094 35.5061 36.7932 35.522 36.777C35.5223 36.7767 35.5225 36.7764 35.5227 36.7761C35.883 36.4073 36.3589 35.9064 37.2085 35.4986C37.4244 35.3946 37.5806 35.3572 37.7211 35.3233C37.859 35.2898 37.9826 35.2591 38.1313 35.1674C38.2999 35.0633 38.4743 34.903 38.6605 34.7266C38.9221 34.4789 39.2067 34.1988 39.5483 33.9885C39.5716 33.9741 39.5967 33.9587 39.6227 33.9425C39.8689 33.7897 40.2319 33.5562 40.6191 33.352C41.5898 32.5384 42.4989 31.6581 43.3149 30.7061C44.6738 29.1226 45.7758 27.3255 46.4236 25.3674C46.7418 24.4169 47.0294 23.4954 47.3102 22.7864C47.591 22.0838 47.8633 21.6508 48.1607 21.6497C48.4529 21.6487 48.7542 22.0926 48.9091 22.9224C49.064 23.7532 49.0231 24.9055 48.7151 26.0468C48.2193 27.9074 47.3818 29.663 46.3301 31.2451C46.2781 31.33 46.225 31.4148 46.1712 31.4987C45.7696 32.124 45.4031 32.7089 45.0115 33.2807C44.9216 33.4118 44.8301 33.5425 44.7363 33.6725Z" fill="#FD1E1F"/>
<path d="M18.7104 13.4441C18.8437 13.5209 18.8318 13.7141 18.8253 13.8242C18.8253 13.8261 18.8252 13.8281 18.8251 13.83C18.8234 13.8552 18.826 13.8784 18.8292 13.9058C18.8369 13.972 18.8473 14.0604 18.8057 14.2554C18.8175 14.308 18.8281 14.362 18.8369 14.4144C18.933 14.9891 18.9203 15.5814 18.8742 16.1697C18.8757 16.1769 18.8772 16.1843 18.8787 16.1917C18.9078 16.3344 18.9427 16.5125 18.9125 16.629C18.8745 16.7795 18.8342 16.8787 18.7993 16.9638C18.7523 17.4223 18.7066 17.8764 18.6999 18.3276L18.7012 18.3991C18.7006 18.405 18.6999 18.4108 18.6993 18.4167C18.6851 18.5514 18.6768 18.6867 18.6758 18.8212C18.6748 18.9449 18.6786 19.0691 18.687 19.1922C18.7131 19.2636 18.7443 19.3314 18.7736 19.3931C18.8147 19.4807 18.8519 19.5575 18.8657 19.621C18.8986 19.7745 18.8652 19.9504 18.8425 20.0817C18.8388 20.1032 18.8353 20.1235 18.8324 20.1422C18.856 20.2434 18.8818 20.3433 18.9094 20.4425C18.9005 20.4502 18.8912 20.458 18.8816 20.4659C18.7627 20.5655 18.7759 20.6733 18.8014 20.8389C18.8126 20.9108 18.8262 20.9944 18.8335 21.093C18.8384 21.157 18.794 21.1976 18.758 21.232C18.7474 21.242 18.7375 21.2514 18.7298 21.2605C18.7034 21.2918 18.7423 21.3123 18.7882 21.3357C18.8479 21.3661 18.9193 21.4008 18.8776 21.4759C18.7608 21.6905 18.8628 21.7645 18.9613 21.8039C18.9738 21.8078 18.9868 21.8135 18.9994 21.819C19.0317 21.8332 19.0611 21.8464 19.08 21.8635C19.1415 21.9182 19.1266 22.0314 19.0876 22.1242C19.0569 22.1974 19.1327 22.3102 19.2119 22.3937C19.2421 22.4255 19.2528 22.4749 19.2643 22.5316C19.2764 22.5914 19.2892 22.6588 19.3269 22.7277C19.4217 22.9005 19.4657 22.9924 19.5015 23.0665C19.5116 23.0873 19.5209 23.107 19.5304 23.127C19.5603 23.1881 19.588 23.2657 19.6155 23.3448C19.6482 23.4375 19.6808 23.534 19.7173 23.6034C19.7072 23.7975 19.6872 23.9899 19.6658 24.1805C19.6547 24.2788 19.552 24.3814 19.3752 24.4617C19.1984 24.5433 18.9638 24.6006 18.7176 24.6198C18.4713 24.6392 18.2307 24.6194 18.0433 24.5694C17.8561 24.5205 17.7381 24.4409 17.7105 24.3511C17.6554 24.1711 17.599 23.9924 17.5487 23.8168C17.4873 23.6021 17.435 23.3918 17.4036 23.1872C17.3814 23.0433 17.3629 22.9058 17.3447 22.7711C17.3429 22.7573 17.341 22.7431 17.3391 22.7294C17.2551 22.6319 17.1735 22.539 17.1313 22.46C17.1051 22.4112 17.1076 22.3628 17.116 22.3178C17.1173 22.2977 17.1203 22.2818 17.1232 22.2665C17.1314 22.2236 17.139 22.1858 17.1278 22.1528C17.1217 22.1351 17.1118 22.1112 17.1 22.0822C17.0517 21.9649 16.9744 21.7627 16.9983 21.5641C17.0086 21.4759 17.0432 21.3714 17.0778 21.2727C17.1272 21.1321 17.1767 21.0045 17.1489 20.9472C17.0998 20.8462 17.1159 20.7211 17.1318 20.6125C17.1469 20.5084 17.1615 20.4187 17.1163 20.372C17.0623 20.3158 17.0784 20.2632 17.1027 20.1849C17.1196 20.1312 17.1404 20.0649 17.1457 19.9774C17.1517 19.8761 17.183 19.8034 17.2098 19.7423C17.2476 19.6557 17.2764 19.592 17.2168 19.4994C17.1506 19.3959 17.1083 19.2866 17.1274 19.1998C17.1361 19.16 17.1335 19.1157 17.131 19.0687C17.1277 19.0066 17.1245 18.9417 17.1475 18.8824C17.1665 18.8338 17.2147 18.7936 17.2575 18.7586C17.2709 18.7477 17.2836 18.7372 17.2949 18.7271C17.2947 18.6887 17.2943 18.6496 17.2935 18.6113C17.2859 18.6049 17.2775 18.5982 17.2688 18.5912C17.2251 18.5563 17.1717 18.5122 17.1458 18.4594C17.1284 18.4237 17.1236 18.3899 17.1262 18.357L17.1275 18.4271C17.1272 18.3846 17.1403 18.3426 17.1538 18.2995C17.1721 18.2409 17.1912 18.1816 17.178 18.1133C17.169 18.0671 17.1456 18.0158 17.1223 17.9654C17.0878 17.8913 17.0533 17.8153 17.0669 17.7613C17.0721 17.7409 17.1007 17.7214 17.1291 17.7021C17.1293 17.702 17.1295 17.7019 17.1296 17.7018C17.1316 17.7005 17.1335 17.6992 17.1354 17.6979C17.1017 17.5698 17.0652 17.4444 17.0264 17.3163C17.0177 17.3058 17.009 17.2953 17.0004 17.2848C16.9587 17.2334 16.9181 17.1852 16.8642 17.1548C16.8058 17.1222 16.7647 17.0319 16.7209 16.9369C16.6921 16.874 16.6622 16.8098 16.626 16.7593C16.6048 16.7298 16.6322 16.6954 16.6605 16.6607C16.6868 16.6283 16.7139 16.595 16.7026 16.5635C16.6969 16.5477 16.6821 16.5317 16.6663 16.5147C16.6523 16.4995 16.6375 16.4833 16.6275 16.4658C16.6182 16.4496 16.6305 16.4095 16.6459 16.3586C16.6555 16.327 16.6663 16.2919 16.674 16.2539C16.6429 16.1608 16.6125 16.0701 16.5827 15.9771C16.5531 15.961 16.5158 15.9487 16.4691 15.9413C16.4356 15.9361 16.396 15.9331 16.3554 15.9301C16.3003 15.926 16.2434 15.9219 16.1969 15.9113C16.1607 15.9032 16.1448 15.89 16.1578 15.8779C16.1638 15.8722 16.1759 15.8669 16.1868 15.862C16.1994 15.8564 16.2105 15.8515 16.2096 15.8474C16.2089 15.8445 16.1993 15.8427 16.1876 15.8405C16.1689 15.8369 16.1447 15.8323 16.1423 15.8205C16.1331 15.7768 16.1334 15.7262 16.1335 15.6751C16.1337 15.6187 16.1338 15.5651 16.1206 15.5232C16.1057 15.4758 16.1298 15.4031 16.1535 15.3299C16.1699 15.278 16.1861 15.2265 16.1894 15.1845C16.1928 15.144 16.1669 15.1034 16.142 15.0663C16.112 15.0213 16.0832 14.9791 16.1064 14.9338C16.1112 14.9247 16.1466 14.9086 16.1908 14.8884C16.2221 14.874 16.258 14.8576 16.2906 14.8402C16.2823 14.7904 16.275 14.7383 16.2691 14.6873C16.2638 14.6864 16.2584 14.6854 16.2529 14.6845C16.2527 14.6845 16.2526 14.6845 16.2525 14.6845C16.1277 14.6636 15.9569 14.6344 16.0389 14.5384C16.0597 14.514 16.1025 14.4934 16.141 14.4749C16.1788 14.4564 16.2126 14.4397 16.2174 14.4234C16.2228 14.4048 16.1948 14.3893 16.1643 14.3725C16.1215 14.349 16.0738 14.3237 16.1062 14.2817C16.1084 14.2789 16.1109 14.2759 16.1133 14.2727C16.1363 14.2428 16.1704 14.1988 16.2458 14.1477C16.2471 14.0338 16.2523 13.9221 16.2589 13.8075C16.2701 13.6173 16.2863 13.4254 16.3015 13.2307C16.309 13.135 16.4027 13.0261 16.5677 12.9241C16.7331 12.8227 16.9557 12.7408 17.1935 12.694C17.4312 12.6464 17.6676 12.6349 17.859 12.6609C18.0502 12.6877 18.179 12.7488 18.2239 12.8348C18.2965 12.9743 18.3692 13.1154 18.438 13.2582C18.4445 13.2653 18.4509 13.2724 18.457 13.2796C18.5017 13.3307 18.5797 13.3738 18.6573 13.4153C18.6751 13.4247 18.693 13.4343 18.7104 13.4441Z" fill="#FD1E1F"/>
<path d="M25.9697 11.2957C26.0983 11.3143 26.0877 11.4326 26.0825 11.4992C26.0825 11.5004 26.0824 11.5016 26.0824 11.5028C26.0811 11.5185 26.084 11.5322 26.0875 11.5481C26.0958 11.5858 26.1063 11.6349 26.071 11.7621C26.0838 11.7915 26.0949 11.8199 26.105 11.8497C26.2137 12.1711 26.2327 12.5247 26.2347 12.8849C26.2367 12.8888 26.2387 12.8927 26.2408 12.8967C26.2799 12.9733 26.3287 13.069 26.3105 13.1458C26.2874 13.2435 26.2591 13.3144 26.2339 13.3733C26.2351 13.66 26.2464 13.9439 26.3042 14.2115C26.3221 14.2949 26.3451 14.3779 26.3734 14.4579C26.3991 14.5307 26.4294 14.605 26.4618 14.6759C26.5007 14.7098 26.5437 14.7413 26.5835 14.77C26.6393 14.8104 26.6886 14.8452 26.7132 14.8806C26.7731 14.9672 26.77 15.0865 26.7686 15.1776C26.7683 15.1923 26.7681 15.2062 26.768 15.2188C26.8049 15.2745 26.8446 15.3349 26.8831 15.3905C26.8755 15.3979 26.8675 15.4055 26.8593 15.4133C26.7572 15.5096 26.7833 15.5771 26.8228 15.6789C26.8406 15.725 26.86 15.7751 26.8738 15.8402C26.883 15.8828 26.8424 15.9204 26.8093 15.9512C26.7995 15.9602 26.7904 15.9687 26.7834 15.9764C26.7595 16.0033 26.7971 16.0064 26.8428 16.0135C26.9018 16.0219 26.9725 16.0314 26.9337 16.0907C26.8115 16.284 26.9478 16.2968 27.0511 16.3069C27.0813 16.3096 27.1085 16.3118 27.1255 16.3179C27.1819 16.3418 27.1593 16.4063 27.1188 16.4695C27.0877 16.5152 27.1483 16.5606 27.215 16.5774L27.2435 16.6606C27.2475 16.6633 27.2516 16.6659 27.2557 16.6685C27.2845 16.6863 27.2941 16.7189 27.3044 16.7567C27.3152 16.796 27.3267 16.8408 27.3627 16.8826C27.4532 16.9883 27.4954 17.042 27.5296 17.0843C27.5393 17.0963 27.5481 17.1074 27.5572 17.1184C27.5818 17.148 27.6047 17.1838 27.6272 17.219C27.6309 17.2249 27.6346 17.2309 27.6384 17.2369C27.6701 17.2878 27.7036 17.3473 27.741 17.3922C27.7343 17.5281 27.7166 17.6679 27.6946 17.7981C27.6831 17.8652 27.5799 17.9392 27.4029 18.0017C27.2258 18.0646 26.9909 18.1115 26.7452 18.1365C26.4994 18.1612 26.26 18.1627 26.0742 18.1442C25.8885 18.1256 25.7727 18.0886 25.7469 18.0411C25.6953 17.9439 25.6426 17.857 25.5944 17.7666C25.5716 17.7236 25.5496 17.6779 25.5288 17.6252C25.4961 17.542 25.4714 17.4659 25.4565 17.396C25.4398 17.3173 25.4288 17.2473 25.4201 17.1793L25.4556 17.2832C25.4552 17.2817 25.4547 17.2801 25.4543 17.2785C25.4513 17.2681 25.4483 17.2573 25.4452 17.2463C25.3535 17.1797 25.2723 17.1215 25.2318 17.0703C25.1978 17.0263 25.2172 16.9855 25.2318 16.9452C25.2422 16.9183 25.2508 16.8931 25.2422 16.8777C25.2374 16.869 25.2292 16.8576 25.2192 16.8436C25.1776 16.7846 25.1085 16.6874 25.1285 16.5692C25.1377 16.5176 25.1665 16.4453 25.1964 16.3825C25.2384 16.2905 25.2761 16.2007 25.2459 16.1769C25.1922 16.1334 25.1958 16.0543 25.2009 15.9897C25.2053 15.9266 25.2087 15.8702 25.1599 15.8562C25.102 15.8406 25.111 15.8064 25.1241 15.7548C25.1333 15.7194 25.1438 15.6742 25.1364 15.6235C25.1279 15.5649 25.1463 15.514 25.162 15.4706C25.1838 15.409 25.2008 15.3646 25.1284 15.3311C25.048 15.2942 24.9879 15.2456 24.9901 15.1916C24.9909 15.1668 24.98 15.1426 24.9685 15.1173C24.9534 15.0839 24.9373 15.0477 24.9472 15.0076C24.9553 14.9743 24.9926 14.9358 25.0255 14.9017C25.0358 14.8911 25.0456 14.8809 25.0541 14.8715C25.0458 14.8499 25.0373 14.8284 25.0282 14.807C25.0197 14.8061 25.0103 14.8052 25.0006 14.8042C24.952 14.7993 24.8925 14.7939 24.8566 14.7735C24.7998 14.7412 24.8107 14.6912 24.8222 14.6384C24.8312 14.597 24.8409 14.5548 24.8189 14.5174C24.804 14.492 24.7746 14.4673 24.7454 14.4427C24.702 14.4061 24.6594 14.3704 24.6654 14.3329C24.6677 14.3189 24.6926 14.2988 24.7173 14.2789C24.7175 14.2788 24.7176 14.2786 24.7178 14.2785C24.7195 14.2772 24.7211 14.2759 24.7228 14.2745C24.6743 14.2053 24.6236 14.1369 24.5717 14.0689C24.5621 14.0648 24.5525 14.0606 24.5431 14.0564C24.4971 14.0359 24.4524 14.016 24.3973 14.012C24.3377 14.0076 24.288 13.9618 24.2356 13.9135C24.2013 13.8819 24.1659 13.8493 24.1257 13.8263C24.1022 13.813 24.1252 13.7846 24.149 13.7554C24.1711 13.7281 24.1939 13.7002 24.18 13.6831C24.173 13.6745 24.1572 13.6681 24.1403 13.6613C24.1254 13.6553 24.1096 13.649 24.0984 13.6406C24.088 13.6328 24.0961 13.6042 24.1063 13.5679C24.1126 13.5454 24.1197 13.5199 24.1239 13.4943C24.086 13.4436 24.0489 13.3929 24.0129 13.3411C23.983 13.338 23.9461 13.3391 23.9004 13.3456C23.8676 13.3503 23.8291 13.3579 23.7898 13.3657C23.7362 13.3762 23.6809 13.3871 23.6353 13.3916C23.5997 13.3951 23.5834 13.3905 23.595 13.3796C23.6004 13.3745 23.6116 13.3682 23.6218 13.3625C23.6335 13.3559 23.6438 13.3501 23.6427 13.3477C23.6418 13.346 23.6323 13.3471 23.6209 13.3485C23.6026 13.3507 23.5789 13.3534 23.5757 13.3464C23.5636 13.3206 23.5598 13.2866 23.5564 13.2539C23.5525 13.2175 23.5488 13.182 23.5333 13.1581C23.516 13.1314 23.5344 13.0784 23.5527 13.0249C23.5655 12.9877 23.5782 12.9506 23.5789 12.9224C23.5797 12.8947 23.553 12.8756 23.5268 12.8566C23.4953 12.8336 23.465 12.8116 23.4855 12.7773C23.4896 12.7704 23.5231 12.7522 23.565 12.7295C23.5946 12.7134 23.6286 12.6949 23.6594 12.6766C23.6488 12.6454 23.6402 12.6149 23.6322 12.5823C23.627 12.5828 23.6217 12.5833 23.6163 12.5838C23.6161 12.5839 23.616 12.5839 23.6159 12.5839C23.494 12.5962 23.3273 12.6129 23.4032 12.5328C23.4225 12.5124 23.4632 12.4901 23.4999 12.4699C23.5359 12.4501 23.5681 12.4325 23.5723 12.4211C23.5771 12.4081 23.5495 12.4039 23.5193 12.3988C23.477 12.3919 23.4297 12.3842 23.4601 12.3506C23.4622 12.3483 23.4644 12.3458 23.4667 12.3432C23.4882 12.3191 23.52 12.2834 23.5919 12.2347C23.5915 12.1632 23.5929 12.0848 23.5985 12.0107C23.6066 11.8841 23.6216 11.7564 23.6367 11.6276C23.6452 11.5673 23.7353 11.4764 23.8967 11.3834C24.058 11.2896 24.2747 11.1978 24.5055 11.1239C24.7364 11.0502 24.9659 10.999 25.1513 10.9801C25.3362 10.9606 25.4617 10.9791 25.5034 11.021C25.5719 11.093 25.6407 11.1647 25.7069 11.2387C25.7131 11.2416 25.7193 11.2447 25.7251 11.2478C25.7687 11.2716 25.8431 11.2794 25.9183 11.289C25.9355 11.2912 25.9528 11.2933 25.9697 11.2957Z" fill="#FD1E1F"/>
<path d="M17.4653 30.0858C17.6651 30.0517 17.9685 30.2174 18.1568 30.3039C18.1602 30.3054 18.1636 30.307 18.167 30.3086C18.211 30.3292 18.254 30.3444 18.3055 30.362C18.3864 30.3896 18.4872 30.4234 18.6482 30.4916C18.708 30.5202 18.7855 30.557 18.8893 30.6034C18.9837 30.6196 19.0821 30.6351 19.1846 30.6507C20.3084 30.8139 21.6486 30.9234 22.9769 31.1337C22.9823 31.1339 22.9878 31.1341 22.9933 31.1343C23.0039 31.1346 23.0146 31.1349 23.0254 31.1352C23.3329 31.1446 23.7149 31.1431 23.9555 31.1883C24.2612 31.2465 24.4718 31.2933 24.6453 31.3329C25.6366 31.4042 26.6451 31.3924 27.6304 31.2499C27.939 31.2051 28.2451 31.1471 28.546 31.0742C28.8231 31.007 29.0962 30.9283 29.3629 30.8377C29.5113 30.7649 29.6482 30.687 29.773 30.6126C29.9474 30.5084 30.0972 30.4112 30.2235 30.3451C30.2725 30.3196 30.3224 30.295 30.3725 30.2713C30.6523 30.1394 30.9564 30.0256 31.1881 29.9289C31.2332 29.9101 31.2754 29.8922 31.3143 29.8751C31.5112 29.7454 31.7008 29.6086 31.8817 29.4655C31.8998 29.4649 31.9183 29.4645 31.9371 29.4641C32.1718 29.4584 32.3753 29.314 32.6622 29.0653C32.7868 28.9563 32.927 28.8268 33.0891 28.6728C33.1932 28.5735 33.2796 28.5526 33.3516 28.5342C33.3727 28.5288 33.3924 28.5236 33.4106 28.5168C33.4731 28.493 33.4876 28.4228 33.5016 28.3412C33.5204 28.2344 33.5375 28.1103 33.6686 28.0244C34.0884 27.7404 34.0776 27.4742 34.0632 27.2996C34.0591 27.2466 34.0544 27.1996 34.0596 27.1562C34.063 27.1283 34.0702 27.0997 34.0805 27.0709L34.0274 27.2279C34.0517 27.0821 34.1251 26.9345 34.2039 26.8095C34.2806 26.691 34.2941 26.4212 34.2797 26.2111C34.2747 26.1298 34.2956 26.035 34.3224 25.9128C34.3491 25.7914 34.3807 25.6468 34.3881 25.4934C34.4082 25.0984 34.42 24.8872 34.4287 24.7209C34.4314 24.6727 34.4337 24.6287 34.4355 24.5856C34.4426 24.4426 34.4579 24.2753 34.4726 24.1015C34.4899 23.8957 34.5042 23.6897 34.4998 23.5347C34.5867 23.1929 34.6655 22.775 34.6812 22.6715L34.7044 22.7948C34.705 22.7868 34.7049 22.7774 34.704 22.7659C34.6988 22.6761 34.7096 22.4256 34.8167 22.2141C34.9218 21.998 35.1057 21.8218 35.3328 21.7246C35.5602 21.6279 35.8126 21.6122 36.0417 21.6801C36.2698 21.7527 36.4619 21.8847 36.5813 22.1931C36.5959 22.2322 36.61 22.2735 36.6232 22.3164L36.6427 22.4197C36.7401 23.0857 36.6764 23.4789 36.6431 23.9298C36.5879 24.4946 36.5025 25.0394 36.3889 25.5722C36.3087 25.9462 36.2201 26.3168 36.1257 26.6839C36.1156 26.7234 36.1062 26.759 36.0964 26.7966C36.0838 27.1247 36.0671 27.4397 36.0343 27.6657C36.0327 27.6768 36.0309 27.6878 36.029 27.6985L35.9565 27.913C35.8833 28.0999 35.7884 28.2198 35.7057 28.3203C35.6446 28.3945 35.5902 28.4574 35.5506 28.5314C35.5294 28.571 35.5017 28.6256 35.4671 28.6908C35.3282 28.958 35.0557 29.4023 34.7038 29.7084C34.5489 29.8451 34.3487 29.9801 34.1551 30.0973C33.8781 30.2661 33.6154 30.3982 33.5152 30.5046C33.3389 30.6926 33.0848 30.8412 32.8589 30.9602C32.6433 31.0745 32.4528 31.1643 32.3712 31.2606C32.2733 31.3759 32.1569 31.4196 31.9846 31.4796C31.8653 31.5209 31.7185 31.5702 31.5297 31.6522C31.3406 31.7342 31.1895 31.7736 31.0615 31.8026C31.0415 31.8072 31.022 31.8115 31.0029 31.8157C30.7988 31.8604 30.6481 31.8887 30.4575 32.0219C30.2455 32.1696 30.0064 32.2921 29.8048 32.3335C29.7116 32.3529 29.6116 32.3852 29.5045 32.4182C29.3646 32.4615 29.2155 32.5048 29.074 32.5173C28.9563 32.5279 28.8537 32.5032 28.7618 32.4812C28.7332 32.4743 28.7058 32.4677 28.6798 32.4623C28.5917 32.4831 28.5023 32.5038 28.4139 32.524C28.4012 32.5346 28.3878 32.5462 28.3738 32.5581C28.3036 32.6181 28.2158 32.6914 28.0991 32.7414C27.9135 32.8205 27.7383 32.8238 27.555 32.8246C27.4115 32.8253 27.2638 32.8243 27.0986 32.8554C26.986 32.8766 26.8592 32.9128 26.733 32.9473C26.5456 32.9987 26.359 33.0463 26.226 33.0406C26.1761 33.0385 26.131 33.0123 26.0866 32.9862C26.0864 32.986 26.0862 32.9858 26.086 32.9857C26.083 32.9839 26.08 32.9821 26.077 32.9804C25.76 33.031 25.4417 33.0769 25.1218 33.117C25.0943 33.1259 25.0665 33.1347 25.0389 33.1433C24.9039 33.1852 24.7723 33.2244 24.6864 33.2769C24.5934 33.3339 24.3563 33.3699 24.1047 33.4019C23.9402 33.423 23.769 33.4426 23.6288 33.469C23.5464 33.4844 23.4699 33.4507 23.3919 33.4155C23.3188 33.3827 23.2441 33.3486 23.1608 33.3518C23.1192 33.3534 23.0733 33.3638 23.0243 33.3746C22.9813 33.3842 22.9356 33.3942 22.8883 33.3989C22.8754 33.4002 22.8581 33.3991 22.837 33.3961C22.7901 33.3892 22.7227 33.3717 22.6425 33.3513C22.5724 33.3334 22.4926 33.3134 22.4083 33.296C22.1824 33.3019 21.9552 33.3082 21.7266 33.3135C21.6778 33.3382 21.6345 33.3713 21.5995 33.4149C21.5744 33.4462 21.5524 33.484 21.5299 33.5226C21.499 33.5752 21.4671 33.6295 21.4249 33.6719C21.3919 33.7051 21.3544 33.717 21.3302 33.7013C21.319 33.694 21.3108 33.6808 21.3033 33.6689C21.2947 33.6553 21.2871 33.6432 21.277 33.643C21.2697 33.6429 21.2617 33.6518 21.2518 33.6626C21.236 33.6798 21.2156 33.702 21.1861 33.7013C21.076 33.6987 20.9515 33.6846 20.8283 33.6704C20.6918 33.6546 20.5568 33.6387 20.4479 33.6388C20.3259 33.639 20.1545 33.5931 19.9804 33.5452C19.8592 33.5118 19.7366 33.4775 19.6307 33.4579C19.5259 33.4387 19.4141 33.4469 19.3037 33.4535C19.1716 33.4616 19.0414 33.4674 18.9358 33.4222C18.9146 33.4131 18.8924 33.3721 18.8644 33.3207C18.8446 33.2842 18.8221 33.2424 18.7958 33.2029C18.6566 33.1817 18.5162 33.156 18.3723 33.124C18.3663 33.1279 18.3601 33.132 18.3536 33.136C18.3535 33.1361 18.3534 33.1362 18.3533 33.1363C18.2368 33.2111 18.0794 33.3063 17.8986 33.2494C17.8637 33.238 17.8289 33.219 17.7947 33.1903C17.7491 33.1518 17.7276 33.098 17.7093 33.0499C17.6911 33.0026 17.6758 32.9604 17.6394 32.9417C17.598 32.9205 17.5403 32.929 17.4757 32.9373C17.3854 32.9491 17.2825 32.9607 17.2056 32.8933C17.2004 32.8887 17.1946 32.8837 17.1887 32.8786C17.1324 32.83 17.0493 32.7574 16.9833 32.6441C16.7087 32.5196 16.4348 32.3763 16.1665 32.2079C15.7202 31.9286 15.2887 31.5727 14.9372 31.1481C14.7653 30.9419 14.688 30.6685 14.7313 30.4204C14.7738 30.1707 14.9255 29.9691 15.1284 29.8375C15.3321 29.7057 15.5713 29.6465 15.7899 29.6354C16.0093 29.6259 16.1888 29.6635 16.3159 29.7512C16.5235 29.8957 16.7503 30.0097 16.999 30.1074C17.0135 30.11 17.028 30.1127 17.0424 30.1155C17.1493 30.1366 17.2674 30.1201 17.3846 30.0999C17.4114 30.0952 17.4384 30.0904 17.4653 30.0858Z" fill="#FD1E1F"/>
</svg>
