<svg width="27" height="26" viewBox="0 0 27 26" fill="none" xmlns="http://www.w3.org/2000/svg">
<g clip-path="url(#clip0_264_3675)">
<path d="M6.79102 0.475586C10.412 -1.54925 13.6845 3.4587 14.6377 4.85059C16.8531 3.3442 18.5638 1.19276 20.5264 0.475586C28.001 -2.25525 22.6699 8.48368 21.6396 8.74023C23.4129 9.15269 28.4052 10.6164 26.9932 13.8086C26.1903 15.6226 23.0684 16.7609 20.1494 17.499C21.6929 18.9918 23.3547 21.1779 22.376 22.3467C21.216 23.7283 16.799 23.1619 15.1328 21.7646C14.8729 21.5465 14.6429 21.308 14.4453 21.0547C13.8645 23.3184 12.6598 26.1342 9.83887 25.9531C5.05742 25.6457 8.29074 18.4961 7.94824 17.7695C3.46666 18.3071 0.716538 20.3069 0.0400391 16.2744C-0.55772 12.7097 5.70855 10.2436 6.73145 9.76074C5.66412 8.12691 3.17048 2.50121 6.79102 0.475586Z" fill="#1869FF"/>
<path d="M17.4859 12.3102C17.4859 13.5913 15.0743 14.1815 14.2742 14.6298C12.1786 15.065 11.8841 13.568 11.3442 12.3102C10.1172 10.157 12.5005 9.99072 14.2742 9.99072C16.048 9.99072 17.4859 11.0292 17.4859 12.3102Z" fill="#FDC51E"/>
</g>
<defs>
<clipPath id="clip0_264_3675">
<rect width="27" height="26" fill="white"/>
</clipPath>
</defs>
</svg>
