<svg width="1440" height="1110" viewBox="0 0 1440 1110" fill="none" xmlns="http://www.w3.org/2000/svg">
<g clip-path="url(#clip0_172_3139)">
<g clip-path="url(#clip1_172_3139)">
<path d="M3.6626 34.8115C23.6663 23.6234 41.7469 51.2904 47.0112 58.9775C59.2494 50.6562 68.6952 38.7718 79.5366 34.8105C120.825 19.7263 91.3779 79.0451 85.687 80.4629C95.4826 82.7412 123.061 90.8292 115.257 108.465C110.826 118.477 93.607 124.77 77.4946 128.847C86.0182 137.093 95.1796 149.164 89.77 155.615C83.3655 163.251 58.9688 160.12 49.7642 152.4C48.3242 151.193 47.0543 149.869 45.9604 148.466C42.7534 160.975 36.091 176.55 20.4976 175.548C-5.91392 173.85 11.9435 134.359 10.0532 130.343C-14.7026 133.312 -29.8913 144.358 -33.6284 122.083C-36.9314 102.39 -2.31075 88.7682 3.33545 86.1025C-2.56006 77.0786 -16.3398 46.0006 3.6626 34.8115Z" fill="#97E4EB"/>
<path d="M62.738 100.186C66.4617 107.278 54.7952 112.999 44.9972 112.999C35.1992 112.999 27.2563 107.263 27.2563 100.186C27.2563 93.1101 34.9234 86.6508 46.2637 90.3333C51.5504 93.0445 58.0571 92.5023 62.738 100.186Z" fill="#1869FF"/>
<path d="M276.496 29.6863C298.179 37.1125 289.648 69.0435 287.438 78.0946C301.803 81.6521 316.957 80.7519 327.144 86.1798C365.937 106.853 302.113 124.525 297.258 121.234C302.1 130.049 314.487 155.981 296.148 161.943C285.735 165.327 269.556 156.709 255.766 147.433C255.316 159.284 252.444 174.163 244.029 174.441C234.069 174.769 220.114 154.514 219.718 142.507C219.656 140.628 219.794 138.798 220.109 137.046C208.653 143.009 192.607 148.447 182.943 136.166C166.577 115.368 207.9 102.303 209.63 98.2142C190.894 81.7636 172.531 77.8271 186.622 60.1758C199.08 44.5713 232.331 61.2545 238.086 63.6801C240.87 53.2667 254.812 22.2618 276.496 29.6863Z" fill="#FDC51E"/>
<path d="M267.255 117.314C261.986 122.037 250.666 114.295 245.872 112.657C236.355 105.642 241.426 98.9111 244.608 92.0528C248.941 79.0661 258.412 88.2556 264.953 95.5511C271.493 102.847 272.524 112.59 267.255 117.314Z" fill="#ED86E4"/>
<path d="M478.76 25.2824C501.636 23.8852 505.917 56.657 507.324 65.868C521.961 63.683 535.628 57.0772 547.115 58.2139C590.858 62.5445 538.585 103.204 532.842 102.012C540.678 108.316 562.012 127.571 547.328 140.072C538.99 147.168 520.746 145.365 504.462 142.044C508.562 153.172 511.578 168.024 503.904 171.487C494.82 175.586 474.2 162.177 469.258 151.227C468.485 149.514 467.915 147.77 467.538 146.031C459.219 155.91 446.457 167.05 432.843 159.38C409.785 146.386 443.017 118.557 443.055 114.121C419.463 106.051 400.985 109.41 407.286 87.7211C412.858 68.5465 449.958 71.2992 456.203 71.3484C454.809 60.659 455.884 26.681 478.76 25.2824Z" fill="#1869FF"/>
<path d="M503.607 109.82C500.536 116.195 487.12 113.35 482.064 113.663C470.591 110.804 472.715 102.649 473.044 95.0951C472.1 81.4375 484.359 86.3242 493.186 90.5768C502.013 94.8294 506.679 103.445 503.607 109.82Z" fill="#F6FAF9"/>
<path d="M741.539 29.6863C763.223 37.1125 754.691 69.044 752.481 78.0953C766.846 81.6528 782 80.7524 792.186 86.1804C830.98 106.854 767.155 124.526 762.3 121.235C767.143 130.049 779.53 155.981 761.191 161.943C750.778 165.327 734.598 156.708 720.807 147.432C720.357 159.283 717.486 174.164 709.071 174.442C699.11 174.769 685.156 154.514 684.759 142.508C684.697 140.629 684.836 138.799 685.15 137.048C673.695 143.011 657.65 148.447 647.986 136.167C631.619 115.367 672.948 102.302 674.674 98.2142C655.938 81.7634 637.574 77.8281 651.665 60.1765C664.122 44.5715 697.374 61.2553 703.129 63.6807C705.913 53.2671 719.856 22.2611 741.539 29.6863Z" fill="#FD1E1F"/>
<path d="M732.297 117.316C727.028 122.039 715.708 114.297 710.914 112.659C701.397 105.644 706.468 98.9131 709.65 92.0547C713.983 79.0681 723.454 88.2576 729.995 95.5531C736.535 102.849 737.566 112.592 732.297 117.316Z" fill="#F6FAF9"/>
<path d="M886.418 34.8115C906.421 23.6237 924.502 51.29 929.767 58.9775C942.005 50.6563 951.451 38.7719 962.292 34.8105C1003.58 19.7264 974.133 79.0446 968.442 80.4629C978.238 82.7412 1005.82 90.8293 998.013 108.465C993.581 118.477 976.362 124.77 960.25 128.847C968.774 137.092 977.937 149.164 972.528 155.615C966.124 163.251 941.726 160.12 932.521 152.4C931.081 151.192 929.81 149.867 928.716 148.464C925.509 160.974 918.847 176.55 903.253 175.548C876.842 173.849 894.699 134.358 892.809 130.343C868.053 133.312 852.864 144.358 849.127 122.083C845.824 102.391 880.444 88.7686 886.091 86.1025C880.195 77.0783 866.416 46.0007 886.418 34.8115Z" fill="#97E4EB"/>
<path d="M945.494 100.186C949.218 107.278 937.552 112.999 927.754 112.999C917.956 112.999 910.013 107.263 910.013 100.186C910.013 93.1101 917.68 86.6508 929.02 90.3333C934.307 93.0445 940.813 92.5023 945.494 100.186Z" fill="#FDC51E"/>
<path d="M1159.25 29.6863C1180.93 37.1125 1172.4 69.0432 1170.19 78.0946C1184.56 81.652 1199.71 80.7525 1209.9 86.1804C1248.69 106.854 1184.87 124.525 1180.01 121.234C1184.86 130.048 1197.24 155.982 1178.9 161.944C1168.49 165.328 1152.31 156.709 1138.52 147.433C1138.07 159.284 1135.2 174.165 1126.78 174.443C1116.82 174.771 1102.87 154.516 1102.47 142.509C1102.41 140.63 1102.55 138.799 1102.86 137.047C1091.41 143.01 1075.36 148.448 1065.7 136.167C1049.33 115.367 1090.66 102.303 1092.39 98.215C1073.65 81.7639 1055.29 77.8281 1069.38 60.1765C1081.84 44.5713 1115.09 61.2564 1120.84 63.6808C1123.63 53.2672 1137.57 22.2612 1159.25 29.6863Z" fill="#ED86E4"/>
<path d="M1150.01 117.316C1144.74 122.039 1133.42 114.297 1128.63 112.659C1119.11 105.644 1124.18 98.9131 1127.36 92.0547C1131.69 79.0681 1141.17 88.2576 1147.71 95.5531C1154.25 102.849 1155.28 112.592 1150.01 117.316Z" fill="#F6FAF9"/>
<path d="M1396.48 29.6863C1418.17 37.1125 1409.64 69.0421 1407.43 78.0939C1421.79 81.6514 1436.94 80.7533 1447.13 86.1811C1485.92 106.855 1422.1 124.526 1417.24 121.235C1422.09 130.049 1434.47 155.982 1416.13 161.944C1405.72 165.327 1389.54 156.709 1375.75 147.433C1375.3 159.284 1372.43 174.164 1364.02 174.442C1354.06 174.77 1340.1 154.515 1339.71 142.508C1339.64 140.629 1339.78 138.798 1340.1 137.047C1328.64 143.01 1312.59 148.447 1302.93 136.167C1286.56 115.368 1327.89 102.302 1329.62 98.2142C1310.88 81.7638 1292.52 77.8279 1306.61 60.1771C1319.07 44.5718 1352.32 61.2548 1358.07 63.6801C1360.86 53.266 1374.8 22.2617 1396.48 29.6863Z" fill="#FDC51E"/>
<path d="M1387.24 117.314C1381.97 122.037 1370.65 114.295 1365.86 112.657C1356.34 105.642 1361.41 98.9111 1364.6 92.0528C1368.93 79.0661 1378.4 88.2556 1384.94 95.5511C1391.48 102.847 1392.51 112.59 1387.24 117.314Z" fill="#ED86E4"/>
</g>
<g clip-path="url(#clip2_172_3139)">
<path d="M-37.194 233.059C-14.3174 231.662 -10.0355 264.434 -8.62913 273.645C6.0072 271.46 19.6741 264.854 31.1599 265.99C74.904 270.321 22.6298 310.981 16.8873 309.788C24.723 316.092 46.0577 335.347 31.3743 347.848C23.0368 354.945 4.7935 353.143 -11.4914 349.822C-7.39149 360.951 -4.37652 375.802 -12.0504 379.265C-21.1345 383.363 -41.7547 369.954 -46.6963 359.005C-47.4696 357.292 -48.0392 355.547 -48.4158 353.808C-56.7346 363.686 -69.4973 374.827 -83.1114 367.156C-106.168 354.162 -72.9368 326.334 -72.8991 321.897C-96.4906 313.828 -114.97 317.187 -108.668 295.497C-103.096 276.323 -65.993 279.077 -59.7496 279.126C-61.1441 268.436 -60.0704 234.458 -37.194 233.059Z" fill="#1869FF"/>
<path d="M248.585 237.464C270.268 244.89 261.738 276.821 259.528 285.873C273.893 289.43 289.046 288.531 299.233 293.959C338.024 314.632 274.204 332.302 269.347 329.012C274.19 337.827 286.575 363.759 268.236 369.721C257.823 373.105 241.644 364.486 227.854 355.211C227.404 367.062 224.531 381.942 216.117 382.22C206.156 382.548 192.202 362.292 191.805 350.286C191.743 348.407 191.882 346.576 192.196 344.825C180.741 350.787 164.696 356.225 155.033 343.945C138.665 323.144 179.996 310.08 181.72 305.992C162.984 289.541 144.619 285.606 158.71 267.954C171.168 252.349 204.422 269.033 210.176 271.458C212.96 261.044 226.902 230.039 248.585 237.464Z" fill="#ED86E4"/>
<path d="M239.342 325.093C234.073 329.817 222.753 322.074 217.96 320.436C208.442 313.421 213.513 306.69 216.696 299.832C221.028 286.845 230.5 296.035 237.04 303.33C243.581 310.626 244.611 320.369 239.342 325.093Z" fill="#F6FAF9"/>
<path d="M548.742 298.357C552.845 320.905 520.814 329.046 511.835 331.536C515.742 345.81 523.923 358.597 524.158 370.137C525.051 414.085 478.473 367.007 478.975 361.164C473.646 369.692 457.06 393.161 442.905 380.065C434.868 372.629 434.492 354.302 435.856 337.738C425.293 343.13 410.903 347.887 406.554 340.678C401.405 332.145 412.272 310.079 422.558 303.873C424.168 302.901 425.833 302.128 427.515 301.548C416.719 294.46 404.142 283.11 410.143 268.682C420.308 244.243 451.886 273.94 456.294 273.449C461.507 249.066 455.977 231.117 478.261 234.8C497.962 238.056 499.632 275.223 500.325 281.427C510.774 278.774 544.639 275.808 548.742 298.357Z" fill="#FD1E1F"/>
<path d="M467.75 333.063C461.055 330.771 462.287 317.112 461.376 312.128C462.853 300.398 471.203 301.538 478.742 300.968C492.191 298.41 488.794 311.162 485.62 320.431C482.445 329.701 474.444 335.356 467.75 333.063Z" fill="#97E4EB"/>
<path d="M746.25 237.464C767.933 244.89 759.401 276.821 757.192 285.873C771.557 289.43 786.711 288.53 796.897 293.958C835.69 314.631 771.865 332.303 767.011 329.012C771.853 337.826 784.241 363.758 765.901 369.72C755.488 373.105 739.309 364.485 725.518 355.21C725.068 367.061 722.196 381.942 713.781 382.219C703.82 382.547 689.866 362.292 689.47 350.285C689.408 348.406 689.546 346.577 689.86 344.825C678.405 350.788 662.36 356.225 652.696 343.944C636.329 323.144 677.659 310.079 679.384 305.992C660.648 289.541 642.284 285.605 656.375 267.954C668.833 252.349 702.084 269.033 707.839 271.458C710.623 261.044 724.566 230.038 746.25 237.464Z" fill="#FDC51E"/>
<path d="M737.007 325.093C731.738 329.817 720.418 322.074 715.625 320.436C706.107 313.421 711.178 306.69 714.361 299.832C718.693 286.845 728.165 296.035 734.705 303.33C741.246 310.626 742.276 320.369 737.007 325.093Z" fill="#ED86E4"/>
<path d="M1006.48 237.464C1028.16 244.89 1019.63 276.821 1017.42 285.873C1031.79 289.43 1046.94 288.531 1057.13 293.959C1095.92 314.632 1032.1 332.302 1027.24 329.012C1032.09 337.827 1044.47 363.759 1026.13 369.721C1015.72 373.105 999.541 364.486 985.75 355.211C985.3 367.062 982.428 381.942 974.013 382.22C964.053 382.548 950.098 362.292 949.702 350.286C949.64 348.407 949.778 346.576 950.093 344.825C938.638 350.787 922.593 356.225 912.929 343.945C896.562 323.144 937.892 310.08 939.616 305.992C920.88 289.541 902.515 285.606 916.607 267.954C929.065 252.349 962.318 269.033 968.072 271.458C970.856 261.044 984.798 230.039 1006.48 237.464Z" fill="#ED86E4"/>
<path d="M997.239 325.093C991.97 329.817 980.65 322.074 975.856 320.436C966.339 313.421 971.41 306.69 974.592 299.832C978.924 286.845 988.396 296.035 994.937 303.33C1001.48 310.626 1002.51 320.369 997.239 325.093Z" fill="#97E4EB"/>
<path d="M1306.64 298.356C1310.74 320.904 1278.71 329.045 1269.73 331.535C1273.64 345.809 1281.82 358.596 1282.05 370.136C1282.95 414.084 1236.37 367.007 1236.87 361.163C1231.54 369.692 1214.96 393.161 1200.8 380.065C1192.76 372.629 1192.39 354.3 1193.75 337.736C1183.19 343.129 1168.8 347.886 1164.45 340.677C1159.3 332.144 1170.17 310.078 1180.45 303.872C1182.06 302.9 1183.73 302.127 1185.41 301.547C1174.62 294.459 1162.04 283.109 1168.04 268.681C1178.2 244.243 1209.78 273.938 1214.19 273.448C1219.4 249.065 1213.87 231.117 1236.16 234.799C1255.86 238.056 1257.53 275.222 1258.22 281.426C1268.67 278.773 1302.54 275.807 1306.64 298.356Z" fill="#FD1E1F"/>
<path d="M1225.65 333.063C1218.95 330.77 1220.18 317.111 1219.27 312.127C1220.75 300.397 1229.1 301.537 1236.64 300.967C1250.09 298.409 1246.69 311.161 1243.52 320.43C1240.34 329.7 1232.34 335.355 1225.65 333.063Z" fill="#97E4EB"/>
<path d="M1469.18 233.059C1492.06 231.662 1496.34 264.434 1497.74 273.645C1512.38 271.46 1526.05 264.854 1537.53 265.99C1581.28 270.321 1529 310.981 1523.26 309.788C1531.1 316.092 1552.43 335.347 1537.75 347.848C1529.41 354.945 1511.17 353.143 1494.88 349.822C1498.98 360.951 1502 375.802 1494.32 379.265C1485.24 383.363 1464.62 369.954 1459.68 359.005C1458.9 357.292 1458.33 355.547 1457.96 353.808C1449.64 363.686 1436.88 374.827 1423.26 367.156C1400.21 354.162 1433.44 326.334 1433.47 321.897C1409.88 313.828 1391.4 317.187 1397.71 295.497C1403.28 276.323 1440.38 279.077 1446.62 279.126C1445.23 268.436 1446.3 234.458 1469.18 233.059Z" fill="#1869FF"/>
</g>
<g clip-path="url(#clip3_172_3139)">
<path d="M-14.3433 476.365C5.65985 465.178 23.7405 492.843 29.0054 500.531C41.2434 492.21 50.6894 480.326 61.5308 476.365C102.817 461.282 73.3748 520.594 67.6821 522.017C77.4782 524.295 105.054 532.383 97.2515 550.018C92.8203 560.03 75.6013 566.324 59.4888 570.4C68.013 578.647 77.1766 590.72 71.7661 597.171C65.3612 604.806 40.9638 601.674 31.7593 593.955C30.3189 592.747 29.0486 591.423 27.9546 590.02C24.7477 602.529 18.0857 618.104 2.49268 617.103C-23.919 615.405 -6.06161 575.913 -7.95166 571.896C-32.7075 574.866 -47.8971 585.912 -51.6343 563.638C-54.9371 543.945 -20.319 530.322 -14.6714 527.656C-20.5672 518.631 -34.3455 487.554 -14.3433 476.365Z" fill="#97E4EB"/>
<path d="M44.7327 541.739C48.4563 548.831 36.7898 554.552 26.9918 554.552C17.1938 554.552 9.25098 548.815 9.25098 541.739C9.25098 534.663 16.918 528.204 28.2583 531.886C33.545 534.597 40.0518 534.055 44.7327 541.739Z" fill="#FDC51E"/>
<path d="M292.415 532.133C296.518 554.682 264.486 562.822 255.507 565.312C259.415 579.586 267.596 592.373 267.831 603.913C268.723 647.862 222.146 600.784 222.648 594.94C217.319 603.469 200.732 626.938 186.577 613.841C178.541 606.405 178.166 588.077 179.53 571.514C168.967 576.906 154.578 581.662 150.228 574.453C145.08 565.92 155.947 543.854 166.232 537.647C167.842 536.676 169.506 535.903 171.188 535.322C160.393 528.235 147.815 516.886 153.816 502.458C163.98 478.02 195.556 507.713 199.967 507.225C205.179 482.842 199.651 464.894 221.934 468.576C241.635 471.832 243.305 508.999 243.998 515.203C254.446 512.55 288.312 509.584 292.415 532.133Z" fill="#FD1E1F"/>
<path d="M211.424 566.839C204.729 564.546 205.961 550.887 205.051 545.904C206.527 534.173 214.877 535.313 222.417 534.743C235.866 532.185 232.469 544.937 229.294 554.207C226.119 563.476 218.119 569.132 211.424 566.839Z" fill="#97E4EB"/>
<path d="M1145.66 476.364C1165.66 465.177 1183.74 492.842 1189.01 500.53C1201.24 492.209 1210.69 480.325 1221.53 476.364C1262.82 461.281 1233.38 520.593 1227.68 522.016C1237.48 524.294 1265.05 532.382 1257.25 550.017C1252.82 560.029 1235.6 566.323 1219.49 570.399C1228.01 578.646 1237.18 590.719 1231.77 597.17C1225.36 604.805 1200.96 601.673 1191.76 593.954C1190.32 592.746 1189.05 591.422 1187.96 590.019C1184.75 602.528 1178.09 618.103 1162.49 617.102C1136.08 615.404 1153.94 575.912 1152.05 571.896C1127.29 574.865 1112.1 585.911 1108.37 563.637C1105.06 543.944 1139.68 530.321 1145.33 527.655C1139.43 518.63 1125.66 487.553 1145.66 476.364Z" fill="#97E4EB"/>
<path d="M1204.73 541.738C1208.46 548.83 1196.79 554.551 1186.99 554.551C1177.19 554.551 1169.25 548.815 1169.25 541.738C1169.25 534.662 1176.92 528.203 1188.26 531.885C1193.55 534.596 1200.05 534.054 1204.73 541.738Z" fill="#FDC51E"/>
<path d="M1414.49 471.24C1436.17 478.666 1427.64 510.595 1425.43 519.648C1439.8 523.205 1454.95 522.307 1465.14 527.735C1503.93 548.408 1440.11 566.08 1435.25 562.788C1440.09 571.603 1452.48 597.535 1434.14 603.497C1423.73 606.88 1407.55 598.262 1393.76 588.987C1393.31 600.838 1390.44 615.718 1382.02 615.996C1372.06 616.323 1358.11 596.068 1357.71 584.062C1357.65 582.183 1357.79 580.352 1358.1 578.601C1346.65 584.564 1330.6 590.001 1320.94 577.721C1304.57 556.921 1345.9 543.856 1347.62 539.768C1328.89 523.317 1310.52 519.382 1324.62 501.731C1337.07 486.126 1370.32 502.808 1376.08 505.234C1378.86 494.821 1392.81 463.816 1414.49 471.24Z" fill="#FDC51E"/>
<path d="M1405.25 558.867C1399.98 563.591 1388.66 555.848 1383.86 554.211C1374.35 547.196 1379.42 540.465 1382.6 533.606C1386.93 520.62 1396.4 529.809 1402.95 537.105C1409.49 544.4 1410.52 554.144 1405.25 558.867Z" fill="#ED86E4"/>
</g>
<g clip-path="url(#clip4_172_3139)">
<path d="M24.1102 679.017C45.7928 686.443 37.262 718.373 35.0522 727.425C49.4172 730.982 64.5711 730.083 74.7574 735.511C113.549 756.184 49.7284 773.856 44.8714 770.566C49.7138 779.38 62.1007 805.313 43.7612 811.275C33.3483 814.659 17.1688 806.039 3.37825 796.763C2.92831 808.614 0.0564425 823.495 -8.35849 823.773C-18.3189 824.1 -32.2733 803.845 -32.6697 791.839C-32.7317 789.959 -32.5935 788.129 -32.279 786.377C-43.7342 792.34 -59.7793 797.778 -69.4432 785.498C-85.8105 764.697 -44.4783 751.632 -42.7552 747.545C-61.4913 731.094 -79.8563 727.159 -65.7658 709.507C-53.3076 693.902 -20.0533 710.586 -14.2994 713.011C-11.5154 702.597 2.42682 671.592 24.1102 679.017Z" fill="#ED86E4"/>
<path d="M14.8672 766.646C9.59826 771.369 -1.72178 763.627 -6.51552 761.989C-16.0329 754.974 -10.9619 748.243 -7.7792 741.385C-3.44714 728.398 6.02461 737.588 12.565 744.883C19.1054 752.179 20.1362 761.922 14.8672 766.646Z" fill="#F6FAF9"/>
<path d="M156.989 684.142C176.993 672.954 195.073 700.62 200.338 708.308C212.576 699.986 222.022 688.102 232.863 684.141C274.151 669.057 244.705 728.375 239.014 729.793C248.809 732.071 276.388 740.159 268.584 757.795C264.152 767.807 246.934 774.101 230.821 778.177C239.345 786.423 248.509 798.494 243.1 804.945C236.695 812.581 212.297 809.45 203.093 801.73C201.652 800.522 200.381 799.198 199.287 797.794C196.08 810.304 189.418 825.88 173.824 824.878C147.413 823.179 165.271 783.688 163.38 779.673C138.624 782.642 123.435 793.688 119.698 771.413C116.396 751.721 151.015 738.099 156.662 735.433C150.767 726.408 136.988 695.331 156.989 684.142Z" fill="#97E4EB"/>
<path d="M216.066 749.516C219.789 756.608 208.123 762.329 198.325 762.329C188.527 762.329 180.584 756.593 180.584 749.516C180.584 742.44 188.251 735.981 199.591 739.663C204.878 742.375 211.385 741.832 216.066 749.516Z" fill="#1869FF"/>
<path d="M417.822 679.016C439.506 686.443 430.974 718.374 428.764 727.425C443.129 730.983 458.283 730.083 468.47 735.511C507.263 756.184 443.438 773.856 438.584 770.565C443.426 779.379 455.813 805.311 437.474 811.273C427.061 814.657 410.881 806.038 397.09 796.762C396.641 808.614 393.769 823.494 385.354 823.772C375.393 824.1 361.439 803.844 361.043 791.838C360.981 789.959 361.119 788.129 361.433 786.378C349.978 792.341 333.933 797.777 324.269 785.497C307.902 764.697 349.231 751.632 350.957 747.544C332.221 731.094 313.857 727.158 327.948 709.507C340.406 693.902 373.657 710.585 379.412 713.011C382.196 702.597 396.139 671.591 417.822 679.016Z" fill="#FDC51E"/>
<path d="M408.58 766.646C403.311 771.369 391.991 763.627 387.197 761.989C377.68 754.974 382.751 748.243 385.934 741.385C390.266 728.398 399.737 737.588 406.278 744.883C412.818 752.179 413.849 761.922 408.58 766.646Z" fill="#ED86E4"/>
<path d="M608.088 674.613C630.964 673.216 635.246 705.988 636.653 715.199C651.289 713.014 664.956 706.408 676.442 707.544C720.186 711.875 667.912 752.535 662.169 751.342C670.005 757.646 691.339 776.901 676.656 789.401C668.319 796.498 650.075 794.696 633.79 791.376C637.89 802.504 640.905 817.355 633.231 820.819C624.147 824.917 603.527 811.508 598.585 800.559C597.812 798.845 597.243 797.101 596.866 795.362C588.547 805.24 575.784 816.381 562.17 808.71C539.113 795.716 572.345 767.888 572.383 763.451C548.791 755.381 530.312 758.741 536.614 737.051C542.185 717.876 579.289 720.63 585.532 720.679C584.138 709.99 585.211 676.011 608.088 674.613Z" fill="#1869FF"/>
<path d="M632.935 759.151C629.864 765.526 616.447 762.682 611.391 762.994C599.919 760.135 602.042 751.98 602.371 744.426C601.427 730.769 613.686 735.655 622.513 739.908C631.34 744.16 636.006 752.776 632.935 759.151Z" fill="#F6FAF9"/>
<path d="M858.867 679.017C880.549 686.444 872.019 718.373 869.809 727.425C884.174 730.982 899.327 730.084 909.513 735.512C948.307 756.186 884.482 773.857 879.628 770.566C884.47 779.38 896.858 805.313 878.517 811.274C868.104 814.658 851.926 806.039 838.136 796.764C837.686 808.615 834.813 823.495 826.398 823.773C816.438 824.101 802.484 803.845 802.087 791.839C802.025 789.96 802.163 788.13 802.477 786.378C791.022 792.341 774.977 797.778 765.313 785.498C748.947 764.698 790.276 751.633 792.001 747.545C773.266 731.095 754.901 727.159 768.992 709.508C781.449 693.903 814.7 710.586 820.457 713.012C823.24 702.598 837.184 671.593 858.867 679.017Z" fill="#FD1E1F"/>
<path d="M849.624 766.645C844.355 771.368 833.035 763.626 828.241 761.988C818.724 754.973 823.795 748.242 826.978 741.384C831.31 728.397 840.781 737.587 847.322 744.882C853.862 752.178 854.893 761.921 849.624 766.645Z" fill="#F6FAF9"/>
<path d="M991.745 684.143C1011.75 672.955 1029.83 700.621 1035.09 708.309C1047.33 699.987 1056.78 688.103 1067.62 684.142C1108.91 669.058 1079.46 728.374 1073.77 729.794C1083.57 732.072 1111.14 740.161 1103.34 757.796C1098.91 767.808 1081.69 774.102 1065.58 778.178C1074.1 786.424 1083.26 798.497 1077.85 804.948C1071.45 812.583 1047.05 809.452 1037.85 801.732C1036.41 800.524 1035.14 799.2 1034.04 797.797C1030.84 810.306 1024.17 825.881 1008.58 824.879C982.169 823.181 1000.03 783.69 998.136 779.674C973.38 782.643 958.191 793.689 954.454 771.414C951.152 751.721 985.772 738.099 991.418 735.434C985.522 726.409 971.743 695.331 991.745 684.143Z" fill="#97E4EB"/>
<path d="M1050.82 749.516C1054.54 756.608 1042.88 762.329 1033.08 762.329C1023.28 762.329 1015.34 756.593 1015.34 749.516C1015.34 742.44 1023.01 735.981 1034.35 739.663C1039.63 742.375 1046.14 741.832 1050.82 749.516Z" fill="#FDC51E"/>
<path d="M1252.58 679.017C1274.26 686.443 1265.73 718.375 1263.52 727.426C1277.89 730.984 1293.04 730.084 1303.23 735.512C1342.02 756.185 1278.2 773.856 1273.34 770.566C1278.18 779.38 1290.57 805.313 1272.23 811.275C1261.82 814.659 1245.64 806.04 1231.85 796.765C1231.4 808.616 1228.52 823.496 1220.11 823.774C1210.15 824.101 1196.2 803.846 1195.8 791.84C1195.74 789.96 1195.87 788.13 1196.19 786.378C1184.73 792.341 1168.69 797.778 1159.03 785.498C1142.66 764.698 1183.99 751.634 1185.71 747.546C1166.98 731.095 1148.61 727.159 1162.7 709.508C1175.16 693.903 1208.41 710.587 1214.17 713.012C1216.95 702.598 1230.89 671.593 1252.58 679.017Z" fill="#ED86E4"/>
<path d="M1243.34 766.647C1238.07 771.37 1226.75 763.628 1221.95 761.99C1212.44 754.975 1217.51 748.244 1220.69 741.386C1225.02 728.399 1234.49 737.589 1241.03 744.884C1247.57 752.18 1248.6 761.923 1243.34 766.647Z" fill="#F6FAF9"/>
<path d="M1442.84 674.612C1465.72 673.215 1470 705.988 1471.41 715.199C1486.04 713.013 1499.71 706.407 1511.2 707.544C1554.94 711.875 1502.67 752.534 1496.93 751.342C1504.76 757.647 1526.1 776.901 1511.41 789.402C1503.07 796.499 1484.83 794.697 1468.55 791.376C1472.65 802.504 1475.66 817.354 1467.99 820.818C1458.9 824.917 1438.28 811.507 1433.34 800.558C1432.57 798.845 1432 797.101 1431.62 795.362C1423.3 805.24 1410.54 816.381 1396.93 808.71C1373.87 795.716 1407.1 767.886 1407.14 763.451C1383.55 755.381 1365.07 758.741 1371.37 737.051C1376.94 717.876 1414.04 720.631 1420.29 720.68C1418.89 709.991 1419.97 676.011 1442.84 674.612Z" fill="#1869FF"/>
<path d="M1461.65 756.027C1458.58 762.402 1445.16 759.558 1440.1 759.87C1428.63 757.011 1430.75 748.856 1431.08 741.302C1430.14 727.645 1442.4 732.531 1451.23 736.784C1460.05 741.036 1464.72 749.652 1461.65 756.027Z" fill="#F6FAF9"/>
</g>
<g clip-path="url(#clip5_172_3139)">
<path d="M109.254 992.687C113.356 1015.24 81.3255 1023.38 72.346 1025.87C76.2531 1040.14 84.4348 1052.93 84.6694 1064.47C85.5619 1108.41 38.987 1061.34 39.4877 1055.49C34.1584 1064.02 17.5705 1087.49 3.41511 1074.4C-4.62155 1066.96 -4.99611 1048.63 -3.63159 1032.07C-14.1947 1037.46 -28.5851 1042.22 -32.935 1035.01C-38.0832 1026.48 -27.2162 1004.41 -16.9309 998.203C-15.3211 997.231 -13.6564 996.457 -11.9743 995.876C-22.7695 988.789 -35.345 977.44 -29.3448 963.012C-19.1801 938.574 12.3959 968.268 16.8057 967.779C22.018 943.396 16.4886 925.446 38.7729 929.129C58.4736 932.385 60.1438 969.552 60.8362 975.757C71.2846 973.104 105.15 970.138 109.254 992.687Z" fill="#FD1E1F"/>
<path d="M28.2614 1027.39C21.5668 1025.1 22.7986 1011.44 21.8882 1006.46C23.3648 994.728 31.7147 995.868 39.2541 995.298C52.7031 992.74 49.3061 1005.49 46.1314 1014.76C42.9566 1024.03 34.956 1029.69 28.2614 1027.39Z" fill="#97E4EB"/>
<path d="M253.762 931.794C275.445 939.221 266.914 971.15 264.704 980.202C279.069 983.76 294.223 982.861 304.409 988.289C343.201 1008.96 279.38 1026.63 274.523 1023.34C279.366 1032.16 291.753 1058.09 273.413 1064.05C263 1067.44 246.821 1058.82 233.03 1049.54C232.58 1061.39 229.708 1076.27 221.293 1076.55C211.333 1076.88 197.379 1056.62 196.982 1044.62C196.92 1042.74 197.058 1040.91 197.373 1039.15C185.918 1045.12 169.873 1050.56 160.209 1038.28C143.841 1017.47 185.174 1004.41 186.897 1000.32C168.161 983.872 149.796 979.936 163.886 962.285C176.344 946.679 209.599 963.364 215.352 965.788C218.136 955.374 232.079 924.369 253.762 931.794Z" fill="#ED86E4"/>
<path d="M244.519 1019.42C239.25 1024.15 227.93 1016.4 223.136 1014.77C213.619 1007.75 218.69 1001.02 221.873 994.162C226.205 981.176 235.676 990.365 242.217 997.66C248.757 1004.96 249.788 1014.7 244.519 1019.42Z" fill="#F6FAF9"/>
<path d="M471.444 938.403C491.243 949.947 476.602 979.577 472.656 988.018C486.041 994.33 501.076 996.428 509.996 1003.75C543.967 1031.65 477.918 1036.43 473.803 1032.25C476.818 1041.84 483.864 1069.7 464.71 1071.94C453.835 1073.21 439.666 1061.58 427.968 1049.78C425.197 1061.31 419.455 1075.33 411.15 1073.95C401.32 1072.31 391.62 1049.71 393.592 1037.86C393.9 1036.01 394.395 1034.24 395.048 1032.58C382.644 1036.18 365.844 1038.35 358.783 1024.41C346.825 1000.8 389.918 996.117 392.411 992.449C377.275 972.636 360.043 965.166 377.328 950.629C392.611 937.778 421.936 960.674 427.101 964.183C431.878 954.519 451.644 926.86 471.444 938.403Z" fill="#1869FF"/>
<path d="M445.154 1022.5C439.059 1026.1 429.482 1016.28 425.104 1013.73C417.151 1004.98 423.447 999.382 427.916 993.283C434.716 981.402 442.197 992.274 447.175 1000.71C452.154 1009.15 451.249 1018.91 445.154 1022.5Z" fill="#F6FAF9"/>
<path d="M660.974 931.794C682.657 939.22 674.126 971.149 671.916 980.201C686.281 983.759 701.434 982.861 711.621 988.289C750.414 1008.96 686.591 1026.63 681.736 1023.34C686.579 1032.16 698.966 1058.09 680.625 1064.05C670.212 1067.44 654.033 1058.82 640.242 1049.54C639.792 1061.39 636.921 1076.27 628.506 1076.55C618.545 1076.88 604.591 1056.62 604.194 1044.62C604.132 1042.74 604.271 1040.91 604.585 1039.16C593.13 1045.12 577.084 1050.55 567.421 1038.27C551.054 1017.47 592.383 1004.41 594.11 1000.32C575.373 983.871 557.009 979.935 571.1 962.284C583.558 946.679 616.811 963.363 622.565 965.787C625.349 955.373 639.291 924.369 660.974 931.794Z" fill="#FDC51E"/>
<path d="M651.732 1019.42C646.463 1024.15 635.143 1016.4 630.349 1014.77C620.832 1007.75 625.903 1001.02 629.086 994.162C633.418 981.176 642.889 990.365 649.43 997.66C655.97 1004.96 657.001 1014.7 651.732 1019.42Z" fill="#ED86E4"/>
<path d="M873.648 1067.63C855.844 1082.07 833.314 1057.89 826.816 1051.21C816.175 1061.49 808.892 1074.81 798.884 1080.56C760.772 1102.46 779.677 1039 785.043 1036.63C775.002 1036.05 746.45 1032.78 751.133 1014.08C753.793 1003.45 769.687 994.319 784.869 987.557C775.065 980.884 763.979 970.55 768.211 963.272C773.221 954.657 797.794 953.584 808.179 959.622C809.805 960.567 811.283 961.656 812.6 962.852C813.628 949.979 817.538 933.495 833.075 931.824C859.391 928.996 848.521 970.959 851.07 974.589C874.958 967.444 888.043 953.97 895.521 975.282C902.132 994.124 870.339 1013.45 865.23 1017.04C872.577 1024.92 891.451 1053.2 873.648 1067.63Z" fill="#ED86E4"/>
<path d="M804.293 1013.28C803.087 1006.31 815.658 1000.83 819.591 997.633C830.588 993.291 833.6 1001.16 837.723 1007.5C846.429 1018.07 833.613 1021.21 823.958 1022.88C814.303 1024.55 805.499 1020.25 804.293 1013.28Z" fill="#97E4EB"/>
<path d="M1005.96 927.39C1028.84 925.993 1033.12 958.765 1034.52 967.976C1049.16 965.791 1062.83 959.185 1074.31 960.322C1118.06 964.652 1065.79 1005.31 1060.04 1004.12C1067.88 1010.42 1089.21 1029.68 1074.53 1042.18C1066.19 1049.28 1047.95 1047.47 1031.66 1044.15C1035.76 1055.28 1038.78 1070.13 1031.1 1073.6C1022.02 1077.69 1001.4 1064.29 996.457 1053.34C995.684 1051.62 995.114 1049.88 994.737 1048.14C986.419 1058.02 973.657 1069.16 960.043 1061.49C936.985 1048.49 970.218 1020.66 970.254 1016.23C946.663 1008.16 928.184 1011.52 934.485 989.829C940.056 970.655 977.159 973.407 983.403 973.456C982.008 962.767 983.083 928.789 1005.96 927.39Z" fill="#1869FF"/>
<path d="M1030.81 1011.93C1027.74 1018.3 1014.32 1015.46 1009.26 1015.77C997.79 1012.91 999.914 1004.76 1000.24 997.203C999.299 983.546 1011.56 988.433 1020.39 992.685C1029.21 996.938 1033.88 1005.55 1030.81 1011.93Z" fill="#FDC51E"/>
<path d="M1278.66 992.687C1282.77 1015.24 1250.74 1023.38 1241.76 1025.87C1245.66 1040.14 1253.85 1052.93 1254.08 1064.47C1254.97 1108.42 1208.39 1061.34 1208.9 1055.49C1203.57 1064.02 1186.98 1087.49 1172.83 1074.4C1164.79 1066.96 1164.41 1048.63 1165.78 1032.07C1155.21 1037.46 1140.83 1042.22 1136.48 1035.01C1131.33 1026.48 1142.19 1004.41 1152.48 998.203C1154.09 997.231 1155.75 996.458 1157.44 995.878C1146.64 988.791 1134.06 977.441 1140.06 963.012C1150.23 938.573 1181.81 968.27 1186.22 967.779C1191.43 943.396 1185.9 925.447 1208.18 929.13C1227.88 932.386 1229.55 969.553 1230.25 975.757C1240.7 973.104 1274.56 970.138 1278.66 992.687Z" fill="#FD1E1F"/>
<path d="M1197.67 1027.39C1190.98 1025.1 1192.21 1011.44 1191.3 1006.46C1192.77 994.728 1201.12 995.868 1208.66 995.298C1222.11 992.74 1218.72 1005.49 1215.54 1014.76C1212.37 1024.03 1204.37 1029.69 1197.67 1027.39Z" fill="#97E4EB"/>
<path d="M1423.17 931.795C1444.85 939.221 1436.32 971.15 1434.11 980.202C1448.48 983.76 1463.63 982.861 1473.82 988.289C1512.61 1008.96 1448.79 1026.63 1443.93 1023.34C1448.78 1032.16 1461.16 1058.09 1442.82 1064.05C1432.41 1067.44 1416.23 1058.82 1402.44 1049.54C1401.99 1061.39 1399.12 1076.27 1390.7 1076.55C1380.74 1076.88 1366.79 1056.62 1366.39 1044.62C1366.33 1042.74 1366.47 1040.91 1366.78 1039.16C1355.33 1045.12 1339.28 1050.56 1329.62 1038.28C1313.25 1017.48 1354.58 1004.41 1356.31 1000.32C1337.57 983.872 1319.21 979.937 1333.3 962.285C1345.76 946.68 1379.01 963.364 1384.76 965.789C1387.55 955.375 1401.49 924.37 1423.17 931.795Z" fill="#FDC51E"/>
<path d="M1413.93 1019.42C1408.66 1024.15 1397.34 1016.41 1392.55 1014.77C1383.03 1007.75 1388.1 1001.02 1391.28 994.163C1395.62 981.176 1405.09 990.366 1411.63 997.661C1418.17 1004.96 1419.2 1014.7 1413.93 1019.42Z" fill="#ED86E4"/>
</g>
</g>
<defs>
<clipPath id="clip0_172_3139">
<rect width="1440" height="1109.88" fill="white"/>
</clipPath>
<clipPath id="clip1_172_3139">
<rect width="1440" height="207.777" fill="white"/>
</clipPath>
<clipPath id="clip2_172_3139">
<rect width="1610" height="207.777" fill="white" transform="translate(-85 207.777)"/>
</clipPath>
<clipPath id="clip3_172_3139">
<rect width="1440" height="207.776" fill="white" transform="translate(0 441.554)"/>
</clipPath>
<clipPath id="clip4_172_3139">
<rect width="1440" height="207.777" fill="white" transform="translate(0 649.33)"/>
</clipPath>
<clipPath id="clip5_172_3139">
<rect width="1440" height="207.777" fill="white" transform="translate(0 902.107)"/>
</clipPath>
</defs>
</svg>
