<svg width="76" height="59" viewBox="0 0 76 59" fill="none" xmlns="http://www.w3.org/2000/svg">
<path d="M67.098 29.1461C67.1734 27.8309 67.0227 24.8025 68.0465 23.7675C68.9843 22.8191 71.1938 23.5844 72.3471 23.7569C72.7133 23.8105 72.8858 24.1125 72.8858 24.4357C72.8858 24.8561 72.6162 25.287 72.1422 25.2441C71.4523 25.1687 70.7411 25.018 70.0511 25.0068C69.3075 24.9962 69.4046 24.8125 69.0808 25.4054C68.5851 26.3214 68.7253 28.0894 68.6499 29.1456C68.5316 30.6869 68.2837 32.4118 70.2342 32.778C71.1608 32.9611 72.0339 32.6703 72.9829 32.9611C73.1984 33.0259 73.3062 33.209 73.3062 33.3921C73.3062 33.6293 73.1442 33.8554 72.864 33.8448C71.2362 33.78 69.221 34.6643 67.798 33.4462C66.6341 32.4442 67.0115 30.4826 67.098 29.1461Z" fill="#FD1E1F"/>
<path d="M63.174 12.1266C64.3703 12.116 65.5671 12.0618 66.7634 12.0942C67.3239 12.1048 67.3239 12.9455 66.7634 12.9673C65.5671 12.9996 64.3703 12.9455 63.174 12.9243C62.6565 12.9243 62.6677 12.1377 63.174 12.1266Z" fill="#FD1E1F"/>
<path d="M66.7635 13.5172C67.3458 13.5278 67.3458 14.4009 66.7635 14.4121C64.8555 14.4551 62.9368 14.3579 61.0181 14.315C60.576 14.3044 60.576 13.6356 61.0181 13.625C62.9374 13.582 64.8555 13.4849 66.7635 13.5172Z" fill="#FD1E1F"/>
<path d="M73.2422 40.3671C69.9871 40.5931 62.5061 41.3155 59.8333 38.6103C57.4619 36.1959 58.6582 30.4505 58.6582 27.551C58.6476 24.7487 58.0112 21.0945 58.6582 18.3675C58.7983 17.764 58.8307 17.2359 59.3482 16.772C60.3078 15.8771 62.9483 16.0932 64.0156 16.039C66.732 15.8883 69.4372 15.9419 72.1536 16.1362C72.6711 16.1792 72.9296 16.5889 72.9296 16.9987C72.9296 17.3972 72.6711 17.7746 72.1536 17.764C69.1034 17.6457 65.395 17.2253 62.3984 17.9365C60.1565 18.4752 60.4903 19.2841 60.5015 21.3641C60.5015 22.83 60.5121 24.3066 60.5233 25.7837C60.5339 29.276 59.7362 33.5767 61.8921 36.3578C64.3176 39.4622 69.4484 38.9665 73.2422 39.2791C73.264 39.2791 73.2852 39.2897 73.3069 39.3009L73.2963 40.3571C73.2746 40.3565 73.2634 40.3671 73.2422 40.3671Z" fill="#FD1E1F"/>
<path d="M49.0102 39.2032C49.2475 38.6857 50.0128 39.0631 49.8939 39.5806C49.5595 40.9606 48.0724 42.0597 46.6818 42.1027C46.3586 42.1133 46.348 41.6824 46.6064 41.5746C47.1775 41.3698 47.695 41.0789 48.126 40.6474C48.5581 40.227 48.7624 39.7313 49.0102 39.2032Z" fill="#FD1E1F"/>
<path d="M48.7301 38.5564C47.6092 40.13 45.7123 41.165 43.8796 41.6607C43.5563 41.7467 43.4486 41.2727 43.75 41.165C45.5392 40.518 46.7896 39.4082 48.0831 38.0606C48.4069 37.7263 48.9997 38.1678 48.7301 38.5564Z" fill="#FD1E1F"/>
<path d="M32.0018 21.2346C32.2497 20.9868 32.7777 21.2452 32.6376 21.612C32.4327 22.1189 32.0554 22.5392 31.7322 22.9808C31.4195 23.4117 31.1069 23.8539 30.7513 24.2636C30.5682 24.4791 30.288 24.1989 30.3851 23.9834C30.6224 23.4877 30.9026 23.0132 31.1723 22.5392C31.4195 22.0971 31.6462 21.6014 32.0018 21.2346Z" fill="#FD1E1F"/>
<path d="M31.129 20.5339C31.4522 20.3937 31.5711 20.8789 31.3444 21.0514C30.0728 22.0322 29.1237 23.0778 28.9195 24.7486C28.8977 24.964 28.5639 24.9746 28.5745 24.7486C28.6068 23.0778 29.5229 21.2133 31.129 20.5339Z" fill="#FD1E1F"/>
<path d="M35.9361 16.8479H35.9256C29.0486 17.2253 25.8583 22.2265 26.2245 28.7155C26.5265 34.1053 29.3183 38.9988 34.8694 40.0656C34.9983 32.3367 35.3757 24.5543 35.9361 16.8479ZM37.4774 39.8931C49.1831 42.4693 53.6569 18.5399 38.5448 16.9233C38.2963 24.5761 37.9625 32.2508 37.4774 39.8931ZM5.33464 33.5872C5.59309 32.9402 5.32404 31.6144 5.33464 30.9032C5.34524 29.2324 5.37761 27.5616 5.39939 25.8908C4.65583 25.8802 3.91167 25.8584 3.16811 25.783C3.08156 25.7724 3.00622 25.7506 2.93086 25.7183C2.88788 28.51 2.83372 31.3124 2.76896 34.1041C3.73919 34.342 4.92489 34.6328 5.33464 33.5872ZM6.78997 30.5152C6.75759 31.6791 6.94069 33.2422 6.55272 34.3631C6.02463 35.8827 4.12715 35.5165 2.74776 35.1067C2.6936 37.2626 2.64003 39.4186 2.54289 41.5633C5.01143 41.3372 8.65448 42.0808 10.6379 41.1859C13.9254 39.7094 12.8586 33.317 12.9445 30.3533C12.9987 28.2839 14.3887 20.9867 12.8368 19.5313C12.4706 19.1969 8.35303 19.5419 7.82436 19.5313C6.2289 19.5313 4.63404 19.5207 3.03859 19.4883C3.00621 21.1374 2.98442 22.7758 2.95204 24.4248C3.0168 24.403 3.09217 24.3818 3.16753 24.3818C4.17014 24.3171 5.17213 24.3713 6.17474 24.3924C6.57331 24.403 6.94009 24.7268 6.9295 25.1472C6.88711 26.9369 6.84354 28.7261 6.78997 30.5152ZM7.29628 2.22035C6.03523 2.95331 4.76298 3.67568 3.49132 4.39747C3.46954 5.10865 3.44834 5.83102 3.42656 6.5422C3.0168 8.42849 3.27584 11.0695 3.21108 12.9882C3.15692 14.5836 3.11396 16.1897 3.07098 17.7851C6.02463 17.7098 9.05303 17.5697 11.9961 17.731C12.8368 17.774 13.893 17.6015 14.5506 18.302C15.2942 19.0886 15.0033 20.7382 14.9815 21.6649C14.928 24.5644 14.7984 27.4638 14.7013 30.3527C14.6042 33.2416 15.8116 39.8919 13.3001 42.0696C11.1336 43.9453 5.44236 42.9751 2.51049 42.4576C2.31621 46.8772 2.03598 51.275 1.56206 55.6404C12.6967 55.4467 23.8207 55.6622 34.9553 55.8665C34.8046 51.0265 34.7828 46.133 34.8476 41.2071C27.0116 40.8727 23.9072 32.7135 24.5107 25.7606C25.1035 19.0562 29.8681 15.3484 36.0657 15.0894C36.3889 10.7993 36.7662 6.53101 37.1972 2.31631C30.7406 2.26215 24.284 2.21917 17.8274 2.20857C14.7013 2.20975 10.2499 1.33667 7.29628 2.22035ZM71.5065 2.85676C68.5205 1.97308 64.1227 2.69486 60.9753 2.63069C53.9583 2.50117 46.9412 2.40403 39.9242 2.32867C39.5898 2.32867 39.256 2.32867 38.9216 2.32867C38.8356 6.58636 38.7273 10.8764 38.5984 15.1665C45.8745 15.9536 51.1883 22.0216 50.2393 29.5132C49.4634 35.6248 44.0953 42.8573 37.3691 41.6828C37.0565 46.4468 36.6897 51.1896 36.2482 55.8894C48.5579 56.1161 60.867 56.3204 73.1873 55.9436C73.155 55.8464 73.1226 55.7605 73.1332 55.6416C73.1873 50.5538 73.2409 45.4554 73.2951 40.357L73.3057 39.3008C73.3275 37.328 73.3487 35.3663 73.3704 33.3941C73.4028 30.4081 73.4352 27.4332 73.457 24.4478C73.4894 21.9687 73.5106 19.4895 73.5429 17.0104C73.5647 15.2212 73.5753 13.4209 73.5971 11.6318C73.6301 8.47264 74.9235 3.85878 71.5065 2.85676ZM1.09874 19.4454C1.26064 14.3688 0.398142 8.07348 1.69158 3.16938C2.21967 1.18595 3.01741 0.604288 5.06559 0.33465C10.509 -0.387719 16.5346 0.281076 22.0316 0.30227C28.003 0.312867 33.9639 0.345246 39.9248 0.410007C51.5121 0.528341 63.0889 0.722621 74.6651 1.00286C75.1826 1.01345 75.6241 1.43381 75.6241 1.96248C75.441 19.8557 75.2467 37.7595 75.0636 55.6416C75.053 56.1049 74.794 56.3851 74.4708 56.504C74.665 57.0645 74.3848 57.8405 73.5977 57.8622C49.6682 58.6276 24.8663 59.6514 1.04457 56.8273C0.861472 56.8055 0.731961 56.7301 0.634821 56.6224C0.386966 56.5576 0.171489 56.3527 0.149706 55.9866C-0.399578 43.8811 0.710763 31.5502 1.09874 19.4454Z" fill="#FD1E1F"/>
</svg>
