<svg width="76" height="81" viewBox="0 0 76 81" fill="none" xmlns="http://www.w3.org/2000/svg">
<path d="M19.8107 80.0966C20.2485 79.742 23.4569 77.6921 28.4697 75.2054C30.9683 73.966 32.4345 72.1357 33.8339 71.0139C35.229 69.8955 36.9133 68.36 39.6763 65.8918C41.1344 64.5894 42.7185 63.8196 45.3022 61.3535C49.9776 56.8909 53.2049 55.1901 55.3453 54.0083C58.9174 52.036 61.3322 50.3913 62.8536 49.1245C64.893 47.4264 68.2007 43.2363 71.0644 39.5537C72.3308 37.9252 73.2971 36.0852 73.8124 33.8236C74.4656 30.9567 74.576 27.9655 74.4596 24.5541C74.2884 19.5354 72.1447 17.4621 70.032 12.4948C68.6877 9.33418 67.0044 7.54513 65.2634 6.1133C62.1573 3.55875 58.583 2.22705 55.9434 1.15058C53.6905 0.231807 51.3603 0.961367 47.795 2.43101C45.9311 3.19928 44.0003 5.20186 42.1314 7.97235C41.1145 9.4798 40.5384 10.7177 40.5384 10.7177C40.5384 10.7177 39.6763 14.5374 39.6763 18.3571C39.6763 21.1047 40.1952 23.7734 40.1826 25.9965C40.1706 28.0977 40.8527 30.4572 40.5384 32.4516C40.4266 33.1614 40.4622 34.2111 40.1826 34.501C38.5977 36.1441 36.5756 31.2575 34.7108 28.8793C32.6455 26.2452 30.2062 23.6186 28.912 21.916C27.3046 19.8013 22.4835 14.9092 19.941 12.5183C17.7923 10.4976 15.963 9.11867 13.778 8.21769C11.1137 7.11901 8.36895 7.79809 5.42205 9.07917C3.37546 9.96887 1.92244 12.519 0.853566 16.3962C0.501368 17.6737 1.04754 20.4546 1.90709 24.9592C2.78122 29.5401 5.26537 34.047 7.41387 37.7376C8.45896 39.5329 12.8373 43.7556 20.2793 50.6554C23.6352 53.7668 26.5053 55.6776 29.0445 57.2676C33.6774 60.1686 37.3019 61.5328 41.3298 63.0794C48.5514 65.8524 53.3175 68.0429 54.435 68.6347C56.4503 69.6084 58.1615 70.3547 59.1122 70.71C59.6187 70.9173 60.1739 71.1796 61.3776 71.5802" stroke="#F6FAF9" stroke-width="1.49" stroke-linecap="round"/>
</svg>
