<svg width="67" height="72" viewBox="0 0 67 72" fill="none" xmlns="http://www.w3.org/2000/svg">
<path d="M66.203 34.5494C66.176 34.5273 66.1445 34.508 66.1116 34.4899C66.1332 34.3031 66.0666 34.1068 65.8631 33.9781C62.68 31.9583 59.4794 29.9675 56.2648 27.9995C56.4575 25.6498 56.6321 22.9183 56.29 20.5938C56.2585 20.3804 56.0622 20.2854 55.8695 20.2962C55.9041 20.0931 55.8087 19.873 55.5485 19.791C54.7196 19.5304 53.7476 19.4025 52.7625 19.3633C51.1759 18.1279 50.9031 15.9164 51.822 14.1623C52.0133 14.6576 52.2947 15.1321 52.6886 15.5679C53.5274 16.4954 56.2715 17.4013 56.6218 15.9407C56.7506 15.9124 56.8613 15.8237 56.8951 15.653C57.4011 13.085 54.7723 10.9122 52.5603 11.9477C52.6814 10.1671 53.9587 8.54311 55.2396 7.40764C56.1342 6.6148 57.2188 5.94711 58.3862 5.66617C58.3687 5.7364 58.3444 5.8044 58.329 5.87508C57.9229 7.75657 58.384 10.1112 60.2758 11.0283C61.4023 11.5749 62.59 11.3881 63.3427 10.5547C63.4886 10.6141 63.6705 10.584 63.7777 10.4133C65.1625 8.21489 63.5066 5.51129 61.2393 4.78328C60.8035 4.64326 60.3668 4.56807 59.9327 4.53881C59.9908 4.4267 60.0502 4.31641 60.1133 4.2097C61.0241 2.66228 63.824 0.136076 65.8496 1.30261C66.2854 1.55338 66.7667 0.956383 66.393 0.598005C65.1166 -0.625703 63.0195 0.276091 61.7174 1.10585C60.4181 1.93427 59.361 3.16384 58.7505 4.58294C56.5295 4.89225 54.4715 6.41985 53.1141 8.16041C52.1002 9.46066 51.4321 11.1341 51.5203 12.7378C49.8932 14.5176 49.8009 17.7898 51.6072 19.3561C50.9022 19.375 50.2147 19.4304 49.597 19.5146C49.3525 19.5479 49.2737 19.724 49.2994 19.9054C49.1859 19.9887 49.1031 20.1197 49.0927 20.3012C49.0283 21.4591 49.1098 22.7585 49.4776 23.8912C49.1004 23.6661 48.7249 23.4379 48.3471 23.2136C42.74 19.8824 37.0582 15.9912 31.0284 13.4843C30.815 13.3956 30.6668 13.5239 30.6164 13.6959C30.4611 13.6613 30.29 13.6887 30.1378 13.8184C25.2651 17.9794 20.2878 22.017 15.1954 25.9064C10.2672 29.6703 5.11618 33.1357 0.200637 36.9099C0.0471111 37.0279 0.00614094 37.199 0.0376566 37.3493C0.0196477 37.3894 0.00794271 37.434 0.00479114 37.4835C-0.0915568 39.084 1.27892 40.6711 2.88037 40.8638C2.89162 41.0686 3.10188 41.2438 3.3333 41.12C4.25131 40.6283 5.12339 40.0313 5.97026 39.3888C5.69382 41.4094 5.91938 43.5957 5.91038 45.5925C5.89732 48.4311 5.87796 51.2698 5.8514 54.1085C5.79962 59.6507 5.72128 65.1925 5.61908 70.7339C5.60783 71.3579 6.4655 71.4263 6.66675 70.9419C10.8646 71.5011 15.3408 71.1755 19.5603 71.2503C24.2732 71.3336 28.9857 71.4169 33.6987 71.5002C43.1241 71.6667 52.55 71.8333 61.9754 71.9999C62.2672 72.0048 62.4364 71.8207 62.4878 71.6023C62.5675 71.5321 62.6224 71.4259 62.6269 71.2822C62.8092 65.4361 62.4094 59.5404 62.2446 53.6947C62.0817 47.9206 62.2365 42.0254 61.6981 36.2733C62.3086 36.6348 62.92 36.995 63.53 37.3574C63.5962 37.4911 63.7218 37.6006 63.8866 37.6154C64.684 37.6883 65.4079 37.3124 65.8892 36.6866C66.2575 36.2044 66.8027 35.0383 66.203 34.5494ZM53.9277 12.7279C55.4148 12.8301 55.9667 14.1128 56.0626 15.3734C55.0829 16.44 53.5733 15.1375 53.074 14.2907C52.8692 13.9435 52.7301 13.5532 52.6454 13.1507C53.0079 12.8689 53.4405 12.6942 53.9277 12.7279ZM59.5212 5.52526C59.8188 5.52345 60.1191 5.54686 60.4208 5.60629C62.5539 6.0259 63.5255 7.80744 63.1874 9.82399C61.3978 11.0779 59.4343 9.5525 59.2624 7.46481C59.2092 6.81964 59.3164 6.15557 59.5212 5.52526ZM52.572 20.5326C53.5112 20.5861 54.49 20.7707 55.426 20.6964C55.44 20.6955 55.4503 20.6888 55.4634 20.687C55.0649 22.7814 55.1631 25.2896 55.3841 27.4602C53.7061 26.4359 52.025 25.4166 50.3385 24.4063C50.3497 24.3685 50.3574 24.328 50.3551 24.2793C50.3011 22.9764 50.1453 21.6959 50.1381 20.388C50.9472 20.4673 51.7612 20.4862 52.572 20.5326ZM40.4516 56.4919C40.6136 52.0671 42.1656 45.4898 47.7528 45.3246C53.3095 45.1603 53.4639 51.6831 53.6125 55.6649C53.7975 60.6146 53.6116 65.5437 53.1942 70.4768C53.1852 70.5853 53.2073 70.6735 53.2483 70.7442L40.2445 70.5155C40.6389 65.8665 40.2809 61.1536 40.4516 56.4919ZM61.7215 70.8941L54.0708 70.7595C54.1321 70.6861 54.1753 70.5925 54.187 70.4773C54.8056 64.3785 55.064 58.0205 54.395 51.9136C53.979 48.1178 52.1659 44.1846 47.7533 44.3449C43.3843 44.5034 40.7262 48.5342 39.9095 52.4341C39.3503 55.103 39.4336 57.8678 39.4165 60.5791C39.3958 63.8707 39.2261 67.2167 39.4647 70.5025L34.1016 70.4079C29.5233 70.3273 24.9454 70.2472 20.3671 70.1666C15.9144 70.0883 11.1672 69.5574 6.72123 70.0014C6.81758 64.7036 6.89411 59.4058 6.94409 54.1076C6.96975 51.404 6.98911 48.7008 7.00217 45.9972C7.01387 43.652 7.34524 41.0097 6.86845 38.6829C7.89496 37.8558 8.89266 36.9901 9.89621 36.1909C12.3252 34.2572 14.7514 32.3203 17.179 30.3848C21.8533 26.6583 26.532 22.9386 31.1972 19.2013C33.5919 20.9445 36.54 22.13 39.1437 23.5184C41.9085 24.9934 44.6602 26.4931 47.3985 28.0166C51.9264 30.5361 56.4025 33.142 60.8624 35.778C60.7864 35.8541 60.7319 35.9608 60.726 36.1058C60.4924 41.9313 60.9881 47.8647 61.1493 53.6933C61.3077 59.4116 61.2497 65.1898 61.7215 70.8941ZM65.0689 35.9847C64.8731 36.2656 64.6016 36.4768 64.2972 36.6222C64.2675 36.593 64.2342 36.565 64.1941 36.5407C58.7356 33.205 53.183 30.0183 47.5899 26.914C44.8498 25.3932 42.0962 23.8966 39.3301 22.4249C36.8385 21.099 34.2808 19.4439 31.5853 18.5421C31.4818 18.2225 31.0248 17.9807 30.6682 18.2634C26.0133 21.9535 21.3729 25.6611 16.727 29.3624C14.4043 31.2128 12.0811 33.0632 9.75844 34.9141C7.72298 36.5358 5.42143 38.0805 3.58677 39.9615C3.52914 39.9093 3.46026 39.8656 3.36662 39.8454C2.71334 39.7027 2.15642 39.5338 1.66657 39.0476C1.23661 38.6208 0.935859 38.0854 0.764324 37.5074C6.20528 34.196 11.3108 30.2502 16.3596 26.3756C21.3121 22.5748 26.1592 18.6407 30.9059 14.586C30.9874 14.5162 31.0356 14.4392 31.0612 14.3604C33.7554 16.2437 36.7579 17.7295 39.6033 19.3674C42.4591 21.0112 45.3032 22.6752 48.1351 24.3595C53.9124 27.7956 59.6369 31.3195 65.3129 34.9204C65.3332 34.9334 65.3534 34.9411 65.3732 34.951C65.2845 35.2887 65.2949 35.6605 65.0689 35.9847Z" fill="#FD1E1F"/>
<path d="M52.4575 59.44C52.3274 58.7484 51.6868 58.1699 50.9988 58.255C50.9511 58.2127 50.8858 58.1866 50.7998 58.1897C50.0407 58.2185 49.527 58.9776 49.5743 59.7011C49.6274 60.5192 50.3464 61.0703 51.1469 61.0068C51.9488 60.9437 52.6142 60.2742 52.4575 59.44ZM50.9912 60.0221C50.4126 59.992 50.4657 59.4454 50.6976 59.0559C50.762 59.1028 50.8345 59.1379 50.9128 59.1446C51.1847 59.1681 51.4531 59.3054 51.49 59.6129C51.5247 59.9006 51.2401 60.0352 50.9912 60.0221Z" fill="#FD1E1F"/>
<path d="M32.124 51.7604C32.0862 49.5934 32.1726 47.4036 32.0159 45.2425C31.9961 44.9661 31.7868 44.8377 31.5837 44.849C31.5864 44.6333 31.4441 44.406 31.1645 44.3749C28.379 44.0683 25.5336 44.0638 22.7337 44.0237C20.6379 43.9936 17.8172 43.4798 15.8938 44.4249C15.6777 44.1678 15.1807 44.2659 15.1339 44.6955C14.6873 48.788 14.4599 53.2686 14.7548 57.3751C14.7566 57.3999 14.7665 57.4206 14.7732 57.4431C14.671 57.5638 14.7107 57.7772 14.8872 57.8303C17.2886 58.5538 20.243 58.1446 22.74 58.1666C25.5741 58.1914 28.4839 58.4021 31.3082 58.1653C31.5805 58.1428 31.7053 57.9388 31.6927 57.7411C31.8178 57.7835 31.9682 57.7348 32.0119 57.5764C32.5094 55.761 32.1568 53.6306 32.124 51.7604ZM22.7395 57.1874C20.4398 57.1617 17.7497 56.7655 15.454 57.2346C16.0249 53.1979 16.1379 48.8123 15.9974 44.7454C17.9559 45.5401 20.6581 45.0025 22.7337 45.0223C25.544 45.0489 28.356 45.2515 31.1645 45.2506C31.1749 45.2506 31.1821 45.2461 31.192 45.2452C31.0083 47.4 31.1042 49.5989 31.1299 51.7599C31.1515 53.5725 30.93 55.6598 31.4766 57.4066C31.4279 57.3819 31.3717 57.3652 31.3073 57.3585C28.4871 57.0663 25.575 57.2189 22.7395 57.1874Z" fill="#FD1E1F"/>
<path d="M23.4075 51.4318C23.4241 51.2787 23.3156 51.1036 23.1288 51.0878C21.151 50.9235 19.1664 51.0676 17.1773 50.8501C16.9868 50.8294 16.8293 51.0275 16.8266 51.2009C16.804 52.8005 16.6474 54.4136 16.8045 56.0092C16.8094 56.0601 16.8383 56.1006 16.8752 56.1294C16.8365 56.2821 16.9382 56.4869 17.1278 56.495C19.0331 56.5734 21.0375 56.5076 22.9266 56.2425C23.0558 56.26 23.2175 56.1655 23.2296 56.0128C23.3476 54.5649 23.4372 53.1044 23.4921 51.6529C23.4957 51.561 23.4611 51.4876 23.4075 51.4318ZM17.1462 55.9579C17.4024 54.5239 17.415 53.0553 17.5023 51.6024C19.2015 51.8604 21.1019 52.0423 22.7943 51.7308C22.6061 53.0175 22.5863 54.3281 22.7236 55.6211C20.8862 55.5586 18.9656 55.7026 17.1462 55.9579Z" fill="#FD1E1F"/>
<path d="M30.1424 51.2419C30.1212 50.839 29.5522 50.8088 29.4761 51.1564C29.4198 51.1163 29.3532 51.0866 29.2645 51.087C27.6369 51.0933 25.9868 50.9362 24.3638 51.0456C24.2098 51.056 24.1805 51.2613 24.3278 51.3126C24.3498 51.3203 24.3728 51.3257 24.3948 51.3329C24.3737 51.3617 24.3575 51.3959 24.3512 51.4405C24.1382 52.8681 24.185 54.3061 24.3467 55.736C24.3611 55.8621 24.4345 55.9458 24.5245 55.9949C24.5335 56.107 24.6114 56.2124 24.7658 56.2232C26.4717 56.3421 28.2362 56.3159 29.943 56.2061C30.0951 56.1962 30.1879 56.1039 30.2234 55.9936C30.2392 55.9598 30.2496 55.9207 30.2514 55.8747C30.3166 54.3327 30.2239 52.7817 30.1424 51.2419ZM24.9869 55.6973C24.909 54.303 24.9288 52.9082 24.8883 51.5134C24.8878 51.5017 24.8824 51.4922 24.8806 51.481C26.2921 51.8601 27.822 51.888 29.264 51.8421C29.3518 51.8394 29.418 51.8074 29.4738 51.7655C29.5058 53.0388 29.5463 54.3169 29.6827 55.583C28.1286 55.5344 26.5357 55.5587 24.9869 55.6973Z" fill="#FD1E1F"/>
<path d="M29.8531 46.1981C29.8513 46.194 29.8459 46.1927 29.8436 46.1886C29.8148 46.0572 29.7153 45.9428 29.5361 45.937C27.8613 45.8825 26.177 45.7713 24.5013 45.787C24.4887 45.787 24.4788 45.7916 24.4675 45.7938C24.3212 45.7528 24.147 45.8109 24.1118 45.9865C23.88 47.1418 24.0857 48.5757 24.2163 49.74C24.2379 49.9336 24.3928 50.0286 24.5391 50.0219C24.5432 50.0444 24.554 50.0651 24.581 50.0768C25.3063 50.396 26.1086 50.3892 26.892 50.4266C27.7677 50.4685 28.7532 50.6292 29.6005 50.3775C29.6879 50.3514 29.7405 50.2938 29.7653 50.2267C29.8477 50.2154 29.9211 50.1673 29.9346 50.0741C30.0314 49.3956 30.0521 48.7162 30.0498 48.0314C30.048 47.4195 30.1327 46.7541 29.8531 46.1981ZM27.0802 49.6914C26.3184 49.6828 25.517 49.6234 24.7827 49.8467C24.7948 49.8147 24.8052 49.781 24.807 49.74C24.857 48.6559 24.9556 47.3273 24.7237 46.2359C26.2045 46.583 27.7609 46.6681 29.2786 46.6101C29.198 47.0706 29.2678 47.5591 29.2912 48.031C29.3214 48.6388 29.3691 49.2447 29.4718 49.8444C28.7185 49.6175 27.8595 49.7004 27.0802 49.6914Z" fill="#FD1E1F"/>
<path d="M23.0109 45.9374C22.9222 45.7906 22.6818 45.773 22.5976 45.9374C22.5945 45.9441 22.5927 45.9509 22.5891 45.9576C22.5274 45.8896 22.4356 45.8473 22.3131 45.855C20.7418 45.95 19.1894 45.864 17.642 45.5682C17.4165 45.525 17.1643 45.6681 17.1738 45.9248C17.2125 46.9805 17.1765 48.0156 17.0725 49.0664C17.063 49.1628 17.1108 49.2271 17.1783 49.2596C17.0986 49.4072 17.1765 49.6346 17.3998 49.6639C19.1692 49.8948 20.939 49.9025 22.7192 49.8323C22.8511 49.8269 22.9438 49.7656 23.0042 49.6819C23.0825 49.6566 23.1465 49.5878 23.1528 49.4716C23.1865 48.8147 23.2293 48.1606 23.2212 47.5023C23.214 46.9747 23.2905 46.3988 23.0109 45.9374ZM17.5146 49.1313C17.5155 49.129 17.5169 49.1281 17.5178 49.1258C17.8032 48.2236 17.9293 47.297 17.9194 46.357C19.3749 46.6015 20.8323 46.7018 22.3131 46.6222C22.3622 46.6195 22.4031 46.6046 22.4423 46.5888C22.4292 46.8891 22.4698 47.1984 22.4873 47.5023C22.517 48.0309 22.5801 48.5545 22.6445 49.0786C20.9345 49.1209 19.2241 49.0952 17.5146 49.1313Z" fill="#FD1E1F"/>
</svg>
