<svg width="48" height="53" viewBox="0 0 48 53" fill="none" xmlns="http://www.w3.org/2000/svg">
<path d="M47.6086 46.5353C47.6155 45.2876 47.6179 44.0397 47.6149 42.7921C47.6095 40.3658 47.5855 37.9399 47.5432 35.5143C47.3556 24.7711 46.8017 14.0364 45.8959 3.32987C45.8824 3.16934 45.8038 3.05291 45.6984 2.9779C45.7951 2.16565 45.796 1.02486 44.9714 0.777911C44.3713 0.598178 43.5822 0.758397 42.9599 0.763498L40.0406 0.7878C39.7559 0.790201 39.5521 1.06265 39.6227 1.3363C39.8165 2.08884 39.9626 2.83688 40.07 3.60652C40.0817 3.69024 40.1195 3.74994 40.1706 3.79105C40.2147 3.96058 40.3497 4.10791 40.5762 4.12292C41.7215 4.19793 41.5016 5.53917 40.8892 6.09277C40.3638 6.56776 39.5797 6.73487 38.8992 6.56144C37.4875 6.20198 37.2945 4.27894 38.7837 3.87236C38.8488 3.85466 38.8998 3.82345 38.9397 3.78504C38.9721 3.76974 39.0018 3.75054 39.0261 3.72774C39.3484 3.42559 39.2113 2.959 39.1471 2.56443C39.0775 2.13685 38.9598 1.71618 38.8134 1.30841C38.8218 1.19739 38.7744 1.08186 38.6853 1.01645C38.5848 0.891626 38.4284 0.873617 38.3072 0.935428C37.7257 0.905423 37.1346 1.11817 36.5522 1.17878C35.794 1.2577 35.0291 1.26129 34.2685 1.21719C34.0822 1.20638 33.9588 1.34021 33.9162 1.49684C33.8433 1.52474 33.7788 1.57274 33.741 1.64655C33.5646 1.99282 33.6342 2.34239 33.6504 2.72136C33.6678 3.12643 33.6861 3.5318 33.7044 3.93718C33.7119 4.10131 33.8046 4.20513 33.9201 4.24954C33.8442 4.44637 33.9393 4.70651 34.1665 4.76412C36.0409 5.24091 34.3441 7.03013 33.0896 6.94252C32.5639 6.90591 32.0577 6.62747 31.9431 6.08497C31.8441 5.61599 32.0241 5.05759 32.5048 4.89016C32.5717 4.86675 32.6242 4.83223 32.6665 4.79143C32.905 4.74822 33.1256 4.53549 33.0641 4.22703C32.9254 3.53181 32.8015 2.84408 32.7526 2.13685C32.8843 1.89231 32.8261 1.53194 32.4991 1.48754C30.9307 1.2733 29.3281 1.22409 27.748 1.15208C27.5056 1.14098 27.2742 1.37321 27.285 1.61505C27.315 2.30338 27.2973 2.947 27.1611 3.62542C27.0855 4.00169 27.5002 4.20812 27.7486 4.05089C27.7447 4.24862 27.8923 4.45447 28.1399 4.48478C29.3203 4.62851 29.5814 5.778 28.8495 6.58395C28.3751 7.10634 27.6388 7.36769 26.9403 7.29658C26.2144 7.22247 25.5048 6.76878 25.4631 5.97844C25.4313 5.37833 25.7643 4.78333 26.3348 4.57959C26.3888 4.56039 26.4323 4.52798 26.468 4.48897C26.5427 4.44637 26.6024 4.36956 26.63 4.25104C26.8001 3.51561 26.5664 2.66464 26.2027 1.99882C26.3561 1.72427 26.2345 1.3015 25.834 1.3252C24.2869 1.41702 22.7419 1.51424 21.202 1.69457C20.8366 1.73748 20.7553 2.19477 21.0031 2.3523C20.941 2.79608 20.9437 3.24526 20.9851 3.69234C21.0205 4.07371 21.0118 4.57989 21.3869 4.77822C21.4067 4.78872 21.4277 4.79533 21.4487 4.80013C21.4688 4.97686 21.5909 5.13859 21.7976 5.11549C22.1385 5.07708 22.4503 4.97807 22.7731 5.1608C23.2208 5.41404 23.3297 5.94184 23.2148 6.41262C23.0029 7.27978 22.1763 7.90299 21.3064 7.99181C20.5656 8.06712 19.8155 7.73196 19.5781 6.99262C19.3681 6.33821 19.5448 5.55808 20.1524 5.19021C20.3238 5.08639 20.3595 4.92315 20.3133 4.78302C20.3166 4.74551 20.3169 4.70652 20.3106 4.66541C20.253 4.29184 20.1713 3.92458 20.0999 3.55402C20.0714 3.40609 19.9682 3.08711 19.9328 2.83117C20.0645 2.81316 20.1816 2.73306 20.2074 2.57824C20.2578 2.27788 20.0822 2.05524 19.8596 1.97752C19.8413 1.96612 19.8233 1.95441 19.8026 1.94661C19.2436 1.73477 18.5622 1.86531 17.9666 1.8515C17.3388 1.8371 16.7126 1.79449 16.0858 1.76898C15.9949 1.72578 15.8842 1.72698 15.7954 1.77829C15.793 1.77979 15.7915 1.78158 15.7891 1.78308C15.7095 1.81309 15.6498 1.87281 15.6117 1.94513C15.4077 2.21457 15.4467 2.61904 15.4626 2.9635C15.4848 3.44959 15.5733 3.92337 15.7197 4.38605C15.7101 4.58619 15.8062 4.78483 16.0351 4.81633C17.6938 5.04467 17.6977 7.25397 16.0489 7.52882C15.3828 7.63984 14.7755 7.26958 14.4448 6.69918C14.1493 6.18999 14.0145 4.88565 14.9468 4.90545C15.1775 4.91025 15.2285 4.62341 15.0704 4.49798C15.0998 4.42237 15.1118 4.33625 15.0947 4.24024C14.9978 3.68904 14.8784 3.12763 14.729 2.58243C14.8538 2.4114 14.7584 2.16296 14.5651 2.07025C14.4304 1.85931 14.0982 1.85149 13.9605 2.03243C13.502 2.06153 13.0403 2.16115 12.5818 2.17855C11.8974 2.20436 11.2198 2.15935 10.5432 2.05283C10.221 2.00212 9.9065 2.24307 10.001 2.59503C10.1961 3.32266 10.2813 4.02839 10.2975 4.78033C10.3011 4.94596 10.3809 5.05007 10.4859 5.09928C10.5237 5.216 10.6158 5.31412 10.7776 5.34923C12.4657 5.7174 12.4456 8.19224 10.6878 8.44909C8.76329 8.73054 8.31771 6.59806 9.19777 5.31083C9.30219 5.30632 9.4042 5.25231 9.46841 5.15479C9.70425 4.79833 9.54704 4.38965 9.48132 3.99388C9.43271 3.70252 9.3856 3.41088 9.33849 3.11923C9.45461 2.92449 9.41681 2.63915 9.22418 2.50773C9.13266 2.32469 8.86472 2.31508 8.71229 2.4378C7.61529 2.44141 6.51859 2.45372 5.42189 2.46632C5.17495 2.46902 5.00271 2.66404 4.98681 2.90138C4.9424 3.5639 4.86109 4.41246 5.26557 4.97566C5.30127 5.02577 5.36217 5.06147 5.42548 5.07527C5.42518 5.15959 5.45549 5.24871 5.5293 5.33123C6.16392 6.04146 6.95126 6.8492 6.23173 7.83817C5.5146 8.82415 3.91561 8.64262 3.51264 7.47721C3.11027 6.313 4.08035 5.85362 4.45932 4.91265C4.62675 4.49647 4.66995 4.0509 4.47972 3.68454C4.66155 3.39379 4.54212 2.9296 4.12384 2.98301C3.12046 3.11113 2.11979 3.23985 1.12211 3.40217C0.920777 3.25935 0.596424 3.31037 0.490505 3.55881C0.364782 3.67703 0.358177 3.89307 0.448493 4.044C0.229153 13.5386 0.522001 23.0692 0.582312 32.5659C0.612918 37.3728 0.643228 42.1797 0.673534 46.9865C0.682535 48.4025 0.503407 50.3627 1.94937 51.1825C2.6605 51.5858 3.57266 51.5672 4.3648 51.6293C5.60972 51.7271 6.85585 51.8084 8.10288 51.8756C17.6023 52.3893 27.1233 52.0644 36.6152 51.5504C39.0429 51.4189 41.4701 51.2749 43.8969 51.1291C45.3549 51.0415 47.241 51.154 47.5438 49.3363C47.6956 48.4304 47.6035 47.4489 47.6086 46.5353ZM45.6847 50.0456C44.7539 50.3018 43.6119 50.2031 42.6505 50.2604C41.4719 50.3309 40.293 50.4002 39.1141 50.4678C30.2439 50.9748 21.3554 51.3643 12.4696 51.1102C10.2513 51.0469 8.03385 50.943 5.81945 50.7912C4.85058 50.7249 3.66326 50.8059 2.7376 50.4954C1.46507 50.0684 1.62769 48.4808 1.62109 47.4033C1.59289 42.9448 1.565 38.4863 1.53679 34.0278C1.47408 24.0858 1.6562 14.1045 1.30514 4.16791C2.15039 4.1067 2.99264 4.0218 3.83549 3.93388C3.75358 4.26694 3.67287 4.5838 3.42713 4.90036C3.21769 5.17011 2.95214 5.38044 2.78201 5.68349C2.51136 6.16598 2.43064 6.74118 2.50626 7.28398C2.67819 8.5175 3.68577 9.43898 4.94119 9.42307C6.1135 9.40837 7.18981 8.60482 7.39895 7.43311C7.57928 6.42313 7.02837 4.88715 5.88727 4.71762C5.83266 4.70952 5.78076 4.71251 5.73215 4.72271C5.85247 4.28733 5.83746 3.80095 5.84256 3.33467C6.77573 3.33257 7.7089 3.32927 8.64207 3.31967C8.65707 3.58012 8.67267 3.84057 8.68678 4.10101C8.69938 4.33566 8.68677 4.57058 8.73148 4.78542C7.89193 5.49775 7.63388 6.76699 8.03206 7.78838C8.47794 8.93248 9.67966 9.51278 10.8676 9.32194C12.0165 9.13741 12.9418 8.23334 12.9541 7.03733C12.9661 5.88872 12.1875 4.78424 11.0587 4.52139C11.1031 4.0092 11.0773 3.50299 10.9918 3.0007C11.9502 3.12582 13.0481 3.19365 13.9653 2.9383C14.0208 3.41749 14.0989 3.89697 14.1883 4.36536C13.6359 4.6132 13.2842 5.46084 13.3343 6.06845C13.4339 7.27227 14.4511 8.39207 15.6849 8.46019C16.8494 8.5247 18.0305 7.68186 18.2078 6.50295C18.3878 5.30633 17.5504 4.23813 16.4237 3.98728C16.3601 3.62092 16.3252 3.25275 16.3291 2.87858C16.33 2.77836 16.34 2.67935 16.3484 2.58214C16.8831 2.66975 17.4253 2.71266 17.9666 2.72106C18.3509 2.72677 18.7638 2.75377 19.1551 2.70396C19.1689 2.9407 19.234 3.18734 19.264 3.39348C19.3306 3.84836 19.3783 4.30534 19.45 4.75932C18.6429 5.36723 18.4319 6.52124 18.8283 7.46131C19.339 8.67203 20.7282 9.10141 21.9363 8.76205C23.2124 8.40319 24.3289 7.15286 24.1267 5.76301C23.9919 4.83765 22.7686 3.75085 21.8513 4.24324C21.8582 4.06291 21.8303 3.87206 21.8267 3.69142C21.8186 3.25995 21.8381 2.82728 21.8255 2.3961C23.0735 2.3769 24.319 2.31269 25.5651 2.23978C25.6605 2.52093 25.7475 2.80358 25.7995 3.09703C25.8517 3.39198 25.8361 3.68933 25.8568 3.98789C24.9665 4.28434 24.4696 5.2055 24.5776 6.17467C24.7214 7.4628 25.9591 8.22285 27.1827 8.22135C28.4765 8.21985 29.8373 7.3665 30.1403 6.05766C30.4179 4.85865 29.3809 3.27645 28.0337 3.69833C27.9922 3.71123 27.9571 3.72894 27.925 3.74875C28.0691 3.20565 28.1672 2.66044 28.1993 2.10414C29.4535 2.17526 30.7078 2.28837 31.962 2.34418C31.9596 2.95539 32.0055 3.56751 32.1192 4.16791C31.3214 4.46167 30.928 5.33333 31.0525 6.16958C31.2196 7.29388 32.31 7.9144 33.3869 7.83938C34.4992 7.76197 35.6694 7.01182 35.905 5.86442C36.0859 4.98286 35.3379 3.77635 34.4023 3.95608C34.4029 3.94948 34.4047 3.94347 34.405 3.93657C34.4233 3.5312 34.4416 3.12613 34.459 2.72075C34.4698 2.46991 34.5025 2.23197 34.4731 1.99913C35.2155 2.09815 35.953 2.13265 36.7046 2.06424C37.1967 2.01953 37.7377 1.98472 38.2031 1.80259C38.2427 2.12155 38.2793 2.4408 38.3105 2.76156C38.3252 2.91158 38.3276 3.05231 38.3423 3.18404C37.4065 3.34847 36.797 4.33234 36.7967 5.26671C36.7964 6.55124 37.91 7.42561 39.1171 7.54413C40.3695 7.66715 41.7969 6.99264 42.2277 5.74501C42.6127 4.62971 41.9304 3.36828 40.7482 3.25576C40.738 2.71206 40.6837 2.17976 40.5798 1.64987C41.5817 1.64147 42.5836 1.63306 43.5858 1.62496C44.1277 1.62046 44.5918 1.45272 44.7989 1.95501C44.9519 2.32618 44.8634 2.88069 44.9555 3.30887C44.9558 3.31607 44.9546 3.32206 44.9552 3.32956C45.7029 12.171 46.2121 21.0315 46.4708 29.9008C46.6022 34.4047 46.6697 38.9103 46.6739 43.4159C46.6748 44.4556 46.6724 45.4953 46.6664 46.5353C46.6604 47.6584 47.0733 49.6633 45.6847 50.0456Z" fill="#FD1E1F"/>
<path d="M46.833 22.0793C46.7106 19.809 46.4799 15.4313 46.3248 13.0247C46.3221 12.9806 46.3193 12.9365 46.3165 12.8923C46.2807 12.3211 46.2451 11.7809 46.2021 11.1481C46.0973 9.63977 45.9635 7.6015 45.6221 3.35303C45.6221 3.35212 45.622 3.35136 45.6219 3.35059C45.6142 3.28024 45.5904 3.23998 45.539 3.2018L45.4065 3.10786L45.4255 2.94543C45.5204 2.18332 45.4903 1.19841 44.8924 1.04184C44.6824 0.979032 44.4376 0.964496 44.1866 0.969269C43.7989 0.975843 43.3977 1.03285 42.9621 1.03899C41.9891 1.04701 41.016 1.05493 40.0429 1.06275C39.9452 1.05817 39.8592 1.17087 39.8887 1.26775C40.0838 2.02535 40.2338 2.79478 40.3412 3.56868C40.3453 3.58802 40.3422 3.57601 40.3423 3.57797L40.4123 3.63418L40.4354 3.72215C40.4616 3.80563 40.4997 3.84074 40.5943 3.85014C40.8472 3.86633 41.1365 3.94373 41.356 4.15884C41.5767 4.37227 41.6623 4.67537 41.6647 4.93609C41.6608 5.46435 41.4522 5.93349 41.0715 6.29441C40.4623 6.83807 39.607 7.017 38.8325 6.82331C38.1265 6.66145 37.53 6.01046 37.4862 5.2616C37.4002 4.50478 38.0135 3.76418 38.7134 3.61489C38.734 3.60907 38.7437 3.60309 38.7548 3.59286L38.8258 3.54386C38.8369 3.53878 38.844 3.53313 38.8437 3.53331C39.0257 3.39066 38.9644 3.02717 38.8852 2.60705C38.819 2.19828 38.7068 1.7939 38.565 1.39761L38.5502 1.28849C38.5539 1.26472 38.5353 1.23037 38.5293 1.22893L38.48 1.18176C38.4597 1.15973 38.4531 1.1604 38.4267 1.16981L38.3645 1.20168L38.2937 1.19817C37.7716 1.169 37.2102 1.36968 36.5792 1.43837C35.8036 1.51813 35.025 1.52056 34.2536 1.47484C34.2151 1.47397 34.192 1.48519 34.1646 1.56442L34.1307 1.69011L34.0082 1.73728C33.9785 1.7492 33.9735 1.75771 33.9698 1.76377C33.8397 2.00027 33.8851 2.32095 33.9058 2.71044C33.9226 3.11534 33.9404 3.52044 33.9581 3.92572C33.9642 3.9871 33.9743 3.99456 34.011 4.01304L34.2475 4.10337L34.1565 4.34071C34.1261 4.40924 34.1769 4.51648 34.2285 4.51942C34.5595 4.61255 34.9461 4.7355 35.1684 5.15419C35.3755 5.59627 35.1543 6.02708 34.9394 6.29726C34.4765 6.84372 33.8339 7.21391 33.0724 7.18863C32.5067 7.1626 31.8289 6.79789 31.7041 6.13547C31.5854 5.59127 31.7973 4.88087 32.4252 4.66166C32.4557 4.65092 32.4776 4.63751 32.4987 4.6175L32.5509 4.56694L32.6234 4.55365C32.7699 4.52333 32.8588 4.41409 32.8283 4.27404C32.6911 3.58007 32.5648 2.87391 32.5163 2.15319L32.5115 2.08535L32.5441 2.02454C32.6197 1.87155 32.5773 1.72305 32.4674 1.72083C32.0229 1.65933 31.5759 1.61125 31.1274 1.57216C30.9597 1.55795 30.7891 1.54478 30.6164 1.53257C29.7051 1.46768 28.7289 1.43151 27.7373 1.38716C27.651 1.3709 27.5042 1.51772 27.5204 1.60454C27.5523 2.29119 27.5304 2.9976 27.3925 3.67188C27.3444 3.81127 27.5462 3.91008 27.6225 3.85167L27.9922 3.61683L27.9843 4.05554C27.9817 4.1459 28.0609 4.24136 28.1685 4.25112C28.744 4.29848 29.3499 4.72128 29.459 5.30814C29.5825 5.88243 29.3289 6.4042 29.0204 6.73909C28.9864 6.77628 28.9516 6.8119 28.9161 6.84599C28.3442 7.38888 27.5884 7.58844 26.9176 7.51905C26.0709 7.45132 25.2556 6.80256 25.248 5.98979C25.2093 5.26388 25.6501 4.59171 26.2648 4.38374C26.2816 4.37786 26.2966 4.36871 26.3151 4.34904L26.3653 4.30894C26.3904 4.29539 26.4147 4.26511 26.4294 4.20433C26.5078 3.87101 26.4929 3.52787 26.4334 3.20688C26.3598 2.82118 26.2177 2.44334 26.0283 2.0941L25.9757 1.99823L26.0292 1.9019C26.1247 1.72298 26.0397 1.49505 25.8456 1.52199C24.2997 1.61104 22.7565 1.70567 21.2241 1.88262C21.0544 1.88099 21.0014 2.14759 21.1039 2.19373L21.2057 2.25817L21.1892 2.37834C21.1288 2.80391 21.1304 3.24016 21.17 3.67521C21.1995 4.08145 21.2213 4.49553 21.4728 4.61571C21.4733 4.61604 21.4781 4.61837 21.4896 4.62101L21.6162 4.64966L21.6312 4.77936C21.6491 4.89368 21.698 4.94272 21.7773 4.9337C22.071 4.90278 22.4918 4.78295 22.8625 5.00293C23.3875 5.28732 23.5229 5.95697 23.389 6.45514C23.1525 7.40684 22.2634 8.07036 21.3243 8.16643C20.5609 8.26193 19.6515 7.85485 19.4138 7.04539C19.1836 6.3479 19.3795 5.45189 20.0644 5.04474C20.1543 4.98851 20.1781 4.92368 20.1523 4.8361L20.1444 4.76816C20.1471 4.73869 20.1467 4.71415 20.1432 4.69107C20.0874 4.32565 20.0065 3.95924 19.935 3.58581C19.8871 3.36777 19.8044 3.11799 19.7672 2.85407L19.744 2.68861L19.9102 2.66555C19.9939 2.65122 20.0297 2.61941 20.0429 2.55083C20.0786 2.36525 19.9763 2.1934 19.8049 2.13415L19.7719 2.11833C19.7516 2.10538 19.7431 2.10116 19.7441 2.10178C19.2209 1.90611 18.5998 2.02754 17.9628 2.0154C17.3305 2.00025 16.7033 1.95696 16.0792 1.93103L16.0162 1.91547C15.9723 1.89384 15.9141 1.89583 15.8763 1.91849C15.9032 1.90004 15.9014 1.90205 15.8749 1.92039L15.8462 1.93457C15.81 1.94806 15.7779 1.97682 15.7548 2.02051L15.7406 2.04274C15.5799 2.25279 15.6057 2.60813 15.6233 2.95609C15.644 3.42442 15.7302 3.88935 15.872 4.33786L15.8793 4.3937C15.874 4.54281 15.9372 4.64447 16.0568 4.65851C16.3217 4.69488 16.5846 4.7847 16.8111 4.94278C17.9504 5.66425 17.362 7.60814 16.0747 7.6837C15.3576 7.81521 14.6435 7.37689 14.3096 6.77756C14.1097 6.40274 14.0423 6.00781 14.0794 5.59526C14.1032 5.39132 14.1637 5.17142 14.3241 4.99445C14.4837 4.81406 14.7363 4.74136 14.9501 4.74977C15.0098 4.7635 15.0279 4.66303 14.9737 4.61991L14.8839 4.54896L14.9254 4.44158C14.9471 4.38578 14.9524 4.32842 14.9416 4.26752C14.8441 3.71346 14.7269 3.1637 14.579 2.62353L14.5591 2.55163L14.6034 2.49077C14.6071 2.48564 14.6104 2.48047 14.6132 2.47519C14.66 2.40406 14.6026 2.25598 14.4979 2.21044L14.4582 2.1915L14.4341 2.15395C14.3766 2.04172 14.1437 2.03185 14.0843 2.12663L14.0416 2.18298L13.9704 2.18765C13.5244 2.21562 13.0688 2.31496 12.5877 2.33411C11.8955 2.36054 11.2015 2.3145 10.5189 2.20698C10.2925 2.16801 10.0824 2.34653 10.152 2.55449C10.3482 3.27953 10.4395 4.03107 10.4545 4.77695C10.4572 4.87112 10.4908 4.92752 10.5526 4.95695L10.6142 4.98564L10.6354 5.05085C10.6609 5.12758 10.7164 5.17448 10.8109 5.19546C11.021 5.24101 11.2262 5.32197 11.4093 5.44083C12.7551 6.26684 12.1739 8.53888 10.7124 8.61712C10.2634 8.68682 9.76962 8.63508 9.3768 8.3745C8.27168 7.56258 8.46373 6.06529 9.04493 5.20633L9.09685 5.13005L9.1898 5.12585C9.23819 5.12351 9.28449 5.09671 9.31297 5.05244C9.49334 4.79562 9.36553 4.42192 9.29461 4.02488C9.24363 3.72347 9.19591 3.43145 9.14994 3.14968L9.13878 3.0815L9.17445 3.0214C9.19213 2.99163 9.2044 2.95583 9.20967 2.91836C9.22522 2.81593 9.18352 2.70917 9.11603 2.66624L9.07512 2.63845L9.05255 2.59354C9.04979 2.55098 8.9001 2.52579 8.83296 2.58769L8.7808 2.62987L8.71292 2.63023C7.63344 2.63455 6.52628 2.64676 5.42411 2.65876C5.29244 2.65727 5.18811 2.76621 5.17834 2.91422C5.12872 3.62172 5.06697 4.36333 5.41953 4.8651C5.42011 4.86844 5.44393 4.88649 5.4658 4.89034L5.61499 4.92254L5.61476 5.07595C5.61458 5.11865 5.63094 5.16112 5.67007 5.20531C5.99968 5.57867 6.36138 5.95045 6.57488 6.4414C6.81106 6.93029 6.68861 7.56442 6.38046 7.94638C6.12004 8.30756 5.72329 8.54409 5.3195 8.62283C4.72787 8.74277 4.12602 8.55114 3.7475 8.17628C3.56401 7.99849 3.42554 7.77573 3.34285 7.53592C3.14827 7.05347 3.24531 6.42913 3.5375 6.01764C3.81052 5.59444 4.12965 5.25304 4.28937 4.8442C4.43476 4.48518 4.47987 4.07945 4.31568 3.76972L4.26702 3.67647L4.323 3.58653C4.38001 3.49779 4.3929 3.36399 4.35518 3.275C4.31511 3.18647 4.26169 3.15592 4.14742 3.16764C3.45955 3.25638 2.77267 3.34545 2.08832 3.44531C1.91482 3.46845 1.74014 3.49237 1.56276 3.51759C1.42728 3.53684 1.29002 3.55702 1.15076 3.57827L1.07895 3.59011L1.01889 3.54769C0.911009 3.46161 0.695737 3.49631 0.648816 3.62631L0.608399 3.68419C0.554122 3.72485 0.537116 3.86766 0.593222 3.95739L0.618142 3.99884L0.617112 4.0479C0.561253 5.99185 0.525255 8.38454 0.526081 11.7029C0.52658 13.5929 0.540277 15.7835 0.567678 18.3625C0.585506 20.0244 0.587404 20.8783 0.58836 21.5761C0.588691 21.7813 0.589034 21.9738 0.589862 22.1686C0.592704 22.8364 0.609456 23.5402 0.629139 24.3716C0.654552 25.4502 0.685519 26.7442 0.694413 28.4543C0.702709 30.0716 0.709347 31.4203 0.714805 32.5651C0.727823 35.2766 0.753801 36.8426 0.77499 38.1194C0.783828 38.6521 0.791821 39.1349 0.797689 39.6292C0.816716 41.232 0.822314 43.5156 0.821101 45.2416C0.820781 45.6965 0.823525 46.3027 0.828256 46.9856C0.824639 48.3134 0.724748 50.2136 1.89227 50.9465C1.93732 50.9766 1.98344 51.0049 2.03396 51.0333C2.5703 51.3506 3.40036 51.3976 4.37851 51.4545C4.52164 51.4657 4.66758 51.4769 4.81623 51.4881C5.80893 51.563 6.9226 51.6363 8.11245 51.6979C8.46756 51.7164 8.82933 51.7339 9.19674 51.7502C13.237 51.9204 15.3874 51.9173 17.1149 51.9269C17.6075 51.9279 18.0663 51.9273 18.5246 51.9254C19.9731 51.9196 21.7706 51.8974 23.5901 51.854C25.7677 51.8031 27.9772 51.7224 29.6579 51.6484C31.9733 51.5583 34.2884 51.448 36.6031 51.3265C38.6442 51.2194 40.685 51.1036 42.7257 50.9852C43.1155 50.9626 43.5025 50.9407 43.8843 50.9195C45.5109 50.9192 47.2814 50.6718 47.3877 49.3102C47.4081 49.2026 47.4246 49.0963 47.4382 48.9919C47.5762 47.4461 47.5153 46.5299 47.5912 46.5352C47.6136 46.5393 47.772 47.4115 47.704 49.0203C47.6949 49.1298 47.6825 49.2421 47.6656 49.3567C47.6072 50.0065 47.0964 50.756 46.3173 50.9926C45.5609 51.2591 44.7256 51.2513 43.9074 51.304C43.5258 51.3287 43.1389 51.3532 42.7491 51.3772C40.7085 51.5026 38.6674 51.6256 36.6255 51.7396C34.1582 51.8773 31.6899 52.002 29.2202 52.102C23.7225 52.3248 18.2153 52.4257 12.7108 52.2756C11.1704 52.2336 9.63039 52.1721 8.09136 52.0885C6.84287 52.0209 5.59495 51.9391 4.34819 51.8406C3.54724 51.7734 2.65377 51.812 1.84536 51.3659C1.62349 51.2403 1.41935 51.078 1.24893 50.8866C0.95709 50.561 0.771262 50.1605 0.659637 49.7584C0.401019 48.8185 0.463388 47.87 0.453806 46.9879C0.431662 44.731 0.411842 42.6152 0.398739 40.9879C0.38363 39.1113 0.381464 37.7432 0.379592 36.5715C0.378304 35.7651 0.377159 35.0516 0.372035 34.3298C0.369284 33.9421 0.365167 33.4125 0.3602 32.7739C0.359674 32.7063 0.359139 32.6374 0.358594 32.5674C0.340888 29.9379 0.275427 25.6351 0.231777 21.6994C0.212632 19.9066 0.196583 17.8235 0.190536 15.8346C0.180306 12.9907 0.197926 10.3384 0.204026 8.99928C0.209616 7.43432 0.233374 5.71627 0.275121 4.04L0.299683 4.13305C0.178194 3.92064 0.168682 3.63702 0.372351 3.43316L0.331844 3.49117C0.483971 3.13571 0.94018 3.0603 1.22105 3.26271L1.09465 3.23341C1.49918 3.16846 1.8987 3.10994 2.28984 3.05575C2.92049 2.96843 3.52933 2.8921 4.10301 2.81985C4.32332 2.77275 4.61877 2.93294 4.68377 3.15677C4.76124 3.37136 4.72769 3.59174 4.61789 3.77095L4.62435 3.60944C4.86892 4.09322 4.75812 4.59928 4.61022 4.97335C4.40075 5.47967 4.08646 5.8131 3.90189 6.09791C3.59859 6.52044 3.50467 6.9626 3.67609 7.42072C3.87526 8.08733 4.77414 8.57252 5.62451 8.14871C5.80304 8.05627 5.96779 7.92028 6.0987 7.74142C6.65291 7.12835 6.20438 6.22648 5.41213 5.43592C5.33065 5.34659 5.26693 5.21474 5.2688 5.07472L5.39211 5.22836C5.29721 5.20622 5.20757 5.16052 5.13819 5.06643C5.01892 4.9004 4.93611 4.70727 4.88367 4.50743C4.73713 3.91607 4.80435 3.37468 4.83388 2.89113C4.84241 2.58967 5.11879 2.30388 5.42024 2.31468C6.59989 2.3041 7.5725 2.29831 8.44715 2.29819C8.53635 2.29816 8.62454 2.2982 8.71183 2.29828L8.62479 2.32912C8.8399 2.16203 9.19442 2.16423 9.3468 2.44642L9.30144 2.39448C9.56755 2.58486 9.60049 2.93872 9.45407 3.18815L9.47134 3.09777C9.51782 3.39179 9.56379 3.68143 9.61172 3.97212C9.66171 4.32557 9.86034 4.79013 9.5781 5.22736C9.49952 5.34943 9.357 5.43679 9.20345 5.44262L9.30667 5.38528C9.04017 5.77797 8.87684 6.28825 8.90556 6.84025C8.90277 7.77025 9.7562 8.51152 10.6661 8.30064C12.1636 8.15641 12.1543 5.95821 11.0552 5.60198C10.9581 5.5578 10.8556 5.52382 10.7448 5.49945C10.5801 5.47049 10.3934 5.33324 10.34 5.14653L10.4208 5.23812C10.2426 5.16223 10.1406 4.95053 10.1444 4.78366C10.1326 4.199 10.0736 3.58408 9.93528 2.97034C9.91021 2.8584 9.88266 2.74651 9.85267 2.63479C9.79502 2.44846 9.85066 2.19962 10.0097 2.06167C10.1635 1.92049 10.3733 1.87034 10.5671 1.90085C11.2357 2.00649 11.9161 2.05036 12.576 2.02613C12.8922 2.01456 13.2097 1.96337 13.5285 1.92457C13.6705 1.90722 13.8114 1.89248 13.9511 1.88426L13.8424 1.94251C14.0881 1.6543 14.5081 1.71775 14.6868 1.99254L14.6276 1.9401C14.8867 2.06267 15.0267 2.41296 14.8417 2.6647L14.8635 2.54554C14.9698 2.94711 15.0515 3.32465 15.1202 3.68285C15.1553 3.86624 15.1868 4.04471 15.2157 4.21896C15.2299 4.30096 15.2272 4.38826 15.2062 4.46935C15.2 4.49407 15.1923 4.51831 15.1831 4.54181L15.1456 4.40325C15.2588 4.49247 15.3061 4.64388 15.2717 4.7804C15.2458 4.92163 15.0807 5.03973 14.9443 5.02643C14.2638 4.9755 14.2524 5.94353 14.4811 6.49566C14.5017 6.54461 14.5251 6.59296 14.5515 6.63724C14.5954 6.71084 14.6456 6.78326 14.7027 6.85282C14.9774 7.1946 15.4654 7.48889 16.0254 7.38782C16.4047 7.3249 16.7969 7.11009 16.9958 6.7169C17.4048 5.94907 16.8161 5.02213 16.0138 4.97072C15.7205 4.94924 15.5355 4.61521 15.5649 4.37862L15.5719 4.43282C15.4228 3.95936 15.3325 3.46859 15.3114 2.97041C15.3024 2.74159 15.279 2.49646 15.3303 2.23425C15.3562 2.106 15.4054 1.97136 15.4937 1.85576L15.4808 1.87611C15.532 1.77784 15.6222 1.68754 15.7371 1.6453L15.711 1.6582C15.6912 1.67223 15.693 1.67021 15.7173 1.65342C15.8539 1.57494 16.015 1.57309 16.1486 1.63682L16.0918 1.62277C16.7009 1.6491 17.3224 1.69342 17.9698 1.70946C18.4948 1.72685 19.0745 1.60449 19.7024 1.76503C19.7526 1.77887 19.803 1.79505 19.8529 1.81391C19.8912 1.82846 19.9179 1.84682 19.9347 1.857L19.9064 1.84346C20.2039 1.93464 20.4161 2.28691 20.3486 2.60195C20.3291 2.79406 20.1304 2.96043 19.9523 2.97399L20.0756 2.81142C20.1078 3.03788 20.1833 3.26206 20.2433 3.52638C20.3144 3.89014 20.3981 4.26139 20.4582 4.64265C20.4665 4.69557 20.4665 4.74847 20.4624 4.79614L20.4554 4.73614C20.5066 4.87945 20.4821 5.06601 20.3794 5.18994C20.3365 5.24432 20.2843 5.28685 20.2308 5.31946C19.6901 5.63851 19.5371 6.38336 19.7275 6.94468C19.9384 7.6364 20.7114 7.90558 21.2903 7.83302C21.5246 7.80919 21.7419 7.74531 21.9322 7.66108C22.3467 7.47505 22.6522 7.20415 22.8608 6.88241C22.8617 6.88099 22.8626 6.87957 22.8635 6.87814C22.8775 6.85616 22.8911 6.83379 22.9042 6.81124C22.9801 6.67488 23.0378 6.5292 23.0743 6.37831C23.181 5.96247 23.0649 5.48129 22.7009 5.28848C22.4628 5.14321 22.1615 5.21814 21.8142 5.26278C21.5457 5.31183 21.3083 5.03863 21.3006 4.81697L21.4155 4.94541C21.3862 4.93874 21.3519 4.92843 21.317 4.90998C20.8274 4.62693 20.8795 4.07173 20.8347 3.7063C20.7919 3.25221 20.7879 2.78956 20.8514 2.33107L20.9209 2.48157C20.5086 2.20348 20.7511 1.56302 21.184 1.54101C22.0249 1.44114 22.8678 1.36593 23.7107 1.30293C23.9846 1.28135 24.2615 1.2609 24.5359 1.2415C24.9742 1.21051 25.4084 1.18199 25.8239 1.15485C26.0375 1.12787 26.3055 1.271 26.3859 1.48229C26.474 1.68651 26.4546 1.90442 26.357 2.085L26.3578 1.9141C26.5991 2.34916 26.7441 2.77789 26.8169 3.14169C26.8681 3.40851 26.9276 3.80832 26.8213 4.29528C26.7945 4.41868 26.7184 4.57461 26.566 4.66083L26.6139 4.62255C26.5614 4.68097 26.4873 4.73639 26.4013 4.76672C25.9887 4.90278 25.6321 5.40296 25.6681 5.96758C25.6753 6.5594 26.2877 7.03096 26.9618 7.08615C27.0255 7.09244 27.0898 7.09569 27.1544 7.09592C27.7275 7.09948 28.3144 6.85539 28.6885 6.43774C28.9745 6.12717 29.1076 5.69874 28.9997 5.35185C28.8986 5.00124 28.5692 4.78732 28.2208 4.72722C28.1849 4.72051 28.1497 4.71518 28.1124 4.71076C27.7912 4.68121 27.51 4.38342 27.5208 4.04639L27.8705 4.24343C27.4091 4.53054 26.8099 4.06724 26.9424 3.58146C26.9835 3.38441 27.0154 3.18513 27.0385 2.98267C27.0883 2.54715 27.0955 2.09722 27.0766 1.62414C27.0752 1.2475 27.3616 0.944525 27.7575 0.944953C27.8046 0.947061 27.852 0.949137 27.8996 0.951181C28.3028 0.968522 28.7388 0.984034 29.2049 1.00339C29.6152 1.02051 30.0496 1.04066 30.5046 1.07003C30.861 1.09443 31.5878 1.1433 32.5283 1.27364C32.7965 1.2851 33.0509 1.60091 33.032 1.86299C33.0336 1.99301 33.0035 2.11988 32.9401 2.23784L32.9651 2.12216C33.0053 2.75688 33.1213 3.45554 33.2661 4.18674C33.2733 4.22299 33.2779 4.25997 33.2796 4.29822C33.3067 4.6414 33.015 4.9477 32.7034 4.99506L32.8102 4.94038C32.7434 5.00562 32.6584 5.05636 32.5732 5.0858C32.2282 5.19499 32.0615 5.65461 32.1481 6.04167C32.2235 6.45015 32.6546 6.7058 33.1043 6.731C33.5475 6.75677 34.0321 6.53008 34.3837 6.21293C34.7417 5.8985 34.9479 5.41753 34.6056 5.19114C34.4653 5.08554 34.2856 5.02417 34.1109 4.98256C33.7169 4.87881 33.5998 4.47057 33.6852 4.19945C33.6888 4.18736 33.6928 4.17538 33.6971 4.16352L33.8344 4.47266C33.6021 4.39686 33.4562 4.14347 33.4526 3.94869C33.4463 3.87114 33.44 3.795 33.4336 3.71812C33.41 3.43354 33.3856 3.13907 33.3592 2.73387C33.3591 2.73164 33.359 2.72946 33.3588 2.72728C33.3376 2.44182 33.2783 1.99324 33.4058 1.67327C33.4276 1.61257 33.452 1.55939 33.4771 1.5121C33.531 1.40909 33.6094 1.33614 33.6833 1.28938C33.7269 1.26169 33.7702 1.24152 33.8126 1.22598L33.6364 1.42071C33.6658 1.32188 33.7105 1.22586 33.7972 1.12898C33.884 1.03207 34.0261 0.939873 34.2056 0.92647C34.232 0.924385 34.2584 0.923948 34.2854 0.925156C34.4283 0.929872 34.6122 0.93581 34.8784 0.941802C35.4007 0.953198 35.9565 0.939212 36.5212 0.880809C37.0524 0.830799 37.6393 0.609382 38.3226 0.638064L38.172 0.670162C38.2653 0.622618 38.3712 0.598773 38.4788 0.60411C38.6498 0.610006 38.8197 0.704772 38.9168 0.830004L38.8612 0.77681C39.0462 0.916596 39.1232 1.12416 39.1094 1.33081L39.0928 1.20808C39.2473 1.63937 39.3681 2.0797 39.4388 2.51693C39.4701 2.71349 39.5241 2.93253 39.5268 3.18396C39.536 3.42907 39.4432 3.75394 39.2281 3.94311C39.174 3.99352 39.1193 4.02659 39.0658 4.05204L39.1445 3.99779C39.0646 4.07574 38.9601 4.13118 38.8612 4.15738C38.7487 4.18818 38.6472 4.22948 38.5571 4.28009C38.2428 4.44702 37.9966 4.82049 38.0528 5.27292C38.0987 5.72074 38.4573 6.15825 38.9704 6.28177C39.3276 6.37482 39.729 6.35932 40.09 6.23657C40.3173 6.15961 40.5283 6.04013 40.7013 5.88493C40.963 5.64907 41.1327 5.24013 41.1156 4.91115C41.0989 4.57294 40.8909 4.41556 40.5585 4.39427C40.5478 4.39355 40.5375 4.39265 40.5272 4.39156C40.2524 4.37689 39.9662 4.13426 39.9079 3.85938L40.0003 4.00235C39.8876 3.91549 39.8154 3.76666 39.8012 3.6441C39.6962 2.89157 39.5449 2.13398 39.3539 1.40552C39.3533 1.40312 39.3527 1.40069 39.3521 1.39826C39.2319 0.967821 39.5953 0.498371 40.0383 0.507477C40.973 0.496618 41.8619 0.487599 42.6428 0.485849C42.7367 0.485641 42.8411 0.486701 42.9576 0.488576C43.0818 0.4909 43.2262 0.487249 43.3921 0.479947C43.6122 0.470978 43.8711 0.452643 44.1767 0.452939C44.4544 0.448499 44.7452 0.460025 45.0405 0.547209C45.5741 0.688548 45.86 1.243 45.9288 1.68035C46.0115 2.13574 45.9863 2.57698 45.937 3.00627L45.8378 2.78225C46.0075 2.89747 46.1234 3.11221 46.1351 3.30975C46.1374 3.33695 46.1397 3.36427 46.1419 3.39159C46.1467 3.43612 46.1516 3.48206 46.1566 3.52807C46.1567 3.5288 46.1567 3.52953 46.1568 3.53025C46.268 4.56863 46.4182 5.99017 46.5491 7.99351C46.5822 8.50276 46.5965 8.82379 46.6093 9.11304C46.6218 9.39711 46.6328 9.651 46.6575 10.022C46.6856 10.4434 46.7252 10.9404 46.7673 11.4824C46.8265 12.2434 46.8906 13.0936 46.9362 13.9479C46.9393 14.0062 46.9426 14.0689 46.9461 14.1342C46.9791 14.7534 47.0262 15.6703 47.0616 16.5831C47.2117 19.2889 47.3384 21.9963 47.4415 24.7042C47.5787 28.3051 47.6744 31.9081 47.7287 35.511C47.7424 36.4244 47.7536 37.3378 47.7621 38.2512C47.7774 39.8764 47.7736 41.4526 47.755 42.7918C47.7485 43.263 47.7403 43.7049 47.7306 44.1093C47.6929 45.6629 47.6394 46.5354 47.5912 46.5352C47.5424 46.5348 47.5022 45.6618 47.4669 44.1091C47.4577 43.705 47.4488 43.2634 47.4401 42.7925C47.4158 41.4543 47.3926 39.8797 47.3695 38.2558C47.3566 37.3432 47.3411 36.4307 47.323 35.5181C47.2701 32.8509 47.1946 30.1838 47.0972 27.518C47.0897 27.3304 47.0822 27.1421 47.0746 26.9547C47.0182 25.5601 46.9528 24.2667 46.8824 22.9728C46.8662 22.6756 46.8497 22.3778 46.833 22.0793ZM21.868 51.4472C19.649 51.5129 15.3667 51.4951 13.0121 51.4186C12.9689 51.4174 12.9257 51.4162 12.8825 51.415C12.7408 51.411 12.601 51.4069 12.4612 51.4027C12.0498 51.3903 11.6381 51.377 11.1759 51.3603C9.99545 51.3149 8.48288 51.261 5.80016 51.0726C5.1493 51.0235 4.39646 51.0564 3.53475 50.9489C3.24079 50.9111 2.94338 50.8542 2.65011 50.7561C1.4879 50.3988 1.33424 49.0458 1.34241 48.1728C1.34021 47.9112 1.34687 47.6538 1.34556 47.405C1.31761 42.9465 1.29219 38.488 1.26805 34.0295C1.22305 25.6703 1.35607 17.3156 1.20325 8.96615C1.19982 8.8012 1.19622 8.63341 1.19245 8.46392C1.16257 7.11424 1.12129 5.63139 1.0694 4.17624L1.06091 3.94959L1.2881 3.93265C2.14938 3.87005 3.00114 3.78353 3.81106 3.69963L4.14364 3.66425L4.0642 3.99013C3.98325 4.34021 3.85735 4.74109 3.61242 5.0442C3.3685 5.35037 3.11448 5.55884 2.98514 5.79753C2.83194 6.06909 2.7516 6.36441 2.72227 6.64455C2.70068 6.85038 2.70548 7.05528 2.73219 7.25251C2.89456 8.51337 4.00687 9.24915 4.93847 9.20842C6.02313 9.19567 6.85141 8.49135 7.11437 7.72668C7.15237 7.61984 7.18159 7.50986 7.20179 7.39792C7.35915 6.40751 6.86204 5.0773 5.85872 4.90977C5.83046 4.90551 5.80233 4.90632 5.77199 4.91256L5.46085 4.97849L5.54517 4.67104C5.65865 4.26085 5.64513 3.80165 5.65099 3.33257L5.65265 3.14392L5.84213 3.14309C6.77515 3.14258 7.70784 3.14085 8.64015 3.13279L8.818 3.13058L8.82866 3.30892C8.84321 3.56911 8.8584 3.82975 8.87212 4.09098C8.88439 4.33187 8.87259 4.55715 8.91212 4.74783L8.93461 4.85474L8.85085 4.92611C8.0744 5.5788 7.82905 6.7759 8.19921 7.72322C8.575 8.7538 9.76261 9.34033 10.8399 9.1498C11.8823 9.0047 12.7967 8.09741 12.7842 7.03558C12.8051 5.97912 12.0572 4.91587 11.0211 4.68299L10.8812 4.65075L10.8934 4.50706C10.9369 4.01488 10.9128 3.51722 10.8298 3.02828L10.7921 2.80939L11.0131 2.83777C11.989 2.96258 12.9935 3.03227 13.922 2.78273L14.1036 2.73178L14.1257 2.91972C14.1802 3.39322 14.2564 3.86519 14.3457 4.3353L14.3697 4.45935L14.2539 4.51161C13.7502 4.76057 13.46 5.47098 13.4926 6.0554C13.4935 6.06565 13.4944 6.07595 13.4954 6.08623C13.6006 7.2047 14.5634 8.24485 15.6936 8.30358C16.7752 8.36988 17.8991 7.56072 18.0538 6.47978C18.1909 5.65646 17.7406 4.79674 17.0159 4.38475C16.8214 4.27125 16.6096 4.18793 16.3899 4.13907L16.2885 4.11674L16.2705 4.01389C16.2054 3.64019 16.1695 3.25911 16.1736 2.87696C16.1746 2.76887 16.185 2.66596 16.1933 2.56874L16.2074 2.40171L16.3735 2.42857C16.8998 2.51473 17.4339 2.55701 17.969 2.56521C18.3703 2.57154 18.7615 2.59655 19.1353 2.54906L19.3008 2.52764L19.3109 2.69487C19.3231 2.90726 19.3813 3.12703 19.4187 3.37096C19.486 3.82975 19.5338 4.2864 19.6049 4.73486L19.6197 4.82754L19.5443 4.88457C19.0592 5.24524 18.7949 5.8596 18.7916 6.4707C18.7891 6.79179 18.8535 7.11023 18.9764 7.39888C19.444 8.54617 20.8548 8.91254 21.8894 8.59514C21.9621 8.57438 22.034 8.55061 22.1047 8.52414C23.3219 8.07138 24.1267 6.84952 23.9415 5.78995C23.841 5.2189 23.3941 4.72785 22.9411 4.47919C22.6215 4.30329 22.2416 4.24627 21.9424 4.4129L21.6467 4.57236L21.6589 4.23587C21.6652 4.0769 21.6388 3.89678 21.6339 3.69527C21.6256 3.25753 21.645 2.82557 21.6327 2.40174L21.6265 2.2066L21.8226 2.20317C23.0739 2.18426 24.3346 2.11997 25.554 2.0503L25.698 2.04157L25.7448 2.17878C25.8418 2.46555 25.9318 2.75989 25.9851 3.0642C26.0415 3.39054 26.0235 3.69697 26.0433 3.97495L26.0536 4.11911L25.9159 4.16532C25.0611 4.43629 24.6561 5.38732 24.7583 6.15453C24.76 6.17011 24.7619 6.18559 24.764 6.20094C24.8254 6.68192 25.0723 7.09284 25.3867 7.3786C25.8647 7.81377 26.5297 8.04117 27.1825 8.0399C28.4086 8.03775 29.6865 7.21772 29.9585 6.01557C30.0678 5.53494 29.9454 4.99651 29.6771 4.5693C29.5955 4.43571 29.4982 4.31048 29.3848 4.19998C29.0644 3.87921 28.5764 3.7008 28.0841 3.85952C28.0605 3.86665 28.0386 3.87656 28.0133 3.89189L27.6548 4.11368L27.7625 3.70563C27.8964 3.21143 28.0027 2.67631 28.0381 2.09484L28.047 1.93414L28.2084 1.94294C29.3041 2.00563 30.5371 2.1198 31.969 2.18654L32.12 2.19294L32.1198 2.3448C32.1178 2.91406 32.1566 3.51574 32.2743 4.13853L32.2994 4.2695L32.1738 4.31608C32.1421 4.32775 32.1114 4.34028 32.0806 4.3542C31.4694 4.61553 31.0895 5.38501 31.2088 6.14631C31.3088 7.05998 32.3114 7.77086 33.376 7.68264C33.6812 7.66148 33.9914 7.58729 34.2873 7.46354C35.2723 7.03853 35.6546 6.34561 35.7632 5.83531C35.8112 5.60851 35.7905 5.39412 35.7457 5.20325C35.7023 5.0229 35.6345 4.85866 35.5448 4.7062C35.3266 4.33049 34.9079 3.98631 34.4274 4.08644L34.2545 4.12003L34.2701 3.94406C34.273 3.92021 34.2735 3.91779 34.2722 3.9308C34.2793 3.73603 34.2864 3.53471 34.2936 3.32509C34.3004 3.12926 34.3073 2.92616 34.3145 2.71455C34.322 2.47675 34.3533 2.24009 34.3239 2.01798L34.299 1.82457L34.493 1.85003C35.1366 1.9305 35.864 1.98231 36.6908 1.91203C36.8245 1.90052 36.9597 1.89006 37.0965 1.87737C37.4778 1.84227 37.8375 1.78955 38.1508 1.669L38.3223 1.60147L38.3455 1.78491C38.3849 2.11801 38.4197 2.43885 38.4484 2.74814C38.4625 2.8979 38.4645 3.04043 38.4782 3.16887L38.4927 3.29616L38.366 3.31871C37.3614 3.51718 36.9238 4.54389 36.9288 5.26675C36.9888 6.79934 38.3367 7.32672 39.1319 7.39302C39.3087 7.40845 39.4799 7.40655 39.6446 7.39205C40.1367 7.3466 40.5729 7.19995 40.966 6.97104C41.4137 6.71131 41.8638 6.27297 42.0632 5.68821C42.4477 4.7207 41.7086 3.45356 40.7329 3.41565L40.5906 3.40241L40.5876 3.25877C40.5864 3.16014 40.5838 3.06312 40.5798 2.96794C40.5653 2.61698 40.5247 2.17226 40.4281 1.6796L40.3919 1.49718L40.5785 1.49522C41.4718 1.48799 42.5416 1.47603 43.5845 1.46312C43.8053 1.46219 44.0299 1.4213 44.2895 1.43216C44.5488 1.41936 44.8793 1.64006 44.9548 1.89074C45.0067 2.0159 45.0304 2.13904 45.046 2.25558C45.0901 2.5794 45.058 2.93634 45.1258 3.27223L45.1296 3.30161C45.1297 3.33391 45.1295 3.33503 45.1289 3.31567C45.1785 3.8899 45.2332 4.54802 45.2915 5.27122C45.393 6.52901 45.5053 7.9847 45.6222 9.54226C45.9152 13.4785 46.0378 15.5729 46.1385 17.2563C46.1667 17.7362 46.1923 18.1833 46.2173 18.63C46.2964 20.0415 46.3855 21.7937 46.4644 23.5682C46.5594 25.6917 46.639 27.8477 46.6937 29.4884C46.6975 29.6236 46.7013 29.7588 46.7051 29.894C46.8192 34.012 46.8786 38.1317 46.8851 42.2507C46.8857 42.6427 46.8852 43.032 46.8837 43.4157C46.8794 44.5234 46.8663 45.5851 46.8465 46.5363C46.8415 47.0721 46.8876 47.5998 46.8701 48.076C46.8586 48.8597 46.6421 49.52 46.2885 49.8071C45.9424 50.0929 45.6901 50.0759 45.6893 50.0623C45.6776 50.0307 45.9143 49.9894 46.1885 49.7045C46.4676 49.4215 46.6254 48.8326 46.6028 48.0739C46.5982 47.6128 46.5334 47.104 46.521 46.5345C46.5123 45.5838 46.5052 44.5229 46.4988 43.416C46.4966 43.0327 46.4945 42.6437 46.4925 42.252C46.4713 38.1365 46.3973 34.0206 46.2712 29.9067C46.2625 29.6238 46.2536 29.3409 46.2445 29.058C46.071 23.7025 45.8086 18.3497 45.4629 13.0027C45.2546 9.78208 45.0151 6.56342 44.7447 3.34737C44.7425 3.30771 44.7449 3.2937 44.7444 3.31766L44.7489 3.3533C44.6495 2.85038 44.7367 2.3705 44.6042 2.03527C44.5872 1.99377 44.5674 1.9576 44.5458 1.92874C44.4422 1.74011 44.0289 1.82385 43.6245 1.83419C43.6123 1.83448 43.5999 1.83471 43.5875 1.83486C42.5744 1.84696 41.5622 1.85925 40.5817 1.87095L40.7968 1.60736C40.9075 2.1609 40.9632 2.71452 40.9747 3.2515L40.7696 3.03016C42.2404 3.15891 42.8569 4.81864 42.4507 5.82199C42.3862 6.0102 42.3012 6.1852 42.2027 6.34374C41.3688 7.59002 40.06 7.86058 39.0943 7.77565C38.7272 7.73789 38.39 7.63924 38.0886 7.49881C37.3218 7.14225 36.7673 6.49047 36.6187 5.71951C36.5923 5.58576 36.5749 5.4334 36.5748 5.26666C36.5747 4.92185 36.6495 4.51262 36.8586 4.10215C37.1024 3.6206 37.582 3.09031 38.3033 2.96169L38.118 3.20908C38.1011 3.05558 38.0988 2.91593 38.0853 2.78362C38.0551 2.47647 38.0186 2.15831 37.9776 1.83059L38.2859 2.0142C37.781 2.21036 37.2433 2.24402 36.7253 2.29151C35.9855 2.36015 35.212 2.32911 34.443 2.2252L34.6994 1.97056C34.7332 2.25146 34.6949 2.50254 34.6863 2.73054C34.6686 3.13482 34.6498 3.54097 34.6308 3.94677C34.628 3.98625 34.624 3.99949 34.6274 3.97654L34.3597 3.73413C35.2314 3.58029 35.8538 4.33032 36.0576 4.99154C36.1457 5.27349 36.1848 5.58758 36.1193 5.9084C35.8693 7.12535 34.6361 7.961 33.401 8.0423C32.8692 8.07662 32.3274 7.95592 31.8712 7.68128C31.3324 7.36611 30.9434 6.79479 30.8671 6.19714C30.7169 5.25275 31.2497 4.27193 32.0582 4.00235L31.9459 4.20075C31.8165 3.50149 31.7882 2.86668 31.7901 2.34351L31.9543 2.5159C31.6962 2.50426 31.4647 2.49185 31.2637 2.48071C30.2802 2.42659 29.2395 2.33996 28.1893 2.27946L28.3746 2.11426C28.3417 2.68363 28.2385 3.24859 28.0928 3.79323L27.8339 3.60103C27.8772 3.57421 27.9286 3.54923 27.9821 3.53283C28.8808 3.21751 29.7907 3.88377 30.1087 4.61236C30.3334 5.08058 30.4137 5.60803 30.3013 6.09492C29.8328 7.84732 28.134 8.36699 27.2849 8.3866C27.2508 8.38799 27.2168 8.38881 27.1829 8.38908C26.0038 8.37961 24.6419 7.77644 24.4104 6.19333C24.3961 6.06062 24.3917 5.92341 24.3995 5.78304C24.4297 5.07688 24.8382 4.16112 25.8064 3.83654L25.6976 3.99892C25.6775 3.70383 25.6938 3.4086 25.6443 3.12449C25.5978 2.8569 25.5157 2.58032 25.4172 2.28997L25.5742 2.39568C25.4542 2.40255 25.3321 2.40947 25.2079 2.4164C23.8814 2.49106 22.7832 2.53311 21.8278 2.54398L21.9734 2.39178C21.9845 2.86182 21.9629 3.28972 21.9694 3.68874C21.9718 3.83904 21.9917 3.99708 21.993 4.16266C21.9932 4.19105 21.9928 4.2197 21.9915 4.2486L21.785 4.11962C22.3735 3.81045 22.9999 4.07576 23.406 4.39721C23.8211 4.73376 24.1589 5.17553 24.2567 5.74409C24.3666 6.46025 24.1263 7.26064 23.5518 7.9043C23.1359 8.37218 22.585 8.72789 21.9759 8.90288C20.6999 9.2985 19.1378 8.71099 18.6852 7.52169C18.5056 7.09604 18.449 6.64342 18.4936 6.2256C18.5501 5.66143 18.8223 5.03724 19.3579 4.63708L19.2988 4.7832C19.2369 4.39221 19.1919 3.99085 19.1366 3.58859C19.1287 3.53098 19.1205 3.47334 19.1121 3.41572C19.0801 3.20052 19.0171 2.96733 19.0016 2.71291L19.1745 2.8565C18.7609 2.90848 18.3546 2.88062 17.9643 2.87479C17.408 2.86604 16.8551 2.82023 16.3238 2.73172L16.4994 2.59519C16.4903 2.69579 16.4809 2.79033 16.4799 2.87994C16.479 2.94318 16.4793 3.00596 16.4806 3.06848C16.4873 3.38241 16.52 3.68029 16.567 3.96239L16.4553 3.84526C17.1866 4.01498 17.7252 4.47856 18.0275 4.99235C18.1621 5.22055 18.2529 5.46181 18.3025 5.70281C18.3605 5.97103 18.3685 6.24986 18.3275 6.52095C18.2328 7.17035 17.8298 7.74504 17.3011 8.10902C17.1801 8.19485 17.0457 8.27518 16.8985 8.34535C16.5598 8.50637 16.1447 8.62002 15.6772 8.59925C15.1285 8.57697 14.5248 8.3335 14.0394 7.86038C13.541 7.37457 13.2342 6.7373 13.1788 6.08133C13.1569 5.34276 13.431 4.59682 14.1255 4.22548L14.0377 4.3941C13.9543 3.95071 13.8822 3.50393 13.8281 3.04775C13.8245 3.01702 13.8209 2.98624 13.8175 2.95543L14.0052 3.0817C13.0453 3.33729 12.0307 3.2764 10.9735 3.14118L11.1315 2.97692C11.2027 3.39727 11.2362 3.83873 11.2157 4.29508C11.2122 4.37394 11.207 4.45351 11.2002 4.53366L11.0909 4.38306C12.1935 4.61538 13.1119 5.77137 13.105 7.00763C13.105 7.01805 13.105 7.02847 13.1049 7.0389C13.1259 8.34784 11.9509 9.34793 10.8928 9.47919C10.299 9.57623 9.73355 9.47922 9.29534 9.28965C8.83243 9.08945 8.48972 8.79608 8.23635 8.45154C8.23524 8.45001 8.23414 8.44848 8.23303 8.44695C8.21595 8.42348 8.19916 8.39958 8.18283 8.37545C8.06671 8.20938 7.97098 8.02947 7.89724 7.84092C7.479 6.76757 7.7376 5.4391 8.63456 4.67119L8.58482 4.81594C8.53362 4.56282 8.54938 4.32718 8.53609 4.10911C8.52159 3.84928 8.50558 3.58907 8.49014 3.32842L8.64364 3.47185C7.70982 3.48299 6.77621 3.48785 5.84292 3.49154L5.99942 3.33639C5.99548 3.71063 6.00731 4.0975 5.94437 4.49218C5.93 4.58307 5.91129 4.67449 5.88668 4.76542L5.69922 4.56581C5.76698 4.55113 5.84018 4.5478 5.91092 4.55815C6.05394 4.57855 6.19435 4.61968 6.32517 4.6788C7.47836 5.28473 7.70256 6.62599 7.57993 7.46542C7.55562 7.60934 7.52009 7.7429 7.47839 7.86391C7.32603 8.43297 6.45993 9.60463 4.94376 9.62771C4.10585 9.65796 3.16355 9.19702 2.67655 8.38231C2.47657 8.05839 2.34636 7.69038 2.29319 7.31368C2.20841 6.71912 2.30059 6.09415 2.58992 5.57575C2.79119 5.22065 3.07493 4.99747 3.25026 4.76303C3.39184 4.58045 3.47959 4.37755 3.54203 4.15759C3.56788 4.06789 3.5907 3.97486 3.61401 3.87941L3.85915 4.16073C3.2012 4.23038 2.56502 4.28957 1.91117 4.33911C1.71625 4.35385 1.51973 4.36772 1.32055 4.38063L1.51828 4.16038C1.53256 4.67635 1.54708 5.20911 1.56506 5.77665C1.57753 6.17046 1.59197 6.59566 1.60636 7.04957C1.61903 7.44911 1.63169 7.87166 1.64295 8.31401C1.6534 8.72508 1.66938 9.64061 1.68295 10.8146C1.6914 11.54 1.69896 12.3644 1.70506 13.2295C1.73166 15.516 1.74244 17.8029 1.74672 20.089C1.75234 20.5659 1.75929 20.9797 1.76821 21.3073C1.7746 21.5424 1.78224 21.7425 1.79003 21.9481C1.80062 22.2278 1.81152 22.5172 1.81997 22.9161C1.82657 23.2279 1.82885 23.5955 1.82561 23.8424C1.82411 23.9573 1.82144 24.0456 1.81903 24.1258C1.81626 24.2176 1.8138 24.2995 1.81373 24.3996C1.81368 24.4717 1.81543 24.5468 1.81756 24.6391C1.82095 24.7866 1.82533 24.9784 1.82508 25.2702C1.82418 26.356 1.82113 27.5902 1.81976 28.7991C1.81815 30.1434 1.81907 31.4572 1.82473 32.5037C1.8271 32.9485 1.82895 33.4649 1.8311 34.0259C1.83464 34.9444 1.8369 35.9825 1.83916 37.0217C1.84171 38.1896 1.84427 39.3594 1.84862 40.3628C1.85288 41.3462 1.86315 42.3701 1.87313 43.3616C1.88511 44.5518 1.89666 45.6966 1.89674 46.6695C1.89675 46.8629 1.89098 47.1023 1.88371 47.4017C1.88358 47.4069 1.88345 47.4121 1.88332 47.4174C1.87786 47.6398 1.86383 47.8894 1.85882 48.1687C1.85337 49.0528 2.01229 50.0368 2.81406 50.2675C3.08777 50.3593 3.38168 50.4134 3.68117 50.4483C3.7231 50.4521 3.76654 50.4557 3.8101 50.4588C3.81079 50.4589 3.81148 50.4589 3.81217 50.459C4.35096 50.5027 5.00632 50.4719 5.83859 50.5116C6.50919 50.5506 7.2776 50.5971 8.16165 50.6535C8.65693 50.685 8.96852 50.7092 9.24932 50.7307C9.5251 50.7518 9.77165 50.7702 10.133 50.7869C10.5434 50.8058 11.0283 50.8196 11.557 50.832C11.8517 50.8389 12.1601 50.8454 12.4769 50.8522C12.9582 50.8626 13.4588 50.8738 13.9605 50.8889C14.0173 50.8907 14.0784 50.8925 14.142 50.8943C14.7451 50.9121 15.6379 50.9343 16.5267 50.9578C19.1639 50.9832 21.8022 50.9596 24.4398 50.9006C28.8365 50.8023 33.2324 50.6054 37.6256 50.3724C38.1252 50.3459 38.6199 50.3202 39.1042 50.2956C40.3945 50.23 41.6102 50.1729 42.6428 50.1314C42.8848 50.1217 43.115 50.1226 43.3332 50.125C44.85 50.1885 45.6758 50.0262 45.6893 50.0623C45.7126 50.1184 44.8534 50.3804 43.3365 50.3886C43.1198 50.3966 42.8934 50.4057 42.6603 50.4241C41.63 50.506 40.4157 50.5924 39.1259 50.6745C38.6418 50.7053 38.147 50.7354 37.6474 50.7644C34.1613 50.9665 30.6719 51.146 27.18 51.2702C26.997 51.2773 26.8133 51.2842 26.6303 51.2909C25.2691 51.3407 24.0059 51.3862 22.7414 51.4232C22.4509 51.4317 22.1599 51.4397 21.868 51.4472Z" fill="#FD1E1F"/>
<path d="M43.5355 45.1246C40.3549 44.8743 37.0834 45.0586 33.8932 45.0652C30.6791 45.0715 27.4652 45.0946 24.2513 45.1336C17.8367 45.2116 11.3721 45.1828 4.97193 45.6557C4.60287 45.683 4.59296 46.2336 4.97193 46.2372C11.394 46.2963 17.8286 45.9749 24.2513 45.8966C27.4652 45.8573 30.6791 45.8345 33.8932 45.8282C37.0891 45.8219 40.3474 46.0283 43.5355 45.8285C43.9898 45.7997 43.9862 45.16 43.5355 45.1246Z" fill="#FD1E1F"/>
<path d="M43.1183 38.3681C36.7646 38.6219 30.4128 38.8355 24.054 38.9028C20.9104 38.9361 17.7664 38.9409 14.6225 38.9181C13.0856 38.9067 11.5487 38.8869 10.0118 38.868C8.51276 38.8494 6.80154 38.5958 5.33728 38.9409C5.09874 38.997 5.11404 39.3445 5.33728 39.4087C6.72083 39.8074 8.37024 39.6376 9.8024 39.6667C11.4089 39.6994 13.016 39.7174 14.6228 39.7291C17.7667 39.7522 20.9107 39.7471 24.0544 39.7138C30.4101 39.6466 36.771 39.49 43.1186 39.1533C43.6203 39.1266 43.6257 38.3477 43.1183 38.3681Z" fill="#FD1E1F"/>
<path d="M43.5368 31.7383C37.0412 31.7095 30.5411 31.8694 24.0461 31.9495C17.5494 32.0296 11.0511 32.074 4.55552 32.2199C4.03673 32.2316 4.03433 33.0291 4.55552 33.0273C11.0526 33.0048 17.5497 32.8803 24.0461 32.7921C30.5414 32.7036 37.0439 32.6949 43.5368 32.4977C44.024 32.4827 44.027 31.7404 43.5368 31.7383Z" fill="#FD1E1F"/>
<path d="M43.1195 24.1797C36.7403 24.0588 30.321 24.4018 23.9418 24.5302C17.5666 24.6583 11.1253 24.5494 4.76419 25.0046C4.32791 25.0358 4.31891 25.6767 4.76419 25.6899C11.1379 25.878 17.5678 25.4978 23.9418 25.358C30.3216 25.2182 36.7503 25.2905 43.1195 24.902C43.5804 24.8737 43.5882 24.1884 43.1195 24.1797Z" fill="#FD1E1F"/>
<path d="M42.2606 18.1829C35.8514 17.7208 29.412 17.6107 22.9878 17.6596C19.7742 17.6842 16.5615 17.761 13.3507 17.8897C11.815 17.9512 10.2793 18.0212 8.74514 18.1118C7.40119 18.1913 5.68759 18.0278 4.44957 18.5922C4.26623 18.6756 4.33405 18.9474 4.50268 18.9984C5.82532 19.3987 7.58303 18.9978 8.95457 18.9285C10.5593 18.8475 12.164 18.7689 13.7695 18.7065C16.9108 18.5847 20.0539 18.5087 23.1975 18.479C29.5563 18.419 35.9066 18.6033 42.2609 18.8163C42.6711 18.8301 42.6632 18.212 42.2606 18.1829Z" fill="#FD1E1F"/>
</svg>
