<svg width="48" height="80" viewBox="0 0 48 80" fill="none" xmlns="http://www.w3.org/2000/svg">
<path fill-rule="evenodd" clip-rule="evenodd" d="M1.91619 1.033C2.442 0.892676 2.99949 0.746889 3.55478 0.591274C3.6902 0.553599 3.8611 0.516471 3.93808 0.418735C4.25587 0.00867697 4.70141 0.0518117 5.13058 0.0479896C7.37852 0.026695 9.62702 0.000485276 11.875 0.000485276C20.9039 -0.00169879 29.9328 0.00376162 38.9617 0.0114058C39.6049 0.0119518 40.2634 -0.0846913 40.8482 0.346115C40.9978 0.455864 41.2702 0.396347 41.4865 0.41655C42.1346 0.477157 42.7832 0.536674 43.4314 0.600558C43.575 0.6153 43.7251 0.686827 43.8573 0.65898C44.7271 0.476611 45.3948 0.960381 46.0932 1.32621C46.5316 1.55608 46.8047 1.96396 46.9559 2.41169C47.1978 3.12752 47.4517 3.84826 47.4473 4.62251C47.4402 5.81883 47.4315 7.01569 47.4353 8.21201C47.4375 8.79188 47.4599 9.3712 47.4855 9.95053C47.5653 11.7245 47.7181 13.4974 47.7198 15.2714C47.7269 22.0524 47.6532 28.8334 47.6728 35.6138C47.6897 41.3786 47.8257 47.1435 47.8497 52.9077C47.8716 58.274 47.8295 63.6408 47.7864 69.007C47.7744 70.5282 47.7165 72.0527 47.4146 73.5537C47.3578 73.836 47.366 74.1303 47.3425 74.4191C47.2863 75.1044 47.2065 75.7891 47.177 76.4759C47.1448 77.2971 46.7058 77.906 46.1926 78.4765C46.079 78.6027 45.907 78.702 45.7427 78.7485C45.2927 78.8773 44.8297 78.962 44.3771 79.0848C44.2138 79.129 44.0271 79.1989 43.919 79.3185C43.6743 79.5893 43.3675 79.6548 43.0382 79.6658C42.531 79.6821 42.0232 79.6882 41.5154 79.6887C32.9937 79.6958 24.4726 79.7029 15.951 79.7078C13.4852 79.7094 11.0205 79.7056 8.5541 79.7007C8.08671 79.7002 7.62533 79.7351 7.20108 79.4212C7.02253 79.289 6.7233 79.3059 6.4765 79.2814C5.6482 79.2017 4.78769 79.2502 4.00034 79.0313C3.07593 78.7747 2.13132 78.4558 1.39475 77.7667C1.00981 77.4058 0.747173 76.9881 0.77775 76.4339C0.785394 76.2898 0.770097 76.144 0.778833 75.9987C0.858005 74.691 0.754275 73.3888 0.611219 72.0931C0.21918 68.5183 0.155841 64.9326 0.173314 61.3409C0.208805 54.0161 0.233374 46.6913 0.213172 39.3666C0.201706 35.1246 0.0815729 30.8837 0.0329775 26.6417C-0.0352744 20.6224 -0.00688536 14.6026 0.206607 8.58658C0.266668 6.88902 0.650526 5.21439 0.690386 3.50809C0.712772 2.52144 1.13593 1.69477 1.91619 1.033ZM43.13 77.7984C44.1243 78.4225 44.6987 78.4039 45.5161 77.6903C45.7536 77.4833 45.9638 77.2098 46.0965 76.9242C46.3553 76.364 46.5327 75.7656 46.5147 75.1398C46.494 74.3798 46.4552 73.6197 46.3957 72.8624C46.3187 71.885 46.1909 70.894 46.5005 69.9494C46.696 69.3532 46.815 68.7755 46.7883 68.1541C46.7774 67.9041 46.8538 67.6512 46.8718 67.399C46.9302 66.6051 47.0323 65.8101 47.0242 65.0162C46.9734 59.8689 46.9117 54.7216 46.827 49.5749C46.6889 41.2012 46.6474 32.8275 46.7118 24.4527C46.7381 21.081 46.7113 17.7099 46.7042 14.3389C46.702 13.4346 46.6687 12.5321 46.7266 11.6252C46.8014 10.4337 46.7495 9.24453 46.5868 8.04875C46.4448 7.0004 46.0779 5.92148 46.5524 4.85347C46.5797 4.79286 46.5737 4.70714 46.5589 4.63834C46.4055 3.93617 46.2728 3.22798 46.0735 2.53891C46.0108 2.31887 45.8044 2.09063 45.6018 1.97106C45.017 1.62816 44.4475 1.19517 43.6842 1.4032C43.5215 1.44797 43.3276 1.37972 43.148 1.36225C42.5741 1.30656 42.0008 1.22083 41.4253 1.20063C40.4108 1.16459 39.3952 1.17169 38.3807 1.15476C38.1667 1.15149 37.9215 1.18589 37.7441 1.09689C37.3608 0.904689 36.9671 0.944547 36.5729 0.945639C34.3615 0.94837 32.1502 0.968571 29.9393 0.966387C22.3257 0.955467 14.7126 0.939087 7.09952 0.923253C6.44648 0.921615 5.79891 0.907963 5.18573 1.21755C4.96896 1.32676 4.68939 1.383 4.45024 1.35515C3.74916 1.27543 3.19441 1.66256 2.58943 1.87933C2.1952 2.0202 1.93038 2.35327 1.80971 2.74094C1.63881 3.29077 1.4761 3.85481 1.4155 4.4243C1.35543 4.99598 1.41277 5.58186 1.44171 6.16063C1.47228 6.77599 1.55581 7.38917 1.56728 8.00398C1.58038 8.69087 1.62079 9.40069 1.31502 10.0357C1.13156 10.4168 1.1141 10.787 1.10045 11.1873C1.08024 11.8015 0.997244 12.4141 0.944281 13.0273C0.909882 13.4237 0.855819 13.8207 0.858549 14.2171C0.875476 17.8426 0.882587 21.4676 0.933366 25.0926C1.01909 31.291 1.18343 37.4883 1.22602 43.6861C1.27243 50.4649 1.21347 57.2453 1.21129 64.0235C1.21074 66.5254 1.31612 69.0201 1.67431 71.5017C1.7917 72.3224 1.79279 73.1627 1.80534 73.9949C1.81626 74.7167 1.7764 75.4396 1.74637 76.162C1.73163 76.5174 1.85231 76.8107 2.12914 77.016C2.41635 77.2284 2.71391 77.4424 3.03824 77.5871C3.73168 77.8967 4.44588 78.1473 5.22504 78.1457C5.44126 78.1446 5.68478 78.1397 5.86715 78.2325C6.44866 78.5273 7.06347 78.4733 7.67664 78.4858C8.40011 78.5 9.12414 78.5131 9.84816 78.5311C9.95245 78.5333 10.0824 78.518 10.1577 78.571C10.552 78.8484 10.9964 78.7632 11.424 78.7605C13.3448 78.7517 15.2657 78.713 17.1866 78.713C23.3134 78.7124 29.4397 78.7162 35.5666 78.7386C36.8732 78.7435 38.1754 78.7834 39.4618 78.4907C39.6715 78.4427 39.8954 78.4351 40.1111 78.4438C41.1485 78.4837 42.1258 78.2538 43.13 77.7984Z" fill="#F6FAF9"/>
<path fill-rule="evenodd" clip-rule="evenodd" d="M29.2628 65.3557C25.6001 65.3557 21.9379 65.3622 18.2753 65.348C17.738 65.3459 17.2013 65.2317 16.6629 65.1859C16.3031 65.1553 15.9405 65.1416 15.5796 65.14C12.4973 65.1258 9.414 65.0789 6.33229 65.1247C5.30633 65.1395 4.52824 64.701 3.74635 64.1763C3.43566 63.9677 3.24457 63.6865 3.22983 63.2754C3.20362 62.5546 3.08457 61.8355 3.08239 61.1153C3.06601 55.8938 3.06984 50.6712 3.06711 45.4502C3.06711 44.9074 3.07256 44.3712 2.88965 43.8394C2.78645 43.5413 2.80666 43.1951 2.80338 42.8702C2.79356 41.9273 2.79356 40.9848 2.8012 40.0419C2.80775 39.2076 2.79301 38.3782 2.60354 37.5559C2.51564 37.1726 2.52328 36.7636 2.52164 36.3655C2.51618 34.0084 2.50308 31.6513 2.53038 29.2946C2.54184 28.2812 2.64723 27.2689 2.70947 26.2561C2.73732 25.822 2.79028 25.389 2.79192 24.9549C2.7941 22.9991 2.81704 21.0465 2.6718 19.0874C2.52164 17.0666 2.6101 15.0284 2.56424 12.9994C2.54622 12.2284 2.66578 11.4891 2.85689 10.7503C2.96991 10.3157 3.19543 9.95205 3.48919 9.62499C3.58419 9.51961 3.70321 9.36946 3.81951 9.36017C4.57302 9.30066 5.21896 8.87367 6.01122 8.87695C12.2129 8.89606 18.4134 8.86548 24.6145 8.84637C25.2987 8.84419 25.9861 8.91462 26.6522 8.64107C26.8739 8.54989 27.1535 8.59029 27.4068 8.58975C32.4837 8.58429 37.56 8.58101 42.6374 8.57883C42.8192 8.57828 43.0005 8.57555 43.1812 8.58647C43.7365 8.61923 43.7343 8.6296 43.9244 9.28155C43.9719 9.44426 44.0499 9.63373 44.1755 9.73092C44.5676 10.0378 44.6298 10.4473 44.6303 10.8961C44.6331 12.2377 44.644 13.5798 44.6445 14.9208C44.6478 19.1639 44.6451 23.4064 44.6511 27.6501C44.6511 28.0104 44.6254 28.3926 44.7325 28.7268C44.9689 29.4705 44.9711 30.2245 44.9678 30.9862C44.9629 31.8931 44.9454 32.8001 44.9732 33.7059C44.9907 34.283 45.0819 34.8569 45.1387 35.4324C45.1742 35.7917 45.2337 36.151 45.2342 36.5108C45.2419 39.0492 45.2402 41.5882 45.2348 44.1266C45.2342 44.5247 45.2342 44.9271 45.1807 45.3207C44.8903 47.4868 44.9481 49.6643 44.9487 51.8391C44.9492 52.6346 45.0655 53.4302 45.0857 54.2263C45.136 56.1826 45.1807 58.1395 45.1851 60.0965C45.1862 60.6709 45.0431 61.2453 44.9645 61.8197C44.9154 62.1773 44.8367 62.5328 44.8165 62.8921C44.774 63.645 44.413 64.1779 43.7802 64.5651C42.7946 65.1684 41.7124 65.4065 40.5789 65.4092C36.8081 65.4201 33.0368 65.4136 29.2644 65.4136C29.2627 65.395 29.2628 65.3748 29.2628 65.3557ZM43.3691 63.7406C43.4744 63.413 43.5094 63.1039 43.6612 62.8719C44.1504 62.1233 44.134 61.2961 44.1313 60.4601C44.1242 57.8867 44.1258 55.3128 44.1204 52.7395C44.1193 52.3414 44.1324 51.9395 44.0876 51.5448C43.8894 49.8068 43.9462 48.0754 44.1105 46.338C44.1995 45.401 44.2405 44.4564 44.2476 43.5156C44.264 41.2682 44.2525 39.0208 44.2427 36.7734C44.241 36.3759 44.2443 35.967 44.1531 35.5853C43.9582 34.7624 43.9522 33.9336 43.9555 33.0993C43.9604 32.1574 43.9615 31.2144 43.9533 30.2726C43.95 29.9843 43.9697 29.6758 43.8763 29.4126C43.677 28.8469 43.6945 28.272 43.6945 27.6937C43.6939 23.0537 43.695 18.4137 43.6939 13.7747C43.6939 13.4122 43.7425 13.0327 43.6524 12.692C43.4733 12.0187 43.4176 11.3417 43.3827 10.6515C43.3434 9.87234 43.0649 9.62936 42.3065 9.60533C42.2333 9.6026 42.1613 9.60533 42.0886 9.60533C37.5218 9.59933 32.9544 9.59387 28.3869 9.59387C28.1008 9.59387 27.7852 9.58022 27.5335 9.68942C27.0781 9.88817 26.6151 9.87343 26.1466 9.87343C19.9483 9.87124 13.7499 9.86251 7.55207 9.87124C6.65552 9.87234 5.75951 9.94168 4.86459 10.0067C4.2252 10.0525 3.78784 10.4566 3.70157 11.0889C3.6437 11.5175 3.63878 11.9565 3.63824 12.39C3.63551 14.3841 3.63223 16.3776 3.65025 18.3711C3.66226 19.7842 3.73708 21.1967 3.72943 22.6092C3.72234 24.0939 3.65844 25.579 3.60548 27.0625C3.58036 27.75 3.4881 28.4358 3.48482 29.1221C3.47008 31.5508 3.47717 33.9795 3.48427 36.4081C3.48482 36.733 3.51975 37.0573 3.54924 37.3811C3.61804 38.1363 3.72724 38.8898 3.75563 39.646C3.79167 40.6234 3.75673 41.6029 3.76929 42.5814C3.77475 42.9412 3.77693 43.3158 3.8763 43.6559C4.05266 44.2593 4.07614 44.8659 4.07614 45.4835C4.07068 50.9567 4.07286 56.43 4.06631 61.9038C4.06576 62.4847 4.09471 63.0559 4.30056 63.6314C4.97871 64.0764 5.71365 64.28 6.54141 64.274C10.1293 64.2489 13.7177 64.2506 17.3067 64.2473C17.5949 64.2467 17.9034 64.2271 18.1672 64.3177C18.6979 64.5006 19.2357 64.4941 19.7785 64.4941C26.9908 64.5017 34.2042 64.5066 41.4176 64.5181C41.7146 64.5187 41.9855 64.4946 42.2486 64.3385C42.621 64.1179 43.0109 63.93 43.3691 63.7406Z" fill="#F6FAF9"/>
<path fill-rule="evenodd" clip-rule="evenodd" d="M28.9425 71.8707C28.9425 72.1246 28.9392 72.3785 28.9425 72.6324C28.9561 73.8031 28.4789 74.7761 27.5813 75.4695C26.0868 76.6233 24.3854 77.3162 22.4662 77.3172C21.2944 77.3178 20.2696 76.9121 19.4604 76.0314C19.2884 75.8441 19.1202 75.6546 18.9471 75.4695C18.0031 74.4616 17.7137 73.2047 17.5941 71.8877C17.5231 71.1052 17.7044 70.3687 18.133 69.7123C18.5092 69.1368 18.9133 68.5788 19.3304 68.0323C19.9327 67.2449 20.8052 66.89 21.7171 66.6175C22.2374 66.4619 22.766 66.3336 23.2885 66.1862C24.6 65.8165 25.8056 66.142 26.9266 66.8065C27.2498 66.9976 27.5076 67.353 27.7063 67.6861C28.0569 68.2763 28.3741 68.8928 28.6373 69.5262C28.8 69.9187 28.8677 70.3594 28.9223 70.7853C28.9681 71.1424 28.9321 71.5087 28.9321 71.8707C28.9348 71.8707 28.9387 71.8707 28.9425 71.8707ZM28.0257 71.7473C28.0301 71.0965 28.0858 70.4391 27.7877 69.827C27.5185 69.2744 27.2427 68.7252 26.9763 68.1715C26.7595 67.7249 26.4139 67.43 25.9607 67.2433C24.9981 66.8474 24.0327 66.7071 22.9997 67.009C20.2952 67.7997 20.8582 67.4453 19.2906 69.5999C18.5966 70.5543 18.3012 71.6048 18.7287 72.7722C18.7658 72.8727 18.7751 72.9841 18.7964 73.0905C19.046 74.3458 19.8666 75.1982 20.8516 75.9069C21.1317 76.1089 21.5129 76.2312 21.8601 76.2634C22.4307 76.3159 23.021 76.3322 23.5834 76.2427C24.6284 76.0745 25.5921 75.6432 26.492 75.0917C27.4874 74.4812 28.0399 73.5962 28.0263 72.3987C28.023 72.1803 28.0252 71.9636 28.0257 71.7473Z" fill="#F6FAF9"/>
<path fill-rule="evenodd" clip-rule="evenodd" d="M26.5182 6.01325C25.5425 6.02363 24.5591 6.10171 23.6052 5.80358C23.4709 5.761 23.3153 5.75608 23.1739 5.77028C21.9666 5.89368 20.8031 5.50983 19.6084 5.46833C19.1131 5.45086 18.6228 5.24993 18.1336 5.12434C17.8147 5.04299 17.6575 4.81366 17.6127 4.4997C17.5128 3.81008 17.8862 3.12156 18.5786 2.84746C18.9411 2.70385 19.3485 2.61103 19.7367 2.60666C22.3095 2.57718 24.8829 2.57663 27.4551 2.57227C27.6353 2.57227 27.8172 2.59957 27.9935 2.63396C28.901 2.81087 29.1554 3.10354 29.1778 4.01484C29.1893 4.44947 29.1964 4.88573 29.1658 5.31872C29.1347 5.76755 28.9338 5.98104 28.4746 6.00452C27.8232 6.03728 27.1707 6.01325 26.5182 6.01325ZM18.6086 4.16718C19.0394 4.41179 19.4418 4.53901 19.8846 4.57123C20.316 4.60235 20.7441 4.67169 21.1743 4.71647C22.5699 4.85952 23.9634 5.02333 25.3612 5.13089C26.0786 5.18659 26.8054 5.14891 27.5272 5.1369C27.7691 5.13308 28.0104 5.07848 28.2671 5.04517C28.2873 4.77762 28.3217 4.56413 28.3168 4.35173C28.3102 4.10548 28.2687 3.86031 28.2469 3.65501C27.8112 3.34542 27.3672 3.41094 26.9392 3.40821C25.2422 3.39893 23.544 3.39839 21.8476 3.39402C21.0892 3.39293 20.3307 3.3962 19.5723 3.38474C19.0689 3.37709 18.7484 3.59222 18.6086 4.16718Z" fill="#F6FAF9"/>
<path fill-rule="evenodd" clip-rule="evenodd" d="M22.8789 69.6478C23.4418 69.2481 23.8475 69.2601 24.2226 69.3235C24.4897 69.3688 24.7572 69.5277 24.9805 69.6947C25.8935 70.3816 26.072 71.3333 25.8896 72.3959C25.8722 72.5007 25.8487 72.6197 25.7859 72.6995C25.2601 73.3743 24.5929 73.7937 23.5385 73.8832C24.0048 73.4557 24.3133 73.1101 24.6824 72.8485C25.3398 72.3822 25.3458 71.7074 25.1465 71.1018C24.9494 70.5007 24.5568 69.9388 23.7711 69.899C23.5396 69.8875 23.3124 69.7739 22.8789 69.6478Z" fill="#F6FAF9"/>
<path fill-rule="evenodd" clip-rule="evenodd" d="M21.2382 71.6182C21.6707 71.7836 21.4594 72.2182 21.6559 72.477C21.3354 72.666 21.1285 72.5862 21.0062 72.3203C20.8713 72.0326 20.903 71.7754 21.2382 71.6182Z" fill="#F6FAF9"/>
</svg>
