<svg width="82" height="80" viewBox="0 0 82 80" fill="none" xmlns="http://www.w3.org/2000/svg">
<path d="M8.76442 65.6626C8.57231 65.4623 8.29842 65.4143 8.02324 65.4498C7.83589 63.9618 5.98793 64.1396 5.49598 65.3169C4.74009 64.5558 3.56928 64.311 2.67754 65.1058C1.69536 65.9815 1.91126 67.5132 3.11843 68.0471C3.26943 68.1142 3.38365 67.9229 3.24822 67.8251C1.26051 66.3934 3.96083 63.9384 5.40856 65.9326C5.54053 66.1143 5.83477 66.0594 5.84256 65.8154C6.76416 64.9933 7.38288 64.9029 7.70523 65.5276C7.51831 65.5938 7.34436 65.6882 7.21456 65.7933C7.06096 65.9179 7.26563 66.1875 7.42789 66.0698C7.61437 65.9348 7.81989 65.853 8.05223 65.8474C8.25948 65.8422 8.44856 65.9209 8.65192 65.9352C8.79513 65.9452 8.85484 65.7565 8.76442 65.6626Z" fill="#FD1E1F"/>
<path d="M81.6954 71.6207C81.55 70.6995 80.6202 69.5997 79.6354 69.4422C79.8881 69.0056 79.9297 68.4669 79.5917 68.0126C79.2798 67.5934 78.5269 67.3744 78.0324 67.6063C78.0224 66.972 77.5941 66.3399 76.9857 66.1136C76.2934 65.8557 75.5964 66.1383 75.1685 66.6648C74.8596 66.0214 73.9808 65.9293 73.3638 66.333C73.3266 65.4733 72.9134 64.6295 72.061 64.3297C71.3951 64.0956 70.233 64.3431 69.5801 64.9194C69.6757 64.1471 69.5069 63.3306 68.7805 62.9257C68.3179 62.6678 67.8061 62.7309 67.4405 63.0118C67.061 61.6796 65.3437 61.3351 64.452 62.1178C64.3628 58.1511 64.3135 54.183 64.4113 50.1994C64.8665 50.8017 65.3217 51.4039 65.7686 52.0131C65.9196 52.2191 66.1472 52.2671 66.3462 52.2187C67.1471 52.355 67.9013 52.0382 68.4265 51.4186C68.8692 50.8968 69.3269 49.8874 68.8203 49.2804C68.7497 49.196 68.6589 49.1666 68.5689 49.1744C68.5585 49.0909 68.5247 49.0061 68.4585 48.9282C64.4823 44.2341 60.451 39.5914 56.4933 34.8835C56.5241 34.8472 56.544 34.8009 56.5392 34.7425C56.3393 32.4194 56.1087 30.099 55.9347 27.7734C55.7773 25.6671 55.843 23.5176 55.5614 21.4269C55.5605 21.4191 55.5553 21.416 55.554 21.4087C55.557 21.3693 55.5653 21.3308 55.5653 21.291C55.5648 21.185 55.5575 21.0907 55.5337 21.005C55.9746 21.0076 56.4155 21.0098 56.8503 21.002C57.0727 20.9981 57.2003 20.7796 57.1848 20.5909C57.2363 20.5542 57.2774 20.4983 57.2929 20.414C57.4357 19.6287 57.4582 18.8434 57.5049 18.0468C57.5179 17.8235 57.3167 17.6833 57.1203 17.6621C56.4691 17.5916 55.8179 17.5354 55.1659 17.4882C55.715 17.1187 55.7292 16.4221 55.2732 15.9557C55.8772 15.7026 56.3108 15.2162 56.4899 14.5979C57.3669 15.5321 58.7896 15.9115 59.985 15.2682C61.0139 14.7143 61.5652 13.4656 61.4042 12.3329C62.0952 13.4994 63.3846 14.2873 64.783 13.6223C66.1031 12.9945 66.1866 11.5571 65.6903 10.3772C66.4877 10.5602 67.3643 10.3175 67.8143 9.53391C68.2799 8.72264 67.9917 7.66692 67.2981 7.11526C69.593 6.21702 70.7548 3.17315 68.9509 1.13394C67.2194 -0.823913 63.3863 -0.0602469 62.0472 2.00578C61.7028 1.11274 60.6159 0.521711 59.6726 0.822854C58.87 1.079 58.4343 1.7994 58.3781 2.56393C57.7957 2.19054 57.0299 2.11698 56.4194 2.54316C55.7647 3.0005 55.5891 3.85374 55.8482 4.54991C54.526 3.99998 52.7901 4.43742 51.9394 5.60046C51.0187 6.85954 51.242 8.70966 52.3167 9.77015C51.242 9.56679 50.1551 10.0808 50.0378 11.4018C49.9392 12.512 50.596 14.2133 51.6811 14.797C51.0589 15.4655 51.0853 16.7544 51.7452 17.3385C50.6077 17.3177 49.4697 17.3173 48.33 17.3519C48.1444 17.3576 47.929 17.5211 47.9536 17.7284C48.0501 18.553 48.1167 19.3794 48.2253 20.2024C48.2396 20.3106 48.3006 20.3781 48.3738 20.4062C48.395 20.4689 48.4443 20.5204 48.5373 20.533C48.9639 20.5914 49.4005 20.6346 49.8345 20.6818C49.7436 22.8261 49.9245 25.0557 50.1932 27.1914C45.9378 21.8167 41.8425 16.294 37.4037 11.085C37.2661 10.9237 37.0502 10.9834 36.9329 11.1188C36.7512 11.0383 36.5202 11.0621 36.3826 11.2759C32.0528 17.9836 27.1281 24.2652 22.2691 30.5914C19.9128 33.6595 17.5733 36.7423 15.3346 39.8978C13.0004 43.1883 10.4242 46.5831 8.77051 50.2777C8.6658 50.5109 8.81596 50.7065 8.99984 50.735C9.15344 51.7847 10.0776 52.5527 11.1571 52.5864C11.248 52.5895 11.3181 52.5635 11.3787 52.528C11.5327 52.6596 11.7962 52.6777 11.9563 52.4631C12.7191 51.4416 13.462 50.4036 14.198 49.36C14.0816 52.9871 14.1487 56.6441 14.3114 60.3041C13.9401 60.3006 13.6044 60.5156 13.4192 60.8254C13.0562 60.4083 12.4448 60.2219 11.8663 60.4135C10.9002 60.7341 10.5882 61.6367 10.6405 62.5345C9.99759 62.069 9.11405 61.9552 8.41009 62.4398C7.42835 63.116 7.40412 64.5253 8.16217 65.3595C8.28808 65.4979 8.5399 65.3114 8.42567 65.1561C7.11726 63.3778 9.80591 61.5472 10.8482 63.5305C10.9798 63.7811 11.4055 63.6088 11.3108 63.3354C11.1122 62.7612 10.9759 62.1057 11.3112 61.5324C11.7793 60.7311 12.9324 60.7316 13.2773 61.6562C13.3638 61.8881 13.7601 61.8786 13.7415 61.593C13.7355 61.5035 13.7147 61.4212 13.6931 61.339C13.7303 61.1448 13.873 60.97 14.053 60.8865C14.1482 60.8423 14.2413 60.8505 14.3356 60.8406C14.5584 65.5823 14.9353 70.3266 15.2823 75.0133C14.8665 75.5485 14.3031 76.082 13.5931 76.1153C13.028 76.1422 12.5625 75.8194 12.3513 75.327C12.6295 75.2881 12.8939 75.1652 13.0882 74.9406C13.218 74.7901 13.0254 74.6079 12.874 74.7265C12.4638 75.0492 11.9195 75.1223 11.4752 74.8286C11.3229 74.7277 11.1965 74.9636 11.335 75.0683C11.476 75.1751 11.64 75.2413 11.8088 75.2855C11.6353 75.6511 11.457 76.0154 11.187 76.3213C10.5441 77.0503 8.73373 77.4471 8.9981 75.9064C9.02622 75.7419 8.85402 75.6398 8.72422 75.7471C8.11328 76.2512 6.90914 77.1784 6.28133 75.8034C6.15672 75.5308 6.17229 75.1423 6.17792 74.8091C6.38603 74.8385 6.60281 74.8104 6.77372 74.7191C6.94506 74.6274 6.82738 74.3583 6.64263 74.4084C6.47864 74.453 6.30469 74.4405 6.15325 74.3604C6.00355 74.2804 5.9179 74.1358 5.80194 74.0173C5.68728 73.9 5.44367 73.9818 5.45882 74.1597C5.47266 74.3241 5.54882 74.4534 5.6544 74.5564C4.63112 75.2673 2.82728 75.3352 1.81612 74.6001C0.283579 73.4855 1.62489 71.9205 2.33837 70.825C2.41539 70.7065 2.26306 70.5585 2.14538 70.632C2.07788 70.674 2.013 70.722 1.94853 70.7705C1.09875 70.7644 0.11052 69.3197 0.762129 68.6807C1.3298 68.1243 2.14624 68.2692 2.83722 68.4769C2.78098 68.5673 2.73425 68.6595 2.69964 68.7456C2.62522 68.9321 2.93717 69.0636 3.02544 68.8832C3.08947 68.7521 3.16866 68.6374 3.27856 68.5405C3.38889 68.4431 3.52302 68.4012 3.64157 68.3207C3.83455 68.19 3.70993 67.9213 3.4884 67.9572C3.33524 67.9819 3.19678 68.0676 3.07693 68.1809C2.19557 67.5358 0.422042 67.6496 0.0490752 68.8118C-0.142167 69.408 0.261515 70.1812 0.639673 70.6234C0.901442 70.9297 1.22075 71.1114 1.5604 71.1158C0.552269 72.1598 0.114406 73.9325 1.32244 74.9757C2.52398 76.0132 4.70121 75.909 5.87073 74.864C5.78247 75.5572 5.85428 76.368 6.49984 76.751C7.22197 77.1793 7.98261 76.7579 8.58663 76.2858C8.57754 76.9686 9.14219 77.5605 9.89245 77.5864C10.9962 77.6241 11.6478 76.7077 12.0156 75.7779C12.2336 76.278 12.7927 76.6194 13.3435 76.6622C14.1859 76.7276 14.8401 76.1937 15.3217 75.5555C15.342 75.8311 15.3623 76.1071 15.3822 76.3823C15.4 76.6263 15.5908 76.7518 15.7825 76.7652C15.7972 76.9179 15.901 77.0534 16.0892 77.0313C23.864 76.111 31.9217 76.5099 39.7427 76.4338C47.0199 76.3628 54.2984 76.3931 61.5756 76.3364C61.3337 77.3359 61.8672 78.4829 62.9039 78.8252C63.6913 79.0852 65.088 78.6833 65.4995 77.8525C66.1948 78.6119 67.2081 78.6024 67.9091 77.875C68.5057 79.0835 70.0508 79.6135 71.3462 79.1506C71.965 78.929 72.4803 78.3601 72.6412 77.7604C73.2063 78.2571 74.0202 78.4704 74.7752 78.2177C75.544 77.9603 76.2411 77.1088 76.3203 76.2594C76.9425 76.718 77.8524 76.8336 78.491 76.3892C78.9566 76.0652 79.1604 75.2496 78.883 74.7611C80.5765 74.8576 81.9689 73.354 81.6954 71.6207ZM55.9841 34.2691C55.4471 33.6288 54.9163 32.9828 54.3823 32.3398C54.4118 32.3043 54.4282 32.2572 54.4156 32.1996C54.3066 31.6869 54.298 31.1885 54.2889 30.6719C54.6597 30.7026 55.027 30.7099 55.3775 30.6719C55.5544 31.8946 55.7608 33.1022 55.9841 34.2691ZM54.0037 31.8833C53.6135 31.4122 53.2197 30.9449 52.8316 30.4715C53.1847 30.5304 53.549 30.5896 53.9137 30.6338C53.8774 31.0461 53.9207 31.4723 54.0037 31.8833ZM52.5547 30.1353C52.5292 30.1042 52.5041 30.0722 52.4785 30.041C52.4785 30.038 52.4798 30.0354 52.4798 30.0324C52.4725 29.7256 52.4465 29.4201 52.4444 29.1129C52.4431 28.9295 52.4574 28.7421 52.4634 28.5561C53.282 28.6755 54.1071 28.7482 54.889 28.6768C54.9993 28.6668 55.0759 28.579 55.098 28.4847C55.1572 29.0467 55.2282 29.6066 55.3044 30.1648C54.4368 29.9943 53.4391 30.0869 52.5547 30.1353ZM52.0883 29.556C51.7577 29.1467 51.4267 28.7378 51.0983 28.3267C51.4107 28.3826 51.7283 28.4397 52.0476 28.492C52.0095 28.8338 52.0312 29.2068 52.0883 29.556ZM50.7426 27.885C50.695 27.8253 50.6466 27.766 50.5986 27.7063C50.602 27.6924 50.6072 27.6808 50.6081 27.6643C50.6297 27.2009 50.6444 26.7323 50.6548 26.2616C51.5383 26.3524 52.5365 26.5125 53.4927 26.542C53.4387 27.0495 53.4901 27.5618 53.613 28.0572C52.6603 27.9711 51.6859 27.9598 50.7426 27.885ZM53.7376 22.8075C54.1188 22.8283 54.4996 22.84 54.8782 22.8361C54.8574 23.2662 54.8496 23.701 54.8483 24.1376C54.4477 24.1172 54.0453 24.1138 53.642 24.1181C53.655 24.1004 53.6667 24.0805 53.6732 24.0562C53.7783 23.6573 53.8255 23.2168 53.7376 22.8075ZM54.8539 24.6408C54.8596 25.118 54.8786 25.5983 54.9037 26.0794C54.0461 25.8518 53.0432 25.8566 52.074 25.8955C52.055 25.655 52.0429 25.4144 52.0476 25.1721C52.0511 24.9865 52.0723 24.7987 52.0779 24.6122C53.0042 24.6559 53.9341 24.6875 54.8539 24.6408ZM53.9254 26.5476C54.2707 26.5415 54.6073 26.5147 54.9266 26.4541C54.9651 27.0824 55.0188 27.7128 55.0837 28.3419C55.0599 28.2965 55.0171 28.2597 54.9474 28.2454C54.6294 28.1792 54.3053 28.1316 53.9778 28.094C53.9081 27.5761 53.9124 27.0659 53.9254 26.5476ZM54.9063 22.345C53.925 22.2031 52.9181 22.152 51.9174 22.133C51.9723 21.8262 51.9931 21.5047 52.0087 21.1949C52.0255 20.8557 51.4648 20.8553 51.4817 21.1949C51.4972 21.5021 51.518 21.8206 51.5721 22.1256C51.2363 22.1217 50.9015 22.1204 50.5696 22.1209C50.535 21.6609 50.4934 21.2032 50.438 20.7506C51.817 20.8843 53.2176 20.96 54.6047 20.9903C54.6147 21.2971 54.735 21.5999 54.9435 21.8236C54.9288 21.9967 54.918 22.1711 54.9063 22.345ZM53.2067 22.7682C53.2647 23.1814 53.3292 23.5729 53.2742 24.0026C53.2677 24.0523 53.2825 24.0913 53.3067 24.1224C52.8783 24.1319 52.4491 24.1488 52.0212 24.1692C51.9559 24.0796 51.7928 24.0597 51.7439 24.1748C51.743 24.1769 51.7426 24.1791 51.7417 24.1813C51.3813 24.199 51.0217 24.2176 50.6635 24.2332C50.6531 23.6452 50.6349 23.0572 50.5973 22.4726C51.4561 22.5912 52.3314 22.7002 53.2067 22.7682ZM51.7547 25.9089C51.3783 25.9263 51.0096 25.9453 50.6609 25.9548C50.6687 25.4867 50.6726 25.0168 50.6674 24.5456C50.9906 24.5599 51.3151 24.5763 51.6404 24.5928C51.5885 25.0146 51.6638 25.4871 51.7547 25.9089ZM50.7478 12.1793C50.406 9.80433 51.897 10.211 52.8956 10.5918C52.8329 10.8337 52.8242 11.0855 52.8857 11.3373C52.935 11.5389 53.2773 11.5026 53.2561 11.2871C53.2353 11.0755 53.266 10.867 53.3474 10.6762C53.414 10.6338 53.4555 10.5542 53.4633 10.4676C53.4694 10.459 53.4733 10.449 53.4798 10.4404C53.6386 10.2292 53.951 10.1423 54.0284 9.88481C54.0513 9.80866 54.015 9.69183 53.9358 9.65765C53.6788 9.54775 53.4365 9.70957 53.2543 9.91682C52.0905 9.04541 51.5037 7.28616 52.402 6.00674C53.3495 4.65765 55.1633 4.73207 56.4142 5.54075C56.6647 5.70257 56.9321 5.34042 56.7283 5.13403C56.672 5.07692 56.6106 5.02716 56.5505 4.97611C56.1987 4.43829 56.0879 3.63351 56.624 3.14588C57.2869 2.54317 58.2608 2.98147 58.581 3.69279C58.7472 4.04715 59.2616 3.73822 59.1037 3.38732C58.742 2.61543 59.0838 1.59733 59.9699 1.41085C60.7604 1.2447 61.3086 1.69902 61.6214 2.36145C61.4756 2.38049 61.3393 2.41033 61.2299 2.4536C61.0875 2.50985 60.943 2.62192 61.0074 2.79196C61.0568 2.92176 61.1697 2.94598 61.2887 2.89536C61.3069 2.88757 61.3211 2.87027 61.3307 2.8508C61.5604 2.81921 61.8339 2.85469 62.0385 2.88801C62.325 2.93473 62.6122 3.11517 62.9004 3.08272C63.0462 3.06627 63.2046 2.89883 63.0921 2.74912C62.935 2.54014 62.6352 2.42245 62.3102 2.37139C63.3863 0.746694 66.2272 0.0924905 67.8917 1.15947C70.3212 2.71667 68.8908 5.82458 66.7642 6.82492C66.711 6.80761 66.6573 6.79031 66.6011 6.77819C66.4449 6.74444 66.3242 6.87944 66.3285 7.00924C66.1723 7.11568 66.2701 7.37052 66.4817 7.33937C66.537 7.33115 66.5894 7.31428 66.6439 7.30389C67.1778 7.65306 67.4612 8.08963 67.3505 8.77196C67.1813 9.81168 66.0464 10.205 65.1884 9.51443C64.9461 9.3193 64.5251 9.56809 64.7228 9.87356C65.4303 10.9652 65.7954 12.817 64.0024 13.1489C62.7183 13.3869 61.859 12.3312 61.3653 11.2945C61.4877 11.2162 61.6024 11.1292 61.6976 11.0223C61.8481 10.8536 61.6617 10.629 61.4639 10.7199C60.8733 10.9903 60.4021 11.2733 59.7358 11.3321C59.5095 11.352 59.5035 11.6787 59.7358 11.6886C60.0158 11.7003 60.3243 11.6735 60.6224 11.6038C60.9945 12.6786 60.9235 13.871 59.9149 14.5979C58.7541 15.4343 57.2008 14.8705 56.5427 13.6893C56.4038 13.4401 55.985 13.5452 55.9971 13.8369C56.0356 14.7632 55.5003 15.4321 54.5904 15.61C54.3256 15.6619 54.3551 16.0483 54.5904 16.1171L54.6013 17.4488C53.9155 17.4056 53.2292 17.3723 52.543 17.3515C52.53 17.3376 52.5149 17.3242 52.4941 17.3134C51.9161 17.0071 51.4276 15.0687 52.5595 15.0008C52.9562 14.977 52.9597 14.3569 52.5595 14.3799C51.6755 14.4292 50.8556 12.9282 50.7478 12.1793ZM48.6957 20.0401C48.7679 19.3868 48.7684 18.7529 48.7298 18.1022C51.3982 18.0628 54.0543 18.1762 56.7131 18.3994C56.6729 19.0294 56.6318 19.6542 56.6681 20.2863C54.0833 19.8986 51.2857 19.7887 48.6957 20.0401ZM11.4393 51.8678C11.3713 51.7964 11.2792 51.7432 11.1559 51.7341C10.4052 51.6795 9.73797 51.1054 9.51211 50.3919C9.50606 50.3729 9.49482 50.3586 9.48573 50.3426C11.7369 47.1931 13.6368 43.7858 15.8746 40.6186C18.1752 37.3632 20.5852 34.1873 23.0133 31.0266C27.861 24.7161 32.7745 18.4501 37.0969 11.7609C41.5453 18.3125 46.7698 24.4439 51.7633 30.5806C56.9883 37.0019 62.257 43.4323 67.8191 49.5664C67.9329 49.6918 68.0644 49.7264 68.186 49.7044C68.179 49.8584 68.1899 50.0142 68.1565 50.1708C68.1007 50.4326 67.9718 50.6783 67.8013 50.8839C67.5136 51.2313 67.1064 51.4385 66.6681 51.4991C66.666 51.4961 66.6651 51.4926 66.663 51.4896C62.267 45.33 57.2895 39.6053 52.3076 33.9186C49.7877 31.0427 47.2579 28.1749 44.7804 25.2621C42.2414 22.2766 39.9245 19.0359 37.225 16.1971C37.0156 15.9769 36.6885 16.1577 36.6586 16.4057C36.4985 16.3944 36.3311 16.4511 36.2112 16.6082C31.8386 22.3627 27.5616 28.1896 23.3928 34.0939C19.2997 39.8913 14.9721 45.703 11.4393 51.8678ZM39.3516 75.5312C35.1906 75.5728 31.0295 75.6268 26.8689 75.6926C23.3863 75.7476 19.5792 75.398 16.1875 76.3494C15.5021 67.0772 15.5094 57.7491 14.8098 48.4877C18.0073 43.8957 21.0191 39.1549 24.2395 34.5884C28.398 28.6928 32.6642 22.8746 37.026 17.1278C38.822 20.0073 41.1628 22.6063 43.3409 25.1859C45.808 28.1074 48.3339 30.9782 50.8551 33.8529C55.3069 38.9295 59.7029 44.0385 63.8038 49.3972C63.7285 49.4578 63.6753 49.5482 63.6701 49.6715C63.2933 58.168 63.102 66.9777 64.1097 75.4417C55.8603 75.3279 47.601 75.4486 39.3516 75.5312ZM78.6 74.4175C78.5711 74.4188 78.5468 74.4292 78.5252 74.4439C78.4538 74.4141 78.3772 74.3898 78.2881 74.3794C78.1237 74.36 78.0631 74.5845 78.1605 74.6871C78.6502 75.2041 78.6121 75.9306 77.8186 76.1357C77.2241 76.2893 76.6997 76.0266 76.2627 75.6593C76.2221 75.5256 76.1628 75.3954 76.0788 75.2721C75.9659 75.1059 75.702 75.1647 75.6964 75.3759C75.6717 76.2962 75.5514 77.3273 74.516 77.6613C73.8268 77.8841 73.1336 77.5942 72.6581 77.098C72.6174 76.9301 72.5413 76.7687 72.418 76.6229C72.7022 76.4784 73.0034 76.2525 73.0683 75.9483C73.105 75.7761 72.9246 75.6126 72.7606 75.7121C72.5041 75.8674 72.3474 76.1257 72.0688 76.2646C72.0493 76.2746 72.026 76.2811 72.0056 76.2902C72 76.2867 71.9961 76.2832 71.9901 76.2802C71.8741 76.2166 71.7629 76.2871 71.7313 76.3853C71.5262 76.4407 71.3086 76.4727 71.1152 76.477C70.9642 76.4805 70.9542 76.6739 71.0814 76.7254C71.3869 76.8492 71.6651 76.8691 71.9611 76.7972C72.0082 76.8617 72.0403 76.9214 72.0757 76.982C72.1078 77.0586 72.1437 77.133 72.1839 77.2044C72.6659 78.457 70.5895 78.8741 69.8496 78.7287C69.0522 78.5721 68.4313 78.1308 68.2206 77.3134C68.1648 77.0971 67.8783 77.0802 67.765 77.2537C67.0489 77.2909 66.3324 77.3277 65.6163 77.3649C65.6167 77.2849 65.6094 77.2031 65.5917 77.1183C65.5653 76.9911 65.3831 76.9452 65.2974 77.0404C65.0162 77.3528 64.8726 77.7383 64.5199 77.9966C64.1353 78.2783 63.6035 78.4146 63.1362 78.2891C62.2886 78.062 61.9083 77.146 62.0139 76.3312C62.7814 76.3248 63.549 76.3226 64.3165 76.3139C64.5913 76.3109 64.7293 76.1032 64.735 75.8916C64.7531 75.8514 64.7652 75.8051 64.7644 75.7489C64.7107 71.4896 64.5701 67.2464 64.4684 63.0022C65.1642 61.8526 67.122 62.0837 66.9766 63.7798C66.9507 64.08 67.4262 64.1367 67.4976 63.8503C67.8355 63.6945 68.173 63.5388 68.5109 63.383C68.8389 63.5864 69.0085 63.8706 69.0202 64.2362C69.1309 64.6944 69.0414 65.1245 68.9626 65.5788C68.7389 65.4867 68.5109 65.404 68.2682 65.3971C68.186 65.3949 68.1622 65.491 68.2067 65.5459C68.404 65.7887 68.6905 65.9367 68.957 66.0933C69.1933 66.2322 69.4546 66.4611 69.7371 66.3728C69.8306 66.3434 69.9084 66.2365 69.8717 66.1357C69.8059 65.9548 69.6627 65.8635 69.5 65.7939C69.5952 65.5801 69.8466 65.3396 70.0075 65.2357C70.2053 65.1085 70.4709 65.0298 70.6972 64.9584C71.2203 64.7935 71.8256 64.7299 72.2613 65.1284C72.8403 65.6576 72.8113 66.3927 72.7875 67.1062C72.7637 67.1888 72.7438 67.2749 72.7338 67.3671C72.7278 67.422 72.7485 67.464 72.781 67.4934C72.7896 67.6669 73.0592 67.7608 73.1384 67.5821C73.234 67.3675 73.2998 67.1317 73.3357 66.8877C73.4417 66.7838 73.5758 66.7103 73.7472 66.6774C74.2395 66.3408 74.5943 66.5753 74.812 67.3822C74.7921 67.6475 75.1923 67.6851 75.2641 67.4432C75.4804 66.7163 76.293 66.2304 76.9892 66.6778C77.5421 67.033 77.5988 67.5622 77.5569 68.1619C77.546 68.3185 77.755 68.3839 77.8532 68.2843C77.8628 68.2804 77.8723 68.2774 77.8814 68.2714C78.2794 67.9871 78.838 67.8582 79.1777 68.3306C79.4381 68.6928 79.2923 69.1488 79.0193 69.4781C78.8181 69.5369 78.6204 69.6399 78.4335 69.8095C78.4014 69.8385 78.385 69.8714 78.3755 69.9047C78.2505 69.6962 78.0791 69.5253 77.8481 69.4456C77.7243 69.4032 77.6187 69.556 77.6819 69.662C77.7953 69.8524 77.9567 70.0103 78.0739 70.1994C78.2067 70.4131 78.2911 70.6429 78.3188 70.8934C78.3409 71.0924 78.6398 71.1041 78.6377 70.8934C78.6359 70.6615 78.5897 70.3967 78.4958 70.1535C78.5408 70.1773 78.5927 70.1881 78.6468 70.1769C78.6818 70.1903 78.7208 70.1955 78.7645 70.1795C78.793 70.1691 78.8207 70.1557 78.8488 70.1435C80.0525 69.98 81.1316 70.6381 81.1169 72.0352C81.1035 73.4764 79.9552 74.3647 78.6 74.4175Z" fill="#FD1E1F"/>
<path d="M53.6354 54.0586C53.4883 50.4163 53.5026 46.6685 52.9743 43.0608C52.9536 42.9176 52.8294 42.8674 52.7117 42.8869C52.6377 42.8583 52.5507 42.8592 52.4599 42.912C50.6361 43.9686 48.7544 44.9291 46.942 46.0017C46.9121 46.0195 46.8892 46.042 46.8706 46.0671C46.8398 46.0545 46.8065 46.0454 46.7667 46.0446C43.6467 45.9909 40.5202 46.0822 37.4019 46.1891C34.7669 46.2795 31.7693 46.0389 29.1733 46.643C27.6442 45.4907 25.7971 44.2429 24.0015 43.6121C23.8349 43.5537 23.6921 43.7267 23.7146 43.8773C23.6381 43.8933 23.5679 43.9513 23.5563 44.0538C22.7 51.5062 23.3131 59.3303 23.9405 66.7832C23.9664 67.0921 24.2806 67.2016 24.5138 67.0207C26.2774 65.6513 27.9696 64.2061 29.5999 62.681C29.7942 62.7355 30.0304 62.6368 30.0213 62.3764C29.8461 57.3136 29.8405 52.1483 29.307 47.1081C31.9355 47.372 34.7773 46.8623 37.4023 46.7832C40.5236 46.6884 43.6454 46.688 46.7672 46.6252C46.7862 46.6248 46.8005 46.6174 46.8173 46.614C46.7866 51.5599 47.1799 56.5158 47.2379 61.4634C47.2383 61.5153 47.2505 61.5595 47.2673 61.5993C44.4623 61.7226 41.672 62.0999 38.8596 62.1942C37.6113 62.2362 36.363 62.2487 35.1143 62.2522C35.2255 61.8329 35.3251 61.4106 35.3869 60.981C35.4466 60.5673 35.544 60.1277 35.4592 59.7167C35.5721 59.6769 35.6033 59.5354 35.5604 59.4303C35.5704 59.4233 35.5812 59.4207 35.5911 59.4125C35.9455 59.1131 35.9005 58.5974 35.5505 58.2962C35.0166 57.8372 33.9686 58.0587 33.3001 58.1145C33.2482 57.8441 33.2196 57.5719 33.2248 57.2959C33.2266 57.1873 33.2335 57.0813 33.2374 56.9753C33.2482 56.977 33.2573 56.9826 33.2681 56.9839C33.6164 57.0267 33.9059 56.7784 34.0184 56.4703C34.2849 56.5049 34.5726 56.4522 34.7652 56.3172C35.0507 56.1177 35.2061 55.7538 35.1585 55.4098C35.1018 54.9992 34.7496 54.7504 34.3801 54.724C34.5168 54.31 34.4463 53.831 34.1006 53.5364C33.7752 53.2594 33.2577 53.2045 32.9427 53.5268C32.8752 53.5965 32.8238 53.6774 32.7874 53.7644C32.485 53.5753 32.1003 53.5723 31.7879 53.7618C31.4574 53.9621 31.2644 54.3628 31.4271 54.7344C31.4924 54.8841 31.6058 55.0031 31.7408 55.0827C31.659 55.1437 31.5867 55.213 31.5344 55.2813C31.3012 55.5838 31.2631 56.0381 31.5257 56.3366C31.8152 56.6655 32.3006 56.6278 32.6156 56.3825C32.6208 56.4011 32.6221 56.4219 32.6282 56.4396C32.6628 56.537 32.7186 56.6231 32.7831 56.7014C32.668 57.1553 32.7835 57.6818 32.9176 58.1266C32.2353 58.1149 31.0684 58.0141 30.6928 58.5061C30.4812 58.783 30.5211 59.1287 30.7828 59.31C30.7253 59.4047 30.7707 59.5562 30.9183 59.5696C30.9511 59.5726 30.9849 59.5765 31.0178 59.5795C31.2739 60.4847 31.5426 61.376 31.8758 62.2539C31.3397 62.2543 30.8032 62.2548 30.2671 62.2595C29.9443 62.2626 29.9564 62.7229 30.2671 62.7528C35.8343 63.2867 41.9986 63.2434 47.5079 62.1938C47.5672 62.1825 47.61 62.1535 47.6442 62.1185C49.403 63.5264 51.3648 64.9019 53.2863 66.0554C53.4217 66.1367 53.568 66.0809 53.6528 65.9779C53.7177 65.9455 53.7696 65.8832 53.7748 65.7858C53.9928 61.8896 53.7929 57.9548 53.6354 54.0586ZM29.3381 62.0847C29.3048 62.099 29.2715 62.1159 29.2408 62.1444C27.7385 63.5411 26.1813 64.8673 24.567 66.1302C24.0045 58.786 24.2377 51.4755 23.9405 44.1296C25.2792 45.2593 27.0575 46.1774 28.677 46.9013C28.68 46.9571 28.7038 47.0103 28.7618 47.0306C28.6554 52.0241 29.0772 57.096 29.3381 62.0847ZM32.8069 55.7175C32.8047 55.7188 32.8038 55.7209 32.8017 55.7227C32.7554 55.7222 32.7104 55.7421 32.703 55.7971C32.7017 55.8066 32.6965 55.8144 32.6944 55.8235C32.6567 55.8706 32.6308 55.9243 32.6135 55.9836C32.446 56.1791 32.0891 56.2267 31.9017 56.026C31.7732 55.8884 31.8334 55.685 31.9259 55.5453C32.0627 55.3385 32.247 55.3579 32.4477 55.2636C32.539 55.2208 32.5512 55.078 32.4802 55.0131C32.4703 55.004 32.4586 55.0001 32.4482 54.9923C32.4326 54.9434 32.3867 54.9049 32.3162 54.9188C32.3084 54.9205 32.3015 54.9196 32.2937 54.9205C32.2375 54.9084 32.1799 54.9045 32.1215 54.9131C31.7447 54.8084 31.7382 54.1378 32.2466 54.0763C32.6446 54.0283 32.7589 54.3476 32.8631 54.6475C32.6805 54.7652 32.552 54.9958 32.5624 55.2169C32.5706 55.4124 32.6671 55.5898 32.8069 55.7175ZM34.2222 55.0442C34.4848 55.039 34.75 55.1987 34.7305 55.4968C34.7197 55.663 34.6189 55.8378 34.461 55.9031C34.2987 55.9706 34.1365 55.9096 33.9742 55.8607C33.966 55.8473 33.9634 55.8317 33.9539 55.8183C33.8916 55.7296 33.7912 55.7508 33.7484 55.817C33.7228 55.8157 33.6973 55.8153 33.6718 55.8183C33.4671 55.8447 33.3473 56.0653 33.5004 56.2324C33.5463 56.2821 33.6026 56.3215 33.6627 56.3561C33.5762 56.4673 33.4442 56.5365 33.301 56.492C33.0241 56.4054 33.0595 56.0965 33.0686 55.8719C33.1924 55.913 33.3265 55.9226 33.4606 55.8802C33.7302 55.7945 33.9331 55.5457 33.976 55.2744C34.075 55.2212 34.1564 55.1373 34.2222 55.0442ZM33.192 53.8245C33.3438 53.6848 33.5727 53.7103 33.7393 53.812C33.9366 53.9323 34.0227 54.1486 34.0041 54.3736C33.9959 54.474 33.9457 54.6825 33.8514 54.7954C33.7172 54.6271 33.4918 54.5203 33.2746 54.5294C33.259 54.3563 33.1785 54.1845 33.073 54.04C33.0946 53.9582 33.1314 53.8803 33.192 53.8245ZM33.0323 54.9452C33.0942 54.962 33.169 54.94 33.2028 54.8837C33.2101 54.8712 33.2132 54.8577 33.2192 54.8452C33.246 54.8417 33.2746 54.8396 33.3062 54.8413C33.3728 54.8582 33.4317 54.895 33.4827 54.9443C33.4611 54.9724 33.4459 55.0053 33.4507 55.0451C33.4624 55.1399 33.5 55.216 33.5589 55.2662C33.5286 55.3449 33.4706 55.4159 33.3918 55.4574C33.0751 55.6253 32.8631 55.1615 33.0323 54.9452ZM31.0416 59.1724C30.534 58.7523 32.1938 58.6809 32.1998 58.6804C32.5256 58.6666 32.8519 58.6523 33.1777 58.638C33.5035 58.6238 33.8297 58.6069 34.1555 58.5913C34.2879 58.5853 35.727 58.5208 35.2597 59.0811C35.2061 59.1451 35.1922 59.2139 35.2022 59.2762C33.8816 59.0538 32.4119 59.1715 31.0792 59.2273C31.0727 59.2083 31.0628 59.1897 31.0416 59.1724ZM34.8694 60.7932C34.8136 61.2813 34.7491 61.7676 34.6765 62.253C33.8639 62.2539 33.0518 62.253 32.2392 62.253C32.0748 61.3682 31.8494 60.5042 31.6066 59.6375C32.7221 59.7505 33.9002 59.8712 35.0018 59.7742C34.9101 60.1022 34.9092 60.4475 34.8694 60.7932ZM47.8765 61.6711C47.9176 61.6183 47.9436 61.5499 47.9427 61.4634C47.9293 60.0711 47.9202 58.6709 47.9012 57.2691C47.9055 57.2704 47.9064 57.2751 47.9107 57.276C49.3667 57.6039 50.9148 57.9786 52.404 58.0898C52.6204 58.1058 52.6602 57.7684 52.4547 57.7151C51.0108 57.3417 49.4255 57.202 47.9419 57.0441C47.9233 57.0419 47.912 57.0527 47.8977 57.0588C47.8475 53.5061 47.7242 49.9391 47.26 46.4374C49.0815 45.6699 50.8135 44.6682 52.4893 43.6216C52.4975 47.2202 52.9012 50.8525 53.018 54.4497C53.1357 58.0669 53.095 61.6975 53.2949 65.3112C51.6789 63.9318 49.7526 62.6347 47.8765 61.6711Z" fill="#FD1E1F"/>
<path d="M28.4337 61.3392C27.2794 62.2742 26.1466 63.2408 25.0831 64.277C24.9818 64.3761 25.119 64.5674 25.2389 64.4791C26.4456 63.5882 27.5952 62.6182 28.7154 61.6208C28.9093 61.4478 28.6289 61.1812 28.4337 61.3392Z" fill="#FD1E1F"/>
<path d="M28.5175 60.6003C27.3986 61.2038 26.3069 61.8732 25.2205 62.533C25.1032 62.604 25.1807 62.8203 25.3178 62.7641C26.5168 62.2734 27.6707 61.6248 28.6654 60.7924C28.7753 60.7002 28.6351 60.5366 28.5175 60.6003Z" fill="#FD1E1F"/>
<path d="M28.3863 59.7362C27.1934 60.0123 26.0192 60.4337 24.8639 60.8352C24.6991 60.8923 24.7639 61.1429 24.9366 61.0992C26.1221 60.7976 27.3327 60.5025 28.4802 60.0759C28.69 59.998 28.6104 59.6843 28.3863 59.7362Z" fill="#FD1E1F"/>
<path d="M28.2211 58.3146C27.0036 58.7507 25.7454 59.0804 24.4655 59.2682C24.3197 59.2894 24.3547 59.5308 24.5001 59.5243C25.8323 59.4681 27.0945 59.2396 28.3531 58.794C28.6534 58.688 28.5231 58.2064 28.2211 58.3146Z" fill="#FD1E1F"/>
<path d="M28.1894 56.7731C27.6443 56.8242 27.1709 57.1539 26.6474 57.3127C25.991 57.5117 25.3095 57.6307 24.6246 57.6636C24.5208 57.6688 24.5264 57.8085 24.6246 57.8211C25.6881 57.9561 27.546 57.9483 28.292 57.0211C28.3612 56.9345 28.3279 56.7602 28.1894 56.7731Z" fill="#FD1E1F"/>
<path d="M28.424 55.7741C27.8222 55.7226 27.1974 55.8757 26.5973 55.9368C25.9859 55.9991 25.3693 56.0237 24.7597 56.0999C24.5914 56.1206 24.5871 56.3478 24.7597 56.3651C25.8686 56.475 27.4215 56.5139 28.4677 56.0955C28.6386 56.0272 28.6144 55.7901 28.424 55.7741Z" fill="#FD1E1F"/>
<path d="M28.2989 54.3542C27.0917 54.3127 25.8313 54.4511 24.6302 54.5757C24.4944 54.5896 24.4892 54.7851 24.6302 54.7912C25.8339 54.8431 27.0986 54.9037 28.2989 54.7895C28.5736 54.7631 28.5836 54.3641 28.2989 54.3542Z" fill="#FD1E1F"/>
<path d="M28.2964 53.1232C27.0762 53.0302 25.8561 53.0484 24.6346 52.9177C24.4953 52.9026 24.4659 53.1319 24.6017 53.1622C25.7842 53.4252 27.0827 53.658 28.2968 53.5793C28.5906 53.5602 28.5888 53.1457 28.2964 53.1232Z" fill="#FD1E1F"/>
<path d="M27.9428 51.9177C27.3289 51.6663 26.5873 51.6417 25.9322 51.5409C25.4169 51.4617 24.8622 51.2769 24.3572 51.4405C24.2724 51.4677 24.2668 51.5694 24.3339 51.6183C24.8025 51.9614 25.5082 51.9593 26.0719 52.0549C26.6656 52.1557 27.2882 52.337 27.8913 52.2959C28.1176 52.2807 28.1414 51.9991 27.9428 51.9177Z" fill="#FD1E1F"/>
<path d="M28.0319 50.6755C26.8152 50.5453 25.6119 50.3731 24.4018 50.1948C24.2711 50.1753 24.2109 50.3601 24.3455 50.3986C25.5419 50.74 26.7949 50.9576 28.0319 51.0857C28.2945 51.1129 28.2919 50.7032 28.0319 50.6755Z" fill="#FD1E1F"/>
<path d="M28.2075 49.6544C27.6303 49.4502 26.9709 49.4243 26.3677 49.3018C25.7529 49.1768 25.1472 49.0188 24.5401 48.8614C24.3199 48.8042 24.2403 49.1201 24.4475 49.1971C25.5305 49.5995 26.9942 50.101 28.1651 49.9681C28.3416 49.9478 28.3849 49.7172 28.2075 49.6544Z" fill="#FD1E1F"/>
<path d="M28.1058 48.5624C27.5542 48.3297 26.9385 48.2652 26.3574 48.1207C25.7006 47.9571 25.0555 47.7551 24.4099 47.5517C24.2078 47.4881 24.1339 47.7901 24.3238 47.8637C25.4219 48.2881 26.8264 48.8895 28.0167 48.8908C28.1785 48.8908 28.2741 48.6334 28.1058 48.5624Z" fill="#FD1E1F"/>
<path d="M28.0998 47.3355C26.993 47.0149 25.9776 46.7034 24.9513 46.1591C24.7332 46.0436 24.5545 46.3534 24.7587 46.4884C25.6972 47.1088 26.8507 47.6427 27.9731 47.7955C28.2673 47.8353 28.404 47.4238 28.0998 47.3355Z" fill="#FD1E1F"/>
<path d="M52.38 62.8524C52.0235 62.2747 51.2836 61.8944 50.7337 61.5158C50.1184 61.0927 49.4638 60.5726 48.7438 60.3532C48.6651 60.3294 48.6166 60.4289 48.6672 60.4848C49.1514 61.0165 49.8341 61.3908 50.4118 61.8161C50.9768 62.2323 51.5359 62.8537 52.2074 63.0774C52.3341 63.1198 52.4484 62.9631 52.38 62.8524Z" fill="#FD1E1F"/>
<path d="M52.7644 61.0155C51.6005 60.2751 50.0546 59.8455 48.7609 59.376C48.5904 59.3142 48.4697 59.5941 48.6363 59.6716C49.8759 60.2488 51.2903 61.0419 52.629 61.3374C52.8233 61.3802 52.9358 61.1245 52.7644 61.0155Z" fill="#FD1E1F"/>
<path d="M52.4002 59.1379C50.9992 58.9981 49.6869 58.6857 48.3793 58.1643C48.1976 58.0916 48.0665 58.3993 48.2452 58.4824C49.5562 59.092 50.9576 59.478 52.4002 59.5978C52.6966 59.6229 52.6914 59.1668 52.4002 59.1379Z" fill="#FD1E1F"/>
<path d="M52.4457 56.1483C51.8256 56.0263 51.1948 56.0765 50.5648 56.0475C49.7466 56.0099 48.9284 55.9199 48.1172 55.8091C47.9489 55.7862 47.8679 56.0307 48.0445 56.0731C49.378 56.392 51.0883 56.7783 52.4457 56.4642C52.5984 56.4287 52.6049 56.1795 52.4457 56.1483Z" fill="#FD1E1F"/>
<path d="M52.4397 54.4933C51.8383 54.3557 51.1979 54.4578 50.5835 54.466C49.8774 54.4755 49.1722 54.46 48.466 54.4526C48.3328 54.4513 48.2938 54.6733 48.4336 54.6927C49.096 54.7862 49.7636 54.8442 50.4321 54.8714C51.0915 54.8983 51.8054 54.9865 52.4397 54.781C52.5725 54.7377 52.5903 54.5279 52.4397 54.4933Z" fill="#FD1E1F"/>
<path d="M52.1925 52.9761C51.6179 52.8943 51.0265 53.0107 50.4462 53.0289C49.786 53.0496 49.124 53.0401 48.4642 53.0137C48.3248 53.0081 48.2876 53.2409 48.4304 53.2621C49.564 53.4317 51.0849 53.6917 52.1925 53.3201C52.3418 53.2694 52.3812 53.0029 52.1925 52.9761Z" fill="#FD1E1F"/>
<path d="M52.0056 51.4327C51.4215 51.3829 50.8253 51.537 50.2369 51.5564C49.6489 51.5759 49.0474 51.498 48.4642 51.5595C48.3318 51.5733 48.3093 51.7382 48.4335 51.7875C49.0318 52.0237 49.7362 52.0367 50.3736 52.0324C50.9581 52.0285 51.5634 52.0307 52.1039 51.7957C52.2994 51.7113 52.1752 51.4474 52.0056 51.4327Z" fill="#FD1E1F"/>
<path d="M51.7422 50.063C50.5636 50.0483 49.324 50.3641 48.1614 50.5415C47.9732 50.5701 48.016 50.8903 48.2064 50.8756C49.3811 50.7847 50.6588 50.8089 51.8045 50.5273C52.0672 50.4628 52.0066 50.0665 51.7422 50.063Z" fill="#FD1E1F"/>
<path d="M51.8018 48.486C51.2566 48.5895 50.7296 48.7734 50.1832 48.8772C49.5696 48.994 48.9596 49.0295 48.3395 49.0818C48.0721 49.1043 48.0687 49.4821 48.3395 49.5007C49.513 49.5807 50.9222 49.4466 52.006 48.9711C52.2977 48.843 52.077 48.4337 51.8018 48.486Z" fill="#FD1E1F"/>
<path d="M51.8361 46.8751C51.2649 47.0568 50.75 47.3779 50.1754 47.5644C49.5316 47.7729 48.8796 47.8742 48.2085 47.9529C47.9995 47.9772 47.9866 48.2848 48.2085 48.2887C49.4434 48.3099 51.0685 48.0408 52.0455 47.236C52.2138 47.0967 52.0334 46.8124 51.8361 46.8751Z" fill="#FD1E1F"/>
<path d="M51.6727 45.349C50.385 45.6929 49.0515 46.3082 47.8379 46.8625C47.625 46.9598 47.776 47.3034 47.9958 47.2376C49.2757 46.8542 50.681 46.4333 51.8799 45.8418C52.1586 45.7042 51.9617 45.2719 51.6727 45.349Z" fill="#FD1E1F"/>
</svg>
