<svg width="66" height="64" viewBox="0 0 66 64" fill="none" xmlns="http://www.w3.org/2000/svg">
<path d="M44.1043 41.3358C43.9374 42.1233 43.1701 43.4648 42.671 44.1492C42.6622 44.1619 42.6533 44.1746 42.6445 44.1872C42.5294 44.3502 42.4204 44.5089 42.2911 44.6896C41.976 45.1143 41.5683 45.7194 40.4527 46.7397C40.1467 47.0543 39.825 47.3561 39.4896 47.6412C37.2588 49.5638 34.2495 50.7744 31.2211 50.6853C29.3694 50.6475 27.5418 50.1489 25.9429 49.3035C25.8886 49.2778 25.8336 49.2512 25.7781 49.224C24.6989 48.709 23.4952 47.8479 22.8568 47.1926C22.0382 46.3663 21.5839 45.7309 21.2252 45.2043C19.0462 42.2882 17.8974 38.7928 17.5782 35.2944C17.513 34.575 17.4829 33.8599 17.486 33.1383C17.4877 32.7523 17.4987 32.3751 17.5196 31.9894C17.5746 30.9766 17.6983 29.9667 17.8942 28.9683C17.9833 28.3798 18.0872 27.8229 18.2031 27.3103C18.367 26.586 18.5541 25.952 18.7495 25.4376C19.2111 24.1991 19.9943 22.898 20.6712 22.0093C20.7809 21.8632 20.8861 21.7281 20.9862 21.6024C21.5006 20.8792 22.0757 20.1926 22.7141 19.5587C22.7656 19.5261 22.8179 19.4939 22.8718 19.4612C23.5433 19.0648 24.2417 18.4435 25.5302 17.706C26.0921 17.3908 26.7709 17.0616 27.6148 16.7912C28.1595 16.6196 28.4625 16.6147 28.7041 16.6094C28.7755 16.6083 28.8423 16.6078 28.9093 16.6052C29.1393 16.5962 29.3633 16.5123 29.6378 16.4232C29.9913 16.3089 30.434 16.1832 31.0228 16.2415C31.0903 16.2483 31.1564 16.2552 31.2211 16.2622C32.9391 16.4747 33.6937 16.5844 34.3105 16.626C34.4958 16.6438 34.6641 16.6643 34.8315 16.7021C35.3772 16.8212 36.0915 17.1798 36.5779 17.521C36.9677 17.7826 37.7933 18.2121 38.4013 18.584C38.6322 18.7219 38.9197 18.9463 39.2401 19.2254C39.573 19.5152 39.9423 19.8654 40.3359 20.2411C41.3262 21.2001 41.7606 21.7963 42.1167 22.2658C42.2163 22.4005 42.3069 22.5271 42.3966 22.6554C42.6808 23.061 43.0019 23.5815 43.2965 24.1274C43.65 24.7782 43.9631 25.4654 44.192 25.99C44.6685 27.3973 44.9716 28.8493 45.1204 30.3091C45.1975 31.0594 45.1137 31.7913 44.9108 32.323C44.7077 32.8514 44.4128 33.139 44.1128 33.1383C43.8113 33.1381 43.5251 32.8556 43.2848 32.3855C43.0445 31.91 42.8644 31.2837 42.7515 30.6262C42.5259 29.3002 42.1567 28.0064 41.6545 26.7788C41.0423 25.2824 40.2328 23.8831 39.2444 22.6477C38.5515 21.7822 37.7666 21.0058 36.8929 20.3536C36.8031 20.2865 36.7125 20.2209 36.6213 20.1568C35.8262 19.6991 34.9906 19.3729 34.4007 19.1805C33.9138 19.0198 33.5664 18.8857 33.262 18.7792C33.0527 18.7067 32.8637 18.6492 32.668 18.6206C32.563 18.6053 32.4175 18.5882 32.244 18.574C31.967 18.551 31.6153 18.5356 31.2211 18.5417C30.6033 18.5494 29.8952 18.6189 29.225 18.7273C28.7383 18.8034 28.1677 18.9148 27.6287 19.0756C26.8571 19.3005 26.1565 19.6313 25.8498 19.865C25.3082 20.2708 24.6795 20.7287 24.1561 21.1882C23.655 21.6245 23.2526 22.0512 23.081 22.34C22.877 22.685 22.6528 22.9366 22.3375 23.3312C22.1191 23.6071 21.8574 23.9525 21.5593 24.4592C21.2165 25.0462 20.9764 25.4659 20.777 25.8304C20.5015 26.3407 20.3055 26.742 20.1676 27.3841C20.0149 28.0995 19.8811 28.8376 19.7408 29.4178C19.6768 29.6792 19.6239 29.9894 19.5792 30.3065C19.519 30.7305 19.4722 31.1751 19.4115 31.585C19.3617 31.9186 19.289 32.1983 19.2284 32.4455C19.2095 32.5225 19.192 32.5967 19.1767 32.6689C19.1734 32.8248 19.1721 32.9813 19.1728 33.1383C19.1733 33.2556 19.175 33.3725 19.1778 33.4891C19.188 33.5331 19.1994 33.5792 19.2113 33.6272C19.2713 33.867 19.3489 34.1633 19.4079 34.5249C19.5021 35.0988 19.5294 35.6051 19.579 36.1394C19.6186 36.557 19.6722 36.9896 19.7965 37.4734C19.8809 37.8015 20.0035 38.1709 20.137 38.5295C20.3345 39.0633 20.5585 39.5734 20.6835 39.9416C20.73 40.0796 20.7442 40.2086 20.7594 40.3366C20.7594 40.3371 20.7594 40.3377 20.7594 40.3383C20.7605 40.347 20.7616 40.3557 20.7626 40.3644C21.1637 41.2238 21.6388 42.0438 22.1845 42.8066C22.2375 42.8693 22.2912 42.9322 22.3448 42.9938C22.605 43.294 22.8735 43.574 23.0754 43.7268C23.2956 43.8966 23.7529 44.3862 24.284 44.8416C24.6293 45.1405 25.0043 45.4255 25.3266 45.6282C25.514 45.7464 25.6615 45.9012 25.8171 46.0556C25.9626 46.1998 26.1182 46.3456 26.3168 46.4548C26.4167 46.5098 26.5309 46.5583 26.6528 46.6071C26.7602 46.6501 26.8736 46.6933 26.9907 46.7424C27.0995 46.788 27.3221 46.9237 27.6206 47.0786C27.8046 47.1743 28.0173 47.2768 28.2463 47.3709C28.8718 47.5599 29.5113 47.683 30.1545 47.738C30.2917 47.7209 30.4115 47.6888 30.5068 47.641C30.5752 47.6068 30.6342 47.5633 30.693 47.5184C30.7731 47.4572 30.8544 47.3931 30.963 47.3422C31.0478 47.3023 31.1459 47.2867 31.2122 47.3043C31.2152 47.3051 31.2182 47.306 31.2211 47.3069C31.2477 47.3155 31.269 47.3293 31.2886 47.3417C31.3134 47.3576 31.3358 47.3716 31.3628 47.3707C31.3822 47.3701 31.4023 47.3583 31.4267 47.344C31.4658 47.3211 31.5161 47.2914 31.5936 47.2871C31.8819 47.2711 32.2098 47.2498 32.5309 47.2089C32.8865 47.1644 33.2333 47.0952 33.5018 47.0122C33.8025 46.9207 34.2426 46.8212 34.6793 46.6793C34.9844 46.5812 35.2865 46.4644 35.5363 46.3416C35.7813 46.2215 36.0145 46.0543 36.2325 45.8837C36.4947 45.679 36.7359 45.4692 36.9718 45.3302C37.0197 45.302 37.1017 45.2952 37.2053 45.2843C37.2786 45.2767 37.3636 45.2663 37.4533 45.2461C37.7236 45.0163 37.9865 44.7739 38.2408 44.5204C38.2452 44.5071 38.2499 44.4933 38.2544 44.4795C38.2544 44.4792 38.2545 44.4789 38.2545 44.4787C38.3568 44.1649 38.4755 43.7497 38.9178 43.3892C39.0302 43.2973 39.1289 43.2604 39.2185 43.226C39.3063 43.1921 39.3852 43.1607 39.4557 43.0805C39.536 42.9891 39.5935 42.857 39.6545 42.7109C39.7405 42.5051 39.8288 42.2769 39.9978 42.0956C40.0093 42.0832 40.0218 42.0698 40.0347 42.0558C40.1573 41.922 40.3329 41.7252 40.5499 41.5421C40.9522 40.8697 41.3094 40.1638 41.619 39.4324C42.1349 38.2138 42.5179 36.9256 42.7581 35.6008C42.8758 34.9576 43.0576 34.3431 43.2965 33.8769C43.5355 33.4156 43.817 33.1385 44.1128 33.1383C44.4071 33.1376 44.6967 33.4196 44.9001 33.9374C45.103 34.458 45.1925 35.1752 45.1279 35.9114C45.0233 37.1119 44.8142 38.3108 44.4906 39.4863C44.477 39.549 44.463 39.6118 44.4483 39.674C44.3386 40.1391 44.2637 40.581 44.1709 41.0288C44.1497 41.1311 44.1277 41.2335 44.1043 41.3358Z" fill="#FD1E1F"/>
<path d="M33.7988 10.3952C33.7215 10.2846 33.8072 10.1414 33.8534 10.0604C33.8542 10.0589 33.855 10.0574 33.8559 10.0559C33.8669 10.0365 33.8735 10.0173 33.8811 9.99491C33.8991 9.94095 33.9238 9.86868 34.0274 9.72822C34.0358 9.68242 34.0454 9.63608 34.0558 9.59069C34.1552 9.15719 34.3021 8.73466 34.4339 8.32359L34.429 8.39045C34.4435 8.33153 34.458 8.26981 34.4722 8.20987C34.4719 8.20338 34.4715 8.19678 34.4711 8.19009C34.4637 8.06084 34.452 7.89956 34.4909 7.79737C34.5405 7.66688 34.5854 7.57728 34.6241 7.50345C34.7047 7.0804 34.7655 6.64484 34.778 6.21137C34.7819 6.07513 34.781 5.93916 34.7743 5.80245C34.7682 5.67752 34.7585 5.5515 34.7457 5.42635C34.7187 5.35314 34.6878 5.28676 34.6589 5.22292C34.6184 5.13255 34.5825 5.05575 34.5685 4.98857C34.5349 4.82915 34.5641 4.64476 34.5857 4.5063C34.5892 4.48333 34.5926 4.46283 34.5955 4.44323C34.5751 4.33678 34.5535 4.22861 34.5317 4.12202C34.5401 4.1143 34.5489 4.10651 34.5579 4.09857C34.6701 3.99845 34.6624 3.88693 34.6504 3.70795C34.6452 3.63119 34.639 3.53862 34.6418 3.43359C34.6436 3.36511 34.6882 3.32715 34.7246 3.29618C34.7353 3.28706 34.7454 3.2785 34.7534 3.26995C34.7808 3.24042 34.748 3.21398 34.7092 3.18178C34.659 3.14016 34.5986 3.09 34.6468 3.01615C34.8004 2.78435 34.6829 2.68963 34.5941 2.62015C34.568 2.59954 34.5444 2.58079 34.5309 2.561C34.4869 2.49643 34.5223 2.40061 34.5738 2.32686C34.6147 2.26844 34.5656 2.15651 34.5062 2.07457C34.4838 2.04332 34.4811 1.99955 34.478 1.94763C34.477 1.92978 34.4759 1.91095 34.4739 1.89134C34.47 1.84718 34.4629 1.80593 34.4453 1.7628C34.379 1.5999 34.3463 1.51344 34.3202 1.44389C34.3127 1.42412 34.3059 1.40571 34.2988 1.38718C34.2765 1.32906 34.2569 1.25643 34.237 1.18292C34.2132 1.09509 34.189 1.00583 34.1591 0.938588C34.1782 0.759286 34.2036 0.579609 34.2286 0.399272C34.2417 0.306602 34.3379 0.213051 34.501 0.138958C34.6642 0.0648823 34.8795 0.0165157 35.1048 0.00429173C35.3301 -0.00790748 35.5494 0.0168538 35.7197 0.0729686C35.8897 0.129113 35.9957 0.212128 36.0186 0.303625C36.0643 0.48782 36.1098 0.672776 36.1476 0.858272C36.1937 1.08433 36.2283 1.31104 36.2383 1.5389C36.2424 1.6296 36.2445 1.72036 36.2451 1.81122C36.2457 1.8737 36.2457 1.94188 36.2449 2.00958C36.2447 2.02576 36.2444 2.04192 36.2441 2.05805C36.3062 2.18825 36.3633 2.31656 36.3861 2.40914C36.405 2.4857 36.3783 2.543 36.3554 2.59195C36.3397 2.62548 36.3258 2.6556 36.3298 2.68533C36.332 2.70124 36.3366 2.72287 36.3421 2.74886C36.3644 2.8542 36.4027 3.03496 36.3575 3.20271C36.3375 3.27825 36.2948 3.36536 36.254 3.44935C36.1959 3.57098 36.1415 3.68042 36.1631 3.7358C36.201 3.83123 36.1795 3.94197 36.1607 4.04208C36.1426 4.13639 36.1268 4.21915 36.1669 4.26382C36.2149 4.31719 36.1992 4.3642 36.176 4.43681C36.16 4.48705 36.1404 4.54847 36.1356 4.62959C36.1302 4.72521 36.1024 4.79327 36.0787 4.85076C36.0454 4.93298 36.0204 4.99485 36.0772 5.08052C36.1404 5.17837 36.1825 5.27794 36.1685 5.36227C36.1622 5.40015 36.1664 5.44265 36.1707 5.48654C36.1766 5.5454 36.1826 5.60778 36.1646 5.66487C36.1498 5.71153 36.108 5.75328 36.0709 5.78914C36.0593 5.80038 36.0483 5.81115 36.0386 5.8215C36.041 5.85871 36.0435 5.89482 36.0465 5.9324C36.0539 5.93814 36.062 5.94416 36.0703 5.95043C36.1123 5.9819 36.1637 6.02052 36.1906 6.06957C36.2332 6.1475 36.2118 6.22002 36.1889 6.29422C36.1711 6.35349 36.1524 6.41454 36.1626 6.48245C36.1696 6.52983 36.1895 6.58295 36.209 6.63514C36.2381 6.71304 36.2666 6.79133 36.2517 6.84543C36.2462 6.86625 36.2192 6.88473 36.1924 6.90293C36.1922 6.90301 36.192 6.90309 36.1919 6.90317C36.19 6.90441 36.1883 6.90564 36.1865 6.90688C36.2112 7.0383 36.2375 7.17041 36.2641 7.3042C36.2713 7.31562 36.2785 7.32714 36.2855 7.33854C36.32 7.39436 36.3532 7.45013 36.3998 7.48543C36.4504 7.52325 36.4804 7.62307 36.5112 7.72769C36.5313 7.79694 36.5518 7.86747 36.5791 7.92691C36.595 7.96143 36.5663 7.99318 36.5366 8.02632C36.5089 8.05745 36.4804 8.08906 36.4866 8.12409C36.4897 8.14171 36.5011 8.16049 36.5132 8.18129C36.5238 8.19959 36.535 8.21893 36.5417 8.23902C36.5478 8.25785 36.5313 8.29787 36.5099 8.35042C36.4967 8.3829 36.4817 8.41955 36.4688 8.45778C36.4696 8.46378 36.4704 8.46979 36.4712 8.47579L36.467 8.53303C36.4732 8.63489 36.477 8.73697 36.4784 8.83796C36.5001 8.86314 36.5295 8.88657 36.5684 8.90744C36.5963 8.92241 36.6302 8.93665 36.6647 8.95134C36.7118 8.97138 36.7604 8.99206 36.798 9.01663C36.8273 9.03583 36.8373 9.05503 36.8225 9.06469C36.8156 9.06919 36.8035 9.07162 36.7926 9.07383C36.78 9.07635 36.7689 9.07859 36.7685 9.08332C36.7682 9.08673 36.7761 9.09152 36.7856 9.0974C36.8008 9.10678 36.8205 9.11905 36.8191 9.13284C36.8141 9.18394 36.798 9.2407 36.782 9.29554C36.7642 9.35659 36.7464 9.41596 36.744 9.46513C36.7412 9.52034 36.6959 9.59122 36.6501 9.66107C36.6181 9.70992 36.586 9.75829 36.5679 9.80162C36.5501 9.84416 36.5576 9.89354 36.5647 9.94169C36.5731 9.99959 36.5811 10.055 36.5442 10.0927C36.5367 10.1003 36.5008 10.1036 36.4559 10.1078C36.4241 10.1107 36.3876 10.114 36.3536 10.1194C36.341 10.1738 36.3267 10.2286 36.3111 10.2822C36.3151 10.2853 36.3192 10.2884 36.3234 10.2915C36.3235 10.2915 36.3236 10.2916 36.3237 10.2917C36.4189 10.3622 36.5486 10.4601 36.4401 10.5257C36.4125 10.5421 36.3685 10.5455 36.3289 10.5485C36.29 10.5515 36.2552 10.5542 36.2443 10.5684C36.2319 10.5845 36.2483 10.6116 36.266 10.6411C36.2909 10.6821 36.3182 10.7298 36.2735 10.7569C36.2704 10.7587 36.2671 10.7607 36.2637 10.7628C36.2319 10.7822 36.1843 10.8123 36.1 10.8303C36.0479 10.9404 35.9914 11.0481 35.9307 11.1563C35.8297 11.3356 35.7192 11.5117 35.5965 11.6936C35.5366 11.782 35.3992 11.841 35.2156 11.8416C35.0317 11.8428 34.8215 11.7806 34.6272 11.6748C34.432 11.5704 34.2555 11.4473 34.1227 11.3375C33.9908 11.2267 33.9194 11.1286 33.9234 11.0502C33.9301 10.9235 33.9359 10.7858 33.9415 10.6497C33.9392 10.6418 33.9371 10.6338 33.9352 10.626C33.9214 10.567 33.8759 10.5035 33.8302 10.4389C33.8197 10.4242 33.8091 10.4098 33.7988 10.3952Z" fill="#FD1E1F"/>
<path d="M47.0903 17.2726C47.1103 17.1325 47.2839 17.0684 47.3792 17.0321C47.3809 17.0314 47.3827 17.0307 47.3844 17.03C47.407 17.0214 47.4261 17.0101 47.4485 16.9967C47.5019 16.9646 47.5738 16.9218 47.7556 16.8763C47.7957 16.8449 47.8363 16.8143 47.8776 16.7847C48.3227 16.4653 48.8032 16.2027 49.2858 15.9255C49.2906 15.9206 49.2956 15.9156 49.3005 15.9105C49.3969 15.8128 49.5143 15.69 49.6189 15.6469C49.7523 15.5918 49.8508 15.5619 49.9333 15.5381C50.309 15.2998 50.6715 15.0368 50.9915 14.7285C51.0336 14.688 51.0751 14.6465 51.1159 14.604C51.1669 14.5499 51.224 14.4866 51.2795 14.4226C51.3681 14.3204 51.4526 14.2183 51.5363 14.1128C51.5703 14.0388 51.5982 13.9653 51.6247 13.8965C51.6612 13.8007 51.6944 13.7148 51.7334 13.6548C51.8275 13.5099 51.9852 13.3904 52.1024 13.3018C52.1215 13.2874 52.1396 13.2738 52.1561 13.261C52.221 13.1656 52.2849 13.0699 52.3486 12.9739C52.3603 12.974 52.3723 12.9744 52.3845 12.9748C52.5371 12.9797 52.6153 12.8891 52.7387 12.7466C52.7923 12.6846 52.8547 12.6128 52.9353 12.5347C52.9874 12.4843 53.0466 12.4878 53.0953 12.4902C53.1095 12.491 53.1229 12.4917 53.1349 12.491C53.1758 12.4885 53.1726 12.4449 53.1688 12.3935C53.1642 12.3265 53.1582 12.2465 53.2464 12.2255C53.5272 12.1591 53.5127 12.0061 53.5009 11.8913C53.4977 11.8573 53.4948 11.8266 53.4997 11.8022C53.5152 11.7237 53.6113 11.6761 53.7023 11.657C53.7745 11.6416 53.8208 11.5242 53.8393 11.4202C53.8467 11.3805 53.8756 11.3471 53.9121 11.3054C53.9486 11.2634 53.9921 11.2138 54.0198 11.1474C54.0203 11.1461 54.0208 11.1449 54.0213 11.1437C54.0923 10.9759 54.1327 10.8875 54.1644 10.8173C54.1738 10.7969 54.1823 10.7782 54.1905 10.7596C54.2177 10.6992 54.2563 10.6312 54.2958 10.5616C54.3428 10.4788 54.3899 10.395 54.4164 10.3245C54.5586 10.2041 54.7027 10.0905 54.8305 9.98676C54.8961 9.93383 55.0209 9.93661 55.192 9.98516C55.3629 10.0343 55.5626 10.1287 55.7466 10.2593C55.9304 10.39 56.0862 10.547 56.1772 10.7056C56.2683 10.8637 56.2828 11.0126 56.2283 11.1091C56.1183 11.3028 56.0117 11.4795 55.9022 11.6485C55.7682 11.8545 55.6268 12.05 55.4686 12.2282C55.4343 12.2669 55.4029 12.3016 55.3679 12.3396C55.2891 12.425 55.2074 12.51 55.1245 12.593C55.1119 12.6056 55.1003 12.6171 55.088 12.6292C55.0359 12.7715 54.9817 12.9085 54.9292 12.9946C54.8868 13.0648 54.8246 13.0901 54.7723 13.1108C54.7362 13.1252 54.7037 13.1385 54.6849 13.1633C54.6749 13.1766 54.6623 13.196 54.6469 13.2194C54.5844 13.315 54.4784 13.4774 54.3219 13.5721C54.2524 13.6141 54.157 13.6502 54.0662 13.6844C53.936 13.7336 53.8149 13.7793 53.7903 13.835C53.7473 13.9327 53.6494 14.0016 53.5628 14.0627C53.4804 14.1208 53.4081 14.1719 53.404 14.2332C53.399 14.3068 53.3523 14.332 53.2831 14.3694C53.2348 14.3958 53.1765 14.4272 53.1126 14.4857C53.0396 14.5525 52.9692 14.5848 52.9103 14.6113C52.8264 14.6497 52.7641 14.6777 52.7412 14.7828C52.7163 14.8989 52.6722 15.0053 52.6023 15.0575C52.571 15.0807 52.5422 15.1167 52.5138 15.1525C52.4757 15.2005 52.4357 15.2509 52.3813 15.282C52.3361 15.3079 52.278 15.308 52.2247 15.3103C52.2083 15.3109 52.1926 15.3114 52.1782 15.3125C52.1537 15.3417 52.1288 15.3717 52.1046 15.4018C52.1059 15.4111 52.1075 15.4212 52.1092 15.4315C52.1116 15.4459 52.1141 15.4611 52.1162 15.4766C52.1149 15.5252 52.1153 15.5714 52.1022 15.613C52.0737 15.7036 52.0041 15.7441 51.9307 15.7857C51.8738 15.8179 51.814 15.8514 51.7687 15.9109C51.7378 15.9513 51.7112 16.0056 51.6842 16.0596C51.6444 16.1394 51.6041 16.2182 51.5512 16.2486C51.5314 16.26 51.4986 16.2542 51.466 16.2483C51.4659 16.2482 51.4657 16.2482 51.4655 16.2481C51.4633 16.2477 51.4611 16.2473 51.4589 16.2469C51.3739 16.3631 51.2887 16.4799 51.203 16.5967C51.199 16.6103 51.1948 16.624 51.1906 16.6376C51.1701 16.704 51.1497 16.7683 51.1535 16.8284C51.1575 16.8936 51.1004 16.9875 51.0389 17.0857C50.9985 17.1502 50.9567 17.2162 50.929 17.2784C50.9128 17.3148 50.8683 17.3166 50.8225 17.3181C50.7798 17.3196 50.7361 17.3208 50.713 17.3504C50.7014 17.3652 50.6941 17.3871 50.6863 17.4106C50.6794 17.4312 50.6722 17.4531 50.6612 17.4721C50.651 17.4897 50.6083 17.5063 50.5537 17.5271C50.5199 17.54 50.4817 17.5546 50.4435 17.572C50.3731 17.6546 50.3017 17.736 50.2287 17.8159C50.2271 17.8493 50.2324 17.8865 50.2466 17.9284C50.2567 17.9584 50.2717 17.992 50.287 18.0263C50.3078 18.073 50.3291 18.1214 50.3399 18.165C50.3483 18.1991 50.3425 18.22 50.3251 18.217C50.3169 18.2156 50.3064 18.2092 50.2968 18.2034C50.2859 18.1968 50.2762 18.1908 50.2727 18.194C50.2701 18.1964 50.2727 18.2053 50.2757 18.2161C50.2805 18.2333 50.2866 18.2556 50.2762 18.2649C50.2374 18.2993 50.187 18.3305 50.1376 18.3606C50.0826 18.3942 50.0288 18.4267 49.9932 18.462C49.9534 18.5017 49.8711 18.5247 49.7889 18.5472C49.7316 18.5628 49.6743 18.5783 49.631 18.5993C49.5886 18.6198 49.5602 18.6625 49.5326 18.7038C49.4995 18.7534 49.4674 18.8012 49.4141 18.8055C49.4033 18.8064 49.3739 18.7853 49.3372 18.7589C49.3112 18.7402 49.2814 18.7188 49.252 18.7005C49.2051 18.7341 49.1571 18.7665 49.1086 18.7976C49.1096 18.8026 49.1106 18.8077 49.1117 18.8128C49.1117 18.8129 49.1118 18.813 49.1118 18.8132C49.1362 18.9294 49.1679 19.0895 49.0419 19.0687C49.0099 19.0633 48.9741 19.0373 48.9419 19.0138C48.9103 18.9908 48.8821 18.9701 48.8643 18.9739C48.8441 18.9782 48.8383 19.0097 48.832 19.044C48.8231 19.092 48.8129 19.1458 48.7606 19.1378C48.757 19.1372 48.7531 19.1366 48.7492 19.136C48.7116 19.1306 48.6559 19.1225 48.5793 19.082C48.4668 19.1331 48.3524 19.1804 48.2366 19.225C48.0438 19.2993 47.848 19.3659 47.6523 19.4305C47.5571 19.4617 47.4228 19.4229 47.2774 19.3174C47.1318 19.2118 46.9871 19.0495 46.871 18.861C46.7549 18.6726 46.6749 18.4707 46.6434 18.2944C46.6119 18.1183 46.6327 17.983 46.698 17.9132C46.805 17.7995 46.9106 17.6855 47.0166 17.5737C47.0206 17.5655 47.0248 17.5575 47.0291 17.5497C47.0612 17.4919 47.0721 17.4103 47.0828 17.3286C47.0853 17.3099 47.0877 17.2911 47.0903 17.2726Z" fill="#FD1E1F"/>
<path d="M55.2924 29.9135C55.3825 29.8049 55.5516 29.8433 55.6504 29.864C55.6521 29.8643 55.6539 29.8647 55.6557 29.865C55.6791 29.8699 55.7002 29.8708 55.725 29.8716C55.7839 29.8735 55.8653 29.8762 56.0368 29.9382C56.0853 29.9341 56.1342 29.9311 56.1834 29.9294C56.7146 29.9113 57.2483 29.9789 57.7837 30.0613C57.7904 30.0605 57.7972 30.0596 57.804 30.0588C57.9367 30.042 58.1013 30.021 58.2067 30.0549C58.3408 30.098 58.4326 30.1393 58.5081 30.1751C58.934 30.2397 59.3598 30.2935 59.7826 30.3004C59.917 30.3025 60.046 30.3001 60.1799 30.2918C60.3023 30.2843 60.4212 30.2733 60.5437 30.2588C60.6131 30.2311 60.677 30.1993 60.7374 30.1697C60.8236 30.1279 60.8988 30.0908 60.9614 30.0759C61.115 30.0399 61.2881 30.0661 61.4235 30.0845C61.4451 30.0875 61.4655 30.0904 61.4841 30.0928C61.5829 30.0702 61.6884 30.0457 61.787 30.0209C61.7945 30.0291 61.802 30.0377 61.8097 30.0464C61.9067 30.1557 62.0144 30.1444 62.1827 30.1251C62.2568 30.1165 62.3367 30.107 62.4387 30.1037C62.5029 30.1018 62.5366 30.1446 62.5698 30.1788C62.5792 30.1889 62.5881 30.1984 62.5967 30.2058C62.6264 30.2313 62.6495 30.1967 62.6752 30.156C62.7074 30.1034 62.7485 30.0397 62.8183 30.0818C63.0408 30.2159 63.1021 30.0858 63.1222 29.9932C63.129 29.9657 63.1315 29.9416 63.133 29.9281C63.1334 29.9242 63.1337 29.921 63.1339 29.9185L63.1206 29.9228C63.1792 29.8772 63.2789 29.8853 63.3607 29.9136C63.4316 29.9379 63.5365 29.8632 63.6147 29.7867C63.6441 29.7578 63.6911 29.7457 63.7465 29.7324C63.8039 29.7187 63.8703 29.7039 63.9377 29.6668C64.1084 29.5733 64.2035 29.5312 64.2793 29.4972C64.301 29.4875 64.3213 29.4788 64.3416 29.4699C64.4056 29.4417 64.4866 29.4161 64.569 29.3918C64.597 29.3835 64.6248 29.3755 64.6526 29.3674L64.6873 29.3651C64.7568 29.347 64.8248 29.329 64.8809 29.3087C65.0859 29.3317 65.2945 29.37 65.5033 29.4208C65.6107 29.4469 65.7064 29.5596 65.7576 29.7349C65.8093 29.9104 65.812 30.1318 65.7758 30.3544C65.7396 30.5771 65.6708 30.7863 65.5948 30.9445C65.5181 31.1024 65.4401 31.1957 65.3661 31.2081C65.2167 31.2325 65.0666 31.2658 64.914 31.2985C64.8715 31.3077 64.8285 31.3168 64.7854 31.3256L64.8172 31.3234C64.6752 31.3579 64.5374 31.3896 64.3994 31.4131C64.2741 31.4345 64.1497 31.4555 64.0239 31.4777C64.011 31.48 63.998 31.4823 63.985 31.4846C63.8955 31.5657 63.8094 31.6451 63.7437 31.6858C63.7344 31.6915 63.7252 31.6959 63.7161 31.6991L63.6978 31.7051C63.5994 31.7369 63.5136 31.7316 63.4646 31.7211C63.4184 31.7134 63.3779 31.7059 63.3395 31.7158C63.3211 31.7207 63.2983 31.7285 63.269 31.7378C63.1397 31.7782 62.9584 31.8334 62.7762 31.8013C62.6966 31.7869 62.6079 31.7496 62.5163 31.7141C62.3964 31.6623 62.276 31.6137 62.2254 31.6373C62.1365 31.6788 62.0162 31.6623 61.9221 31.6462C61.8295 31.6311 61.7439 31.618 61.7024 31.6592C61.6526 31.7084 61.6049 31.694 61.5332 31.6725C61.4832 31.6577 61.4215 31.6395 61.3426 31.6363C61.2504 31.6326 61.1817 31.6062 61.1239 31.5836C61.0447 31.5516 60.9847 31.5275 60.9005 31.5856C60.8053 31.6502 60.7102 31.6936 60.6283 31.6806C60.5914 31.6747 60.5497 31.6795 60.5061 31.6844C60.4497 31.6909 60.3903 31.6976 60.3341 31.6803C60.2878 31.6661 60.2475 31.6247 60.2118 31.588C60.2007 31.5766 60.19 31.5657 60.1797 31.5562C60.1436 31.5589 60.1084 31.5619 60.0726 31.5653C60.0673 31.5727 60.0617 31.5809 60.0558 31.5893C60.0263 31.6316 59.9898 31.6834 59.9423 31.711C59.8667 31.7546 59.7977 31.734 59.725 31.7121C59.6684 31.6951 59.6093 31.6772 59.543 31.6885C59.4975 31.6962 59.4476 31.7168 59.3975 31.7373C59.3233 31.7677 59.2495 31.7975 59.1964 31.7838C59.1765 31.7787 59.1582 31.7521 59.1402 31.7256C59.1401 31.7255 59.1401 31.7253 59.14 31.7251C59.1388 31.7233 59.1375 31.7216 59.1363 31.7198C59.0113 31.7473 58.8853 31.7768 58.7597 31.8074C58.7491 31.815 58.7384 31.8225 58.7277 31.8299C58.6757 31.866 58.625 31.9011 58.5931 31.9489C58.5586 32.0008 58.467 32.0344 58.3706 32.0696C58.3074 32.0927 58.2421 32.1165 58.1893 32.1468C58.1583 32.1645 58.1271 32.1375 58.0949 32.1097C58.0648 32.0838 58.034 32.0571 58.0019 32.0655C57.9859 32.0696 57.9689 32.0821 57.9508 32.0955C57.9348 32.1073 57.918 32.1197 57.9001 32.1277C57.8835 32.1351 57.8452 32.1213 57.7962 32.1037C57.7661 32.0929 57.7314 32.0807 57.6953 32.0709C57.6018 32.0926 57.5086 32.1134 57.4157 32.1329C57.3971 32.1586 57.3812 32.1915 57.3694 32.2334C57.3608 32.2635 57.354 32.2993 57.347 32.3359C57.3374 32.3857 57.3275 32.4372 57.3127 32.4785C57.3011 32.5108 57.2864 32.5241 57.2757 32.5113C57.2707 32.5053 57.2666 32.4939 57.2629 32.4835C57.2586 32.4717 57.2548 32.4611 57.2507 32.4616C57.2478 32.462 57.245 32.4706 57.2416 32.481C57.2362 32.4977 57.2291 32.5193 57.2171 32.5205C57.1725 32.5251 57.1218 32.5203 57.0718 32.5155C57.0156 32.5102 56.961 32.505 56.9181 32.513C56.8699 32.5219 56.8003 32.4929 56.7305 32.4639C56.6811 32.4437 56.6319 32.4236 56.5901 32.4162C56.5493 32.4088 56.5078 32.4278 56.4679 32.4463C56.4202 32.4685 56.3733 32.4899 56.3318 32.4636C56.3235 32.4582 56.3122 32.4243 56.298 32.3819C56.288 32.3518 56.2765 32.3175 56.2636 32.2859C56.2125 32.2876 56.1617 32.2879 56.1111 32.287C56.1095 32.2917 56.1078 32.2965 56.1062 32.3013C56.1061 32.3015 56.1061 32.3016 56.1061 32.3017C56.0691 32.412 56.0142 32.5631 55.9309 32.4767C55.9096 32.4547 55.8955 32.4134 55.8827 32.3762C55.8701 32.3396 55.859 32.3069 55.8439 32.3004C55.8269 32.2931 55.8078 32.3164 55.787 32.3417C55.7585 32.3772 55.7239 32.417 55.6883 32.382C55.6859 32.3796 55.6832 32.377 55.6805 32.3744C55.6546 32.3495 55.6164 32.3128 55.5776 32.2376C55.4702 32.2204 55.3577 32.1998 55.2493 32.1767C55.0675 32.1382 54.8852 32.0933 54.7011 32.0479C54.6155 32.0255 54.5237 31.9235 54.4593 31.7584C54.3942 31.5932 54.3571 31.3798 54.353 31.1585C54.3491 30.9372 54.3782 30.7228 54.4358 30.5551C54.4928 30.3877 54.5783 30.282 54.6612 30.2558C54.8028 30.2134 54.9404 30.1708 55.0839 30.1308C55.0914 30.126 55.099 30.1213 55.1063 30.117C55.1594 30.0845 55.2085 30.0209 55.258 29.9571C55.2694 29.9425 55.2809 29.9278 55.2924 29.9135Z" fill="#FD1E1F"/>
<path d="M16.4679 16.6169C16.3421 16.6667 16.2237 16.5471 16.1591 16.481C16.1579 16.4799 16.1567 16.4787 16.1555 16.4775C16.1403 16.4619 16.1238 16.4504 16.1043 16.437C16.058 16.4049 15.9953 16.3617 15.8958 16.2223C15.8547 16.2003 15.816 16.1783 15.7764 16.1541C15.3535 15.8953 14.9855 15.5541 14.637 15.1944C14.6315 15.1914 14.626 15.1884 14.6203 15.1853C14.5118 15.126 14.3779 15.0519 14.3213 14.9665C14.2471 14.8565 14.2075 14.7738 14.1732 14.7023C13.9039 14.4136 13.6326 14.1286 13.3405 13.8789C13.2911 13.8366 13.2404 13.7948 13.1883 13.7538L13.1504 13.7242C13.1089 13.6867 13.067 13.6499 13.0247 13.6141C12.9393 13.5418 12.8528 13.4722 12.7651 13.4052C12.7014 13.381 12.6375 13.3622 12.5784 13.3449C12.4955 13.3207 12.422 13.2994 12.3718 13.2701C12.2508 13.1993 12.1588 13.0696 12.0901 12.9742C12.079 12.9586 12.0684 12.9439 12.0584 12.9305C11.9798 12.884 11.9007 12.8391 11.8217 12.7956C11.8226 12.785 11.8237 12.7741 11.8249 12.763C11.8396 12.6239 11.765 12.5659 11.648 12.4785C11.597 12.4405 11.5379 12.3969 11.4737 12.3389C11.4323 12.3015 11.4368 12.2472 11.4401 12.2026C11.4402 12.2011 11.4403 12.1996 11.4404 12.1981C11.4412 12.1867 11.4419 12.176 11.4416 12.1666C11.4403 12.13 11.4026 12.1415 11.3586 12.1555C11.3012 12.1737 11.2333 12.1963 11.2159 12.121C11.159 11.8807 11.0258 11.929 10.929 11.9674C10.9004 11.9786 10.8745 11.9887 10.8538 11.9903C10.7868 11.9954 10.7438 11.9206 10.7234 11.8428C10.7072 11.7811 10.6049 11.769 10.5159 11.7799C10.4823 11.784 10.4511 11.7658 10.4143 11.7444C10.3761 11.7223 10.3317 11.6966 10.2728 11.6892C10.1234 11.6705 10.045 11.6589 9.98209 11.6494C9.96406 11.6467 9.94741 11.6441 9.9307 11.6418C9.87766 11.6343 9.81581 11.618 9.75297 11.6016C9.6778 11.582 9.60093 11.5621 9.53737 11.5573C9.41854 11.4597 9.30101 11.3563 9.18294 11.2532C9.12237 11.2001 9.10366 11.0752 9.13314 10.9017C9.16299 10.7283 9.23744 10.5212 9.34393 10.3223C9.45037 10.1234 9.58143 9.94667 9.71008 9.82622C9.83893 9.70604 9.95504 9.65337 10.0345 9.67586C10.1942 9.72139 10.3553 9.76826 10.5128 9.82261C10.7047 9.88882 10.8929 9.967 11.0693 10.0689C11.1929 10.1403 11.314 10.218 11.4326 10.3011C11.4447 10.3096 11.457 10.3184 11.4691 10.3271C11.6019 10.3429 11.7331 10.3654 11.8163 10.3972C11.8851 10.4235 11.9134 10.4772 11.9371 10.5231C11.9536 10.5548 11.9679 10.5827 11.9924 10.596C12.0056 10.6032 12.0245 10.6117 12.0473 10.622C12.1401 10.6638 12.2991 10.7383 12.395 10.8748C12.3954 10.8754 12.3958 10.8759 12.3962 10.8765C12.4382 10.9368 12.4744 11.0218 12.5077 11.1029C12.5558 11.2199 12.5975 11.3286 12.6485 11.3449C12.7383 11.3736 12.8004 11.4583 12.8538 11.5329C12.9048 11.6041 12.9485 11.6663 13.0045 11.6638C13.0715 11.6609 13.0926 11.7023 13.1233 11.7633C13.1447 11.8057 13.1707 11.8575 13.2197 11.9111C13.2762 11.9729 13.3003 12.0348 13.3205 12.0873C13.3491 12.1613 13.3701 12.2167 13.463 12.2277C13.5661 12.24 13.6579 12.2705 13.6992 12.33C13.718 12.3571 13.747 12.3793 13.7771 12.4023C13.817 12.4327 13.8587 12.4645 13.8816 12.5112C13.9005 12.5498 13.8969 12.6041 13.8939 12.6523C13.8929 12.6673 13.8921 12.6817 13.8919 12.6948C13.9155 12.714 13.9395 12.7331 13.9636 12.7516L13.9341 12.7286C13.9347 12.729 13.9353 12.7294 13.936 12.7298C13.9443 12.7272 13.9533 12.7241 13.9626 12.7209C14.0095 12.7049 14.0668 12.6853 14.116 12.6904C14.1936 12.6984 14.2271 12.7527 14.2634 12.8108C14.2915 12.8559 14.3198 12.9022 14.3716 12.9299C14.4074 12.9491 14.4547 12.9609 14.5014 12.9723C14.5701 12.9889 14.6395 13.0062 14.6672 13.0459C14.6776 13.0608 14.6737 13.0917 14.6698 13.1224C14.6697 13.1226 14.6697 13.1228 14.6697 13.1229C14.6694 13.125 14.6692 13.1271 14.6689 13.1292C14.7716 13.1758 14.8755 13.2203 14.9812 13.2641C14.9932 13.2638 15.0051 13.2636 15.017 13.2634C15.0749 13.2628 15.1299 13.2612 15.1811 13.2403C15.2366 13.2176 15.3194 13.2392 15.4067 13.2616C15.4646 13.2767 15.5237 13.2917 15.5776 13.2946C15.6094 13.2965 15.6154 13.3348 15.6213 13.374C15.6268 13.4106 15.6324 13.4481 15.6594 13.4579C15.6729 13.4628 15.6916 13.4612 15.7124 13.46C15.7305 13.4588 15.7496 13.4575 15.7668 13.4604C15.7827 13.463 15.8013 13.494 15.8249 13.5333C15.8393 13.5574 15.8566 13.5854 15.8762 13.6119C15.9539 13.6421 16.0314 13.6728 16.1078 13.7039C16.1355 13.6923 16.1653 13.6732 16.1975 13.6448C16.2208 13.6245 16.2462 13.5986 16.2721 13.5722C16.3074 13.5362 16.3438 13.499 16.3778 13.4726C16.4044 13.4519 16.4221 13.4483 16.4222 13.4641C16.4222 13.4714 16.4185 13.4829 16.4152 13.4932C16.4114 13.505 16.408 13.5156 16.4111 13.5172C16.4133 13.5184 16.4202 13.5127 16.4285 13.5058C16.4417 13.4947 16.4589 13.4805 16.4678 13.4854C16.5009 13.5034 16.5347 13.5333 16.5666 13.5616C16.6018 13.5931 16.6374 13.6243 16.6719 13.6387C16.7104 13.6547 16.7429 13.7127 16.7762 13.7709C16.7991 13.8113 16.8221 13.8514 16.8476 13.878C16.8726 13.9039 16.912 13.9078 16.9505 13.9116C16.9973 13.9165 17.0418 13.9207 17.0561 13.962C17.059 13.9704 17.0482 14.0039 17.0352 14.0462C17.0259 14.0762 17.0153 14.1105 17.0072 14.1431C17.045 14.1662 17.0804 14.1894 17.1171 14.2147C17.1209 14.2116 17.1247 14.2083 17.1286 14.205C17.1287 14.205 17.1287 14.2049 17.1288 14.2048C17.2166 14.1305 17.334 14.0272 17.3479 14.1393C17.3512 14.1677 17.3392 14.2091 17.3284 14.2465C17.3177 14.2832 17.3082 14.316 17.3155 14.3284C17.3238 14.3425 17.3506 14.3321 17.3792 14.3204C17.4196 14.3042 17.4643 14.2857 17.471 14.3315C17.4714 14.3346 17.472 14.3381 17.4725 14.3415C17.4781 14.3746 17.4861 14.4233 17.4745 14.505C17.5447 14.5699 17.6142 14.6379 17.682 14.707C17.7959 14.8229 17.9084 14.9437 18.0223 15.0645C18.0775 15.1235 18.0915 15.2504 18.0583 15.4223C18.0254 15.5946 17.9478 15.7964 17.84 15.9897C17.7322 16.183 17.6013 16.3549 17.4712 16.4729C17.3416 16.591 17.2246 16.6445 17.1434 16.6268C17.0113 16.5975 16.8785 16.5674 16.7467 16.5335C16.7385 16.5341 16.7303 16.5345 16.7223 16.5348C16.6628 16.5363 16.59 16.5663 16.5179 16.5966C16.5012 16.6035 16.4845 16.6104 16.4679 16.6169Z" fill="#FD1E1F"/>
<path d="M10.1262 31.5652C10.0287 31.663 9.86191 31.6041 9.77131 31.5716C9.76964 31.5711 9.76797 31.5705 9.7663 31.57C9.74484 31.5623 9.72377 31.5588 9.69933 31.5549C9.64095 31.5455 9.56224 31.5329 9.40424 31.4494C9.35585 31.4472 9.30767 31.4438 9.25974 31.439C8.74204 31.3872 8.23474 31.2437 7.73189 31.0798C7.72533 31.0796 7.71866 31.0794 7.71192 31.0792C7.58267 31.0754 7.41933 31.07 7.3244 31.0198C7.20238 30.9559 7.12062 30.9001 7.05477 30.8525C6.65756 30.7193 6.26029 30.5934 5.85792 30.5106C5.7318 30.4846 5.6052 30.463 5.4784 30.4467C5.36225 30.4318 5.24367 30.4198 5.12641 30.411C5.05469 30.425 4.98663 30.4438 4.92414 30.4614C4.8346 30.4857 4.75511 30.5074 4.69271 30.5097C4.53934 30.5149 4.37535 30.4539 4.25459 30.4088C4.23511 30.4015 4.21626 30.3945 4.19853 30.3883C4.09572 30.3896 3.99624 30.3924 3.89387 30.3954C3.88837 30.3858 3.88288 30.3758 3.87733 30.3656C3.80937 30.2384 3.70366 30.2265 3.53901 30.2083C3.46888 30.2005 3.38409 30.1911 3.29003 30.1713C3.22867 30.1584 3.20082 30.1082 3.17951 30.0674C3.17316 30.0554 3.16722 30.0442 3.16099 30.035C3.13967 30.0033 3.11029 30.0314 3.07404 30.0645C3.02697 30.1073 2.97528 30.1594 2.91598 30.1006C2.87607 30.0608 2.84113 30.0343 2.81003 30.0179C2.67256 29.9528 2.59208 30.0263 2.52619 30.0849C2.50194 30.1068 2.47964 30.1265 2.45849 30.1361C2.38966 30.1675 2.30621 30.1147 2.24772 30.0501C2.20122 29.999 2.08968 30.026 2.00199 30.0684C1.96882 30.0844 1.92826 30.0787 1.88067 30.0718C1.83144 30.0648 1.77471 30.0564 1.7108 30.0703C1.54943 30.1053 1.46584 30.1217 1.3988 30.135C1.37963 30.1387 1.36217 30.1422 1.34436 30.1459C1.28861 30.1575 1.22117 30.1642 1.15469 30.1716C1.1302 30.1744 1.10548 30.1772 1.08211 30.1805C1.02931 30.1878 0.979545 30.197 0.938667 30.2108C0.796049 30.1664 0.661658 30.1204 0.52578 30.0811C0.455874 30.0606 0.386538 29.9587 0.329037 29.7917C0.271893 29.6245 0.23658 29.4069 0.236816 29.1813C0.237051 28.9557 0.27001 28.738 0.333514 28.5712C0.396771 28.4046 0.48989 28.3041 0.589312 28.2896C0.788966 28.2607 0.990318 28.2421 1.1826 28.2357C1.23384 28.234 1.28469 28.2331 1.33538 28.2332C1.5148 28.2335 1.68481 28.2443 1.85035 28.2695C1.99832 28.2921 2.14306 28.3202 2.28546 28.3518C2.30012 28.3551 2.31476 28.3584 2.32935 28.3617C2.45835 28.3252 2.58418 28.2928 2.66881 28.2867C2.73877 28.2817 2.78354 28.3178 2.82167 28.3485C2.84806 28.3696 2.87125 28.3882 2.89681 28.389C2.91041 28.3895 2.9297 28.3885 2.95204 28.3871C2.96545 28.3863 2.98001 28.3854 2.99532 28.3845L2.9812 28.383C3.08519 28.3781 3.23739 28.3807 3.36537 28.4425C3.43261 28.4746 3.50749 28.5313 3.57873 28.5855C3.68224 28.6633 3.77417 28.7356 3.82907 28.7238C3.92102 28.7025 4.02378 28.7433 4.10989 28.7789C4.19439 28.8131 4.26704 28.8429 4.31469 28.8112C4.37133 28.7732 4.41557 28.7974 4.47545 28.8324C4.51778 28.8569 4.57016 28.8868 4.64544 28.9059C4.72964 28.9276 4.78743 28.9668 4.83683 29.0002C4.90586 29.0472 4.95597 29.0823 5.04596 29.0414C5.14604 28.996 5.24411 28.9716 5.31834 28.9997C5.3525 29.0125 5.39055 29.0154 5.43166 29.0186C5.48578 29.0227 5.54323 29.0272 5.59307 29.0546C5.63307 29.077 5.66259 29.1249 5.68884 29.1674C5.69703 29.1806 5.70491 29.1933 5.71269 29.2045C5.74682 29.2083 5.78116 29.2119 5.81572 29.215C5.82216 29.2087 5.82911 29.2017 5.83611 29.1945C5.87122 29.1583 5.91446 29.1138 5.96366 29.0952C6.0413 29.0656 6.10397 29.0983 6.16713 29.1324C6.2169 29.1591 6.269 29.187 6.3332 29.1874C6.37751 29.1878 6.42718 29.176 6.47775 29.1644C6.55238 29.1472 6.62754 29.1304 6.67431 29.1528C6.69184 29.1612 6.70421 29.1904 6.71648 29.2195C6.71652 29.2197 6.71657 29.2199 6.71662 29.22C6.71745 29.222 6.7183 29.2239 6.71913 29.2259C6.84117 29.2198 6.9645 29.2117 7.08673 29.2019C7.09797 29.1962 7.10932 29.1905 7.12057 29.185C7.17548 29.1578 7.22933 29.1315 7.26648 29.0893C7.30705 29.0437 7.39769 29.0252 7.49412 29.0056C7.55737 28.9929 7.62119 28.9794 7.67551 28.9578C7.70716 28.9451 7.73217 28.9766 7.75799 29.009C7.78196 29.0392 7.80725 29.0703 7.83806 29.0669C7.85361 29.0652 7.87134 29.0554 7.89028 29.045C7.90696 29.0358 7.92461 29.026 7.94253 29.0209C7.95917 29.0161 7.9928 29.0355 8.03616 29.0602C8.06289 29.0754 8.09372 29.0927 8.12576 29.1077C8.21574 29.1001 8.30614 29.0932 8.39685 29.0874C8.41823 29.0648 8.4376 29.0345 8.45476 28.9947C8.46706 28.9662 8.47865 28.9317 8.49053 28.8965C8.5067 28.8486 8.52341 28.7991 8.5432 28.7603C8.55867 28.73 8.5742 28.719 8.58227 28.7332C8.58603 28.7398 8.58817 28.7517 8.59012 28.7624C8.59236 28.7748 8.59436 28.7858 8.59825 28.7859C8.60106 28.7859 8.60488 28.7778 8.60956 28.7679C8.61704 28.7522 8.62674 28.7319 8.63809 28.7324C8.68026 28.7341 8.72754 28.7461 8.77341 28.7578C8.82419 28.7707 8.87402 28.7833 8.91507 28.7813C8.96096 28.779 9.02263 28.8173 9.08379 28.8554C9.12636 28.882 9.16916 28.9084 9.20697 28.9213C9.24402 28.934 9.28541 28.9207 9.32553 28.9076C9.37393 28.8919 9.41952 28.8767 9.45427 28.908C9.46128 28.9144 9.46726 28.9494 9.4748 28.9933C9.48015 29.0243 9.48633 29.0599 9.49414 29.0929C9.54198 29.0976 9.58979 29.1038 9.63758 29.1111C9.63972 29.1066 9.64193 29.1021 9.64415 29.0975C9.64419 29.0974 9.64423 29.0973 9.64427 29.0971C9.69442 28.9925 9.76201 28.8492 9.82885 28.9451C9.84585 28.9694 9.85393 29.0122 9.86123 29.0507C9.8684 29.0885 9.87483 29.1223 9.88819 29.1305C9.90336 29.1399 9.92433 29.1191 9.94717 29.0965C9.97934 29.0648 10.0148 29.0293 10.0435 29.0681C10.0455 29.0708 10.0476 29.0737 10.0498 29.0766C10.0707 29.1043 10.1016 29.1453 10.129 29.2244C10.2293 29.2541 10.3293 29.2872 10.4289 29.3222C10.5957 29.3806 10.7612 29.4444 10.9281 29.5078C11.0089 29.5389 11.08 29.6488 11.1258 29.8193C11.1716 29.9899 11.1883 30.2059 11.171 30.4266C11.1538 30.6472 11.1035 30.8578 11.0304 31.019C10.9574 31.18 10.8676 31.277 10.7809 31.2943C10.6388 31.3219 10.4976 31.3493 10.3556 31.3733C10.348 31.3772 10.3403 31.381 10.3326 31.3845C10.2759 31.4106 10.2203 31.4682 10.1646 31.5259C10.1518 31.5391 10.139 31.5524 10.1262 31.5652Z" fill="#FD1E1F"/>
<path d="M13.6336 44.9678C13.6437 45.1034 13.4958 45.1806 13.4141 45.2227C13.4126 45.2236 13.4112 45.2244 13.4097 45.2252C13.3904 45.2351 13.3747 45.2474 13.3564 45.2619C13.3124 45.2967 13.2536 45.3432 13.0915 45.3975C13.0591 45.4299 13.0264 45.4608 12.9923 45.491C12.6246 45.8175 12.1941 46.0695 11.7493 46.2987C11.7449 46.303 11.7404 46.3074 11.7359 46.3119C11.6482 46.3982 11.5383 46.5049 11.4395 46.5347C11.3139 46.5726 11.2209 46.5882 11.1434 46.5994C10.7865 46.7738 10.4338 46.9484 10.1021 47.1526C9.99824 47.2165 9.89605 47.2837 9.79719 47.354C9.70511 47.4195 9.61578 47.4862 9.52601 47.5557C9.48522 47.6118 9.44896 47.6697 9.4147 47.7235C9.36696 47.7989 9.32361 47.8658 9.27841 47.908C9.17095 48.0089 9.00828 48.0663 8.88716 48.1071C8.86747 48.1138 8.84891 48.12 8.83191 48.1258C8.77718 48.1718 8.72162 48.2183 8.66707 48.2638L8.63114 48.284C8.60991 48.3004 8.58889 48.3166 8.56808 48.3329C8.55855 48.328 8.54881 48.3228 8.53888 48.3174C8.41399 48.2508 8.32993 48.2975 8.19795 48.3717C8.14055 48.4039 8.07446 48.4412 7.9918 48.4771C7.93879 48.5001 7.89019 48.4738 7.85077 48.4521C7.83904 48.4459 7.82808 48.44 7.81802 48.4359C7.78349 48.422 7.77779 48.4611 7.77064 48.5075C7.76133 48.5677 7.75104 48.6396 7.67441 48.6233C7.42921 48.5722 7.41431 48.7121 7.40552 48.8162C7.40267 48.8469 7.40031 48.8746 7.39268 48.8937C7.36717 48.9563 7.28258 48.9607 7.20462 48.9441C7.14297 48.9308 7.08965 49.0158 7.06493 49.0982C7.05521 49.1295 7.02789 49.1482 6.99615 49.1704C6.96328 49.1933 6.92612 49.2196 6.90196 49.266C6.84683 49.373 6.82683 49.4273 6.81416 49.467C6.81436 49.4695 6.81172 49.4743 6.80907 49.4791C6.79995 49.4956 6.79073 49.5114 6.78114 49.5278C6.75121 49.5794 6.70105 49.6429 6.64673 49.7067C6.5816 49.7834 6.51216 49.8589 6.46662 49.9233C6.29194 50.0118 6.12207 50.0769 5.95648 50.1351C5.87148 50.1647 5.74845 50.1185 5.61502 50.0024C5.48093 49.8864 5.34711 49.7116 5.23728 49.5146C5.12775 49.3174 5.04948 49.1119 5.01397 48.9402C4.97828 48.7687 4.98887 48.6458 5.04138 48.5937C5.14813 48.4887 5.24641 48.384 5.33137 48.2887C5.41305 48.1982 5.46776 48.1277 5.57504 48.0238C5.62661 47.9763 5.6744 47.9362 5.72239 47.8991C5.86124 47.7923 5.99451 47.7079 6.12827 47.632C6.14195 47.6243 6.15579 47.6166 6.16971 47.609C6.24653 47.4933 6.32672 47.3848 6.39198 47.3244C6.44617 47.2743 6.50599 47.2733 6.55678 47.2728C6.59212 47.2723 6.62268 47.2723 6.64487 47.2565C6.65676 47.248 6.67246 47.2349 6.69077 47.2196C6.76665 47.1561 6.89545 47.05 7.0516 47.0252C7.12044 47.0144 7.2101 47.019 7.29526 47.0239C7.4173 47.0308 7.52955 47.0386 7.56332 46.9993C7.62236 46.9304 7.72105 46.9087 7.80795 46.89C7.83329 46.8845 7.8578 46.8793 7.88016 46.873L7.84843 46.8909C7.8942 46.8768 7.92942 46.8575 7.9383 46.8216C7.95379 46.7595 7.99566 46.7553 8.05863 46.748C8.10219 46.743 8.15699 46.7357 8.21772 46.7078C8.28835 46.6753 8.35241 46.6711 8.40578 46.6681C8.48117 46.6637 8.53994 46.6587 8.57189 46.5746C8.60803 46.4806 8.65859 46.4015 8.72461 46.3782C8.75479 46.3675 8.78298 46.3455 8.81213 46.3226C8.85032 46.2926 8.89062 46.2607 8.94114 46.2504C8.98286 46.2419 9.03425 46.2591 9.07987 46.2741C9.09411 46.2788 9.10775 46.2833 9.12037 46.2867C9.14529 46.2682 9.17009 46.2494 9.19465 46.23C9.19463 46.2214 9.19437 46.2119 9.19415 46.2022C9.19314 46.153 9.19117 46.0932 9.21057 46.0485C9.24116 45.9778 9.30292 45.9628 9.36768 45.9472C9.4182 45.935 9.47117 45.9219 9.51262 45.8814C9.54073 45.8539 9.56554 45.8128 9.5901 45.772C9.62672 45.7113 9.66216 45.6517 9.7079 45.6374C9.72504 45.6321 9.75328 45.6451 9.78135 45.658C9.78151 45.6581 9.78166 45.6582 9.78181 45.6583C9.78372 45.6592 9.7856 45.66 9.7875 45.6609C9.86192 45.5773 9.93437 45.4917 10.0056 45.4049C10.0087 45.3934 10.012 45.382 10.0152 45.3707C10.031 45.3156 10.0462 45.2621 10.0405 45.2075C10.0343 45.1485 10.0787 45.076 10.1251 44.9993C10.1555 44.9491 10.1868 44.8972 10.2054 44.8464C10.2162 44.8166 10.2541 44.8224 10.2931 44.8283C10.3295 44.8339 10.367 44.8394 10.3841 44.8165C10.3927 44.805 10.397 44.7863 10.4014 44.7664C10.4054 44.7489 10.4095 44.7304 10.417 44.7149C10.424 44.7006 10.4588 44.692 10.5034 44.6807C10.5309 44.6737 10.5621 44.6656 10.5929 44.6547C10.6439 44.5895 10.6954 44.5244 10.7471 44.4603C10.744 44.4304 10.7344 44.3964 10.7166 44.3573C10.7038 44.3292 10.6862 44.2975 10.6684 44.2651C10.6441 44.221 10.6189 44.1754 10.6033 44.1353C10.5912 44.1039 10.5928 44.0859 10.608 44.0904C10.615 44.0925 10.6249 44.0993 10.6338 44.1055C10.6441 44.1126 10.6532 44.1189 10.6556 44.1164C10.6574 44.1146 10.6539 44.1064 10.6497 44.0964C10.643 44.0805 10.6344 44.06 10.6417 44.0528C10.6689 44.026 10.706 44.0033 10.7428 43.9807C10.7836 43.9556 10.8233 43.9311 10.8469 43.9024C10.8732 43.8703 10.9386 43.8556 11.0036 43.8409C11.049 43.8305 11.094 43.8203 11.1267 43.8036C11.1587 43.7874 11.1743 43.7504 11.1891 43.7146C11.207 43.6717 11.2238 43.6304 11.2679 43.6284C11.2769 43.628 11.306 43.6479 11.3426 43.6728C11.3684 43.6905 11.3981 43.7106 11.4269 43.7279C11.4597 43.6988 11.4928 43.6712 11.5273 43.6438C11.5254 43.6393 11.5234 43.6347 11.5214 43.63C11.5213 43.6299 11.5213 43.6298 11.5212 43.6297C11.4754 43.5244 11.4121 43.3809 11.5222 43.4013C11.5502 43.4065 11.5865 43.4301 11.6191 43.4513C11.6511 43.4721 11.6798 43.4907 11.694 43.4872C11.7101 43.4833 11.7075 43.455 11.7047 43.4242C11.7008 43.3809 11.6962 43.3328 11.742 43.3398C11.7451 43.3403 11.7485 43.3408 11.752 43.3413C11.785 43.3459 11.834 43.3524 11.9087 43.3874C11.9908 43.3396 12.0759 43.2933 12.1613 43.2491C12.3049 43.1744 12.4511 43.1039 12.5975 43.0314C12.6688 42.9966 12.7928 43.0207 12.9479 43.1015C13.1029 43.1828 13.2747 43.3139 13.4302 43.4715C13.5856 43.6291 13.714 43.8028 13.7902 43.9613C13.866 44.1198 13.883 44.2483 13.8419 44.3217C13.7742 44.4415 13.7061 44.5605 13.6355 44.6765C13.6336 44.6846 13.6316 44.6926 13.6294 44.7004C13.6128 44.7585 13.6212 44.8359 13.6288 44.9141C13.6305 44.9321 13.6322 44.9501 13.6336 44.9678Z" fill="#FD1E1F"/>
<path d="M22.4518 54.6247C22.5137 54.7406 22.4088 54.8583 22.3518 54.9216C22.3508 54.9228 22.3498 54.9241 22.3488 54.9253C22.3347 54.9414 22.3259 54.9564 22.315 54.9752C22.2891 55.0203 22.2537 55.0816 22.1296 55.1832C22.122 55.2017 22.1141 55.2203 22.1058 55.239C22.0969 55.2592 22.0875 55.2795 22.0777 55.2999C21.8777 55.7146 21.5982 56.091 21.3028 56.459C21.3008 56.4645 21.2987 56.4701 21.2966 56.4758C21.2564 56.5839 21.206 56.7191 21.132 56.7832C21.0377 56.865 20.963 56.9145 20.8995 56.9551C20.6636 57.2466 20.4352 57.5428 20.2467 57.8576C20.1876 57.9563 20.1324 58.057 20.082 58.16C20.0356 58.255 19.9922 58.3513 19.9513 58.4489C19.9451 58.514 19.9437 58.579 19.9427 58.6389C19.9412 58.7227 19.9395 58.7981 19.9241 58.8529C19.8869 58.9849 19.7836 59.1053 19.7068 59.1946C19.6942 59.2092 19.6824 59.2228 19.6718 59.2356C19.6442 59.3239 19.6187 59.4102 19.5919 59.4996C19.5813 59.5012 19.5704 59.5025 19.5592 59.5039C19.4197 59.5203 19.3785 59.6066 19.3136 59.7413C19.285 59.8005 19.2525 59.8676 19.2046 59.944C19.1741 59.9924 19.1193 59.9976 19.0743 60.0024C19.0611 60.0037 19.0487 60.005 19.0381 60.0072C19.0018 60.0149 19.0188 60.0506 19.039 60.0926C19.0656 60.1463 19.0956 60.2145 19.0228 60.2429C19.0042 60.2502 18.9876 60.2576 18.9727 60.2652C18.7991 60.3562 18.855 60.469 18.8986 60.5554C18.9122 60.5835 18.9243 60.6092 18.9275 60.6303C18.9381 60.6982 18.8651 60.7514 18.7887 60.7784C18.7276 60.8007 18.7221 60.9046 18.7361 60.9959C18.7419 61.0296 18.7246 61.0632 18.7041 61.1025C18.6836 61.1419 18.6578 61.1907 18.652 61.2505C18.6351 61.4053 18.6214 61.4884 18.611 61.5538C18.6082 61.5721 18.6045 61.5906 18.6017 61.6082C18.5929 61.6634 18.574 61.729 18.553 61.797C18.5282 61.8778 18.5021 61.9594 18.4893 62.0304C18.3756 62.1607 18.2465 62.2926 18.112 62.4164C18.0427 62.48 17.9105 62.4849 17.744 62.4267C17.5772 62.3685 17.3884 62.256 17.2119 62.1155C17.0354 61.9749 16.8848 61.8148 16.7857 61.6709C16.687 61.5267 16.6462 61.4141 16.6696 61.352C16.7173 61.2272 16.7574 61.1018 16.8048 60.9706C16.8622 60.8113 16.928 60.6476 17.0142 60.4914C17.0746 60.3819 17.1393 60.2731 17.2076 60.1649C17.2146 60.1538 17.2218 60.1425 17.2291 60.1311C17.2296 60.0112 17.2352 59.8912 17.2539 59.816C17.2693 59.7539 17.3172 59.7256 17.3574 59.703C17.3852 59.6871 17.41 59.6726 17.4191 59.6494C17.4242 59.6366 17.4288 59.6202 17.4348 59.5992C17.4429 59.5714 17.453 59.5368 17.467 59.4988C17.4943 59.4239 17.5383 59.335 17.6122 59.2695C17.6617 59.2246 17.7346 59.1853 17.806 59.1438C17.9066 59.0877 18.002 59.0318 18.0052 58.9839C18.0117 58.8979 18.0774 58.8278 18.1354 58.7659C18.1913 58.7059 18.2389 58.6556 18.2226 58.6039C18.2029 58.5424 18.2367 58.5155 18.2868 58.4753C18.3215 58.4475 18.3647 58.412 18.4025 58.3562C18.4465 58.2913 18.4996 58.2546 18.5441 58.2248C18.607 58.1824 18.6546 58.1498 18.6405 58.0603C18.6248 57.9612 18.63 57.867 18.6761 57.8145C18.6971 57.7905 18.7109 57.7578 18.7252 57.7238C18.7442 57.6786 18.764 57.6317 18.8032 57.5987C18.8355 57.5716 18.8889 57.5621 18.9361 57.5539C18.9508 57.5513 18.9649 57.5488 18.9776 57.5459C18.9906 57.5181 19.0033 57.4901 19.0156 57.462C19.0115 57.4544 19.0068 57.4463 19.0019 57.4378C18.9776 57.3955 18.9479 57.3434 18.9439 57.2952C18.9377 57.2188 18.9851 57.1775 19.0352 57.134C19.0743 57.1001 19.1149 57.0649 19.1329 57.0106C19.1452 56.9736 19.1484 56.9261 19.1516 56.8791C19.1562 56.8093 19.1609 56.7404 19.1952 56.7075C19.2081 56.6952 19.2391 56.6944 19.2699 56.6936C19.27 56.6936 19.2702 56.6936 19.2704 56.6936C19.2725 56.6936 19.2745 56.6935 19.2766 56.6934C19.305 56.5872 19.3317 56.4792 19.3571 56.3712C19.3549 56.3596 19.3527 56.348 19.3507 56.3366C19.3406 56.2805 19.3307 56.2262 19.3017 56.18C19.2703 56.1297 19.279 56.0452 19.2875 55.9571C19.2933 55.8989 19.2994 55.8387 19.2943 55.7852C19.2914 55.754 19.328 55.7434 19.3659 55.7322C19.4012 55.7218 19.4374 55.7112 19.4432 55.6834C19.4461 55.6694 19.442 55.6509 19.4376 55.6312C19.4338 55.6138 19.4295 55.5957 19.4299 55.5784C19.4303 55.5624 19.4583 55.5399 19.4939 55.5114C19.5159 55.4937 19.5408 55.4738 19.564 55.4517C19.5837 55.3704 19.6023 55.2929 19.6237 55.2124C19.6087 55.1865 19.5859 55.1594 19.5537 55.131C19.5305 55.1107 19.5016 55.0889 19.472 55.0667C19.4318 55.0364 19.3902 55.0051 19.3596 54.9749C19.3356 54.9514 19.3297 54.9344 19.3455 54.9321C19.3528 54.9311 19.3646 54.9333 19.3753 54.9353C19.3876 54.9376 19.3985 54.9397 19.3997 54.9363C19.4006 54.9339 19.3941 54.9278 19.3863 54.9204C19.3737 54.9085 19.3575 54.8932 19.3613 54.8836C19.3755 54.8477 19.4001 54.8125 19.4247 54.777C19.4522 54.7371 19.4788 54.6987 19.4888 54.6633C19.5 54.6237 19.5548 54.5829 19.6083 54.5447C19.6455 54.518 19.6839 54.4889 19.7071 54.4615C19.7299 54.4345 19.7296 54.3948 19.7296 54.3554C19.7297 54.3082 19.7285 54.2651 19.7687 54.2455C19.7768 54.2416 19.8115 54.2486 19.8549 54.2574C19.8856 54.2637 19.9207 54.2708 19.9539 54.2757C19.9638 54.2553 19.9738 54.2353 19.9841 54.2158C19.994 54.1967 20.0041 54.178 20.0143 54.1597C20.0108 54.1563 20.0072 54.1528 20.0035 54.1493C20.0035 54.1492 20.0034 54.1492 20.0033 54.1491C19.9203 54.07 19.8076 53.9604 19.9174 53.9375C19.9453 53.9317 19.9874 53.9408 20.0258 53.9477C20.0634 53.9548 20.097 53.9611 20.1089 53.9525C20.1223 53.9427 20.1093 53.9175 20.0951 53.8903C20.0747 53.8528 20.0533 53.8081 20.0984 53.7976C20.1015 53.7969 20.1048 53.7961 20.1082 53.7953C20.1405 53.7875 20.188 53.7761 20.2706 53.7804C20.3287 53.7069 20.3914 53.6319 20.455 53.56C20.5607 53.4408 20.6735 53.3211 20.7854 53.2034C20.8403 53.1459 20.9654 53.1259 21.1388 53.1498C21.3123 53.1738 21.5186 53.24 21.7159 53.3403C21.913 53.441 22.0932 53.5585 22.2204 53.6777C22.3473 53.7969 22.4096 53.9064 22.3988 53.9845C22.3811 54.1112 22.3624 54.2401 22.3424 54.3649C22.3437 54.3726 22.345 54.3803 22.3459 54.388C22.3525 54.4457 22.3897 54.5119 22.4267 54.5787C22.4352 54.5939 22.4438 54.6093 22.4518 54.6247Z" fill="#FD1E1F"/>
<path d="M39.8907 53.7746C40.0175 53.8132 40.0309 53.974 40.0389 54.0625C40.0391 54.0641 40.0393 54.0657 40.0395 54.0673C40.0414 54.0884 40.0469 54.1071 40.0535 54.1289C40.0688 54.1799 40.09 54.2507 40.0821 54.4168C40.1005 54.4572 40.1182 54.4988 40.1345 54.5399C40.3107 54.9872 40.4156 55.4677 40.5129 55.9581C40.5159 55.9636 40.5189 55.9691 40.522 55.9747C40.5805 56.0822 40.6542 56.2164 40.6573 56.3192C40.6617 56.4508 40.6533 56.5441 40.6452 56.6226C40.727 57.0136 40.8209 57.4002 40.9588 57.7686C41.0023 57.8845 41.0495 57.9972 41.1023 58.1085C41.1506 58.2104 41.2027 58.3117 41.2572 58.4107C41.3065 58.46 41.3586 58.5051 41.4066 58.546C41.4741 58.6039 41.5344 58.6555 41.5699 58.705C41.6553 58.8238 41.6921 58.9885 41.7196 59.1107C41.7241 59.1307 41.7284 59.1496 41.7326 59.1669C41.7883 59.2472 41.8451 59.3271 41.9023 59.4068C41.8973 59.4165 41.892 59.4264 41.8865 59.4366C41.837 59.5275 41.8475 59.5999 41.8849 59.6867L41.903 59.726C41.9158 59.7612 41.9324 59.7985 41.9504 59.8394C41.979 59.9041 42.0114 59.9775 42.0417 60.0706C42.0607 60.1293 42.0303 60.177 42.0055 60.216C41.9982 60.2274 41.9914 60.2381 41.9865 60.2481C41.9696 60.2825 42.0082 60.2933 42.0546 60.308C42.1148 60.3272 42.1858 60.3474 42.1632 60.4275C42.0896 60.6791 42.2276 60.7171 42.3324 60.7467C42.3632 60.7555 42.3909 60.7633 42.4095 60.7752C42.4701 60.8145 42.466 60.9084 42.44 60.9891C42.4192 61.0525 42.499 61.1306 42.5794 61.1794C42.6103 61.199 42.6255 61.2338 42.6443 61.2772C42.6633 61.3211 42.6853 61.3723 42.7298 61.4175C42.8425 61.5326 42.8996 61.5938 42.9453 61.6425C42.9585 61.6568 42.9705 61.6698 42.9826 61.6824C43.0216 61.7236 43.0616 61.7759 43.1024 61.8289C43.151 61.8918 43.2001 61.9536 43.2471 61.9929C43.2585 62.0412 43.2691 62.0882 43.2782 62.1319L43.3084 62.2003C43.3477 62.3558 43.3687 62.5016 43.3812 62.6339C43.3908 62.7375 43.3132 62.8481 43.1652 62.9462C43.0169 63.0445 42.8123 63.1255 42.5928 63.1774C42.3732 63.2292 42.1536 63.2459 41.978 63.2291C41.8024 63.2122 41.6869 63.166 41.6519 63.1061C41.6071 63.0284 41.5623 62.9641 41.5195 62.9135L41.5451 62.9716C41.5031 62.9123 41.4643 62.8551 41.4275 62.7988C41.3045 62.6104 41.2017 62.4285 41.1212 62.2382C41.0653 62.1059 41.0142 61.9702 40.9681 61.8355C40.9634 61.8217 40.9587 61.8078 40.954 61.7937C40.8564 61.7049 40.7632 61.6134 40.7141 61.5433C40.6735 61.4851 40.6809 61.4264 40.6877 61.3771C40.6923 61.3431 40.6962 61.3127 40.6834 61.2886C40.6765 61.2755 40.666 61.2596 40.653 61.2394C40.5997 61.1562 40.51 61.0174 40.5016 60.8587C40.4973 60.7871 40.5116 60.6993 40.5242 60.6133C40.5427 60.4915 40.5598 60.3778 40.5231 60.339C40.5178 60.3334 40.5128 60.3275 40.5082 60.3215L40.5282 60.3647C40.4722 60.3001 40.4536 60.2067 40.4374 60.1236C40.4203 60.0369 40.4056 59.9612 40.3532 59.9399C40.2906 59.9145 40.2879 59.8677 40.2839 59.7981C40.2811 59.7498 40.2777 59.6907 40.2535 59.6202C40.2253 59.5384 40.2271 59.4702 40.2287 59.4123C40.2311 59.331 40.2326 59.2693 40.1504 59.2189C40.0591 59.1631 39.9849 59.0937 39.9692 59.0188C39.9621 58.9847 39.9436 58.9508 39.9243 58.9154C39.8987 58.8683 39.8719 58.8188 39.8687 58.7637C39.866 58.7182 39.8908 58.6682 39.9125 58.6235C39.9193 58.6096 39.9258 58.5963 39.9311 58.5839C39.9162 58.5537 39.9011 58.5237 39.8856 58.4939C39.8769 58.492 39.8674 58.4901 39.8576 58.4882C39.8082 58.4783 39.7478 58.4664 39.706 58.4354C39.6398 58.3864 39.635 58.3185 39.6304 58.2471C39.6268 58.1915 39.6229 58.1331 39.5899 58.08C39.5674 58.0437 39.5311 58.0079 39.4948 57.9716C39.4411 57.9179 39.3882 57.8649 39.383 57.8138C39.381 57.7947 39.3995 57.7689 39.4179 57.7434C39.418 57.7432 39.4181 57.7431 39.4182 57.743C39.4195 57.7412 39.4207 57.7395 39.4219 57.7378C39.3533 57.6381 39.2834 57.54 39.2123 57.4412C39.2016 57.4348 39.191 57.4281 39.1805 57.4216C39.1293 57.3895 39.0794 57.358 39.0241 57.3475C38.964 57.3361 38.902 57.2686 38.8365 57.1967C38.7935 57.1494 38.7493 57.1007 38.7034 57.0653C38.6766 57.0448 38.691 57.0072 38.7061 56.9687C38.7201 56.9328 38.7346 56.8961 38.7161 56.8709C38.7068 56.8584 38.6895 56.848 38.671 56.8369C38.6547 56.8271 38.6375 56.8169 38.6241 56.804C38.6116 56.7919 38.6115 56.753 38.6115 56.7034C38.6115 56.6727 38.6114 56.6379 38.6086 56.6028C38.5575 56.5285 38.5067 56.4527 38.4578 56.3777C38.4277 56.3703 38.3917 56.3679 38.3485 56.3722C38.3176 56.3753 38.2818 56.3819 38.2453 56.3885C38.1955 56.3977 38.1441 56.407 38.1005 56.4084C38.0664 56.4095 38.0492 56.4011 38.0576 56.3871C38.0615 56.3805 38.0709 56.3729 38.0793 56.3659C38.089 56.3579 38.0977 56.3509 38.0959 56.3474C38.0946 56.3449 38.0856 56.3455 38.0747 56.3461C38.0573 56.3472 38.0348 56.3485 38.0297 56.3382C38.0108 56.3005 37.9981 56.2524 37.9862 56.2061C37.9728 56.1543 37.9601 56.1046 37.9384 56.0686C37.9141 56.0284 37.9184 55.9554 37.923 55.883C37.9262 55.8324 37.929 55.781 37.9226 55.7412C37.9163 55.702 37.8852 55.6715 37.8549 55.6416C37.8184 55.6054 37.7833 55.5706 37.795 55.5248C37.7973 55.5156 37.8257 55.494 37.8611 55.4671C37.8863 55.448 37.915 55.4262 37.9408 55.4041C37.923 55.3591 37.9063 55.3126 37.8912 55.2665C37.8862 55.2666 37.8811 55.2666 37.876 55.2667C37.8759 55.2668 37.8758 55.2668 37.8757 55.2668C37.7596 55.2692 37.6006 55.2718 37.6557 55.1671C37.6698 55.1406 37.7044 55.1141 37.7356 55.0903C37.7662 55.067 37.7936 55.0461 37.795 55.0303C37.7966 55.0124 37.7688 55.003 37.7382 54.9919C37.6953 54.9765 37.6475 54.9592 37.6696 54.9157C37.6711 54.9127 37.6728 54.9095 37.6744 54.9062C37.69 54.8748 37.7132 54.8285 37.7725 54.7693C37.7549 54.6635 37.742 54.5587 37.7309 54.4511C37.7131 54.2732 37.7022 54.0918 37.6938 53.9112C37.6898 53.8228 37.7633 53.7134 37.9032 53.6054C38.0433 53.4977 38.2377 53.4024 38.4486 53.3354C38.6596 53.2684 38.8728 53.2335 39.0483 53.2352C39.2238 53.2374 39.3454 53.2749 39.3933 53.3412C39.4709 53.4491 39.5494 53.5559 39.6263 53.6643C39.6329 53.6691 39.6394 53.674 39.6455 53.6789C39.6912 53.7148 39.7654 53.737 39.8398 53.7592C39.8568 53.7643 39.874 53.7694 39.8907 53.7746Z" fill="#FD1E1F"/>
<path d="M52.2625 44.0814C52.3903 44.008 52.5656 44.104 52.6631 44.1571C52.6649 44.1581 52.6667 44.159 52.6685 44.1599C52.692 44.1726 52.7144 44.1807 52.7411 44.1901C52.8047 44.2126 52.8907 44.243 53.0559 44.3617C53.1094 44.3747 53.1628 44.3889 53.2165 44.4046C53.7922 44.5729 54.3422 44.827 54.8864 45.0991C54.8938 45.1007 54.9014 45.1024 54.9091 45.1041C55.0562 45.1364 55.2391 45.1768 55.3398 45.2474C55.4695 45.3375 55.5517 45.4097 55.6207 45.4716C56.0516 45.6895 56.4861 45.9 56.9315 46.0684C57.0713 46.1212 57.212 46.1698 57.355 46.2135C57.4859 46.2535 57.6191 46.2909 57.7516 46.325C57.8134 46.326 57.874 46.3242 57.9319 46.3218L57.9506 46.3278C57.9714 46.3277 57.9917 46.3275 58.0114 46.3273C58.119 46.326 58.2169 46.3263 58.2913 46.3415C58.4728 46.3788 58.6562 46.4885 58.7917 46.5728C58.8141 46.5867 58.8342 46.5994 58.854 46.6115C58.9755 46.644 59.0969 46.6772 59.2184 46.712C59.2226 46.7234 59.2267 46.7352 59.2308 46.7472C59.2814 46.897 59.4004 46.9478 59.5807 47.028C59.659 47.0628 59.7485 47.1029 59.8479 47.1578C59.912 47.1932 59.9266 47.251 59.9384 47.2981C59.9419 47.312 59.9452 47.325 59.9495 47.3362C59.9646 47.3748 60.0048 47.3586 60.0532 47.3398C60.0792 47.3293 60.1075 47.318 60.1353 47.3142C60.1725 47.3086 60.2096 47.3177 60.2365 47.3624C60.3874 47.6093 60.5315 47.5479 60.6374 47.5006C60.6692 47.4869 60.697 47.4742 60.722 47.4712C60.803 47.4615 60.8798 47.5375 60.929 47.6181C60.9681 47.682 61.0964 47.6886 61.203 47.6733C61.2428 47.6673 61.2873 47.6853 61.3383 47.706C61.3919 47.7277 61.4534 47.7528 61.5281 47.7586C61.717 47.773 61.8174 47.7837 61.8969 47.7919C61.9197 47.7943 61.9414 47.7969 61.9624 47.7989C62.0295 47.8056 62.1099 47.8215 62.1916 47.8379C62.2888 47.8572 62.3883 47.8772 62.4678 47.8818C62.6371 47.983 62.8045 48.0909 62.9712 48.1988C63.0567 48.2544 63.1062 48.3853 63.1065 48.5666C63.1063 48.7479 63.058 48.9639 62.9697 49.1715C62.8814 49.3791 62.7593 49.5637 62.6296 49.69C62.4996 49.8161 62.3723 49.8722 62.274 49.8502C62.0759 49.8054 61.8771 49.7609 61.6814 49.71C61.4427 49.6479 61.2077 49.576 60.9816 49.4819C60.823 49.416 60.6667 49.3451 60.5113 49.2697C60.4952 49.2619 60.4792 49.254 60.4632 49.2462C60.3081 49.2416 60.1547 49.2319 60.0528 49.2084C59.9686 49.189 59.9228 49.1372 59.8841 49.0932C59.8567 49.0625 59.8336 49.0358 59.8021 49.025C59.7851 49.0192 59.7616 49.0128 59.7334 49.0051C59.6564 48.984 59.5438 48.9528 59.4324 48.897C59.3744 48.8679 59.3188 48.8332 59.2682 48.7901C59.2028 48.734 59.1362 48.6514 59.0743 48.5731C58.9858 48.4611 58.9063 48.3583 58.8462 48.3515C58.7405 48.3394 58.6486 48.2685 58.5662 48.2068C58.4878 48.148 58.4185 48.0976 58.3607 48.1148C58.291 48.1351 58.2543 48.1007 58.1965 48.0492C58.1574 48.0139 58.1074 47.9701 58.0321 47.9323C57.9448 47.8886 57.8902 47.8356 57.8434 47.7905C57.7772 47.7271 57.7268 47.6796 57.6211 47.6985C57.5744 47.7065 57.53 47.712 57.4858 47.7121L57.5023 47.7174C57.4337 47.7193 57.3713 47.7097 57.3233 47.6834C57.2873 47.6636 57.2433 47.6522 57.1966 47.6401C57.135 47.6242 57.0705 47.6074 57.0186 47.5698C56.9759 47.5389 56.9488 47.4848 56.925 47.437C56.9176 47.4221 56.9105 47.4078 56.9033 47.395C56.8649 47.3839 56.8265 47.373 56.788 47.3626C56.7798 47.3675 56.7711 47.373 56.7619 47.3786C56.7163 47.407 56.6596 47.4415 56.6005 47.4493C56.507 47.4617 56.4428 47.4166 56.3739 47.3685C56.3205 47.3311 56.2653 47.2923 56.1928 47.2782C56.1429 47.2685 56.0828 47.269 56.0235 47.2696C55.9357 47.2705 55.848 47.2711 55.7975 47.2387C55.7785 47.2265 55.7687 47.1948 55.759 47.1633C55.7589 47.1631 55.7589 47.1629 55.7589 47.1627C55.7582 47.1606 55.7575 47.1585 55.7569 47.1564C55.616 47.1358 55.4751 47.1174 55.3326 47.1C55.3189 47.1033 55.305 47.1064 55.2914 47.1095C55.2244 47.1244 55.1603 47.1392 55.1103 47.1725C55.0563 47.2087 54.9495 47.2071 54.8369 47.2055C54.7626 47.2043 54.6863 47.2032 54.6213 47.2128C54.5832 47.2184 54.5589 47.1816 54.5345 47.1438C54.5116 47.1085 54.4882 47.0724 54.452 47.0688C54.4339 47.067 54.412 47.0728 54.3887 47.0789C54.3681 47.0843 54.3461 47.09 54.3246 47.0911C54.3047 47.0921 54.269 47.0654 54.2234 47.0313C54.1952 47.0103 54.1637 46.9866 54.1286 46.9644C54.0229 46.9515 53.9194 46.9385 53.8142 46.9238C53.7863 46.9414 53.7591 46.967 53.733 47.0025C53.7144 47.0279 53.6956 47.0594 53.6764 47.0916C53.6502 47.1353 53.6233 47.1806 53.5943 47.2145C53.5715 47.2409 53.5518 47.2483 53.5447 47.2324C53.5414 47.225 53.5408 47.2127 53.5402 47.2016C53.5396 47.1889 53.539 47.1776 53.5346 47.1766C53.5313 47.1759 53.5256 47.1831 53.5187 47.1918C53.5075 47.2057 53.4931 47.2236 53.4802 47.2205C53.4316 47.2091 53.381 47.1871 53.3291 47.1648C53.2721 47.1402 53.2169 47.1164 53.1697 47.1091C53.1164 47.1008 53.0515 47.0488 52.9878 46.9972C52.9436 46.9613 52.8974 46.925 52.8563 46.9035C52.8156 46.8824 52.767 46.8864 52.7181 46.8898C52.6599 46.8941 52.6044 46.8985 52.57 46.8596C52.563 46.8516 52.5622 46.8157 52.5606 46.7706C52.5595 46.7386 52.5582 46.702 52.5547 46.6676C52.5001 46.6516 52.4467 46.6346 52.3935 46.6163C52.3902 46.6202 52.3869 46.6242 52.3836 46.6282C52.3835 46.6283 52.3835 46.6284 52.3834 46.6285C52.3078 46.72 52.2051 46.8455 52.145 46.7353C52.1293 46.7071 52.1272 46.663 52.1253 46.6233C52.1235 46.5843 52.1219 46.5494 52.1079 46.5381C52.0921 46.5253 52.0646 46.5409 52.0347 46.5579C51.9932 46.5819 51.945 46.6081 51.9186 46.5629C51.9168 46.5599 51.9149 46.5565 51.9128 46.5531C51.8935 46.5208 51.8651 46.4731 51.8478 46.3886C51.7368 46.3351 51.6277 46.2787 51.5203 46.2205C51.339 46.1228 51.1596 46.0195 50.9802 45.9163C50.8946 45.8663 50.832 45.7402 50.8114 45.5612C50.7903 45.3819 50.8134 45.1659 50.8744 44.9531C50.9357 44.7404 51.0309 44.5453 51.1441 44.4046C51.2569 44.264 51.3772 44.1906 51.4767 44.1939C51.6419 44.2007 51.8057 44.2071 51.9698 44.2169C51.9791 44.2148 51.9884 44.2128 51.9976 44.2111C52.0663 44.1987 52.1395 44.1551 52.2121 44.1112C52.2288 44.1011 52.2457 44.091 52.2625 44.0814Z" fill="#FD1E1F"/>
</svg>
